ISO-10303-21;
HEADER;
/* Generated by software containing ST-Developer
 * from STEP Tools, Inc. (www.steptools.com) 
 */

FILE_DESCRIPTION(
/* description */ (''),
/* implementation_level */ '2;1');

FILE_NAME(
/* name */ 'bumper_vertical_v003.step',
/* time_stamp */ '2026-08-24T08:06:21+04:00',
/* author */ (''),
/* organization */ (''),
/* preprocessor_version */ 'ST-DEVELOPER v20.1',
/* originating_system */ 'Autodesk Translation Framework v15.8.0.0',
/* authorisation */ '');

FILE_SCHEMA (('AUTOMOTIVE_DESIGN { 1 0 10303 214 3 1 1 }'));
ENDSEC;

DATA;
#10=MECHANICAL_DESIGN_GEOMETRIC_PRESENTATION_REPRESENTATION('',(#13),#627);
#11=SHAPE_REPRESENTATION_RELATIONSHIP('SRR','None',#634,#12);
#12=ADVANCED_BREP_SHAPE_REPRESENTATION('',(#14),#626);
#13=STYLED_ITEM('',(#643),#14);
#14=MANIFOLD_SOLID_BREP('Body1',#389);
#15=FACE_OUTER_BOUND('',#35,.T.);
#16=FACE_OUTER_BOUND('',#36,.T.);
#17=FACE_OUTER_BOUND('',#37,.T.);
#18=FACE_OUTER_BOUND('',#38,.T.);
#19=FACE_OUTER_BOUND('',#39,.T.);
#20=FACE_OUTER_BOUND('',#40,.T.);
#21=FACE_OUTER_BOUND('',#41,.T.);
#22=FACE_OUTER_BOUND('',#42,.T.);
#23=FACE_OUTER_BOUND('',#43,.T.);
#24=FACE_OUTER_BOUND('',#44,.T.);
#25=FACE_OUTER_BOUND('',#45,.T.);
#26=FACE_OUTER_BOUND('',#46,.T.);
#27=FACE_OUTER_BOUND('',#47,.T.);
#28=FACE_OUTER_BOUND('',#48,.T.);
#29=FACE_OUTER_BOUND('',#49,.T.);
#30=FACE_OUTER_BOUND('',#50,.T.);
#31=FACE_OUTER_BOUND('',#51,.T.);
#32=FACE_OUTER_BOUND('',#52,.T.);
#33=FACE_OUTER_BOUND('',#53,.T.);
#34=FACE_OUTER_BOUND('',#54,.T.);
#35=EDGE_LOOP('',(#245,#246,#247,#248));
#36=EDGE_LOOP('',(#249,#250,#251,#252));
#37=EDGE_LOOP('',(#253,#254,#255,#256));
#38=EDGE_LOOP('',(#257,#258,#259,#260));
#39=EDGE_LOOP('',(#261,#262,#263,#264));
#40=EDGE_LOOP('',(#265,#266,#267,#268));
#41=EDGE_LOOP('',(#269,#270,#271,#272));
#42=EDGE_LOOP('',(#273,#274,#275,#276));
#43=EDGE_LOOP('',(#277,#278,#279,#280));
#44=EDGE_LOOP('',(#281,#282,#283,#284));
#45=EDGE_LOOP('',(#285,#286,#287,#288));
#46=EDGE_LOOP('',(#289,#290,#291,#292,#293));
#47=EDGE_LOOP('',(#294,#295,#296,#297));
#48=EDGE_LOOP('',(#298,#299,#300,#301));
#49=EDGE_LOOP('',(#302,#303,#304,#305));
#50=EDGE_LOOP('',(#306,#307,#308,#309));
#51=EDGE_LOOP('',(#310,#311,#312,#313,#314,#315,#316,#317,#318,#319,#320,
#321,#322,#323));
#52=EDGE_LOOP('',(#324,#325,#326,#327,#328));
#53=EDGE_LOOP('',(#329,#330,#331,#332,#333,#334,#335,#336,#337,#338,#339,
#340,#341,#342,#343,#344));
#54=EDGE_LOOP('',(#345,#346,#347,#348));
#55=LINE('',#521,#107);
#56=LINE('',#523,#108);
#57=LINE('',#525,#109);
#58=LINE('',#526,#110);
#59=LINE('',#529,#111);
#60=LINE('',#531,#112);
#61=LINE('',#532,#113);
#62=LINE('',#536,#114);
#63=LINE('',#538,#115);
#64=LINE('',#540,#116);
#65=LINE('',#541,#117);
#66=LINE('',#544,#118);
#67=LINE('',#546,#119);
#68=LINE('',#547,#120);
#69=LINE('',#550,#121);
#70=LINE('',#551,#122);
#71=LINE('',#555,#123);
#72=LINE('',#557,#124);
#73=LINE('',#559,#125);
#74=LINE('',#560,#126);
#75=LINE('',#563,#127);
#76=LINE('',#565,#128);
#77=LINE('',#566,#129);
#78=LINE('',#569,#130);
#79=LINE('',#570,#131);
#80=LINE('',#572,#132);
#81=LINE('',#573,#133);
#82=LINE('',#577,#134);
#83=LINE('',#579,#135);
#84=LINE('',#581,#136);
#85=LINE('',#582,#137);
#86=LINE('',#585,#138);
#87=LINE('',#587,#139);
#88=LINE('',#588,#140);
#89=LINE('',#592,#141);
#90=LINE('',#593,#142);
#91=LINE('',#594,#143);
#92=LINE('',#597,#144);
#93=LINE('',#599,#145);
#94=LINE('',#600,#146);
#95=LINE('',#602,#147);
#96=LINE('',#603,#148);
#97=LINE('',#605,#149);
#98=LINE('',#606,#150);
#99=LINE('',#610,#151);
#100=LINE('',#611,#152);
#101=LINE('',#612,#153);
#102=LINE('',#615,#154);
#103=LINE('',#616,#155);
#104=LINE('',#619,#156);
#105=LINE('',#620,#157);
#106=LINE('',#622,#158);
#107=VECTOR('',#427,10.);
#108=VECTOR('',#428,10.);
#109=VECTOR('',#429,10.);
#110=VECTOR('',#430,10.);
#111=VECTOR('',#433,10.);
#112=VECTOR('',#434,10.);
#113=VECTOR('',#435,10.);
#114=VECTOR('',#438,10.);
#115=VECTOR('',#439,10.);
#116=VECTOR('',#440,10.);
#117=VECTOR('',#441,10.);
#118=VECTOR('',#444,10.);
#119=VECTOR('',#445,10.);
#120=VECTOR('',#446,10.);
#121=VECTOR('',#449,10.);
#122=VECTOR('',#450,10.);
#123=VECTOR('',#453,10.);
#124=VECTOR('',#454,10.);
#125=VECTOR('',#455,10.);
#126=VECTOR('',#456,10.);
#127=VECTOR('',#459,10.);
#128=VECTOR('',#460,10.);
#129=VECTOR('',#461,10.);
#130=VECTOR('',#464,10.);
#131=VECTOR('',#465,10.);
#132=VECTOR('',#468,10.);
#133=VECTOR('',#469,10.);
#134=VECTOR('',#472,10.);
#135=VECTOR('',#473,10.);
#136=VECTOR('',#474,10.);
#137=VECTOR('',#475,10.);
#138=VECTOR('',#478,10.);
#139=VECTOR('',#479,10.);
#140=VECTOR('',#480,10.);
#141=VECTOR('',#483,10.);
#142=VECTOR('',#484,10.);
#143=VECTOR('',#485,10.);
#144=VECTOR('',#488,10.);
#145=VECTOR('',#489,10.);
#146=VECTOR('',#490,10.);
#147=VECTOR('',#493,10.);
#148=VECTOR('',#494,10.);
#149=VECTOR('',#497,10.);
#150=VECTOR('',#498,10.);
#151=VECTOR('',#501,10.);
#152=VECTOR('',#502,10.);
#153=VECTOR('',#503,10.);
#154=VECTOR('',#506,10.);
#155=VECTOR('',#507,10.);
#156=VECTOR('',#510,10.);
#157=VECTOR('',#511,10.);
#158=VECTOR('',#514,10.);
#159=VERTEX_POINT('',#519);
#160=VERTEX_POINT('',#520);
#161=VERTEX_POINT('',#522);
#162=VERTEX_POINT('',#524);
#163=VERTEX_POINT('',#528);
#164=VERTEX_POINT('',#530);
#165=VERTEX_POINT('',#534);
#166=VERTEX_POINT('',#535);
#167=VERTEX_POINT('',#537);
#168=VERTEX_POINT('',#539);
#169=VERTEX_POINT('',#543);
#170=VERTEX_POINT('',#545);
#171=VERTEX_POINT('',#549);
#172=VERTEX_POINT('',#553);
#173=VERTEX_POINT('',#554);
#174=VERTEX_POINT('',#556);
#175=VERTEX_POINT('',#558);
#176=VERTEX_POINT('',#562);
#177=VERTEX_POINT('',#564);
#178=VERTEX_POINT('',#568);
#179=VERTEX_POINT('',#575);
#180=VERTEX_POINT('',#576);
#181=VERTEX_POINT('',#578);
#182=VERTEX_POINT('',#580);
#183=VERTEX_POINT('',#584);
#184=VERTEX_POINT('',#586);
#185=VERTEX_POINT('',#590);
#186=VERTEX_POINT('',#591);
#187=VERTEX_POINT('',#596);
#188=VERTEX_POINT('',#598);
#189=VERTEX_POINT('',#608);
#190=VERTEX_POINT('',#609);
#191=VERTEX_POINT('',#614);
#192=VERTEX_POINT('',#618);
#193=EDGE_CURVE('',#159,#160,#55,.T.);
#194=EDGE_CURVE('',#159,#161,#56,.T.);
#195=EDGE_CURVE('',#162,#161,#57,.T.);
#196=EDGE_CURVE('',#160,#162,#58,.T.);
#197=EDGE_CURVE('',#161,#163,#59,.T.);
#198=EDGE_CURVE('',#163,#164,#60,.T.);
#199=EDGE_CURVE('',#164,#162,#61,.T.);
#200=EDGE_CURVE('',#165,#166,#62,.T.);
#201=EDGE_CURVE('',#165,#167,#63,.T.);
#202=EDGE_CURVE('',#168,#167,#64,.T.);
#203=EDGE_CURVE('',#166,#168,#65,.T.);
#204=EDGE_CURVE('',#165,#169,#66,.T.);
#205=EDGE_CURVE('',#169,#170,#67,.T.);
#206=EDGE_CURVE('',#167,#170,#68,.T.);
#207=EDGE_CURVE('',#170,#171,#69,.T.);
#208=EDGE_CURVE('',#171,#168,#70,.T.);
#209=EDGE_CURVE('',#172,#173,#71,.T.);
#210=EDGE_CURVE('',#173,#174,#72,.T.);
#211=EDGE_CURVE('',#175,#174,#73,.T.);
#212=EDGE_CURVE('',#172,#175,#74,.T.);
#213=EDGE_CURVE('',#176,#173,#75,.T.);
#214=EDGE_CURVE('',#176,#177,#76,.T.);
#215=EDGE_CURVE('',#174,#177,#77,.T.);
#216=EDGE_CURVE('',#177,#178,#78,.T.);
#217=EDGE_CURVE('',#178,#175,#79,.T.);
#218=EDGE_CURVE('',#166,#176,#80,.T.);
#219=EDGE_CURVE('',#173,#165,#81,.T.);
#220=EDGE_CURVE('',#179,#180,#82,.T.);
#221=EDGE_CURVE('',#179,#181,#83,.T.);
#222=EDGE_CURVE('',#182,#181,#84,.T.);
#223=EDGE_CURVE('',#180,#182,#85,.T.);
#224=EDGE_CURVE('',#181,#183,#86,.T.);
#225=EDGE_CURVE('',#183,#184,#87,.T.);
#226=EDGE_CURVE('',#184,#182,#88,.T.);
#227=EDGE_CURVE('',#185,#186,#89,.T.);
#228=EDGE_CURVE('',#185,#171,#90,.T.);
#229=EDGE_CURVE('',#186,#169,#91,.T.);
#230=EDGE_CURVE('',#186,#187,#92,.T.);
#231=EDGE_CURVE('',#187,#188,#93,.T.);
#232=EDGE_CURVE('',#188,#185,#94,.T.);
#233=EDGE_CURVE('',#187,#184,#95,.T.);
#234=EDGE_CURVE('',#188,#183,#96,.T.);
#235=EDGE_CURVE('',#160,#179,#97,.T.);
#236=EDGE_CURVE('',#180,#159,#98,.T.);
#237=EDGE_CURVE('',#189,#190,#99,.T.);
#238=EDGE_CURVE('',#190,#164,#100,.T.);
#239=EDGE_CURVE('',#189,#163,#101,.T.);
#240=EDGE_CURVE('',#191,#189,#102,.T.);
#241=EDGE_CURVE('',#191,#172,#103,.T.);
#242=EDGE_CURVE('',#192,#191,#104,.T.);
#243=EDGE_CURVE('',#192,#178,#105,.T.);
#244=EDGE_CURVE('',#190,#192,#106,.T.);
#245=ORIENTED_EDGE('',*,*,#193,.F.);
#246=ORIENTED_EDGE('',*,*,#194,.T.);
#247=ORIENTED_EDGE('',*,*,#195,.F.);
#248=ORIENTED_EDGE('',*,*,#196,.F.);
#249=ORIENTED_EDGE('',*,*,#197,.T.);
#250=ORIENTED_EDGE('',*,*,#198,.T.);
#251=ORIENTED_EDGE('',*,*,#199,.T.);
#252=ORIENTED_EDGE('',*,*,#195,.T.);
#253=ORIENTED_EDGE('',*,*,#200,.F.);
#254=ORIENTED_EDGE('',*,*,#201,.T.);
#255=ORIENTED_EDGE('',*,*,#202,.F.);
#256=ORIENTED_EDGE('',*,*,#203,.F.);
#257=ORIENTED_EDGE('',*,*,#204,.T.);
#258=ORIENTED_EDGE('',*,*,#205,.T.);
#259=ORIENTED_EDGE('',*,*,#206,.F.);
#260=ORIENTED_EDGE('',*,*,#201,.F.);
#261=ORIENTED_EDGE('',*,*,#206,.T.);
#262=ORIENTED_EDGE('',*,*,#207,.T.);
#263=ORIENTED_EDGE('',*,*,#208,.T.);
#264=ORIENTED_EDGE('',*,*,#202,.T.);
#265=ORIENTED_EDGE('',*,*,#209,.T.);
#266=ORIENTED_EDGE('',*,*,#210,.T.);
#267=ORIENTED_EDGE('',*,*,#211,.F.);
#268=ORIENTED_EDGE('',*,*,#212,.F.);
#269=ORIENTED_EDGE('',*,*,#213,.F.);
#270=ORIENTED_EDGE('',*,*,#214,.T.);
#271=ORIENTED_EDGE('',*,*,#215,.F.);
#272=ORIENTED_EDGE('',*,*,#210,.F.);
#273=ORIENTED_EDGE('',*,*,#215,.T.);
#274=ORIENTED_EDGE('',*,*,#216,.T.);
#275=ORIENTED_EDGE('',*,*,#217,.T.);
#276=ORIENTED_EDGE('',*,*,#211,.T.);
#277=ORIENTED_EDGE('',*,*,#200,.T.);
#278=ORIENTED_EDGE('',*,*,#218,.T.);
#279=ORIENTED_EDGE('',*,*,#213,.T.);
#280=ORIENTED_EDGE('',*,*,#219,.T.);
#281=ORIENTED_EDGE('',*,*,#220,.F.);
#282=ORIENTED_EDGE('',*,*,#221,.T.);
#283=ORIENTED_EDGE('',*,*,#222,.F.);
#284=ORIENTED_EDGE('',*,*,#223,.F.);
#285=ORIENTED_EDGE('',*,*,#224,.T.);
#286=ORIENTED_EDGE('',*,*,#225,.T.);
#287=ORIENTED_EDGE('',*,*,#226,.T.);
#288=ORIENTED_EDGE('',*,*,#222,.T.);
#289=ORIENTED_EDGE('',*,*,#227,.F.);
#290=ORIENTED_EDGE('',*,*,#228,.T.);
#291=ORIENTED_EDGE('',*,*,#207,.F.);
#292=ORIENTED_EDGE('',*,*,#205,.F.);
#293=ORIENTED_EDGE('',*,*,#229,.F.);
#294=ORIENTED_EDGE('',*,*,#227,.T.);
#295=ORIENTED_EDGE('',*,*,#230,.T.);
#296=ORIENTED_EDGE('',*,*,#231,.T.);
#297=ORIENTED_EDGE('',*,*,#232,.T.);
#298=ORIENTED_EDGE('',*,*,#231,.F.);
#299=ORIENTED_EDGE('',*,*,#233,.T.);
#300=ORIENTED_EDGE('',*,*,#225,.F.);
#301=ORIENTED_EDGE('',*,*,#234,.F.);
#302=ORIENTED_EDGE('',*,*,#193,.T.);
#303=ORIENTED_EDGE('',*,*,#235,.T.);
#304=ORIENTED_EDGE('',*,*,#220,.T.);
#305=ORIENTED_EDGE('',*,*,#236,.T.);
#306=ORIENTED_EDGE('',*,*,#237,.T.);
#307=ORIENTED_EDGE('',*,*,#238,.T.);
#308=ORIENTED_EDGE('',*,*,#198,.F.);
#309=ORIENTED_EDGE('',*,*,#239,.F.);
#310=ORIENTED_EDGE('',*,*,#240,.T.);
#311=ORIENTED_EDGE('',*,*,#239,.T.);
#312=ORIENTED_EDGE('',*,*,#197,.F.);
#313=ORIENTED_EDGE('',*,*,#194,.F.);
#314=ORIENTED_EDGE('',*,*,#236,.F.);
#315=ORIENTED_EDGE('',*,*,#223,.T.);
#316=ORIENTED_EDGE('',*,*,#226,.F.);
#317=ORIENTED_EDGE('',*,*,#233,.F.);
#318=ORIENTED_EDGE('',*,*,#230,.F.);
#319=ORIENTED_EDGE('',*,*,#229,.T.);
#320=ORIENTED_EDGE('',*,*,#204,.F.);
#321=ORIENTED_EDGE('',*,*,#219,.F.);
#322=ORIENTED_EDGE('',*,*,#209,.F.);
#323=ORIENTED_EDGE('',*,*,#241,.F.);
#324=ORIENTED_EDGE('',*,*,#242,.T.);
#325=ORIENTED_EDGE('',*,*,#241,.T.);
#326=ORIENTED_EDGE('',*,*,#212,.T.);
#327=ORIENTED_EDGE('',*,*,#217,.F.);
#328=ORIENTED_EDGE('',*,*,#243,.F.);
#329=ORIENTED_EDGE('',*,*,#244,.T.);
#330=ORIENTED_EDGE('',*,*,#243,.T.);
#331=ORIENTED_EDGE('',*,*,#216,.F.);
#332=ORIENTED_EDGE('',*,*,#214,.F.);
#333=ORIENTED_EDGE('',*,*,#218,.F.);
#334=ORIENTED_EDGE('',*,*,#203,.T.);
#335=ORIENTED_EDGE('',*,*,#208,.F.);
#336=ORIENTED_EDGE('',*,*,#228,.F.);
#337=ORIENTED_EDGE('',*,*,#232,.F.);
#338=ORIENTED_EDGE('',*,*,#234,.T.);
#339=ORIENTED_EDGE('',*,*,#224,.F.);
#340=ORIENTED_EDGE('',*,*,#221,.F.);
#341=ORIENTED_EDGE('',*,*,#235,.F.);
#342=ORIENTED_EDGE('',*,*,#196,.T.);
#343=ORIENTED_EDGE('',*,*,#199,.F.);
#344=ORIENTED_EDGE('',*,*,#238,.F.);
#345=ORIENTED_EDGE('',*,*,#244,.F.);
#346=ORIENTED_EDGE('',*,*,#237,.F.);
#347=ORIENTED_EDGE('',*,*,#240,.F.);
#348=ORIENTED_EDGE('',*,*,#242,.F.);
#349=PLANE('',#403);
#350=PLANE('',#404);
#351=PLANE('',#405);
#352=PLANE('',#406);
#353=PLANE('',#407);
#354=PLANE('',#408);
#355=PLANE('',#409);
#356=PLANE('',#410);
#357=PLANE('',#411);
#358=PLANE('',#412);
#359=PLANE('',#413);
#360=PLANE('',#414);
#361=PLANE('',#415);
#362=PLANE('',#416);
#363=PLANE('',#417);
#364=PLANE('',#418);
#365=PLANE('',#419);
#366=PLANE('',#420);
#367=PLANE('',#421);
#368=PLANE('',#422);
#369=ADVANCED_FACE('',(#15),#349,.T.);
#370=ADVANCED_FACE('',(#16),#350,.T.);
#371=ADVANCED_FACE('',(#17),#351,.T.);
#372=ADVANCED_FACE('',(#18),#352,.T.);
#373=ADVANCED_FACE('',(#19),#353,.T.);
#374=ADVANCED_FACE('',(#20),#354,.T.);
#375=ADVANCED_FACE('',(#21),#355,.T.);
#376=ADVANCED_FACE('',(#22),#356,.T.);
#377=ADVANCED_FACE('',(#23),#357,.T.);
#378=ADVANCED_FACE('',(#24),#358,.T.);
#379=ADVANCED_FACE('',(#25),#359,.T.);
#380=ADVANCED_FACE('',(#26),#360,.T.);
#381=ADVANCED_FACE('',(#27),#361,.T.);
#382=ADVANCED_FACE('',(#28),#362,.T.);
#383=ADVANCED_FACE('',(#29),#363,.T.);
#384=ADVANCED_FACE('',(#30),#364,.T.);
#385=ADVANCED_FACE('',(#31),#365,.T.);
#386=ADVANCED_FACE('',(#32),#366,.T.);
#387=ADVANCED_FACE('',(#33),#367,.T.);
#388=ADVANCED_FACE('',(#34),#368,.F.);
#389=CLOSED_SHELL('',(#369,#370,#371,#372,#373,#374,#375,#376,#377,#378,
#379,#380,#381,#382,#383,#384,#385,#386,#387,#388));
#390=DERIVED_UNIT_ELEMENT(#392,1.);
#391=DERIVED_UNIT_ELEMENT(#629,-3.);
#392=(
MASS_UNIT()
NAMED_UNIT(*)
SI_UNIT(.KILO.,.GRAM.)
);
#393=DERIVED_UNIT((#390,#391));
#394=MEASURE_REPRESENTATION_ITEM('density measure',
POSITIVE_RATIO_MEASURE(7850.),#393);
#395=PROPERTY_DEFINITION_REPRESENTATION(#400,#397);
#396=PROPERTY_DEFINITION_REPRESENTATION(#401,#398);
#397=REPRESENTATION('material name',(#399),#626);
#398=REPRESENTATION('density',(#394),#626);
#399=DESCRIPTIVE_REPRESENTATION_ITEM('Steel','Steel');
#400=PROPERTY_DEFINITION('material property','material name',#636);
#401=PROPERTY_DEFINITION('material property','density of part',#636);
#402=AXIS2_PLACEMENT_3D('',#517,#423,#424);
#403=AXIS2_PLACEMENT_3D('',#518,#425,#426);
#404=AXIS2_PLACEMENT_3D('',#527,#431,#432);
#405=AXIS2_PLACEMENT_3D('',#533,#436,#437);
#406=AXIS2_PLACEMENT_3D('',#542,#442,#443);
#407=AXIS2_PLACEMENT_3D('',#548,#447,#448);
#408=AXIS2_PLACEMENT_3D('',#552,#451,#452);
#409=AXIS2_PLACEMENT_3D('',#561,#457,#458);
#410=AXIS2_PLACEMENT_3D('',#567,#462,#463);
#411=AXIS2_PLACEMENT_3D('',#571,#466,#467);
#412=AXIS2_PLACEMENT_3D('',#574,#470,#471);
#413=AXIS2_PLACEMENT_3D('',#583,#476,#477);
#414=AXIS2_PLACEMENT_3D('',#589,#481,#482);
#415=AXIS2_PLACEMENT_3D('',#595,#486,#487);
#416=AXIS2_PLACEMENT_3D('',#601,#491,#492);
#417=AXIS2_PLACEMENT_3D('',#604,#495,#496);
#418=AXIS2_PLACEMENT_3D('',#607,#499,#500);
#419=AXIS2_PLACEMENT_3D('',#613,#504,#505);
#420=AXIS2_PLACEMENT_3D('',#617,#508,#509);
#421=AXIS2_PLACEMENT_3D('',#621,#512,#513);
#422=AXIS2_PLACEMENT_3D('',#623,#515,#516);
#423=DIRECTION('axis',(0.,0.,1.));
#424=DIRECTION('refdir',(1.,0.,0.));
#425=DIRECTION('center_axis',(0.,1.,0.));
#426=DIRECTION('ref_axis',(-1.,0.,0.));
#427=DIRECTION('',(1.,0.,0.));
#428=DIRECTION('',(0.,0.,1.));
#429=DIRECTION('',(-1.,0.,0.));
#430=DIRECTION('',(0.,0.,1.));
#431=DIRECTION('center_axis',(0.,0.,1.));
#432=DIRECTION('ref_axis',(1.,0.,0.));
#433=DIRECTION('',(2.96059473233375E-15,-1.,0.));
#434=DIRECTION('',(1.,-6.63819774598143E-16,0.));
#435=DIRECTION('',(0.,1.,0.));
#436=DIRECTION('center_axis',(0.,1.,0.));
#437=DIRECTION('ref_axis',(-1.,0.,0.));
#438=DIRECTION('',(1.,0.,0.));
#439=DIRECTION('',(0.,0.,1.));
#440=DIRECTION('',(-1.,0.,0.));
#441=DIRECTION('',(0.,0.,1.));
#442=DIRECTION('center_axis',(-1.,-2.29247376637432E-8,0.));
#443=DIRECTION('ref_axis',(2.29247376637432E-8,-1.,0.));
#444=DIRECTION('',(0.,-1.,0.));
#445=DIRECTION('',(0.,0.,1.));
#446=DIRECTION('',(2.29247376637432E-8,-1.,0.));
#447=DIRECTION('center_axis',(0.,0.,1.));
#448=DIRECTION('ref_axis',(1.,0.,0.));
#449=DIRECTION('',(1.,2.21215984318646E-16,0.));
#450=DIRECTION('',(0.,1.,0.));
#451=DIRECTION('center_axis',(-0.999999999999999,5.07991619140095E-8,0.));
#452=DIRECTION('ref_axis',(-5.07991619140095E-8,-0.999999999999999,0.));
#453=DIRECTION('',(0.,-1.,0.));
#454=DIRECTION('',(0.,0.,1.));
#455=DIRECTION('',(-5.07991619140095E-8,-0.999999999999999,0.));
#456=DIRECTION('',(0.,0.,1.));
#457=DIRECTION('center_axis',(0.,-1.,0.));
#458=DIRECTION('ref_axis',(1.,0.,0.));
#459=DIRECTION('',(-1.,0.,0.));
#460=DIRECTION('',(0.,0.,1.));
#461=DIRECTION('',(1.,0.,0.));
#462=DIRECTION('center_axis',(0.,0.,1.));
#463=DIRECTION('ref_axis',(1.,0.,0.));
#464=DIRECTION('',(0.,1.,0.));
#465=DIRECTION('',(-1.,0.,0.));
#466=DIRECTION('center_axis',(0.,0.,1.));
#467=DIRECTION('ref_axis',(1.,0.,0.));
#468=DIRECTION('',(0.,1.,0.));
#469=DIRECTION('',(0.,-1.,0.));
#470=DIRECTION('center_axis',(0.,-1.,0.));
#471=DIRECTION('ref_axis',(1.,0.,0.));
#472=DIRECTION('',(-1.,0.,0.));
#473=DIRECTION('',(0.,0.,1.));
#474=DIRECTION('',(1.,0.,0.));
#475=DIRECTION('',(0.,0.,1.));
#476=DIRECTION('center_axis',(0.,0.,1.));
#477=DIRECTION('ref_axis',(1.,0.,0.));
#478=DIRECTION('',(0.,1.,0.));
#479=DIRECTION('',(-1.,4.42522714039735E-16,0.));
#480=DIRECTION('',(5.18104078158407E-15,-1.,0.));
#481=DIRECTION('center_axis',(0.,-1.,0.));
#482=DIRECTION('ref_axis',(1.,0.,0.));
#483=DIRECTION('',(-1.,0.,0.));
#484=DIRECTION('',(0.,0.,1.));
#485=DIRECTION('',(0.,0.,1.));
#486=DIRECTION('center_axis',(0.,0.,1.));
#487=DIRECTION('ref_axis',(1.,0.,0.));
#488=DIRECTION('',(-2.09780513373939E-16,-1.,0.));
#489=DIRECTION('',(1.,0.,0.));
#490=DIRECTION('',(3.22739251344522E-17,1.,0.));
#491=DIRECTION('center_axis',(0.,1.,0.));
#492=DIRECTION('ref_axis',(-1.,0.,0.));
#493=DIRECTION('',(0.,0.,1.));
#494=DIRECTION('',(0.,0.,1.));
#495=DIRECTION('center_axis',(0.,0.,1.));
#496=DIRECTION('ref_axis',(1.,0.,0.));
#497=DIRECTION('',(3.22739251344522E-17,1.,0.));
#498=DIRECTION('',(1.64477485129653E-15,-1.,0.));
#499=DIRECTION('center_axis',(2.22044604925031E-16,-1.,0.));
#500=DIRECTION('ref_axis',(1.,2.22044604925031E-16,0.));
#501=DIRECTION('',(1.,2.22044604925031E-16,0.));
#502=DIRECTION('',(0.,0.,1.));
#503=DIRECTION('',(0.,0.,1.));
#504=DIRECTION('center_axis',(-1.,2.09780513373939E-16,0.));
#505=DIRECTION('ref_axis',(-2.09780513373939E-16,-1.,0.));
#506=DIRECTION('',(-2.09780513373939E-16,-1.,0.));
#507=DIRECTION('',(0.,0.,1.));
#508=DIRECTION('center_axis',(2.22044604925031E-16,1.,0.));
#509=DIRECTION('ref_axis',(-1.,2.22044604925031E-16,0.));
#510=DIRECTION('',(-1.,2.22044604925031E-16,0.));
#511=DIRECTION('',(0.,0.,1.));
#512=DIRECTION('center_axis',(1.,-3.22739251344522E-17,0.));
#513=DIRECTION('ref_axis',(3.22739251344522E-17,1.,0.));
#514=DIRECTION('',(3.22739251344522E-17,1.,0.));
#515=DIRECTION('center_axis',(0.,0.,1.));
#516=DIRECTION('ref_axis',(1.,0.,0.));
#517=CARTESIAN_POINT('',(0.,0.,0.));
#518=CARTESIAN_POINT('Origin',(10.0000000000011,-32.9000000000047,3.5));
#519=CARTESIAN_POINT('',(-9.99999999999889,-32.9000000000047,3.5));
#520=CARTESIAN_POINT('',(10.0000000000011,-32.9000000000047,3.5));
#521=CARTESIAN_POINT('',(5.01742973217769,-32.9000000000047,3.5));
#522=CARTESIAN_POINT('',(-9.99999999999889,-32.9000000000047,7.5));
#523=CARTESIAN_POINT('',(-9.99999999999889,-32.9000000000047,3.5));
#524=CARTESIAN_POINT('',(10.0000000000011,-32.9000000000047,7.5));
#525=CARTESIAN_POINT('',(10.0697189287074,-32.9000000000047,7.5));
#526=CARTESIAN_POINT('',(10.0000000000011,-32.9000000000047,3.5));
#527=CARTESIAN_POINT('Origin',(1.11910480882216E-12,-33.6500000000047,7.5));
#528=CARTESIAN_POINT('',(-9.99999999999888,-34.4000000000047,7.5));
#529=CARTESIAN_POINT('',(-9.99999999999889,-32.9000000000047,7.5));
#530=CARTESIAN_POINT('',(10.0000000000011,-34.4000000000047,7.5));
#531=CARTESIAN_POINT('',(-9.99999999999888,-34.4000000000047,7.5));
#532=CARTESIAN_POINT('',(10.0000000000011,-34.4000000000047,7.5));
#533=CARTESIAN_POINT('Origin',(10.0000000000011,30.2999999999953,3.5));
#534=CARTESIAN_POINT('',(-10.000000034386,30.2999999999953,3.5));
#535=CARTESIAN_POINT('',(10.0000000000011,30.2999999999953,3.5));
#536=CARTESIAN_POINT('',(5.00000000000113,30.2999999999953,3.5));
#537=CARTESIAN_POINT('',(-10.000000034386,30.2999999999953,7.5));
#538=CARTESIAN_POINT('',(-10.000000034386,30.2999999999953,3.5));
#539=CARTESIAN_POINT('',(10.0000000000011,30.2999999999953,7.5));
#540=CARTESIAN_POINT('',(10.0749150753234,30.2999999999953,7.5));
#541=CARTESIAN_POINT('',(10.0000000000011,30.2999999999953,3.5));
#542=CARTESIAN_POINT('Origin',(-10.000000034386,30.2999999999953,3.5));
#543=CARTESIAN_POINT('',(-9.99999999999887,28.7999999999953,3.5));
#544=CARTESIAN_POINT('',(-9.99999999999887,28.7999999999953,3.5));
#545=CARTESIAN_POINT('',(-9.99999999999887,28.7999999999953,7.5));
#546=CARTESIAN_POINT('',(-9.99999999999887,28.7999999999953,3.5));
#547=CARTESIAN_POINT('',(-10.000000034386,30.2999999999953,7.5));
#548=CARTESIAN_POINT('Origin',(-1.71924230407683E-8,29.5499999999953,7.5));
#549=CARTESIAN_POINT('',(10.0000000000011,28.7999999999953,7.5));
#550=CARTESIAN_POINT('',(-9.99999999999887,28.7999999999953,7.5));
#551=CARTESIAN_POINT('',(10.0000000000011,28.7999999999953,7.5));
#552=CARTESIAN_POINT('Origin',(-9.99999999999887,34.3999999999953,3.5));
#553=CARTESIAN_POINT('',(-9.99999999999887,34.3999999999953,3.5));
#554=CARTESIAN_POINT('',(-10.0000000761976,32.8999999999953,3.5));
#555=CARTESIAN_POINT('',(-9.99999999999887,28.7999999999953,3.5));
#556=CARTESIAN_POINT('',(-10.0000000761976,32.8999999999953,7.5));
#557=CARTESIAN_POINT('',(-10.0000000761976,32.8999999999953,3.5));
#558=CARTESIAN_POINT('',(-9.99999999999887,34.3999999999953,7.5));
#559=CARTESIAN_POINT('',(-10.0000000761976,32.8999999999953,7.5));
#560=CARTESIAN_POINT('',(-9.99999999999887,34.3999999999953,3.5));
#561=CARTESIAN_POINT('Origin',(-9.99999999999887,32.8999999999953,3.5));
#562=CARTESIAN_POINT('',(10.0000000000011,32.8999999999953,3.5));
#563=CARTESIAN_POINT('',(-4.99999999999887,32.8999999999953,3.5));
#564=CARTESIAN_POINT('',(10.0000000000011,32.8999999999953,7.5));
#565=CARTESIAN_POINT('',(10.0000000000011,32.8999999999953,3.5));
#566=CARTESIAN_POINT('',(10.0000000000011,32.8999999999953,7.5));
#567=CARTESIAN_POINT('Origin',(-3.80982423386911E-8,33.6499999999953,7.5));
#568=CARTESIAN_POINT('',(10.0000000000011,34.3999999999953,7.5));
#569=CARTESIAN_POINT('',(10.0000000000011,34.3999999999953,7.5));
#570=CARTESIAN_POINT('',(-9.99999999999887,34.3999999999953,7.5));
#571=CARTESIAN_POINT('Origin',(1.13020703906841E-12,31.5999999999953,3.5));
#572=CARTESIAN_POINT('',(10.0000000000011,34.3999999999953,3.5));
#573=CARTESIAN_POINT('',(-9.99999999999887,28.7999999999953,3.5));
#574=CARTESIAN_POINT('Origin',(-9.99999999999889,-30.5000000000047,3.5));
#575=CARTESIAN_POINT('',(10.0000000000011,-30.5000000000047,3.5));
#576=CARTESIAN_POINT('',(-9.99999999999889,-30.5000000000047,3.5));
#577=CARTESIAN_POINT('',(-4.98257026782232,-30.5000000000047,3.5));
#578=CARTESIAN_POINT('',(10.0000000000011,-30.5000000000047,7.5));
#579=CARTESIAN_POINT('',(10.0000000000011,-30.5000000000047,3.5));
#580=CARTESIAN_POINT('',(-9.99999999999888,-30.5000000000047,7.5));
#581=CARTESIAN_POINT('',(10.0707984363583,-30.5000000000047,7.5));
#582=CARTESIAN_POINT('',(-9.99999999999889,-30.5000000000047,3.5));
#583=CARTESIAN_POINT('Origin',(1.11688436277291E-12,-29.7500000000047,7.5));
#584=CARTESIAN_POINT('',(10.0000000000011,-29.0000000000047,7.5));
#585=CARTESIAN_POINT('',(10.0000000000011,-34.4000000000047,7.5));
#586=CARTESIAN_POINT('',(-9.9999999999989,-29.0000000000047,7.5));
#587=CARTESIAN_POINT('',(-9.9999999999989,-29.0000000000047,7.5));
#588=CARTESIAN_POINT('',(-9.99999999999889,-30.5000000000047,7.5));
#589=CARTESIAN_POINT('Origin',(-9.99999999999887,28.7999999999953,1.5));
#590=CARTESIAN_POINT('',(10.0000000000011,28.7999999999953,1.5));
#591=CARTESIAN_POINT('',(-9.99999999999887,28.7999999999953,1.5));
#592=CARTESIAN_POINT('',(-4.99999999999887,28.7999999999953,1.5));
#593=CARTESIAN_POINT('',(10.0000000000011,28.7999999999953,1.5));
#594=CARTESIAN_POINT('',(-9.99999999999887,28.7999999999953,1.5));
#595=CARTESIAN_POINT('Origin',(1.12354570092066E-12,-4.72510919280467E-12,
1.5));
#596=CARTESIAN_POINT('',(-9.9999999999989,-29.0000000000047,1.5));
#597=CARTESIAN_POINT('',(-9.99999999999887,34.3999999999953,1.5));
#598=CARTESIAN_POINT('',(10.0000000000011,-29.0000000000047,1.5));
#599=CARTESIAN_POINT('',(5.00000000000113,-29.0000000000047,1.5));
#600=CARTESIAN_POINT('',(10.0000000000011,-34.4000000000047,1.5));
#601=CARTESIAN_POINT('Origin',(10.0000000000011,-29.0000000000047,1.5));
#602=CARTESIAN_POINT('',(-9.9999999999989,-29.0000000000047,1.5));
#603=CARTESIAN_POINT('',(10.0000000000011,-29.0000000000047,1.5));
#604=CARTESIAN_POINT('Origin',(0.0348594643542444,-31.7000000000047,3.5));
#605=CARTESIAN_POINT('',(10.0000000000011,-34.4000000000047,3.5));
#606=CARTESIAN_POINT('',(-9.9999999999989,-29.0000000000047,3.5));
#607=CARTESIAN_POINT('Origin',(-9.99999999999888,-34.4000000000047,0.));
#608=CARTESIAN_POINT('',(-9.99999999999888,-34.4000000000047,0.));
#609=CARTESIAN_POINT('',(10.0000000000011,-34.4000000000047,0.));
#610=CARTESIAN_POINT('',(-9.99999999999888,-34.4000000000047,0.));
#611=CARTESIAN_POINT('',(10.0000000000011,-34.4000000000047,0.));
#612=CARTESIAN_POINT('',(-9.99999999999888,-34.4000000000047,0.));
#613=CARTESIAN_POINT('Origin',(-9.99999999999887,34.3999999999953,0.));
#614=CARTESIAN_POINT('',(-9.99999999999887,34.3999999999953,0.));
#615=CARTESIAN_POINT('',(-9.99999999999887,34.3999999999953,0.));
#616=CARTESIAN_POINT('',(-9.99999999999887,34.3999999999953,0.));
#617=CARTESIAN_POINT('Origin',(10.0000000000011,34.3999999999953,0.));
#618=CARTESIAN_POINT('',(10.0000000000011,34.3999999999953,0.));
#619=CARTESIAN_POINT('',(10.0000000000011,34.3999999999953,0.));
#620=CARTESIAN_POINT('',(10.0000000000011,34.3999999999953,0.));
#621=CARTESIAN_POINT('Origin',(10.0000000000011,-34.4000000000047,0.));
#622=CARTESIAN_POINT('',(10.0000000000011,-34.4000000000047,0.));
#623=CARTESIAN_POINT('Origin',(1.12354570092066E-12,-4.72510919280467E-12,
0.));
#624=UNCERTAINTY_MEASURE_WITH_UNIT(LENGTH_MEASURE(0.01),#628,
'DISTANCE_ACCURACY_VALUE',
'Maximum model space distance between geometric entities at asserted c
onnectivities');
#625=UNCERTAINTY_MEASURE_WITH_UNIT(LENGTH_MEASURE(0.01),#628,
'DISTANCE_ACCURACY_VALUE',
'Maximum model space distance between geometric entities at asserted c
onnectivities');
#626=(
GEOMETRIC_REPRESENTATION_CONTEXT(3)
GLOBAL_UNCERTAINTY_ASSIGNED_CONTEXT((#624))
GLOBAL_UNIT_ASSIGNED_CONTEXT((#628,#630,#631))
REPRESENTATION_CONTEXT('','3D')
);
#627=(
GEOMETRIC_REPRESENTATION_CONTEXT(3)
GLOBAL_UNCERTAINTY_ASSIGNED_CONTEXT((#625))
GLOBAL_UNIT_ASSIGNED_CONTEXT((#628,#630,#631))
REPRESENTATION_CONTEXT('','3D')
);
#628=(
LENGTH_UNIT()
NAMED_UNIT(*)
SI_UNIT(.MILLI.,.METRE.)
);
#629=(
LENGTH_UNIT()
NAMED_UNIT(*)
SI_UNIT($,.METRE.)
);
#630=(
NAMED_UNIT(*)
PLANE_ANGLE_UNIT()
SI_UNIT($,.RADIAN.)
);
#631=(
NAMED_UNIT(*)
SI_UNIT($,.STERADIAN.)
SOLID_ANGLE_UNIT()
);
#632=SHAPE_DEFINITION_REPRESENTATION(#633,#634);
#633=PRODUCT_DEFINITION_SHAPE('',$,#636);
#634=SHAPE_REPRESENTATION('',(#402),#626);
#635=PRODUCT_DEFINITION_CONTEXT('part definition',#640,'design');
#636=PRODUCT_DEFINITION('2026-08-24-08-06-21-592','bumper_vertical',#637,
#635);
#637=PRODUCT_DEFINITION_FORMATION('',$,#642);
#638=PRODUCT_RELATED_PRODUCT_CATEGORY('bumper_vertical',
'bumper_vertical',(#642));
#639=APPLICATION_PROTOCOL_DEFINITION('international standard',
'automotive_design',2009,#640);
#640=APPLICATION_CONTEXT(
'Core Data for Automotive Mechanical Design Process');
#641=PRODUCT_CONTEXT('part definition',#640,'mechanical');
#642=PRODUCT('2026-08-24-08-06-21-592','bumper_vertical',$,(#641));
#643=PRESENTATION_STYLE_ASSIGNMENT((#644));
#644=SURFACE_STYLE_USAGE(.BOTH.,#645);
#645=SURFACE_SIDE_STYLE('',(#646));
#646=SURFACE_STYLE_FILL_AREA(#647);
#647=FILL_AREA_STYLE('Steel - Satin',(#648));
#648=FILL_AREA_STYLE_COLOUR('Steel - Satin',#649);
#649=COLOUR_RGB('Steel - Satin',0.627450980392157,0.627450980392157,0.627450980392157);
ENDSEC;
END-ISO-10303-21;
