ISO-10303-21;
HEADER;
/* Generated by software containing ST-Developer
 * from STEP Tools, Inc. (www.steptools.com) 
 */

FILE_DESCRIPTION(
/* description */ (''),
/* implementation_level */ '2;1');

FILE_NAME(
/* name */ 'profile_corners_v002.step',
/* time_stamp */ '2026-08-21T18:00:12+04:00',
/* author */ (''),
/* organization */ (''),
/* preprocessor_version */ 'ST-DEVELOPER v20.1',
/* originating_system */ 'Autodesk Translation Framework v15.8.0.0',
/* authorisation */ '');

FILE_SCHEMA (('AUTOMOTIVE_DESIGN { 1 0 10303 214 3 1 1 }'));
ENDSEC;

DATA;
#10=MECHANICAL_DESIGN_GEOMETRIC_PRESENTATION_REPRESENTATION('',(#13),#1141);
#11=SHAPE_REPRESENTATION_RELATIONSHIP('SRR','None',#1148,#12);
#12=ADVANCED_BREP_SHAPE_REPRESENTATION('',(#14),#1140);
#13=STYLED_ITEM('',(#1157),#14);
#14=MANIFOLD_SOLID_BREP('Body1',#559);
#15=TOROIDAL_SURFACE('',#597,37.8,0.2);
#16=TOROIDAL_SURFACE('',#601,33.2,0.2);
#17=TOROIDAL_SURFACE('',#605,33.2,0.2);
#18=TOROIDAL_SURFACE('',#609,36.3,0.2);
#19=CYLINDRICAL_SURFACE('',#588,36.5);
#20=CYLINDRICAL_SURFACE('',#590,38.);
#21=CYLINDRICAL_SURFACE('',#603,33.);
#22=CIRCLE('',#580,36.5);
#23=CIRCLE('',#581,36.6);
#24=CIRCLE('',#584,37.9);
#25=CIRCLE('',#586,38.);
#26=CIRCLE('',#589,36.5);
#27=CIRCLE('',#591,38.);
#28=CIRCLE('',#598,37.8);
#29=CIRCLE('',#600,33.2);
#30=CIRCLE('',#602,33.);
#31=CIRCLE('',#604,33.);
#32=CIRCLE('',#606,33.2);
#33=CIRCLE('',#608,36.3);
#34=CONICAL_SURFACE('',#579,36.55,0.785398163397437);
#35=CONICAL_SURFACE('',#585,37.95,0.785398163397415);
#36=B_SPLINE_CURVE_WITH_KNOTS('',3,(#764,#765,#766,#767,#768),
 .UNSPECIFIED.,.F.,.F.,(4,1,4),(0.,0.673623596457164,1.57145770351703),
 .UNSPECIFIED.);
#37=B_SPLINE_CURVE_WITH_KNOTS('',3,(#770,#771,#772,#773),.UNSPECIFIED.,
 .F.,.F.,(4,4),(0.,1.00000005467735),.UNSPECIFIED.);
#38=B_SPLINE_CURVE_WITH_KNOTS('',3,(#774,#775,#776,#777,#778),
 .UNSPECIFIED.,.F.,.F.,(4,1,4),(-1.57178839173338,-0.673623596457164,0.),
 .UNSPECIFIED.);
#39=B_SPLINE_CURVE_WITH_KNOTS('',3,(#806,#807,#808,#809,#810),
 .UNSPECIFIED.,.F.,.F.,(4,1,4),(1.57154934040871,2.46871694794076,3.1415926535898),
 .UNSPECIFIED.);
#40=B_SPLINE_CURVE_WITH_KNOTS('',3,(#813,#814,#815,#816,#817),
 .UNSPECIFIED.,.F.,.F.,(4,1,4),(-3.1415926535898,-2.46871694794076,-1.57192584693097),
 .UNSPECIFIED.);
#41=B_SPLINE_CURVE_WITH_KNOTS('',3,(#846,#847,#848,#849),.UNSPECIFIED.,
 .F.,.F.,(4,4),(0.,1.00000007087857),.UNSPECIFIED.);
#42=B_SPLINE_CURVE_WITH_KNOTS('',3,(#850,#851,#852,#853,#854),
 .UNSPECIFIED.,.F.,.F.,(4,1,4),(1.57192584709106,2.468716948017,3.1415926535898),
 .UNSPECIFIED.);
#43=B_SPLINE_CURVE_WITH_KNOTS('',3,(#855,#856,#857,#858,#859),
 .UNSPECIFIED.,.F.,.F.,(4,1,4),(-3.1415926535898,-2.468716948017,-1.57154934058661),
 .UNSPECIFIED.);
#44=B_SPLINE_CURVE_WITH_KNOTS('',3,(#887,#888,#889,#890,#891),
 .UNSPECIFIED.,.F.,.F.,(4,1,4),(-1.57148503322683,-0.785742516613413,5.08852219619866E-15),
 .UNSPECIFIED.);
#45=B_SPLINE_CURVE_WITH_KNOTS('',3,(#894,#895,#896,#897,#898),
 .UNSPECIFIED.,.F.,.F.,(4,1,4),(-5.08852219619866E-15,0.785742516613413,
1.57137024876755),.UNSPECIFIED.);
#46=B_SPLINE_CURVE_WITH_KNOTS('',3,(#924,#925,#926,#927),.UNSPECIFIED.,
 .F.,.F.,(4,4),(0.,0.00865731023956522),.UNSPECIFIED.);
#47=B_SPLINE_CURVE_WITH_KNOTS('',3,(#945,#946,#947,#948),.UNSPECIFIED.,
 .F.,.F.,(4,4),(0.,0.0086631232808928),.UNSPECIFIED.);
#48=B_SPLINE_CURVE_WITH_KNOTS('',3,(#992,#993,#994,#995,#996),
 .UNSPECIFIED.,.F.,.F.,(4,1,4),(-5.55111512312573E-15,0.785742516613413,
1.57148503322683),.UNSPECIFIED.);
#49=B_SPLINE_CURVE_WITH_KNOTS('',3,(#998,#999,#1000,#1001),
 .UNSPECIFIED.,.F.,.F.,(4,4),(0.,1.00000000658773),.UNSPECIFIED.);
#50=B_SPLINE_CURVE_WITH_KNOTS('',3,(#1002,#1003,#1004,#1005,#1006),
 .UNSPECIFIED.,.F.,.F.,(4,1,4),(-1.57137024883563,-0.785742516613413,5.55111512312573E-15),
 .UNSPECIFIED.);
#51=B_SPLINE_CURVE_WITH_KNOTS('',3,(#1034,#1035,#1036,#1037,#1038),
 .UNSPECIFIED.,.F.,.F.,(4,1,4),(1.57154934040871,2.46871694794076,3.1415926535898),
 .UNSPECIFIED.);
#52=B_SPLINE_CURVE_WITH_KNOTS('',3,(#1041,#1042,#1043,#1044,#1045),
 .UNSPECIFIED.,.F.,.F.,(4,1,4),(-3.1415926535898,-2.46871694794076,-1.57192584693097),
 .UNSPECIFIED.);
#53=B_SPLINE_CURVE_WITH_KNOTS('',3,(#1074,#1075,#1076,#1077),
 .UNSPECIFIED.,.F.,.F.,(4,4),(0.,1.00000007087857),.UNSPECIFIED.);
#54=B_SPLINE_CURVE_WITH_KNOTS('',3,(#1078,#1079,#1080,#1081,#1082),
 .UNSPECIFIED.,.F.,.F.,(4,1,4),(1.57192584709106,2.2444250461594,3.1415926535898),
 .UNSPECIFIED.);
#55=B_SPLINE_CURVE_WITH_KNOTS('',3,(#1083,#1084,#1085,#1086,#1087),
 .UNSPECIFIED.,.F.,.F.,(4,1,4),(-3.1415926535898,-2.2444250461594,-1.57154934058661),
 .UNSPECIFIED.);
#56=B_SPLINE_CURVE_WITH_KNOTS('',3,(#1114,#1115,#1116,#1117,#1118),
 .UNSPECIFIED.,.F.,.F.,(4,1,4),(-1.57145770351703,-0.673623596457164,9.19258231325111E-31),
 .UNSPECIFIED.);
#57=B_SPLINE_CURVE_WITH_KNOTS('',3,(#1119,#1120,#1121,#1122,#1123),
 .UNSPECIFIED.,.F.,.F.,(4,1,4),(-9.19258231325111E-31,0.673623596457164,
1.57178839162491),.UNSPECIFIED.);
#58=B_SPLINE_SURFACE_WITH_KNOTS('',3,3,((#743,#744,#745,#746,#747),(#748,
#749,#750,#751,#752),(#753,#754,#755,#756,#757),(#758,#759,#760,#761,#762)),
 .UNSPECIFIED.,.F.,.F.,.F.,(4,4),(4,1,4),(0.,1.),(-1.57178839173338,-0.673623596457164,
0.),.UNSPECIFIED.);
#59=B_SPLINE_SURFACE_WITH_KNOTS('',3,3,((#785,#786,#787,#788,#789),(#790,
#791,#792,#793,#794),(#795,#796,#797,#798,#799),(#800,#801,#802,#803,#804)),
 .UNSPECIFIED.,.F.,.F.,.F.,(4,4),(4,1,4),(0.,1.),(-3.1415926535898,-2.46871694794076,
-1.57154934040871),.UNSPECIFIED.);
#60=B_SPLINE_SURFACE_WITH_KNOTS('',3,3,((#824,#825,#826,#827,#828),(#829,
#830,#831,#832,#833),(#834,#835,#836,#837,#838),(#839,#840,#841,#842,#843)),
 .UNSPECIFIED.,.F.,.F.,.F.,(4,4),(4,1,4),(0.,1.),(1.57154934058661,2.468716948017,
3.1415926535898),.UNSPECIFIED.);
#61=B_SPLINE_SURFACE_WITH_KNOTS('',3,3,((#866,#867,#868,#869,#870),(#871,
#872,#873,#874,#875),(#876,#877,#878,#879,#880),(#881,#882,#883,#884,#885)),
 .UNSPECIFIED.,.F.,.F.,.F.,(4,4),(4,1,4),(0.,1.),(-5.08852219619866E-15,
0.785742516613413,1.57148503322683),.UNSPECIFIED.);
#62=B_SPLINE_SURFACE_WITH_KNOTS('',3,3,((#971,#972,#973,#974,#975),(#976,
#977,#978,#979,#980),(#981,#982,#983,#984,#985),(#986,#987,#988,#989,#990)),
 .UNSPECIFIED.,.F.,.F.,.F.,(4,4),(4,1,4),(0.,1.),(-1.57148503322683,-0.785742516613413,
5.55111512312573E-15),.UNSPECIFIED.);
#63=B_SPLINE_SURFACE_WITH_KNOTS('',3,3,((#1013,#1014,#1015,#1016,#1017),
(#1018,#1019,#1020,#1021,#1022),(#1023,#1024,#1025,#1026,#1027),(#1028,
#1029,#1030,#1031,#1032)),.UNSPECIFIED.,.F.,.F.,.F.,(4,4),(4,1,4),(0.,1.),
(-3.1415926535898,-2.46871694794076,-1.57154934040871),.UNSPECIFIED.);
#64=B_SPLINE_SURFACE_WITH_KNOTS('',3,3,((#1052,#1053,#1054,#1055,#1056),
(#1057,#1058,#1059,#1060,#1061),(#1062,#1063,#1064,#1065,#1066),(#1067,
#1068,#1069,#1070,#1071)),.UNSPECIFIED.,.F.,.F.,.F.,(4,4),(4,1,4),(0.,1.),
(1.57154934058661,2.2444250461594,3.1415926535898),.UNSPECIFIED.);
#65=B_SPLINE_SURFACE_WITH_KNOTS('',3,3,((#1094,#1095,#1096,#1097,#1098),
(#1099,#1100,#1101,#1102,#1103),(#1104,#1105,#1106,#1107,#1108),(#1109,
#1110,#1111,#1112,#1113)),.UNSPECIFIED.,.F.,.F.,.F.,(4,4),(4,1,4),(0.,1.),
(-9.19258231325111E-31,0.673623596457164,1.57178839173338),
 .UNSPECIFIED.);
#66=FACE_OUTER_BOUND('',#100,.T.);
#67=FACE_OUTER_BOUND('',#101,.T.);
#68=FACE_OUTER_BOUND('',#102,.T.);
#69=FACE_OUTER_BOUND('',#103,.T.);
#70=FACE_OUTER_BOUND('',#104,.T.);
#71=FACE_OUTER_BOUND('',#105,.T.);
#72=FACE_OUTER_BOUND('',#106,.T.);
#73=FACE_OUTER_BOUND('',#107,.T.);
#74=FACE_OUTER_BOUND('',#108,.T.);
#75=FACE_OUTER_BOUND('',#109,.T.);
#76=FACE_OUTER_BOUND('',#110,.T.);
#77=FACE_OUTER_BOUND('',#111,.T.);
#78=FACE_OUTER_BOUND('',#112,.T.);
#79=FACE_OUTER_BOUND('',#113,.T.);
#80=FACE_OUTER_BOUND('',#114,.T.);
#81=FACE_OUTER_BOUND('',#115,.T.);
#82=FACE_OUTER_BOUND('',#116,.T.);
#83=FACE_OUTER_BOUND('',#117,.T.);
#84=FACE_OUTER_BOUND('',#118,.T.);
#85=FACE_OUTER_BOUND('',#119,.T.);
#86=FACE_OUTER_BOUND('',#120,.T.);
#87=FACE_OUTER_BOUND('',#121,.T.);
#88=FACE_OUTER_BOUND('',#122,.T.);
#89=FACE_OUTER_BOUND('',#123,.T.);
#90=FACE_OUTER_BOUND('',#124,.T.);
#91=FACE_OUTER_BOUND('',#125,.T.);
#92=FACE_OUTER_BOUND('',#126,.T.);
#93=FACE_OUTER_BOUND('',#127,.T.);
#94=FACE_OUTER_BOUND('',#128,.T.);
#95=FACE_OUTER_BOUND('',#129,.T.);
#96=FACE_OUTER_BOUND('',#130,.T.);
#97=FACE_OUTER_BOUND('',#131,.T.);
#98=FACE_OUTER_BOUND('',#132,.T.);
#99=FACE_OUTER_BOUND('',#133,.T.);
#100=EDGE_LOOP('',(#348,#349,#350,#351,#352));
#101=EDGE_LOOP('',(#353,#354,#355,#356));
#102=EDGE_LOOP('',(#357,#358,#359,#360));
#103=EDGE_LOOP('',(#361,#362,#363,#364));
#104=EDGE_LOOP('',(#365,#366,#367,#368));
#105=EDGE_LOOP('',(#369,#370,#371,#372));
#106=EDGE_LOOP('',(#373,#374,#375,#376));
#107=EDGE_LOOP('',(#377,#378,#379,#380));
#108=EDGE_LOOP('',(#381,#382,#383,#384,#385));
#109=EDGE_LOOP('',(#386,#387,#388,#389,#390,#391,#392,#393,#394,#395));
#110=EDGE_LOOP('',(#396,#397,#398,#399,#400,#401));
#111=EDGE_LOOP('',(#402,#403,#404,#405,#406,#407));
#112=EDGE_LOOP('',(#408,#409,#410,#411));
#113=EDGE_LOOP('',(#412,#413,#414,#415,#416,#417));
#114=EDGE_LOOP('',(#418,#419,#420,#421,#422,#423));
#115=EDGE_LOOP('',(#424,#425,#426,#427));
#116=EDGE_LOOP('',(#428,#429,#430,#431));
#117=EDGE_LOOP('',(#432,#433,#434,#435,#436));
#118=EDGE_LOOP('',(#437,#438,#439,#440,#441));
#119=EDGE_LOOP('',(#442,#443,#444,#445));
#120=EDGE_LOOP('',(#446,#447,#448,#449));
#121=EDGE_LOOP('',(#450,#451,#452,#453));
#122=EDGE_LOOP('',(#454,#455,#456,#457));
#123=EDGE_LOOP('',(#458,#459,#460,#461));
#124=EDGE_LOOP('',(#462,#463,#464,#465));
#125=EDGE_LOOP('',(#466,#467,#468,#469));
#126=EDGE_LOOP('',(#470,#471,#472,#473));
#127=EDGE_LOOP('',(#474,#475,#476,#477));
#128=EDGE_LOOP('',(#478,#479,#480,#481));
#129=EDGE_LOOP('',(#482,#483,#484,#485));
#130=EDGE_LOOP('',(#486,#487,#488,#489));
#131=EDGE_LOOP('',(#490,#491,#492,#493));
#132=EDGE_LOOP('',(#494,#495,#496,#497));
#133=EDGE_LOOP('',(#498,#499,#500,#501,#502,#503,#504,#505,#506,#507));
#134=LINE('',#737,#174);
#135=LINE('',#739,#175);
#136=LINE('',#741,#176);
#137=LINE('',#742,#177);
#138=LINE('',#781,#178);
#139=LINE('',#783,#179);
#140=LINE('',#784,#180);
#141=LINE('',#812,#181);
#142=LINE('',#821,#182);
#143=LINE('',#822,#183);
#144=LINE('',#823,#184);
#145=LINE('',#863,#185);
#146=LINE('',#864,#186);
#147=LINE('',#865,#187);
#148=LINE('',#893,#188);
#149=LINE('',#902,#189);
#150=LINE('',#903,#190);
#151=LINE('',#905,#191);
#152=LINE('',#910,#192);
#153=LINE('',#934,#193);
#154=LINE('',#936,#194);
#155=LINE('',#938,#195);
#156=LINE('',#939,#196);
#157=LINE('',#943,#197);
#158=LINE('',#958,#198);
#159=LINE('',#961,#199);
#160=LINE('',#965,#200);
#161=LINE('',#966,#201);
#162=LINE('',#969,#202);
#163=LINE('',#970,#203);
#164=LINE('',#1009,#204);
#165=LINE('',#1011,#205);
#166=LINE('',#1012,#206);
#167=LINE('',#1040,#207);
#168=LINE('',#1048,#208);
#169=LINE('',#1050,#209);
#170=LINE('',#1051,#210);
#171=LINE('',#1091,#211);
#172=LINE('',#1092,#212);
#173=LINE('',#1093,#213);
#174=VECTOR('',#615,10.);
#175=VECTOR('',#616,10.);
#176=VECTOR('',#617,10.);
#177=VECTOR('',#618,10.);
#178=VECTOR('',#621,10.);
#179=VECTOR('',#622,10.);
#180=VECTOR('',#623,10.);
#181=VECTOR('',#624,10.);
#182=VECTOR('',#627,10.);
#183=VECTOR('',#628,10.);
#184=VECTOR('',#629,10.);
#185=VECTOR('',#632,10.);
#186=VECTOR('',#633,10.);
#187=VECTOR('',#634,10.);
#188=VECTOR('',#635,10.);
#189=VECTOR('',#638,10.);
#190=VECTOR('',#639,10.);
#191=VECTOR('',#640,10.);
#192=VECTOR('',#643,10.);
#193=VECTOR('',#652,10.);
#194=VECTOR('',#653,10.);
#195=VECTOR('',#654,10.);
#196=VECTOR('',#655,10.);
#197=VECTOR('',#660,10.);
#198=VECTOR('',#671,10.);
#199=VECTOR('',#674,10.);
#200=VECTOR('',#679,10.);
#201=VECTOR('',#680,10.);
#202=VECTOR('',#683,10.);
#203=VECTOR('',#684,10.);
#204=VECTOR('',#687,10.);
#205=VECTOR('',#688,10.);
#206=VECTOR('',#689,10.);
#207=VECTOR('',#690,10.);
#208=VECTOR('',#693,10.);
#209=VECTOR('',#694,10.);
#210=VECTOR('',#695,10.);
#211=VECTOR('',#698,10.);
#212=VECTOR('',#699,10.);
#213=VECTOR('',#700,10.);
#214=(
BOUNDED_CURVE()
B_SPLINE_CURVE(2,(#733,#734,#735),.UNSPECIFIED.,.F.,.F.)
B_SPLINE_CURVE_WITH_KNOTS((3,3),(0.00866500532256259,0.0173129105257239),
 .UNSPECIFIED.)
CURVE()
GEOMETRIC_REPRESENTATION_ITEM()
RATIONAL_B_SPLINE_CURVE((1.00000086693259,1.00000086607716,1.))
REPRESENTATION_ITEM('')
);
#215=(
BOUNDED_CURVE()
B_SPLINE_CURVE(2,(#906,#907,#908),.UNSPECIFIED.,.F.,.F.)
B_SPLINE_CURVE_WITH_KNOTS((3,3),(0.,0.00867310151037277),.UNSPECIFIED.)
CURVE()
GEOMETRIC_REPRESENTATION_ITEM()
RATIONAL_B_SPLINE_CURVE((1.,1.00000093792257,1.00000093695983))
REPRESENTATION_ITEM('')
);
#216=(
BOUNDED_CURVE()
B_SPLINE_CURVE(2,(#915,#916,#917),.UNSPECIFIED.,.F.,.F.)
B_SPLINE_CURVE_WITH_KNOTS((3,3),(0.483061778604777,0.491286465787344),
 .UNSPECIFIED.)
CURVE()
GEOMETRIC_REPRESENTATION_ITEM()
RATIONAL_B_SPLINE_CURVE((1.00011009673248,1.00008348080163,1.00005592662062))
REPRESENTATION_ITEM('')
);
#217=(
BOUNDED_CURVE()
B_SPLINE_CURVE(2,(#919,#920,#921),.UNSPECIFIED.,.F.,.F.)
B_SPLINE_CURVE_WITH_KNOTS((3,3),(0.,0.00865337243888767),.UNSPECIFIED.)
CURVE()
GEOMETRIC_REPRESENTATION_ITEM()
RATIONAL_B_SPLINE_CURVE((1.,1.,1.))
REPRESENTATION_ITEM('')
);
#218=(
BOUNDED_CURVE()
B_SPLINE_CURVE(2,(#931,#932,#933),.UNSPECIFIED.,.F.,.F.)
B_SPLINE_CURVE_WITH_KNOTS((3,3),(0.00866119194042108,0.017328129033632),
 .UNSPECIFIED.)
CURVE()
GEOMETRIC_REPRESENTATION_ITEM()
RATIONAL_B_SPLINE_CURVE((1.,1.,1.))
REPRESENTATION_ITEM('')
);
#219=(
BOUNDED_CURVE()
B_SPLINE_CURVE(2,(#950,#951,#952),.UNSPECIFIED.,.F.,.F.)
B_SPLINE_CURVE_WITH_KNOTS((3,3),(0.00919936347570657,0.0183811101987119),
 .UNSPECIFIED.)
CURVE()
GEOMETRIC_REPRESENTATION_ITEM()
RATIONAL_B_SPLINE_CURVE((1.00005951178031,1.00008877769523,1.00011717928291))
REPRESENTATION_ITEM('')
);
#220=VERTEX_POINT('',#731);
#221=VERTEX_POINT('',#732);
#222=VERTEX_POINT('',#736);
#223=VERTEX_POINT('',#738);
#224=VERTEX_POINT('',#740);
#225=VERTEX_POINT('',#763);
#226=VERTEX_POINT('',#769);
#227=VERTEX_POINT('',#780);
#228=VERTEX_POINT('',#782);
#229=VERTEX_POINT('',#805);
#230=VERTEX_POINT('',#811);
#231=VERTEX_POINT('',#819);
#232=VERTEX_POINT('',#820);
#233=VERTEX_POINT('',#844);
#234=VERTEX_POINT('',#845);
#235=VERTEX_POINT('',#861);
#236=VERTEX_POINT('',#862);
#237=VERTEX_POINT('',#886);
#238=VERTEX_POINT('',#892);
#239=VERTEX_POINT('',#900);
#240=VERTEX_POINT('',#901);
#241=VERTEX_POINT('',#904);
#242=VERTEX_POINT('',#912);
#243=VERTEX_POINT('',#914);
#244=VERTEX_POINT('',#918);
#245=VERTEX_POINT('',#922);
#246=VERTEX_POINT('',#929);
#247=VERTEX_POINT('',#930);
#248=VERTEX_POINT('',#935);
#249=VERTEX_POINT('',#937);
#250=VERTEX_POINT('',#941);
#251=VERTEX_POINT('',#949);
#252=VERTEX_POINT('',#956);
#253=VERTEX_POINT('',#960);
#254=VERTEX_POINT('',#964);
#255=VERTEX_POINT('',#968);
#256=VERTEX_POINT('',#991);
#257=VERTEX_POINT('',#997);
#258=VERTEX_POINT('',#1008);
#259=VERTEX_POINT('',#1010);
#260=VERTEX_POINT('',#1033);
#261=VERTEX_POINT('',#1039);
#262=VERTEX_POINT('',#1047);
#263=VERTEX_POINT('',#1049);
#264=VERTEX_POINT('',#1072);
#265=VERTEX_POINT('',#1073);
#266=VERTEX_POINT('',#1089);
#267=VERTEX_POINT('',#1090);
#268=EDGE_CURVE('',#220,#221,#214,.T.);
#269=EDGE_CURVE('',#221,#222,#134,.T.);
#270=EDGE_CURVE('',#222,#223,#135,.T.);
#271=EDGE_CURVE('',#223,#224,#136,.T.);
#272=EDGE_CURVE('',#224,#220,#137,.T.);
#273=EDGE_CURVE('',#222,#225,#36,.T.);
#274=EDGE_CURVE('',#225,#226,#37,.T.);
#275=EDGE_CURVE('',#226,#223,#38,.T.);
#276=EDGE_CURVE('',#225,#227,#138,.T.);
#277=EDGE_CURVE('',#227,#228,#139,.T.);
#278=EDGE_CURVE('',#228,#226,#140,.T.);
#279=EDGE_CURVE('',#227,#229,#39,.T.);
#280=EDGE_CURVE('',#229,#230,#141,.T.);
#281=EDGE_CURVE('',#230,#228,#40,.T.);
#282=EDGE_CURVE('',#231,#232,#142,.T.);
#283=EDGE_CURVE('',#232,#230,#143,.T.);
#284=EDGE_CURVE('',#229,#231,#144,.T.);
#285=EDGE_CURVE('',#233,#234,#41,.T.);
#286=EDGE_CURVE('',#234,#232,#42,.T.);
#287=EDGE_CURVE('',#231,#233,#43,.T.);
#288=EDGE_CURVE('',#235,#236,#145,.T.);
#289=EDGE_CURVE('',#236,#234,#146,.T.);
#290=EDGE_CURVE('',#233,#235,#147,.T.);
#291=EDGE_CURVE('',#235,#237,#44,.T.);
#292=EDGE_CURVE('',#237,#238,#148,.T.);
#293=EDGE_CURVE('',#238,#236,#45,.T.);
#294=EDGE_CURVE('',#239,#240,#149,.T.);
#295=EDGE_CURVE('',#240,#238,#150,.T.);
#296=EDGE_CURVE('',#237,#241,#151,.T.);
#297=EDGE_CURVE('',#241,#239,#215,.T.);
#298=EDGE_CURVE('',#224,#240,#152,.T.);
#299=EDGE_CURVE('',#241,#242,#22,.T.);
#300=EDGE_CURVE('',#242,#243,#216,.T.);
#301=EDGE_CURVE('',#244,#243,#217,.T.);
#302=EDGE_CURVE('',#244,#245,#23,.T.);
#303=EDGE_CURVE('',#245,#239,#46,.T.);
#304=EDGE_CURVE('',#246,#247,#218,.T.);
#305=EDGE_CURVE('',#247,#244,#153,.T.);
#306=EDGE_CURVE('',#243,#248,#154,.T.);
#307=EDGE_CURVE('',#248,#249,#155,.T.);
#308=EDGE_CURVE('',#249,#246,#156,.T.);
#309=EDGE_CURVE('',#250,#247,#24,.T.);
#310=EDGE_CURVE('',#245,#250,#157,.T.);
#311=EDGE_CURVE('',#250,#220,#47,.T.);
#312=EDGE_CURVE('',#246,#251,#219,.T.);
#313=EDGE_CURVE('',#251,#221,#25,.T.);
#314=EDGE_CURVE('',#252,#237,#26,.T.);
#315=EDGE_CURVE('',#242,#252,#158,.T.);
#316=EDGE_CURVE('',#253,#251,#159,.T.);
#317=EDGE_CURVE('',#222,#253,#27,.T.);
#318=EDGE_CURVE('',#249,#254,#160,.T.);
#319=EDGE_CURVE('',#253,#254,#161,.T.);
#320=EDGE_CURVE('',#252,#255,#162,.T.);
#321=EDGE_CURVE('',#255,#248,#163,.T.);
#322=EDGE_CURVE('',#252,#256,#48,.T.);
#323=EDGE_CURVE('',#256,#257,#49,.T.);
#324=EDGE_CURVE('',#257,#255,#50,.T.);
#325=EDGE_CURVE('',#256,#258,#164,.T.);
#326=EDGE_CURVE('',#258,#259,#165,.T.);
#327=EDGE_CURVE('',#259,#257,#166,.T.);
#328=EDGE_CURVE('',#258,#260,#51,.T.);
#329=EDGE_CURVE('',#260,#261,#167,.T.);
#330=EDGE_CURVE('',#261,#259,#52,.T.);
#331=EDGE_CURVE('',#260,#262,#168,.T.);
#332=EDGE_CURVE('',#262,#263,#169,.T.);
#333=EDGE_CURVE('',#263,#261,#170,.T.);
#334=EDGE_CURVE('',#264,#265,#53,.T.);
#335=EDGE_CURVE('',#265,#263,#54,.T.);
#336=EDGE_CURVE('',#262,#264,#55,.T.);
#337=EDGE_CURVE('',#266,#267,#171,.T.);
#338=EDGE_CURVE('',#267,#265,#172,.T.);
#339=EDGE_CURVE('',#264,#266,#173,.T.);
#340=EDGE_CURVE('',#266,#253,#56,.T.);
#341=EDGE_CURVE('',#254,#267,#57,.T.);
#342=EDGE_CURVE('',#266,#225,#28,.T.);
#343=EDGE_CURVE('',#227,#264,#29,.T.);
#344=EDGE_CURVE('',#262,#229,#30,.T.);
#345=EDGE_CURVE('',#231,#260,#31,.T.);
#346=EDGE_CURVE('',#258,#233,#32,.T.);
#347=EDGE_CURVE('',#235,#256,#33,.T.);
#348=ORIENTED_EDGE('',*,*,#268,.T.);
#349=ORIENTED_EDGE('',*,*,#269,.T.);
#350=ORIENTED_EDGE('',*,*,#270,.T.);
#351=ORIENTED_EDGE('',*,*,#271,.T.);
#352=ORIENTED_EDGE('',*,*,#272,.T.);
#353=ORIENTED_EDGE('',*,*,#270,.F.);
#354=ORIENTED_EDGE('',*,*,#273,.T.);
#355=ORIENTED_EDGE('',*,*,#274,.T.);
#356=ORIENTED_EDGE('',*,*,#275,.T.);
#357=ORIENTED_EDGE('',*,*,#274,.F.);
#358=ORIENTED_EDGE('',*,*,#276,.T.);
#359=ORIENTED_EDGE('',*,*,#277,.T.);
#360=ORIENTED_EDGE('',*,*,#278,.T.);
#361=ORIENTED_EDGE('',*,*,#277,.F.);
#362=ORIENTED_EDGE('',*,*,#279,.T.);
#363=ORIENTED_EDGE('',*,*,#280,.T.);
#364=ORIENTED_EDGE('',*,*,#281,.T.);
#365=ORIENTED_EDGE('',*,*,#282,.T.);
#366=ORIENTED_EDGE('',*,*,#283,.T.);
#367=ORIENTED_EDGE('',*,*,#280,.F.);
#368=ORIENTED_EDGE('',*,*,#284,.T.);
#369=ORIENTED_EDGE('',*,*,#285,.T.);
#370=ORIENTED_EDGE('',*,*,#286,.T.);
#371=ORIENTED_EDGE('',*,*,#282,.F.);
#372=ORIENTED_EDGE('',*,*,#287,.T.);
#373=ORIENTED_EDGE('',*,*,#288,.T.);
#374=ORIENTED_EDGE('',*,*,#289,.T.);
#375=ORIENTED_EDGE('',*,*,#285,.F.);
#376=ORIENTED_EDGE('',*,*,#290,.T.);
#377=ORIENTED_EDGE('',*,*,#288,.F.);
#378=ORIENTED_EDGE('',*,*,#291,.T.);
#379=ORIENTED_EDGE('',*,*,#292,.T.);
#380=ORIENTED_EDGE('',*,*,#293,.T.);
#381=ORIENTED_EDGE('',*,*,#294,.T.);
#382=ORIENTED_EDGE('',*,*,#295,.T.);
#383=ORIENTED_EDGE('',*,*,#292,.F.);
#384=ORIENTED_EDGE('',*,*,#296,.T.);
#385=ORIENTED_EDGE('',*,*,#297,.T.);
#386=ORIENTED_EDGE('',*,*,#271,.F.);
#387=ORIENTED_EDGE('',*,*,#275,.F.);
#388=ORIENTED_EDGE('',*,*,#278,.F.);
#389=ORIENTED_EDGE('',*,*,#281,.F.);
#390=ORIENTED_EDGE('',*,*,#283,.F.);
#391=ORIENTED_EDGE('',*,*,#286,.F.);
#392=ORIENTED_EDGE('',*,*,#289,.F.);
#393=ORIENTED_EDGE('',*,*,#293,.F.);
#394=ORIENTED_EDGE('',*,*,#295,.F.);
#395=ORIENTED_EDGE('',*,*,#298,.F.);
#396=ORIENTED_EDGE('',*,*,#297,.F.);
#397=ORIENTED_EDGE('',*,*,#299,.T.);
#398=ORIENTED_EDGE('',*,*,#300,.T.);
#399=ORIENTED_EDGE('',*,*,#301,.F.);
#400=ORIENTED_EDGE('',*,*,#302,.T.);
#401=ORIENTED_EDGE('',*,*,#303,.T.);
#402=ORIENTED_EDGE('',*,*,#304,.T.);
#403=ORIENTED_EDGE('',*,*,#305,.T.);
#404=ORIENTED_EDGE('',*,*,#301,.T.);
#405=ORIENTED_EDGE('',*,*,#306,.T.);
#406=ORIENTED_EDGE('',*,*,#307,.T.);
#407=ORIENTED_EDGE('',*,*,#308,.T.);
#408=ORIENTED_EDGE('',*,*,#305,.F.);
#409=ORIENTED_EDGE('',*,*,#309,.F.);
#410=ORIENTED_EDGE('',*,*,#310,.F.);
#411=ORIENTED_EDGE('',*,*,#302,.F.);
#412=ORIENTED_EDGE('',*,*,#268,.F.);
#413=ORIENTED_EDGE('',*,*,#311,.F.);
#414=ORIENTED_EDGE('',*,*,#309,.T.);
#415=ORIENTED_EDGE('',*,*,#304,.F.);
#416=ORIENTED_EDGE('',*,*,#312,.T.);
#417=ORIENTED_EDGE('',*,*,#313,.T.);
#418=ORIENTED_EDGE('',*,*,#272,.F.);
#419=ORIENTED_EDGE('',*,*,#298,.T.);
#420=ORIENTED_EDGE('',*,*,#294,.F.);
#421=ORIENTED_EDGE('',*,*,#303,.F.);
#422=ORIENTED_EDGE('',*,*,#310,.T.);
#423=ORIENTED_EDGE('',*,*,#311,.T.);
#424=ORIENTED_EDGE('',*,*,#296,.F.);
#425=ORIENTED_EDGE('',*,*,#314,.F.);
#426=ORIENTED_EDGE('',*,*,#315,.F.);
#427=ORIENTED_EDGE('',*,*,#299,.F.);
#428=ORIENTED_EDGE('',*,*,#269,.F.);
#429=ORIENTED_EDGE('',*,*,#313,.F.);
#430=ORIENTED_EDGE('',*,*,#316,.F.);
#431=ORIENTED_EDGE('',*,*,#317,.F.);
#432=ORIENTED_EDGE('',*,*,#308,.F.);
#433=ORIENTED_EDGE('',*,*,#318,.T.);
#434=ORIENTED_EDGE('',*,*,#319,.F.);
#435=ORIENTED_EDGE('',*,*,#316,.T.);
#436=ORIENTED_EDGE('',*,*,#312,.F.);
#437=ORIENTED_EDGE('',*,*,#306,.F.);
#438=ORIENTED_EDGE('',*,*,#300,.F.);
#439=ORIENTED_EDGE('',*,*,#315,.T.);
#440=ORIENTED_EDGE('',*,*,#320,.T.);
#441=ORIENTED_EDGE('',*,*,#321,.T.);
#442=ORIENTED_EDGE('',*,*,#320,.F.);
#443=ORIENTED_EDGE('',*,*,#322,.T.);
#444=ORIENTED_EDGE('',*,*,#323,.T.);
#445=ORIENTED_EDGE('',*,*,#324,.T.);
#446=ORIENTED_EDGE('',*,*,#323,.F.);
#447=ORIENTED_EDGE('',*,*,#325,.T.);
#448=ORIENTED_EDGE('',*,*,#326,.T.);
#449=ORIENTED_EDGE('',*,*,#327,.T.);
#450=ORIENTED_EDGE('',*,*,#326,.F.);
#451=ORIENTED_EDGE('',*,*,#328,.T.);
#452=ORIENTED_EDGE('',*,*,#329,.T.);
#453=ORIENTED_EDGE('',*,*,#330,.T.);
#454=ORIENTED_EDGE('',*,*,#329,.F.);
#455=ORIENTED_EDGE('',*,*,#331,.T.);
#456=ORIENTED_EDGE('',*,*,#332,.T.);
#457=ORIENTED_EDGE('',*,*,#333,.T.);
#458=ORIENTED_EDGE('',*,*,#334,.T.);
#459=ORIENTED_EDGE('',*,*,#335,.T.);
#460=ORIENTED_EDGE('',*,*,#332,.F.);
#461=ORIENTED_EDGE('',*,*,#336,.T.);
#462=ORIENTED_EDGE('',*,*,#337,.T.);
#463=ORIENTED_EDGE('',*,*,#338,.T.);
#464=ORIENTED_EDGE('',*,*,#334,.F.);
#465=ORIENTED_EDGE('',*,*,#339,.T.);
#466=ORIENTED_EDGE('',*,*,#337,.F.);
#467=ORIENTED_EDGE('',*,*,#340,.T.);
#468=ORIENTED_EDGE('',*,*,#319,.T.);
#469=ORIENTED_EDGE('',*,*,#341,.T.);
#470=ORIENTED_EDGE('',*,*,#273,.F.);
#471=ORIENTED_EDGE('',*,*,#317,.T.);
#472=ORIENTED_EDGE('',*,*,#340,.F.);
#473=ORIENTED_EDGE('',*,*,#342,.T.);
#474=ORIENTED_EDGE('',*,*,#276,.F.);
#475=ORIENTED_EDGE('',*,*,#342,.F.);
#476=ORIENTED_EDGE('',*,*,#339,.F.);
#477=ORIENTED_EDGE('',*,*,#343,.F.);
#478=ORIENTED_EDGE('',*,*,#279,.F.);
#479=ORIENTED_EDGE('',*,*,#343,.T.);
#480=ORIENTED_EDGE('',*,*,#336,.F.);
#481=ORIENTED_EDGE('',*,*,#344,.T.);
#482=ORIENTED_EDGE('',*,*,#284,.F.);
#483=ORIENTED_EDGE('',*,*,#344,.F.);
#484=ORIENTED_EDGE('',*,*,#331,.F.);
#485=ORIENTED_EDGE('',*,*,#345,.F.);
#486=ORIENTED_EDGE('',*,*,#287,.F.);
#487=ORIENTED_EDGE('',*,*,#345,.T.);
#488=ORIENTED_EDGE('',*,*,#328,.F.);
#489=ORIENTED_EDGE('',*,*,#346,.T.);
#490=ORIENTED_EDGE('',*,*,#290,.F.);
#491=ORIENTED_EDGE('',*,*,#346,.F.);
#492=ORIENTED_EDGE('',*,*,#325,.F.);
#493=ORIENTED_EDGE('',*,*,#347,.F.);
#494=ORIENTED_EDGE('',*,*,#291,.F.);
#495=ORIENTED_EDGE('',*,*,#347,.T.);
#496=ORIENTED_EDGE('',*,*,#322,.F.);
#497=ORIENTED_EDGE('',*,*,#314,.T.);
#498=ORIENTED_EDGE('',*,*,#307,.F.);
#499=ORIENTED_EDGE('',*,*,#321,.F.);
#500=ORIENTED_EDGE('',*,*,#324,.F.);
#501=ORIENTED_EDGE('',*,*,#327,.F.);
#502=ORIENTED_EDGE('',*,*,#330,.F.);
#503=ORIENTED_EDGE('',*,*,#333,.F.);
#504=ORIENTED_EDGE('',*,*,#335,.F.);
#505=ORIENTED_EDGE('',*,*,#338,.F.);
#506=ORIENTED_EDGE('',*,*,#341,.F.);
#507=ORIENTED_EDGE('',*,*,#318,.F.);
#508=PLANE('',#573);
#509=PLANE('',#574);
#510=PLANE('',#575);
#511=PLANE('',#576);
#512=PLANE('',#577);
#513=PLANE('',#578);
#514=PLANE('',#582);
#515=PLANE('',#583);
#516=PLANE('',#587);
#517=PLANE('',#592);
#518=PLANE('',#593);
#519=PLANE('',#594);
#520=PLANE('',#595);
#521=PLANE('',#596);
#522=PLANE('',#599);
#523=PLANE('',#607);
#524=PLANE('',#610);
#525=ADVANCED_FACE('',(#66),#508,.T.);
#526=ADVANCED_FACE('',(#67),#58,.T.);
#527=ADVANCED_FACE('',(#68),#509,.T.);
#528=ADVANCED_FACE('',(#69),#59,.T.);
#529=ADVANCED_FACE('',(#70),#510,.T.);
#530=ADVANCED_FACE('',(#71),#60,.T.);
#531=ADVANCED_FACE('',(#72),#511,.T.);
#532=ADVANCED_FACE('',(#73),#61,.T.);
#533=ADVANCED_FACE('',(#74),#512,.T.);
#534=ADVANCED_FACE('',(#75),#513,.T.);
#535=ADVANCED_FACE('',(#76),#34,.F.);
#536=ADVANCED_FACE('',(#77),#514,.T.);
#537=ADVANCED_FACE('',(#78),#515,.T.);
#538=ADVANCED_FACE('',(#79),#35,.T.);
#539=ADVANCED_FACE('',(#80),#516,.T.);
#540=ADVANCED_FACE('',(#81),#19,.F.);
#541=ADVANCED_FACE('',(#82),#20,.T.);
#542=ADVANCED_FACE('',(#83),#517,.T.);
#543=ADVANCED_FACE('',(#84),#518,.T.);
#544=ADVANCED_FACE('',(#85),#62,.T.);
#545=ADVANCED_FACE('',(#86),#519,.T.);
#546=ADVANCED_FACE('',(#87),#63,.T.);
#547=ADVANCED_FACE('',(#88),#520,.T.);
#548=ADVANCED_FACE('',(#89),#64,.T.);
#549=ADVANCED_FACE('',(#90),#521,.T.);
#550=ADVANCED_FACE('',(#91),#65,.T.);
#551=ADVANCED_FACE('',(#92),#15,.T.);
#552=ADVANCED_FACE('',(#93),#522,.F.);
#553=ADVANCED_FACE('',(#94),#16,.T.);
#554=ADVANCED_FACE('',(#95),#21,.F.);
#555=ADVANCED_FACE('',(#96),#17,.T.);
#556=ADVANCED_FACE('',(#97),#523,.T.);
#557=ADVANCED_FACE('',(#98),#18,.F.);
#558=ADVANCED_FACE('',(#99),#524,.T.);
#559=CLOSED_SHELL('',(#525,#526,#527,#528,#529,#530,#531,#532,#533,#534,
#535,#536,#537,#538,#539,#540,#541,#542,#543,#544,#545,#546,#547,#548,#549,
#550,#551,#552,#553,#554,#555,#556,#557,#558));
#560=DERIVED_UNIT_ELEMENT(#562,1.);
#561=DERIVED_UNIT_ELEMENT(#1143,-3.);
#562=(
MASS_UNIT()
NAMED_UNIT(*)
SI_UNIT(.KILO.,.GRAM.)
);
#563=DERIVED_UNIT((#560,#561));
#564=MEASURE_REPRESENTATION_ITEM('density measure',
POSITIVE_RATIO_MEASURE(7850.),#563);
#565=PROPERTY_DEFINITION_REPRESENTATION(#570,#567);
#566=PROPERTY_DEFINITION_REPRESENTATION(#571,#568);
#567=REPRESENTATION('material name',(#569),#1140);
#568=REPRESENTATION('density',(#564),#1140);
#569=DESCRIPTIVE_REPRESENTATION_ITEM('Steel','Steel');
#570=PROPERTY_DEFINITION('material property','material name',#1150);
#571=PROPERTY_DEFINITION('material property','density of part',#1150);
#572=AXIS2_PLACEMENT_3D('',#729,#611,#612);
#573=AXIS2_PLACEMENT_3D('',#730,#613,#614);
#574=AXIS2_PLACEMENT_3D('',#779,#619,#620);
#575=AXIS2_PLACEMENT_3D('',#818,#625,#626);
#576=AXIS2_PLACEMENT_3D('',#860,#630,#631);
#577=AXIS2_PLACEMENT_3D('',#899,#636,#637);
#578=AXIS2_PLACEMENT_3D('',#909,#641,#642);
#579=AXIS2_PLACEMENT_3D('',#911,#644,#645);
#580=AXIS2_PLACEMENT_3D('',#913,#646,#647);
#581=AXIS2_PLACEMENT_3D('',#923,#648,#649);
#582=AXIS2_PLACEMENT_3D('',#928,#650,#651);
#583=AXIS2_PLACEMENT_3D('',#940,#656,#657);
#584=AXIS2_PLACEMENT_3D('',#942,#658,#659);
#585=AXIS2_PLACEMENT_3D('',#944,#661,#662);
#586=AXIS2_PLACEMENT_3D('',#953,#663,#664);
#587=AXIS2_PLACEMENT_3D('',#954,#665,#666);
#588=AXIS2_PLACEMENT_3D('',#955,#667,#668);
#589=AXIS2_PLACEMENT_3D('',#957,#669,#670);
#590=AXIS2_PLACEMENT_3D('',#959,#672,#673);
#591=AXIS2_PLACEMENT_3D('',#962,#675,#676);
#592=AXIS2_PLACEMENT_3D('',#963,#677,#678);
#593=AXIS2_PLACEMENT_3D('',#967,#681,#682);
#594=AXIS2_PLACEMENT_3D('',#1007,#685,#686);
#595=AXIS2_PLACEMENT_3D('',#1046,#691,#692);
#596=AXIS2_PLACEMENT_3D('',#1088,#696,#697);
#597=AXIS2_PLACEMENT_3D('',#1124,#701,#702);
#598=AXIS2_PLACEMENT_3D('',#1125,#703,#704);
#599=AXIS2_PLACEMENT_3D('',#1126,#705,#706);
#600=AXIS2_PLACEMENT_3D('',#1127,#707,#708);
#601=AXIS2_PLACEMENT_3D('',#1128,#709,#710);
#602=AXIS2_PLACEMENT_3D('',#1129,#711,#712);
#603=AXIS2_PLACEMENT_3D('',#1130,#713,#714);
#604=AXIS2_PLACEMENT_3D('',#1131,#715,#716);
#605=AXIS2_PLACEMENT_3D('',#1132,#717,#718);
#606=AXIS2_PLACEMENT_3D('',#1133,#719,#720);
#607=AXIS2_PLACEMENT_3D('',#1134,#721,#722);
#608=AXIS2_PLACEMENT_3D('',#1135,#723,#724);
#609=AXIS2_PLACEMENT_3D('',#1136,#725,#726);
#610=AXIS2_PLACEMENT_3D('',#1137,#727,#728);
#611=DIRECTION('axis',(0.,0.,1.));
#612=DIRECTION('refdir',(1.,0.,0.));
#613=DIRECTION('center_axis',(-0.706641426229134,0.70757183008996,0.));
#614=DIRECTION('ref_axis',(0.,0.,1.));
#615=DIRECTION('',(0.,0.,-1.));
#616=DIRECTION('',(-0.70757183008996,-0.706641426229134,0.));
#617=DIRECTION('',(0.,0.,1.));
#618=DIRECTION('',(0.577603326518981,0.576843821487597,0.577603326518981));
#619=DIRECTION('center_axis',(-0.707106781186547,0.,-0.707106781186548));
#620=DIRECTION('ref_axis',(-0.707106781186548,0.,0.707106781186547));
#621=DIRECTION('',(0.,-1.,0.));
#622=DIRECTION('',(-0.707106756127137,0.000266230569775751,0.707106756127136));
#623=DIRECTION('',(0.,1.,0.));
#624=DIRECTION('',(-0.706570891165508,0.707642265383845,2.6965543423829E-15));
#625=DIRECTION('center_axis',(-0.707642265383831,-0.706570891165522,0.));
#626=DIRECTION('ref_axis',(0.,0.,1.));
#627=DIRECTION('',(-0.706570891165522,0.707642265383831,0.));
#628=DIRECTION('',(0.,0.,-1.));
#629=DIRECTION('',(0.,0.,1.));
#630=DIRECTION('center_axis',(-0.707106781186548,0.,0.707106781186548));
#631=DIRECTION('ref_axis',(0.707106781186548,0.,0.707106781186548));
#632=DIRECTION('',(-0.707106760224544,-0.000243494352152284,-0.707106760224544));
#633=DIRECTION('',(0.,-1.,0.));
#634=DIRECTION('',(0.,1.,0.));
#635=DIRECTION('',(-0.7066222954968,0.707590935150269,-1.17676361737454E-14));
#636=DIRECTION('center_axis',(-0.707590935150278,-0.706622295496791,0.));
#637=DIRECTION('ref_axis',(0.,0.,1.));
#638=DIRECTION('',(-0.577086458223517,0.577877529819316,-0.577086458223517));
#639=DIRECTION('',(0.,0.,-1.));
#640=DIRECTION('',(0.,0.,1.));
#641=DIRECTION('center_axis',(-1.,0.,0.));
#642=DIRECTION('ref_axis',(0.,-1.,0.));
#643=DIRECTION('',(0.,-1.,0.));
#644=DIRECTION('center_axis',(0.,0.,1.));
#645=DIRECTION('ref_axis',(1.,0.,0.));
#646=DIRECTION('center_axis',(0.,0.,-1.));
#647=DIRECTION('ref_axis',(1.,0.,0.));
#648=DIRECTION('center_axis',(0.,0.,1.));
#649=DIRECTION('ref_axis',(1.,0.,0.));
#650=DIRECTION('center_axis',(-4.32978028117755E-17,-0.707106781186562,
0.707106781186533));
#651=DIRECTION('ref_axis',(1.,0.,6.12323399573701E-17));
#652=DIRECTION('',(-1.,6.12323399573677E-17,0.));
#653=DIRECTION('',(0.577877529819308,-0.577086458223509,-0.577086458223532));
#654=DIRECTION('',(1.,-6.12323399573677E-17,0.));
#655=DIRECTION('',(0.57684382148759,0.577603326518973,0.577603326518996));
#656=DIRECTION('center_axis',(0.,0.,1.));
#657=DIRECTION('ref_axis',(-1.,0.,0.));
#658=DIRECTION('center_axis',(0.,0.,-1.));
#659=DIRECTION('ref_axis',(1.,0.,0.));
#660=DIRECTION('',(0.,1.,0.));
#661=DIRECTION('center_axis',(0.,0.,-1.));
#662=DIRECTION('ref_axis',(1.,0.,0.));
#663=DIRECTION('center_axis',(0.,0.,1.));
#664=DIRECTION('ref_axis',(1.,0.,0.));
#665=DIRECTION('center_axis',(-0.707106781186548,0.,0.707106781186548));
#666=DIRECTION('ref_axis',(0.707106781186548,0.,0.707106781186548));
#667=DIRECTION('center_axis',(0.,0.,1.));
#668=DIRECTION('ref_axis',(-1.,0.,0.));
#669=DIRECTION('center_axis',(0.,0.,1.));
#670=DIRECTION('ref_axis',(0.707106781186548,0.707106781186548,0.));
#671=DIRECTION('',(0.,0.,-1.));
#672=DIRECTION('center_axis',(0.,0.,1.));
#673=DIRECTION('ref_axis',(1.,0.,0.));
#674=DIRECTION('',(0.,0.,1.));
#675=DIRECTION('center_axis',(0.,0.,-1.));
#676=DIRECTION('ref_axis',(0.707106781186547,0.707106781186547,0.));
#677=DIRECTION('center_axis',(0.70757183008996,-0.706641426229134,0.));
#678=DIRECTION('ref_axis',(0.,0.,-1.));
#679=DIRECTION('',(0.,0.,-1.));
#680=DIRECTION('',(-0.70664142622915,-0.707571830089944,-2.45488505426834E-15));
#681=DIRECTION('center_axis',(-0.706622295496792,-0.707590935150278,0.));
#682=DIRECTION('ref_axis',(0.,0.,1.));
#683=DIRECTION('',(0.707590935150278,-0.706622295496791,0.));
#684=DIRECTION('',(0.,0.,1.));
#685=DIRECTION('center_axis',(-4.32978028117748E-17,-0.70710678118655,0.707106781186545));
#686=DIRECTION('ref_axis',(1.,0.,6.12323399573681E-17));
#687=DIRECTION('',(-1.,6.12323399573677E-17,0.));
#688=DIRECTION('',(0.000266230569775752,-0.707106756127134,-0.707106756127139));
#689=DIRECTION('',(1.,-6.12323399573677E-17,0.));
#690=DIRECTION('',(0.707642265383853,-0.7065708911655,-2.94169564623592E-15));
#691=DIRECTION('center_axis',(-0.706570891165522,-0.707642265383831,0.));
#692=DIRECTION('ref_axis',(0.,0.,1.));
#693=DIRECTION('',(0.,0.,-1.));
#694=DIRECTION('',(0.707642265383831,-0.706570891165522,0.));
#695=DIRECTION('',(0.,0.,1.));
#696=DIRECTION('center_axis',(-4.32978028117748E-17,-0.70710678118655,-0.707106781186546));
#697=DIRECTION('ref_axis',(-1.,0.,6.1232339957368E-17));
#698=DIRECTION('',(0.000233832061421188,-0.707106761855154,0.707106761855157));
#699=DIRECTION('',(-1.,6.12323399573677E-17,0.));
#700=DIRECTION('',(1.,-6.12323399573677E-17,0.));
#701=DIRECTION('center_axis',(0.,0.,1.));
#702=DIRECTION('ref_axis',(1.,0.,0.));
#703=DIRECTION('center_axis',(0.,0.,1.));
#704=DIRECTION('ref_axis',(0.707106781186547,0.707106781186547,0.));
#705=DIRECTION('center_axis',(0.,0.,1.));
#706=DIRECTION('ref_axis',(1.,0.,0.));
#707=DIRECTION('center_axis',(0.,0.,-1.));
#708=DIRECTION('ref_axis',(0.707106781186548,0.707106781186548,0.));
#709=DIRECTION('center_axis',(0.,0.,1.));
#710=DIRECTION('ref_axis',(1.,0.,0.));
#711=DIRECTION('center_axis',(0.,0.,1.));
#712=DIRECTION('ref_axis',(0.707106781186547,0.707106781186547,0.));
#713=DIRECTION('center_axis',(0.,0.,1.));
#714=DIRECTION('ref_axis',(1.,0.,0.));
#715=DIRECTION('center_axis',(0.,0.,-1.));
#716=DIRECTION('ref_axis',(0.707106781186547,0.707106781186547,0.));
#717=DIRECTION('center_axis',(0.,0.,-1.));
#718=DIRECTION('ref_axis',(-1.,0.,0.));
#719=DIRECTION('center_axis',(0.,0.,1.));
#720=DIRECTION('ref_axis',(0.707106781186548,0.707106781186548,0.));
#721=DIRECTION('center_axis',(0.,0.,1.));
#722=DIRECTION('ref_axis',(1.,0.,0.));
#723=DIRECTION('center_axis',(0.,0.,-1.));
#724=DIRECTION('ref_axis',(0.707106781186547,0.707106781186547,0.));
#725=DIRECTION('center_axis',(0.,0.,1.));
#726=DIRECTION('ref_axis',(1.,0.,0.));
#727=DIRECTION('center_axis',(-6.12323399573677E-17,-1.,0.));
#728=DIRECTION('ref_axis',(1.,-6.12323399573677E-17,0.));
#729=CARTESIAN_POINT('',(0.,0.,0.));
#730=CARTESIAN_POINT('Origin',(0.0499999567174328,37.9499342105263,0.));
#731=CARTESIAN_POINT('',(0.0500164040484471,37.9499506362303,3.95001640404845));
#732=CARTESIAN_POINT('',(0.0999999134348656,37.9998684210526,3.9));
#733=CARTESIAN_POINT('Ctrl Pts',(0.0500164040484472,37.9499506362303,3.95001640404845));
#734=CARTESIAN_POINT('Ctrl Pts',(0.0749917005714622,37.9748930921125,3.92504105348994));
#735=CARTESIAN_POINT('Ctrl Pts',(0.0999999134348587,37.9998684210526,3.9));
#736=CARTESIAN_POINT('',(0.0999999134348656,37.9998684210526,0.2));
#737=CARTESIAN_POINT('',(0.0999999134348656,37.9998684210526,0.));
#738=CARTESIAN_POINT('',(0.,37.9,0.2));
#739=CARTESIAN_POINT('',(0.0999999134348656,37.9998684210526,0.2));
#740=CARTESIAN_POINT('',(0.,37.9,3.9));
#741=CARTESIAN_POINT('',(0.,37.9,0.));
#742=CARTESIAN_POINT('',(-2.18320777763619,35.7196629767649,1.71679222236381));
#743=CARTESIAN_POINT('Ctrl Pts',(0.0999999999999618,37.7998015869581,1.09354049426802E-8));
#744=CARTESIAN_POINT('Ctrl Pts',(0.100000000034607,37.8596792759901,-1.97897837492974E-5));
#745=CARTESIAN_POINT('Ctrl Pts',(0.0999999500204813,37.96335691121,0.0501940599451727));
#746=CARTESIAN_POINT('Ctrl Pts',(0.0999999134348656,37.9998684210526,0.15512130513077));
#747=CARTESIAN_POINT('Ctrl Pts',(0.0999999134348656,37.9998684210526,0.2));
#748=CARTESIAN_POINT('Ctrl Pts',(0.0666666666666412,37.7998346558128,0.033333357026816));
#749=CARTESIAN_POINT('Ctrl Pts',(0.066666666689738,37.849732719093,0.0333102561289777));
#750=CARTESIAN_POINT('Ctrl Pts',(0.0666666333469875,37.9361433835912,0.0751455192490784));
#751=CARTESIAN_POINT('Ctrl Pts',(0.0666666089565771,37.9665789473684,0.162596163459878));
#752=CARTESIAN_POINT('Ctrl Pts',(0.0666666089565771,37.9665789473684,0.2));
#753=CARTESIAN_POINT('Ctrl Pts',(0.0333333333333206,37.7998677246676,0.0666667031182271));
#754=CARTESIAN_POINT('Ctrl Pts',(0.033333333344869,37.8397861621959,0.0666403020417047));
#755=CARTESIAN_POINT('Ctrl Pts',(0.0333333166734938,37.9089298559724,0.100096978552984));
#756=CARTESIAN_POINT('Ctrl Pts',(0.0333333044782885,37.9332894736842,0.170071021788986));
#757=CARTESIAN_POINT('Ctrl Pts',(0.0333333044782885,37.9332894736842,0.2));
#758=CARTESIAN_POINT('Ctrl Pts',(0.,37.7999007935224,0.100000049209638));
#759=CARTESIAN_POINT('Ctrl Pts',(0.,37.8298396052988,0.0999703479544316));
#760=CARTESIAN_POINT('Ctrl Pts',(0.,37.8817163283536,0.12504843785689));
#761=CARTESIAN_POINT('Ctrl Pts',(0.,37.9,0.177545880118095));
#762=CARTESIAN_POINT('Ctrl Pts',(0.,37.9,0.2));
#763=CARTESIAN_POINT('',(0.0999999999999904,37.7998677246363,-1.73472347597681E-17));
#764=CARTESIAN_POINT('Ctrl Pts',(0.0999999134348656,37.9998684210526,0.2));
#765=CARTESIAN_POINT('Ctrl Pts',(0.0999999134348656,37.9998684210526,0.15512130513077));
#766=CARTESIAN_POINT('Ctrl Pts',(0.099999950012784,37.9633645928586,0.050216135565364));
#767=CARTESIAN_POINT('Ctrl Pts',(0.100000000013563,37.8597228984471,1.34159982550541E-6));
#768=CARTESIAN_POINT('Ctrl Pts',(0.0999999999999884,37.7998677243825,7.41062660861767E-10));
#769=CARTESIAN_POINT('',(0.,37.7999007935224,0.100000049209638));
#770=CARTESIAN_POINT('Ctrl Pts',(0.0999999999999884,37.7998677246365,7.41068351890365E-10));
#771=CARTESIAN_POINT('Ctrl Pts',(0.0666666666666539,37.7998677247295,0.0333333407477289));
#772=CARTESIAN_POINT('Ctrl Pts',(0.0333333333333206,37.7998787476451,0.0666666921827141));
#773=CARTESIAN_POINT('Ctrl Pts',(0.,37.7999007935224,0.100000049209638));
#774=CARTESIAN_POINT('Ctrl Pts',(0.,37.7999007935224,0.100000049209638));
#775=CARTESIAN_POINT('Ctrl Pts',(0.,37.8298396052988,0.0999703479544316));
#776=CARTESIAN_POINT('Ctrl Pts',(0.,37.8817163283536,0.12504843785689));
#777=CARTESIAN_POINT('Ctrl Pts',(0.,37.9,0.177545880118095));
#778=CARTESIAN_POINT('Ctrl Pts',(0.,37.9,0.2));
#779=CARTESIAN_POINT('Origin',(0.05,28.5,0.05));
#780=CARTESIAN_POINT('',(0.1,33.1998493972488,0.));
#781=CARTESIAN_POINT('',(0.1,28.5,0.));
#782=CARTESIAN_POINT('',(0.,33.1998870479384,0.1));
#783=CARTESIAN_POINT('',(0.1,33.1998493972488,0.));
#784=CARTESIAN_POINT('',(0.,28.5,0.1));
#785=CARTESIAN_POINT('Ctrl Pts',(0.0999998852157289,32.9998484848485,0.2));
#786=CARTESIAN_POINT('Ctrl Pts',(0.0999998852157289,32.9998484848485,0.1551076360019));
#787=CARTESIAN_POINT('Ctrl Pts',(0.0999999344252895,33.0363882001202,0.0501459032237062));
#788=CARTESIAN_POINT('Ctrl Pts',(0.0999999999744461,33.1400381894986,1.73046518063045E-15));
#789=CARTESIAN_POINT('Ctrl Pts',(0.0999999999999844,33.1998493972488,3.81639164714898E-16));
#790=CARTESIAN_POINT('Ctrl Pts',(0.0666665901438193,33.0332323232323,0.2));
#791=CARTESIAN_POINT('Ctrl Pts',(0.0666665901438193,33.0332323232323,0.162595360605166));
#792=CARTESIAN_POINT('Ctrl Pts',(0.066666622950193,33.0636713089087,0.0751401909240003));
#793=CARTESIAN_POINT('Ctrl Pts',(0.0666666666496308,33.150031833068,0.0333408492211425));
#794=CARTESIAN_POINT('Ctrl Pts',(0.0666666666666563,33.1998744977144,0.0333333427838249));
#795=CARTESIAN_POINT('Ctrl Pts',(0.0333332950719096,33.0666161616162,0.2));
#796=CARTESIAN_POINT('Ctrl Pts',(0.0333332950719096,33.0666161616162,0.170083085208433));
#797=CARTESIAN_POINT('Ctrl Pts',(0.0333333114750965,33.0909544176973,0.100134478624294));
#798=CARTESIAN_POINT('Ctrl Pts',(0.0333333333248154,33.1600254766373,0.0666816984422833));
#799=CARTESIAN_POINT('Ctrl Pts',(0.0333333333333281,33.1998995981801,0.0666666855676494));
#800=CARTESIAN_POINT('Ctrl Pts',(0.,33.1,0.2));
#801=CARTESIAN_POINT('Ctrl Pts',(0.,33.1,0.177570809811699));
#802=CARTESIAN_POINT('Ctrl Pts',(0.,33.1182375264858,0.125128766324588));
#803=CARTESIAN_POINT('Ctrl Pts',(0.,33.1700191202067,0.100022547663424));
#804=CARTESIAN_POINT('Ctrl Pts',(0.,33.1999246986457,0.100000028351474));
#805=CARTESIAN_POINT('',(0.0999998852157289,32.9998484848485,0.2));
#806=CARTESIAN_POINT('Ctrl Pts',(0.0999999999999844,33.1998493972488,3.81639164714898E-16));
#807=CARTESIAN_POINT('Ctrl Pts',(0.0999999999744461,33.1400381894986,1.73046518063045E-15));
#808=CARTESIAN_POINT('Ctrl Pts',(0.0999999344252895,33.0363882001202,0.0501459032237062));
#809=CARTESIAN_POINT('Ctrl Pts',(0.0999998852157289,32.9998484848485,0.1551076360019));
#810=CARTESIAN_POINT('Ctrl Pts',(0.0999998852157289,32.9998484848485,0.2));
#811=CARTESIAN_POINT('',(0.,33.1,0.2));
#812=CARTESIAN_POINT('',(0.0999998852157289,32.9998484848485,0.2));
#813=CARTESIAN_POINT('Ctrl Pts',(0.,33.1,0.2));
#814=CARTESIAN_POINT('Ctrl Pts',(0.,33.1,0.177570809811699));
#815=CARTESIAN_POINT('Ctrl Pts',(0.,33.1182331530092,0.125141342265168));
#816=CARTESIAN_POINT('Ctrl Pts',(0.,33.1699942870148,0.100034590502056));
#817=CARTESIAN_POINT('Ctrl Pts',(0.,33.199887048172,0.100000064270508));
#818=CARTESIAN_POINT('Origin',(0.0499999426078642,33.0499242424242,0.));
#819=CARTESIAN_POINT('',(0.0999998852157284,32.9998484848485,0.8));
#820=CARTESIAN_POINT('',(0.,33.1,0.8));
#821=CARTESIAN_POINT('',(0.0999998852157284,32.9998484848485,0.8));
#822=CARTESIAN_POINT('',(0.,33.1,0.));
#823=CARTESIAN_POINT('',(0.0999998852157284,32.9998484848485,0.));
#824=CARTESIAN_POINT('Ctrl Pts',(0.0999999999999844,33.1998493972132,1.));
#825=CARTESIAN_POINT('Ctrl Pts',(0.0999999999744461,33.1400381894698,0.999999999989358));
#826=CARTESIAN_POINT('Ctrl Pts',(0.0999999344268366,33.0363898614095,0.94985270566461));
#827=CARTESIAN_POINT('Ctrl Pts',(0.0999998852157289,32.9998484848485,0.844892363993013));
#828=CARTESIAN_POINT('Ctrl Pts',(0.0999998852157289,32.9998484848485,0.8));
#829=CARTESIAN_POINT('Ctrl Pts',(0.0666666666666563,33.1998744976848,0.966666657216171));
#830=CARTESIAN_POINT('Ctrl Pts',(0.0666666666496308,33.150031833044,0.966659150769987));
#831=CARTESIAN_POINT('Ctrl Pts',(0.0666666229512244,33.0636726929726,0.924858651342557));
#832=CARTESIAN_POINT('Ctrl Pts',(0.0666665901438193,33.0332323232323,0.837404639390595));
#833=CARTESIAN_POINT('Ctrl Pts',(0.0666665901438193,33.0332323232323,0.8));
#834=CARTESIAN_POINT('Ctrl Pts',(0.0333333333333281,33.1998995981564,0.933333314432342));
#835=CARTESIAN_POINT('Ctrl Pts',(0.0333333333248154,33.1600254766181,0.933318301550616));
#836=CARTESIAN_POINT('Ctrl Pts',(0.0333333114756122,33.0909555245358,0.899864597020504));
#837=CARTESIAN_POINT('Ctrl Pts',(0.0333332950719096,33.0666161616162,0.829916914788177));
#838=CARTESIAN_POINT('Ctrl Pts',(0.0333332950719096,33.0666161616162,0.8));
#839=CARTESIAN_POINT('Ctrl Pts',(0.,33.199924698628,0.899999971648513));
#840=CARTESIAN_POINT('Ctrl Pts',(0.,33.1700191201923,0.899977452331245));
#841=CARTESIAN_POINT('Ctrl Pts',(0.,33.1182383560989,0.874870542698452));
#842=CARTESIAN_POINT('Ctrl Pts',(0.,33.1,0.822429190185759));
#843=CARTESIAN_POINT('Ctrl Pts',(0.,33.1,0.8));
#844=CARTESIAN_POINT('',(0.100000000000092,33.1998493972132,1.));
#845=CARTESIAN_POINT('',(0.,33.1998870479944,0.899999936209202));
#846=CARTESIAN_POINT('Ctrl Pts',(0.0999999999999844,33.1998493972132,1.));
#847=CARTESIAN_POINT('Ctrl Pts',(0.0666666667466661,33.1998493971293,0.966666657296187));
#848=CARTESIAN_POINT('Ctrl Pts',(0.0333333334933519,33.1998619474369,0.933333300095244));
#849=CARTESIAN_POINT('Ctrl Pts',(2.40061651113344E-10,33.1998870479947,
0.899999935969141));
#850=CARTESIAN_POINT('Ctrl Pts',(0.,33.1998870481562,0.899999935729265));
#851=CARTESIAN_POINT('Ctrl Pts',(0.,33.1699942873994,0.899965409161861));
#852=CARTESIAN_POINT('Ctrl Pts',(0.,33.1182339824236,0.874857966924166));
#853=CARTESIAN_POINT('Ctrl Pts',(0.,33.1,0.822429190185759));
#854=CARTESIAN_POINT('Ctrl Pts',(0.,33.1,0.8));
#855=CARTESIAN_POINT('Ctrl Pts',(0.0999998852157289,32.9998484848485,0.8));
#856=CARTESIAN_POINT('Ctrl Pts',(0.0999998852157289,32.9998484848485,0.844892363993013));
#857=CARTESIAN_POINT('Ctrl Pts',(0.0999999344268366,33.0363898614095,0.94985270566461));
#858=CARTESIAN_POINT('Ctrl Pts',(0.0999999999744461,33.1400381894698,0.999999999989358));
#859=CARTESIAN_POINT('Ctrl Pts',(0.0999999999999844,33.1998493972132,1.));
#860=CARTESIAN_POINT('Origin',(0.05,28.5,0.95));
#861=CARTESIAN_POINT('',(0.1,36.2998622586918,1.));
#862=CARTESIAN_POINT('',(0.,36.2998278233893,0.9));
#863=CARTESIAN_POINT('',(0.1,36.2998622586918,1.));
#864=CARTESIAN_POINT('',(0.,28.5,0.9));
#865=CARTESIAN_POINT('',(0.1,28.5,1.));
#866=CARTESIAN_POINT('Ctrl Pts',(0.0999999061737225,36.4998630136986,1.2));
#867=CARTESIAN_POINT('Ctrl Pts',(0.0999999061737225,36.4998630136986,1.14765304421283));
#868=CARTESIAN_POINT('Ctrl Pts',(0.0999999527953169,36.4565330242067,1.0433916102793));
#869=CARTESIAN_POINT('Ctrl Pts',(0.100000000017101,36.3522451179788,0.999999999999999));
#870=CARTESIAN_POINT('Ctrl Pts',(0.0999999999999891,36.2998622586918,1.));
#871=CARTESIAN_POINT('Ctrl Pts',(0.066666604115815,36.5332420091324,1.2));
#872=CARTESIAN_POINT('Ctrl Pts',(0.066666604115815,36.5332420091324,1.13891061225478));
#873=CARTESIAN_POINT('Ctrl Pts',(0.0666666351968779,36.4826561970754,1.01723961437299));
#874=CARTESIAN_POINT('Ctrl Pts',(0.0666666666780672,36.3609526190237,0.966648652186418));
#875=CARTESIAN_POINT('Ctrl Pts',(0.0666666666666594,36.2998393018235,0.966666690382494));
#876=CARTESIAN_POINT('Ctrl Pts',(0.0333333020579075,36.5666210045662,1.2));
#877=CARTESIAN_POINT('Ctrl Pts',(0.0333333020579075,36.5666210045662,1.13016818029672));
#878=CARTESIAN_POINT('Ctrl Pts',(0.033333317598439,36.5087793699441,0.991087618466673));
#879=CARTESIAN_POINT('Ctrl Pts',(0.0333333333390336,36.3696601200686,0.933297304372836));
#880=CARTESIAN_POINT('Ctrl Pts',(0.0333333333333297,36.2998163449551,0.933333380764988));
#881=CARTESIAN_POINT('Ctrl Pts',(0.,36.6,1.2));
#882=CARTESIAN_POINT('Ctrl Pts',(0.,36.6,1.12142574833866));
#883=CARTESIAN_POINT('Ctrl Pts',(0.,36.5349025428129,0.964935622560359));
#884=CARTESIAN_POINT('Ctrl Pts',(0.,36.3783676211136,0.899945956559255));
#885=CARTESIAN_POINT('Ctrl Pts',(0.,36.2997933880868,0.900000071147481));
#886=CARTESIAN_POINT('',(0.0999999061737225,36.4998630136986,1.2));
#887=CARTESIAN_POINT('Ctrl Pts',(0.0999999999999891,36.2998622586918,1.));
#888=CARTESIAN_POINT('Ctrl Pts',(0.100000000017101,36.3522451179788,0.999999999999999));
#889=CARTESIAN_POINT('Ctrl Pts',(0.0999999527953169,36.4565330242067,1.0433916102793));
#890=CARTESIAN_POINT('Ctrl Pts',(0.0999999061737225,36.4998630136986,1.14765304421283));
#891=CARTESIAN_POINT('Ctrl Pts',(0.0999999061737225,36.4998630136986,1.2));
#892=CARTESIAN_POINT('',(0.,36.6,1.2));
#893=CARTESIAN_POINT('',(0.0999999061737225,36.4998630136986,1.2));
#894=CARTESIAN_POINT('Ctrl Pts',(0.,36.6,1.2));
#895=CARTESIAN_POINT('Ctrl Pts',(0.,36.6,1.12142574833866));
#896=CARTESIAN_POINT('Ctrl Pts',(0.,36.5349072976634,0.964947052917053));
#897=CARTESIAN_POINT('Ctrl Pts',(0.,36.3783904878831,0.899955451001883));
#898=CARTESIAN_POINT('Ctrl Pts',(0.,36.2998278233967,0.900000049515452));
#899=CARTESIAN_POINT('Origin',(0.04999995308686,36.5499315068493,1.));
#900=CARTESIAN_POINT('',(0.0499828298413217,36.5499486535674,3.94998282984133));
#901=CARTESIAN_POINT('',(0.,36.6,3.9));
#902=CARTESIAN_POINT('',(0.901049425207624,35.6977154139312,4.80104942520763));
#903=CARTESIAN_POINT('',(0.,36.6,1.));
#904=CARTESIAN_POINT('',(0.09999990617372,36.4998630136986,3.9));
#905=CARTESIAN_POINT('',(0.09999990617372,36.4998630136986,1.));
#906=CARTESIAN_POINT('Ctrl Pts',(0.0999999061737177,36.4998630136986,3.9));
#907=CARTESIAN_POINT('Ctrl Pts',(0.0750084795449361,36.5248886986391,3.92495712142007));
#908=CARTESIAN_POINT('Ctrl Pts',(0.0499828298413217,36.5499486535674,3.94998282984132));
#909=CARTESIAN_POINT('Origin',(0.,38.,0.));
#910=CARTESIAN_POINT('',(0.,28.5,3.9));
#911=CARTESIAN_POINT('Origin',(0.,0.,3.95));
#912=CARTESIAN_POINT('',(36.4998630136986,0.0999999061737177,3.9));
#913=CARTESIAN_POINT('Origin',(0.,0.,3.9));
#914=CARTESIAN_POINT('',(36.5499486535674,0.0499828298413189,3.94998282984132));
#915=CARTESIAN_POINT('Ctrl Pts',(36.4998630136986,0.0999999061737177,3.9));
#916=CARTESIAN_POINT('Ctrl Pts',(36.5248886986392,0.0750084795448423,3.92495712142016));
#917=CARTESIAN_POINT('Ctrl Pts',(36.5499486535674,0.0499828298413191,3.94998282984132));
#918=CARTESIAN_POINT('',(36.5998633877232,0.0999999999999939,4.));
#919=CARTESIAN_POINT('Ctrl Pts',(36.5998633877232,0.0999999999999938,4.));
#920=CARTESIAN_POINT('Ctrl Pts',(36.5749060206446,0.0749743499837435,3.97497434998375));
#921=CARTESIAN_POINT('Ctrl Pts',(36.5499486535674,0.0499828298413189,3.94998282984132));
#922=CARTESIAN_POINT('',(0.1,36.5998633877232,4.));
#923=CARTESIAN_POINT('Origin',(0.,0.,4.));
#924=CARTESIAN_POINT('Ctrl Pts',(0.100000000000001,36.5998633877232,4.));
#925=CARTESIAN_POINT('Ctrl Pts',(0.0833238454199496,36.5832327343318,3.98332384541995));
#926=CARTESIAN_POINT('Ctrl Pts',(0.0666514432529781,36.5665944878829,3.96665144325298));
#927=CARTESIAN_POINT('Ctrl Pts',(0.0499828298413225,36.5499486535674,3.94998282984133));
#928=CARTESIAN_POINT('Origin',(26.,0.0499999999999965,3.95));
#929=CARTESIAN_POINT('',(37.9499506362303,0.0500164040484432,3.95001640404845));
#930=CARTESIAN_POINT('',(37.899868073649,0.0999999999999938,4.));
#931=CARTESIAN_POINT('Ctrl Pts',(37.9499506362303,0.0500164040484432,3.95001640404845));
#932=CARTESIAN_POINT('Ctrl Pts',(37.9249093549408,0.0750247037538832,3.97502470375389));
#933=CARTESIAN_POINT('Ctrl Pts',(37.899868073649,0.0999999999999951,4.));
#934=CARTESIAN_POINT('',(26.,0.0999999999999945,4.));
#935=CARTESIAN_POINT('',(36.6,-2.23779328401008E-15,3.9));
#936=CARTESIAN_POINT('',(35.2802873645937,1.31790604642055,5.2179060464206));
#937=CARTESIAN_POINT('',(37.9,-2.30718222304915E-15,3.9));
#938=CARTESIAN_POINT('',(26.,-1.57859836313889E-15,3.9));
#939=CARTESIAN_POINT('',(35.3037269837794,-2.59969141535259,1.30030858464731));
#940=CARTESIAN_POINT('Origin',(19.,19.,4.));
#941=CARTESIAN_POINT('',(0.100000000000003,37.899868073649,4.));
#942=CARTESIAN_POINT('Origin',(0.,0.,4.));
#943=CARTESIAN_POINT('',(0.1,28.5,4.));
#944=CARTESIAN_POINT('Origin',(0.,0.,3.95));
#945=CARTESIAN_POINT('Ctrl Pts',(0.100000000000001,37.899868073649,4.));
#946=CARTESIAN_POINT('Ctrl Pts',(0.0833424941601058,37.9165695888281,3.98334249416011));
#947=CARTESIAN_POINT('Ctrl Pts',(0.0666812842431738,37.9332637779661,3.96668128424317));
#948=CARTESIAN_POINT('Ctrl Pts',(0.050016404048448,37.9499506362303,3.95001640404845));
#949=CARTESIAN_POINT('',(37.9998684210526,0.0999999134348633,3.9));
#950=CARTESIAN_POINT('Ctrl Pts',(37.9499506362303,0.050016404048443,3.95001640404845));
#951=CARTESIAN_POINT('Ctrl Pts',(37.9748930921133,0.0749917005721957,3.9250410534892));
#952=CARTESIAN_POINT('Ctrl Pts',(37.9998684210526,0.0999999134348633,3.9));
#953=CARTESIAN_POINT('Origin',(0.,0.,3.9));
#954=CARTESIAN_POINT('Origin',(0.05,28.5,3.95));
#955=CARTESIAN_POINT('Origin',(0.,0.,1.));
#956=CARTESIAN_POINT('',(36.4998630136986,0.0999999061737177,1.2));
#957=CARTESIAN_POINT('Origin',(0.,0.,1.2));
#958=CARTESIAN_POINT('',(36.4998630136986,0.0999999061737177,1.));
#959=CARTESIAN_POINT('Origin',(0.,0.,0.));
#960=CARTESIAN_POINT('',(37.9998684210526,0.0999999134348633,0.2));
#961=CARTESIAN_POINT('',(37.9998684210526,0.0999999134348633,0.));
#962=CARTESIAN_POINT('Origin',(0.,0.,0.2));
#963=CARTESIAN_POINT('Origin',(37.9499342105263,0.0499999567174305,0.));
#964=CARTESIAN_POINT('',(37.9,-2.32070568438423E-15,0.2));
#965=CARTESIAN_POINT('',(37.9,-2.30718222304915E-15,0.));
#966=CARTESIAN_POINT('',(37.9998684210526,0.0999999134348633,0.2));
#967=CARTESIAN_POINT('Origin',(36.5499315068493,0.0499999530868577,1.));
#968=CARTESIAN_POINT('',(36.6,-2.23779328401008E-15,1.2));
#969=CARTESIAN_POINT('',(36.4998630136986,0.0999999061737177,1.2));
#970=CARTESIAN_POINT('',(36.6,-2.23779328401008E-15,1.));
#971=CARTESIAN_POINT('Ctrl Pts',(36.2998622586918,0.0999999999999866,1.));
#972=CARTESIAN_POINT('Ctrl Pts',(36.3522451179788,0.100000000017098,0.999999999999999));
#973=CARTESIAN_POINT('Ctrl Pts',(36.4565330242067,0.0999999527953143,1.0433916102793));
#974=CARTESIAN_POINT('Ctrl Pts',(36.4998630136986,0.09999990617372,1.14765304421283));
#975=CARTESIAN_POINT('Ctrl Pts',(36.4998630136986,0.09999990617372,1.2));
#976=CARTESIAN_POINT('Ctrl Pts',(36.2998393018235,0.066666666666657,0.966666690382494));
#977=CARTESIAN_POINT('Ctrl Pts',(36.3609526190237,0.0666666666780647,0.966648652186417));
#978=CARTESIAN_POINT('Ctrl Pts',(36.4826561970754,0.0666666351968754,1.01723961437299));
#979=CARTESIAN_POINT('Ctrl Pts',(36.5332420091324,0.0666666041158126,1.13891061225478));
#980=CARTESIAN_POINT('Ctrl Pts',(36.5332420091324,0.0666666041158126,1.2));
#981=CARTESIAN_POINT('Ctrl Pts',(36.2998163449551,0.0333333333333274,0.933333380764988));
#982=CARTESIAN_POINT('Ctrl Pts',(36.3696601200686,0.0333333333390312,0.933297304372836));
#983=CARTESIAN_POINT('Ctrl Pts',(36.5087793699441,0.0333333175984366,0.991087618466673));
#984=CARTESIAN_POINT('Ctrl Pts',(36.5666210045662,0.0333333020579052,1.13016818029672));
#985=CARTESIAN_POINT('Ctrl Pts',(36.5666210045662,0.0333333020579052,1.2));
#986=CARTESIAN_POINT('Ctrl Pts',(36.2997933880868,-2.22272128912154E-15,
0.900000071147481));
#987=CARTESIAN_POINT('Ctrl Pts',(36.3783676211136,-2.22753257327012E-15,
0.899945956559255));
#988=CARTESIAN_POINT('Ctrl Pts',(36.5349025428128,-2.23711757281081E-15,
0.964935622560358));
#989=CARTESIAN_POINT('Ctrl Pts',(36.6,-2.24110364243966E-15,1.12142574833866));
#990=CARTESIAN_POINT('Ctrl Pts',(36.6,-2.24110364243966E-15,1.2));
#991=CARTESIAN_POINT('',(36.2998622586918,0.0999999999999866,1.));
#992=CARTESIAN_POINT('Ctrl Pts',(36.4998630136986,0.09999990617372,1.2));
#993=CARTESIAN_POINT('Ctrl Pts',(36.4998630136986,0.09999990617372,1.14765304421283));
#994=CARTESIAN_POINT('Ctrl Pts',(36.4565330242067,0.0999999527953143,1.0433916102793));
#995=CARTESIAN_POINT('Ctrl Pts',(36.3522451179788,0.100000000017098,0.999999999999999));
#996=CARTESIAN_POINT('Ctrl Pts',(36.2998622586918,0.0999999999999866,1.));
#997=CARTESIAN_POINT('',(36.2998278233972,-2.22272339767617E-15,0.900000049407977));
#998=CARTESIAN_POINT('Ctrl Pts',(36.2998622586918,0.0999999999999866,1.));
#999=CARTESIAN_POINT('Ctrl Pts',(36.2998469541245,0.0666666666666595,0.966666690382494));
#1000=CARTESIAN_POINT('Ctrl Pts',(36.2998354756945,0.0333333333333294,0.933333373322712));
#1001=CARTESIAN_POINT('Ctrl Pts',(36.2998278233973,-2.22044604925031E-15,
0.900000049515452));
#1002=CARTESIAN_POINT('Ctrl Pts',(36.2998278233762,-2.22272339767489E-15,
0.900000049515463));
#1003=CARTESIAN_POINT('Ctrl Pts',(36.3783904878695,-2.2275339734551E-15,
0.899955450996252));
#1004=CARTESIAN_POINT('Ctrl Pts',(36.5349072976605,-2.23711786396126E-15,
0.964947052910274));
#1005=CARTESIAN_POINT('Ctrl Pts',(36.6,-2.24110364243966E-15,1.12142574833866));
#1006=CARTESIAN_POINT('Ctrl Pts',(36.6,-2.24110364243966E-15,1.2));
#1007=CARTESIAN_POINT('Origin',(26.,0.0499999999999981,0.95));
#1008=CARTESIAN_POINT('',(33.1998493972488,0.0999999999999974,1.));
#1009=CARTESIAN_POINT('',(26.,0.0999999999999979,1.));
#1010=CARTESIAN_POINT('',(33.1998870479384,-2.0194642945129E-15,0.9));
#1011=CARTESIAN_POINT('',(33.1998493972488,0.0999999999999974,1.));
#1012=CARTESIAN_POINT('',(26.,-1.57859836313889E-15,0.9));
#1013=CARTESIAN_POINT('Ctrl Pts',(32.9998484848485,0.0999998852157246,0.8));
#1014=CARTESIAN_POINT('Ctrl Pts',(32.9998484848485,0.0999998852157246,0.8448923639981));
#1015=CARTESIAN_POINT('Ctrl Pts',(33.0363898614181,0.0999999344268322,0.949852705681663));
#1016=CARTESIAN_POINT('Ctrl Pts',(33.1400381894986,0.0999999999744419,0.999999999999998));
#1017=CARTESIAN_POINT('Ctrl Pts',(33.1998493972488,0.0999999999999801,1.));
#1018=CARTESIAN_POINT('Ctrl Pts',(33.0332323232323,0.0666665901438157,0.8));
#1019=CARTESIAN_POINT('Ctrl Pts',(33.0332323232323,0.0666665901438157,0.837404639394834));
#1020=CARTESIAN_POINT('Ctrl Pts',(33.0636726929798,0.0666666229512208,0.924858651356766));
#1021=CARTESIAN_POINT('Ctrl Pts',(33.150031833068,0.0666666666496272,0.966659150778858));
#1022=CARTESIAN_POINT('Ctrl Pts',(33.1998744977144,0.0666666666666527,0.966666657216175));
#1023=CARTESIAN_POINT('Ctrl Pts',(33.0666161616162,0.0333332950719069,0.8));
#1024=CARTESIAN_POINT('Ctrl Pts',(33.0666161616162,0.0333332950719069,0.829916914791567));
#1025=CARTESIAN_POINT('Ctrl Pts',(33.0909555245415,0.0333333114756094,0.89986459703187));
#1026=CARTESIAN_POINT('Ctrl Pts',(33.1600254766373,0.0333333333248126,0.933318301557717));
#1027=CARTESIAN_POINT('Ctrl Pts',(33.1998995981801,0.0333333333333253,0.933333314432351));
#1028=CARTESIAN_POINT('Ctrl Pts',(33.1,-2.02679045258887E-15,0.8));
#1029=CARTESIAN_POINT('Ctrl Pts',(33.1,-2.02679045258887E-15,0.822429190188301));
#1030=CARTESIAN_POINT('Ctrl Pts',(33.1182383561032,-2.02790722981005E-15,
0.874870542706973));
#1031=CARTESIAN_POINT('Ctrl Pts',(33.1700191202067,-2.03107788716088E-15,
0.899977452336576));
#1032=CARTESIAN_POINT('Ctrl Pts',(33.1999246986457,-2.03290907570648E-15,
0.899999971648526));
#1033=CARTESIAN_POINT('',(32.9998484848485,0.0999998852157246,0.8));
#1034=CARTESIAN_POINT('Ctrl Pts',(33.1998493972488,0.0999999999999801,1.));
#1035=CARTESIAN_POINT('Ctrl Pts',(33.1400381894986,0.0999999999744419,0.999999999999998));
#1036=CARTESIAN_POINT('Ctrl Pts',(33.0363898614181,0.0999999344268322,0.949852705681663));
#1037=CARTESIAN_POINT('Ctrl Pts',(32.9998484848485,0.0999998852157246,0.8448923639981));
#1038=CARTESIAN_POINT('Ctrl Pts',(32.9998484848485,0.0999998852157246,0.8));
#1039=CARTESIAN_POINT('',(33.1,-2.02679045258887E-15,0.8));
#1040=CARTESIAN_POINT('',(32.9998484848485,0.0999998852157246,0.8));
#1041=CARTESIAN_POINT('Ctrl Pts',(33.1,-2.02679045258887E-15,0.8));
#1042=CARTESIAN_POINT('Ctrl Pts',(33.1,-2.02679045258887E-15,0.822429190188301));
#1043=CARTESIAN_POINT('Ctrl Pts',(33.1182339824277,-2.02790696199966E-15,
0.874857966932092));
#1044=CARTESIAN_POINT('Ctrl Pts',(33.1699942874126,-2.03107636659079E-15,
0.899965409166626));
#1045=CARTESIAN_POINT('Ctrl Pts',(33.1998870481722,-2.03290677027989E-15,
0.899999935729283));
#1046=CARTESIAN_POINT('Origin',(33.0499242424242,0.0499999426078622,0.));
#1047=CARTESIAN_POINT('',(32.9998484848485,0.0999998852157264,0.2));
#1048=CARTESIAN_POINT('',(32.9998484848485,0.0999998852157264,0.));
#1049=CARTESIAN_POINT('',(33.1,-2.0122792321331E-15,0.2));
#1050=CARTESIAN_POINT('',(32.9998484848485,0.0999998852157264,0.2));
#1051=CARTESIAN_POINT('',(33.1,-2.0122792321331E-15,0.));
#1052=CARTESIAN_POINT('Ctrl Pts',(33.1998493972132,0.0999999999999819,3.64291929955129E-16));
#1053=CARTESIAN_POINT('Ctrl Pts',(33.1549909914056,0.0999999999808282,7.98171930013092E-12));
#1054=CARTESIAN_POINT('Ctrl Pts',(33.0500702106652,0.099999951575355,0.0364763022165773));
#1055=CARTESIAN_POINT('Ctrl Pts',(32.9998484848485,0.0999998852157264,0.140143514675982));
#1056=CARTESIAN_POINT('Ctrl Pts',(32.9998484848485,0.0999998852157264,0.2));
#1057=CARTESIAN_POINT('Ctrl Pts',(33.1998744976848,0.0666666666666539,0.0333333427838293));
#1058=CARTESIAN_POINT('Ctrl Pts',(33.1624924992042,0.0666666666538848,0.0333389726184672));
#1059=CARTESIAN_POINT('Ctrl Pts',(33.0750692135421,0.0666666343835693,0.0637488443872539));
#1060=CARTESIAN_POINT('Ctrl Pts',(33.0332323232323,0.0666665901438169,0.150127147479206));
#1061=CARTESIAN_POINT('Ctrl Pts',(33.0332323232323,0.0666665901438169,0.2));
#1062=CARTESIAN_POINT('Ctrl Pts',(33.1998995981564,0.0333333333333259,0.0666666855676583));
#1063=CARTESIAN_POINT('Ctrl Pts',(33.1699940070027,0.0333333333269414,0.0666779452289527));
#1064=CARTESIAN_POINT('Ctrl Pts',(33.1000682164189,0.0333333171917837,0.0910213865579303));
#1065=CARTESIAN_POINT('Ctrl Pts',(33.0666161616162,0.0333332950719075,0.16011078028243));
#1066=CARTESIAN_POINT('Ctrl Pts',(33.0666161616162,0.0333332950719075,0.2));
#1067=CARTESIAN_POINT('Ctrl Pts',(33.199924698628,-2.03290907570539E-15,
0.100000028351487));
#1068=CARTESIAN_POINT('Ctrl Pts',(33.1774955148012,-2.03153568429635E-15,
0.100016917839438));
#1069=CARTESIAN_POINT('Ctrl Pts',(33.1250672192958,-2.02832537708258E-15,
0.118293928728607));
#1070=CARTESIAN_POINT('Ctrl Pts',(33.1,-2.02679045258887E-15,0.170094413085654));
#1071=CARTESIAN_POINT('Ctrl Pts',(33.1,-2.02679045258887E-15,0.2));
#1072=CARTESIAN_POINT('',(33.1998493972132,0.100000000000089,3.64291929955129E-16));
#1073=CARTESIAN_POINT('',(33.1998870479944,-2.032906770269E-15,0.100000063790798));
#1074=CARTESIAN_POINT('Ctrl Pts',(33.1998493972132,0.0999999999999819,3.64291929955129E-16));
#1075=CARTESIAN_POINT('Ctrl Pts',(33.1998493972657,0.0666666667088683,0.0333333427416087));
#1076=CARTESIAN_POINT('Ctrl Pts',(33.199861947505,0.033333333417759,0.0666666998280913));
#1077=CARTESIAN_POINT('Ctrl Pts',(33.1998870479946,1.26673289913004E-10,
0.100000063917473));
#1078=CARTESIAN_POINT('Ctrl Pts',(33.1998870479514,-2.03290677026637E-15,
0.100000064044198));
#1079=CARTESIAN_POINT('Ctrl Pts',(33.1774703710884,-2.03153414468798E-15,
0.100025685657268));
#1080=CARTESIAN_POINT('Ctrl Pts',(33.1250612080151,-2.02832500899779E-15,
0.118306350818579));
#1081=CARTESIAN_POINT('Ctrl Pts',(33.1,-2.02679045258887E-15,0.170094413085654));
#1082=CARTESIAN_POINT('Ctrl Pts',(33.1,-2.02679045258887E-15,0.2));
#1083=CARTESIAN_POINT('Ctrl Pts',(32.9998484848485,0.0999998852157264,0.2));
#1084=CARTESIAN_POINT('Ctrl Pts',(32.9998484848485,0.0999998852157264,0.140143514675982));
#1085=CARTESIAN_POINT('Ctrl Pts',(33.0500702106652,0.099999951575355,0.0364763022165773));
#1086=CARTESIAN_POINT('Ctrl Pts',(33.1549909914056,0.0999999999808282,7.98171930013092E-12));
#1087=CARTESIAN_POINT('Ctrl Pts',(33.1998493972132,0.0999999999999819,3.64291929955129E-16));
#1088=CARTESIAN_POINT('Origin',(26.,0.0499999999999981,0.05));
#1089=CARTESIAN_POINT('',(37.7998677246363,0.0999999999999972,0.));
#1090=CARTESIAN_POINT('',(37.7999007934844,-2.30113389998875E-15,0.1));
#1091=CARTESIAN_POINT('',(37.7998677246363,0.0999999999999972,0.));
#1092=CARTESIAN_POINT('',(26.,-1.57859836313889E-15,0.1));
#1093=CARTESIAN_POINT('',(26.,0.0999999999999979,0.));
#1094=CARTESIAN_POINT('Ctrl Pts',(37.9998684210526,0.0999999134348633,0.200000000000001));
#1095=CARTESIAN_POINT('Ctrl Pts',(37.9998684210526,0.0999999134348633,0.155121305130771));
#1096=CARTESIAN_POINT('Ctrl Pts',(37.96335691121,0.099999950020479,0.050194059945172));
#1097=CARTESIAN_POINT('Ctrl Pts',(37.8596792759901,0.100000000034605,-1.97897837494032E-5));
#1098=CARTESIAN_POINT('Ctrl Pts',(37.7998015869581,0.0999999999999594,1.09354048732913E-8));
#1099=CARTESIAN_POINT('Ctrl Pts',(37.9665789473684,0.0666666089565748,0.200000000000001));
#1100=CARTESIAN_POINT('Ctrl Pts',(37.9665789473684,0.0666666089565748,0.162596163459879));
#1101=CARTESIAN_POINT('Ctrl Pts',(37.9361433835912,0.0666666333469852,0.0751455192490779));
#1102=CARTESIAN_POINT('Ctrl Pts',(37.849732719093,0.0666666666897357,0.0333102561289776));
#1103=CARTESIAN_POINT('Ctrl Pts',(37.7998346558128,0.0666666666666389,0.033333357026816));
#1104=CARTESIAN_POINT('Ctrl Pts',(37.9332894736842,0.0333333044782862,0.2));
#1105=CARTESIAN_POINT('Ctrl Pts',(37.9332894736842,0.0333333044782862,0.170071021788987));
#1106=CARTESIAN_POINT('Ctrl Pts',(37.9089298559724,0.0333333166734914,0.100096978552984));
#1107=CARTESIAN_POINT('Ctrl Pts',(37.8397861621959,0.0333333333448667,0.0666403020417046));
#1108=CARTESIAN_POINT('Ctrl Pts',(37.7998677246676,0.0333333333333183,0.0666667031182271));
#1109=CARTESIAN_POINT('Ctrl Pts',(37.9,-2.32070568438423E-15,0.2));
#1110=CARTESIAN_POINT('Ctrl Pts',(37.9,-2.32070568438423E-15,0.177545880118095));
#1111=CARTESIAN_POINT('Ctrl Pts',(37.8817163283536,-2.31958613238631E-15,
0.12504843785689));
#1112=CARTESIAN_POINT('Ctrl Pts',(37.8298396052988,-2.31640959924435E-15,
0.0999703479544316));
#1113=CARTESIAN_POINT('Ctrl Pts',(37.7999007935224,-2.31457637574374E-15,
0.100000049209638));
#1114=CARTESIAN_POINT('Ctrl Pts',(37.7998677243825,0.0999999999999861,7.41062591433554E-10));
#1115=CARTESIAN_POINT('Ctrl Pts',(37.8597228984471,0.10000000001356,1.34159982541162E-6));
#1116=CARTESIAN_POINT('Ctrl Pts',(37.9633645928586,0.0999999500127817,0.0502161355653634));
#1117=CARTESIAN_POINT('Ctrl Pts',(37.9998684210526,0.0999999134348633,0.155121305130771));
#1118=CARTESIAN_POINT('Ctrl Pts',(37.9998684210526,0.0999999134348633,0.200000000000001));
#1119=CARTESIAN_POINT('Ctrl Pts',(37.9,-2.32070568438423E-15,0.2));
#1120=CARTESIAN_POINT('Ctrl Pts',(37.9,-2.32070568438423E-15,0.177545880118095));
#1121=CARTESIAN_POINT('Ctrl Pts',(37.8817163283548,-2.31958613238639E-15,
0.125048437860513));
#1122=CARTESIAN_POINT('Ctrl Pts',(37.829839605306,-2.31640959924479E-15,
0.0999703479578929));
#1123=CARTESIAN_POINT('Ctrl Pts',(37.7999007935333,-2.3145763757444E-15,
0.100000049209627));
#1124=CARTESIAN_POINT('Origin',(0.,0.,0.2));
#1125=CARTESIAN_POINT('Origin',(0.,0.,0.));
#1126=CARTESIAN_POINT('Origin',(19.,19.,0.));
#1127=CARTESIAN_POINT('Origin',(0.,0.,0.));
#1128=CARTESIAN_POINT('Origin',(0.,0.,0.2));
#1129=CARTESIAN_POINT('Origin',(0.,0.,0.2));
#1130=CARTESIAN_POINT('Origin',(0.,0.,0.));
#1131=CARTESIAN_POINT('Origin',(0.,0.,0.8));
#1132=CARTESIAN_POINT('Origin',(0.,0.,0.8));
#1133=CARTESIAN_POINT('Origin',(0.,0.,1.));
#1134=CARTESIAN_POINT('Origin',(19.,19.,1.));
#1135=CARTESIAN_POINT('Origin',(0.,0.,1.));
#1136=CARTESIAN_POINT('Origin',(0.,0.,1.2));
#1137=CARTESIAN_POINT('Origin',(33.,-2.02066721859313E-15,0.));
#1138=UNCERTAINTY_MEASURE_WITH_UNIT(LENGTH_MEASURE(0.01),#1142,
'DISTANCE_ACCURACY_VALUE',
'Maximum model space distance between geometric entities at asserted c
onnectivities');
#1139=UNCERTAINTY_MEASURE_WITH_UNIT(LENGTH_MEASURE(0.01),#1142,
'DISTANCE_ACCURACY_VALUE',
'Maximum model space distance between geometric entities at asserted c
onnectivities');
#1140=(
GEOMETRIC_REPRESENTATION_CONTEXT(3)
GLOBAL_UNCERTAINTY_ASSIGNED_CONTEXT((#1138))
GLOBAL_UNIT_ASSIGNED_CONTEXT((#1142,#1144,#1145))
REPRESENTATION_CONTEXT('','3D')
);
#1141=(
GEOMETRIC_REPRESENTATION_CONTEXT(3)
GLOBAL_UNCERTAINTY_ASSIGNED_CONTEXT((#1139))
GLOBAL_UNIT_ASSIGNED_CONTEXT((#1142,#1144,#1145))
REPRESENTATION_CONTEXT('','3D')
);
#1142=(
LENGTH_UNIT()
NAMED_UNIT(*)
SI_UNIT(.MILLI.,.METRE.)
);
#1143=(
LENGTH_UNIT()
NAMED_UNIT(*)
SI_UNIT($,.METRE.)
);
#1144=(
NAMED_UNIT(*)
PLANE_ANGLE_UNIT()
SI_UNIT($,.RADIAN.)
);
#1145=(
NAMED_UNIT(*)
SI_UNIT($,.STERADIAN.)
SOLID_ANGLE_UNIT()
);
#1146=SHAPE_DEFINITION_REPRESENTATION(#1147,#1148);
#1147=PRODUCT_DEFINITION_SHAPE('',$,#1150);
#1148=SHAPE_REPRESENTATION('',(#572),#1140);
#1149=PRODUCT_DEFINITION_CONTEXT('part definition',#1154,'design');
#1150=PRODUCT_DEFINITION('2026-08-21-18-00-12-466','profile_corners',#1151,
#1149);
#1151=PRODUCT_DEFINITION_FORMATION('',$,#1156);
#1152=PRODUCT_RELATED_PRODUCT_CATEGORY('profile_corners',
'profile_corners',(#1156));
#1153=APPLICATION_PROTOCOL_DEFINITION('international standard',
'automotive_design',2009,#1154);
#1154=APPLICATION_CONTEXT(
'Core Data for Automotive Mechanical Design Process');
#1155=PRODUCT_CONTEXT('part definition',#1154,'mechanical');
#1156=PRODUCT('2026-08-21-18-00-12-466','profile_corners',$,(#1155));
#1157=PRESENTATION_STYLE_ASSIGNMENT((#1158));
#1158=SURFACE_STYLE_USAGE(.BOTH.,#1159);
#1159=SURFACE_SIDE_STYLE('',(#1160));
#1160=SURFACE_STYLE_FILL_AREA(#1161);
#1161=FILL_AREA_STYLE('Steel - Satin',(#1162));
#1162=FILL_AREA_STYLE_COLOUR('Steel - Satin',#1163);
#1163=COLOUR_RGB('Steel - Satin',0.627450980392157,0.627450980392157,0.627450980392157);
ENDSEC;
END-ISO-10303-21;
