ISO-10303-21;
HEADER;
/* Generated by software containing ST-Developer
 * from STEP Tools, Inc. (www.steptools.com) 
 */

FILE_DESCRIPTION(
/* description */ (''),
/* implementation_level */ '2;1');

FILE_NAME(
/* name */ 'profile_square_36mm.step',
/* time_stamp */ '2026-08-21T18:32:57+04:00',
/* author */ (''),
/* organization */ (''),
/* preprocessor_version */ 'ST-DEVELOPER v20.1',
/* originating_system */ 'Autodesk Translation Framework v15.8.0.0',
/* authorisation */ '');

FILE_SCHEMA (('AUTOMOTIVE_DESIGN { 1 0 10303 214 3 1 1 }'));
ENDSEC;

DATA;
#10=MECHANICAL_DESIGN_GEOMETRIC_PRESENTATION_REPRESENTATION('',(#13),#1529);
#11=SHAPE_REPRESENTATION_RELATIONSHIP('SRR','None',#1536,#12);
#12=ADVANCED_BREP_SHAPE_REPRESENTATION('',(#14),#1528);
#13=STYLED_ITEM('',(#1545),#14);
#14=MANIFOLD_SOLID_BREP('Body1',#933);
#15=FACE_BOUND('',#135,.T.);
#16=FACE_BOUND('',#169,.T.);
#17=FACE_BOUND('',#183,.T.);
#18=PLANE('',#955);
#19=PLANE('',#956);
#20=PLANE('',#957);
#21=PLANE('',#961);
#22=PLANE('',#965);
#23=PLANE('',#969);
#24=PLANE('',#973);
#25=PLANE('',#974);
#26=PLANE('',#975);
#27=PLANE('',#976);
#28=PLANE('',#977);
#29=PLANE('',#978);
#30=PLANE('',#979);
#31=PLANE('',#980);
#32=PLANE('',#981);
#33=PLANE('',#982);
#34=PLANE('',#983);
#35=PLANE('',#984);
#36=PLANE('',#985);
#37=PLANE('',#986);
#38=PLANE('',#987);
#39=PLANE('',#988);
#40=PLANE('',#989);
#41=PLANE('',#990);
#42=PLANE('',#991);
#43=PLANE('',#992);
#44=PLANE('',#993);
#45=PLANE('',#994);
#46=PLANE('',#995);
#47=PLANE('',#996);
#48=PLANE('',#997);
#49=PLANE('',#998);
#50=PLANE('',#999);
#51=PLANE('',#1000);
#52=PLANE('',#1001);
#53=PLANE('',#1002);
#54=PLANE('',#1003);
#55=PLANE('',#1004);
#56=PLANE('',#1005);
#57=PLANE('',#1006);
#58=PLANE('',#1007);
#59=PLANE('',#1008);
#60=PLANE('',#1009);
#61=PLANE('',#1010);
#62=PLANE('',#1011);
#63=PLANE('',#1012);
#64=PLANE('',#1013);
#65=PLANE('',#1014);
#66=PLANE('',#1015);
#67=PLANE('',#1016);
#68=PLANE('',#1017);
#69=FACE_OUTER_BOUND('',#128,.T.);
#70=FACE_OUTER_BOUND('',#129,.T.);
#71=FACE_OUTER_BOUND('',#130,.T.);
#72=FACE_OUTER_BOUND('',#131,.T.);
#73=FACE_OUTER_BOUND('',#132,.T.);
#74=FACE_OUTER_BOUND('',#133,.T.);
#75=FACE_OUTER_BOUND('',#134,.T.);
#76=FACE_OUTER_BOUND('',#136,.T.);
#77=FACE_OUTER_BOUND('',#137,.T.);
#78=FACE_OUTER_BOUND('',#138,.T.);
#79=FACE_OUTER_BOUND('',#139,.T.);
#80=FACE_OUTER_BOUND('',#140,.T.);
#81=FACE_OUTER_BOUND('',#141,.T.);
#82=FACE_OUTER_BOUND('',#142,.T.);
#83=FACE_OUTER_BOUND('',#143,.T.);
#84=FACE_OUTER_BOUND('',#144,.T.);
#85=FACE_OUTER_BOUND('',#145,.T.);
#86=FACE_OUTER_BOUND('',#146,.T.);
#87=FACE_OUTER_BOUND('',#147,.T.);
#88=FACE_OUTER_BOUND('',#148,.T.);
#89=FACE_OUTER_BOUND('',#149,.T.);
#90=FACE_OUTER_BOUND('',#150,.T.);
#91=FACE_OUTER_BOUND('',#151,.T.);
#92=FACE_OUTER_BOUND('',#152,.T.);
#93=FACE_OUTER_BOUND('',#153,.T.);
#94=FACE_OUTER_BOUND('',#154,.T.);
#95=FACE_OUTER_BOUND('',#155,.T.);
#96=FACE_OUTER_BOUND('',#156,.T.);
#97=FACE_OUTER_BOUND('',#157,.T.);
#98=FACE_OUTER_BOUND('',#158,.T.);
#99=FACE_OUTER_BOUND('',#159,.T.);
#100=FACE_OUTER_BOUND('',#160,.T.);
#101=FACE_OUTER_BOUND('',#161,.T.);
#102=FACE_OUTER_BOUND('',#162,.T.);
#103=FACE_OUTER_BOUND('',#163,.T.);
#104=FACE_OUTER_BOUND('',#164,.T.);
#105=FACE_OUTER_BOUND('',#165,.T.);
#106=FACE_OUTER_BOUND('',#166,.T.);
#107=FACE_OUTER_BOUND('',#167,.T.);
#108=FACE_OUTER_BOUND('',#168,.T.);
#109=FACE_OUTER_BOUND('',#170,.T.);
#110=FACE_OUTER_BOUND('',#171,.T.);
#111=FACE_OUTER_BOUND('',#172,.T.);
#112=FACE_OUTER_BOUND('',#173,.T.);
#113=FACE_OUTER_BOUND('',#174,.T.);
#114=FACE_OUTER_BOUND('',#175,.T.);
#115=FACE_OUTER_BOUND('',#176,.T.);
#116=FACE_OUTER_BOUND('',#177,.T.);
#117=FACE_OUTER_BOUND('',#178,.T.);
#118=FACE_OUTER_BOUND('',#179,.T.);
#119=FACE_OUTER_BOUND('',#180,.T.);
#120=FACE_OUTER_BOUND('',#181,.T.);
#121=FACE_OUTER_BOUND('',#182,.T.);
#122=FACE_OUTER_BOUND('',#184,.T.);
#123=FACE_OUTER_BOUND('',#185,.T.);
#124=FACE_OUTER_BOUND('',#186,.T.);
#125=FACE_OUTER_BOUND('',#187,.T.);
#126=FACE_OUTER_BOUND('',#188,.T.);
#127=FACE_OUTER_BOUND('',#189,.T.);
#128=EDGE_LOOP('',(#618,#619,#620,#621));
#129=EDGE_LOOP('',(#622,#623,#624,#625));
#130=EDGE_LOOP('',(#626,#627,#628,#629));
#131=EDGE_LOOP('',(#630,#631,#632,#633));
#132=EDGE_LOOP('',(#634,#635,#636,#637));
#133=EDGE_LOOP('',(#638,#639,#640,#641));
#134=EDGE_LOOP('',(#642,#643,#644,#645));
#135=EDGE_LOOP('',(#646,#647,#648,#649));
#136=EDGE_LOOP('',(#650,#651,#652,#653));
#137=EDGE_LOOP('',(#654,#655,#656,#657));
#138=EDGE_LOOP('',(#658,#659,#660,#661));
#139=EDGE_LOOP('',(#662,#663,#664,#665));
#140=EDGE_LOOP('',(#666,#667,#668,#669));
#141=EDGE_LOOP('',(#670,#671,#672,#673));
#142=EDGE_LOOP('',(#674,#675,#676,#677));
#143=EDGE_LOOP('',(#678,#679,#680,#681));
#144=EDGE_LOOP('',(#682,#683,#684));
#145=EDGE_LOOP('',(#685,#686,#687));
#146=EDGE_LOOP('',(#688,#689,#690));
#147=EDGE_LOOP('',(#691,#692,#693));
#148=EDGE_LOOP('',(#694,#695,#696));
#149=EDGE_LOOP('',(#697,#698,#699));
#150=EDGE_LOOP('',(#700,#701,#702,#703));
#151=EDGE_LOOP('',(#704,#705,#706,#707));
#152=EDGE_LOOP('',(#708,#709,#710));
#153=EDGE_LOOP('',(#711,#712,#713,#714));
#154=EDGE_LOOP('',(#715,#716,#717));
#155=EDGE_LOOP('',(#718,#719,#720,#721));
#156=EDGE_LOOP('',(#722,#723,#724,#725));
#157=EDGE_LOOP('',(#726,#727,#728,#729));
#158=EDGE_LOOP('',(#730,#731,#732,#733));
#159=EDGE_LOOP('',(#734,#735,#736,#737));
#160=EDGE_LOOP('',(#738,#739,#740,#741));
#161=EDGE_LOOP('',(#742,#743,#744,#745));
#162=EDGE_LOOP('',(#746,#747,#748,#749));
#163=EDGE_LOOP('',(#750,#751,#752,#753));
#164=EDGE_LOOP('',(#754,#755,#756,#757));
#165=EDGE_LOOP('',(#758,#759,#760,#761));
#166=EDGE_LOOP('',(#762,#763,#764,#765));
#167=EDGE_LOOP('',(#766,#767,#768,#769));
#168=EDGE_LOOP('',(#770,#771,#772,#773));
#169=EDGE_LOOP('',(#774,#775,#776,#777,#778,#779,#780,#781));
#170=EDGE_LOOP('',(#782,#783,#784));
#171=EDGE_LOOP('',(#785,#786,#787,#788,#789,#790));
#172=EDGE_LOOP('',(#791,#792,#793));
#173=EDGE_LOOP('',(#794,#795,#796,#797,#798,#799));
#174=EDGE_LOOP('',(#800,#801,#802));
#175=EDGE_LOOP('',(#803,#804,#805,#806,#807,#808));
#176=EDGE_LOOP('',(#809,#810,#811,#812));
#177=EDGE_LOOP('',(#813,#814,#815));
#178=EDGE_LOOP('',(#816,#817,#818,#819,#820,#821));
#179=EDGE_LOOP('',(#822,#823,#824,#825));
#180=EDGE_LOOP('',(#826,#827,#828,#829));
#181=EDGE_LOOP('',(#830,#831,#832,#833));
#182=EDGE_LOOP('',(#834,#835,#836,#837));
#183=EDGE_LOOP('',(#838,#839,#840,#841));
#184=EDGE_LOOP('',(#842,#843,#844,#845));
#185=EDGE_LOOP('',(#846,#847,#848,#849));
#186=EDGE_LOOP('',(#850,#851,#852,#853));
#187=EDGE_LOOP('',(#854,#855,#856,#857));
#188=EDGE_LOOP('',(#858,#859,#860,#861));
#189=EDGE_LOOP('',(#862,#863,#864,#865));
#190=ELLIPSE('',#948,0.282842712474619,0.2);
#191=ELLIPSE('',#949,0.282842712474618,0.2);
#192=ELLIPSE('',#951,0.282842712474619,0.2);
#193=ELLIPSE('',#952,0.282842712474619,0.2);
#194=ELLIPSE('',#959,0.282842712474616,0.2);
#195=ELLIPSE('',#960,0.282842712474619,0.2);
#196=ELLIPSE('',#963,0.282842712474619,0.2);
#197=ELLIPSE('',#964,0.282842712474616,0.2);
#198=ELLIPSE('',#967,0.282842712474622,0.2);
#199=ELLIPSE('',#968,0.282842712474622,0.2);
#200=ELLIPSE('',#971,0.282842712474616,0.2);
#201=ELLIPSE('',#972,0.282842712474622,0.2);
#202=LINE('',#1278,#314);
#203=LINE('',#1282,#315);
#204=LINE('',#1287,#316);
#205=LINE('',#1291,#317);
#206=LINE('',#1294,#318);
#207=LINE('',#1295,#319);
#208=LINE('',#1297,#320);
#209=LINE('',#1298,#321);
#210=LINE('',#1301,#322);
#211=LINE('',#1303,#323);
#212=LINE('',#1304,#324);
#213=LINE('',#1307,#325);
#214=LINE('',#1308,#326);
#215=LINE('',#1312,#327);
#216=LINE('',#1314,#328);
#217=LINE('',#1316,#329);
#218=LINE('',#1317,#330);
#219=LINE('',#1323,#331);
#220=LINE('',#1326,#332);
#221=LINE('',#1329,#333);
#222=LINE('',#1331,#334);
#223=LINE('',#1332,#335);
#224=LINE('',#1338,#336);
#225=LINE('',#1341,#337);
#226=LINE('',#1344,#338);
#227=LINE('',#1346,#339);
#228=LINE('',#1347,#340);
#229=LINE('',#1353,#341);
#230=LINE('',#1356,#342);
#231=LINE('',#1359,#343);
#232=LINE('',#1361,#344);
#233=LINE('',#1362,#345);
#234=LINE('',#1368,#346);
#235=LINE('',#1371,#347);
#236=LINE('',#1374,#348);
#237=LINE('',#1376,#349);
#238=LINE('',#1377,#350);
#239=LINE('',#1381,#351);
#240=LINE('',#1383,#352);
#241=LINE('',#1384,#353);
#242=LINE('',#1388,#354);
#243=LINE('',#1390,#355);
#244=LINE('',#1391,#356);
#245=LINE('',#1395,#357);
#246=LINE('',#1397,#358);
#247=LINE('',#1398,#359);
#248=LINE('',#1402,#360);
#249=LINE('',#1403,#361);
#250=LINE('',#1404,#362);
#251=LINE('',#1408,#363);
#252=LINE('',#1410,#364);
#253=LINE('',#1411,#365);
#254=LINE('',#1414,#366);
#255=LINE('',#1416,#367);
#256=LINE('',#1417,#368);
#257=LINE('',#1419,#369);
#258=LINE('',#1421,#370);
#259=LINE('',#1422,#371);
#260=LINE('',#1426,#372);
#261=LINE('',#1427,#373);
#262=LINE('',#1428,#374);
#263=LINE('',#1430,#375);
#264=LINE('',#1434,#376);
#265=LINE('',#1435,#377);
#266=LINE('',#1436,#378);
#267=LINE('',#1438,#379);
#268=LINE('',#1440,#380);
#269=LINE('',#1442,#381);
#270=LINE('',#1443,#382);
#271=LINE('',#1445,#383);
#272=LINE('',#1446,#384);
#273=LINE('',#1448,#385);
#274=LINE('',#1449,#386);
#275=LINE('',#1451,#387);
#276=LINE('',#1452,#388);
#277=LINE('',#1454,#389);
#278=LINE('',#1455,#390);
#279=LINE('',#1457,#391);
#280=LINE('',#1458,#392);
#281=LINE('',#1460,#393);
#282=LINE('',#1461,#394);
#283=LINE('',#1467,#395);
#284=LINE('',#1468,#396);
#285=LINE('',#1469,#397);
#286=LINE('',#1470,#398);
#287=LINE('',#1473,#399);
#288=LINE('',#1474,#400);
#289=LINE('',#1475,#401);
#290=LINE('',#1479,#402);
#291=LINE('',#1480,#403);
#292=LINE('',#1481,#404);
#293=LINE('',#1485,#405);
#294=LINE('',#1486,#406);
#295=LINE('',#1487,#407);
#296=LINE('',#1490,#408);
#297=LINE('',#1493,#409);
#298=LINE('',#1494,#410);
#299=LINE('',#1495,#411);
#300=LINE('',#1498,#412);
#301=LINE('',#1500,#413);
#302=LINE('',#1502,#414);
#303=LINE('',#1506,#415);
#304=LINE('',#1508,#416);
#305=LINE('',#1510,#417);
#306=LINE('',#1511,#418);
#307=LINE('',#1514,#419);
#308=LINE('',#1515,#420);
#309=LINE('',#1516,#421);
#310=LINE('',#1518,#422);
#311=LINE('',#1519,#423);
#312=LINE('',#1521,#424);
#313=LINE('',#1524,#425);
#314=VECTOR('',#1022,10.);
#315=VECTOR('',#1025,10.);
#316=VECTOR('',#1030,10.);
#317=VECTOR('',#1033,10.);
#318=VECTOR('',#1038,10.);
#319=VECTOR('',#1039,10.);
#320=VECTOR('',#1042,10.);
#321=VECTOR('',#1043,10.);
#322=VECTOR('',#1046,10.);
#323=VECTOR('',#1047,10.);
#324=VECTOR('',#1048,10.);
#325=VECTOR('',#1051,10.);
#326=VECTOR('',#1052,10.);
#327=VECTOR('',#1055,10.);
#328=VECTOR('',#1056,10.);
#329=VECTOR('',#1057,10.);
#330=VECTOR('',#1058,10.);
#331=VECTOR('',#1063,10.);
#332=VECTOR('',#1066,10.);
#333=VECTOR('',#1069,10.);
#334=VECTOR('',#1070,10.);
#335=VECTOR('',#1071,10.);
#336=VECTOR('',#1076,10.);
#337=VECTOR('',#1079,10.);
#338=VECTOR('',#1082,10.);
#339=VECTOR('',#1083,10.);
#340=VECTOR('',#1084,10.);
#341=VECTOR('',#1089,10.);
#342=VECTOR('',#1092,10.);
#343=VECTOR('',#1095,10.);
#344=VECTOR('',#1096,10.);
#345=VECTOR('',#1097,10.);
#346=VECTOR('',#1102,10.);
#347=VECTOR('',#1105,10.);
#348=VECTOR('',#1108,10.);
#349=VECTOR('',#1109,10.);
#350=VECTOR('',#1110,10.);
#351=VECTOR('',#1113,10.);
#352=VECTOR('',#1114,10.);
#353=VECTOR('',#1115,10.);
#354=VECTOR('',#1118,10.);
#355=VECTOR('',#1119,10.);
#356=VECTOR('',#1120,10.);
#357=VECTOR('',#1123,10.);
#358=VECTOR('',#1124,10.);
#359=VECTOR('',#1125,10.);
#360=VECTOR('',#1128,10.);
#361=VECTOR('',#1129,10.);
#362=VECTOR('',#1130,10.);
#363=VECTOR('',#1133,10.);
#364=VECTOR('',#1134,10.);
#365=VECTOR('',#1135,10.);
#366=VECTOR('',#1138,10.);
#367=VECTOR('',#1139,10.);
#368=VECTOR('',#1140,10.);
#369=VECTOR('',#1143,10.);
#370=VECTOR('',#1146,10.);
#371=VECTOR('',#1147,10.);
#372=VECTOR('',#1150,10.);
#373=VECTOR('',#1151,10.);
#374=VECTOR('',#1152,10.);
#375=VECTOR('',#1155,10.);
#376=VECTOR('',#1158,10.);
#377=VECTOR('',#1159,10.);
#378=VECTOR('',#1160,10.);
#379=VECTOR('',#1163,10.);
#380=VECTOR('',#1166,10.);
#381=VECTOR('',#1169,10.);
#382=VECTOR('',#1170,10.);
#383=VECTOR('',#1173,10.);
#384=VECTOR('',#1174,10.);
#385=VECTOR('',#1177,10.);
#386=VECTOR('',#1178,10.);
#387=VECTOR('',#1181,10.);
#388=VECTOR('',#1182,10.);
#389=VECTOR('',#1185,10.);
#390=VECTOR('',#1186,10.);
#391=VECTOR('',#1189,10.);
#392=VECTOR('',#1190,10.);
#393=VECTOR('',#1193,10.);
#394=VECTOR('',#1194,10.);
#395=VECTOR('',#1205,10.);
#396=VECTOR('',#1206,10.);
#397=VECTOR('',#1207,10.);
#398=VECTOR('',#1208,10.);
#399=VECTOR('',#1211,10.);
#400=VECTOR('',#1212,10.);
#401=VECTOR('',#1213,10.);
#402=VECTOR('',#1218,10.);
#403=VECTOR('',#1219,10.);
#404=VECTOR('',#1220,10.);
#405=VECTOR('',#1225,10.);
#406=VECTOR('',#1226,10.);
#407=VECTOR('',#1227,10.);
#408=VECTOR('',#1232,10.);
#409=VECTOR('',#1235,10.);
#410=VECTOR('',#1236,10.);
#411=VECTOR('',#1237,10.);
#412=VECTOR('',#1242,10.);
#413=VECTOR('',#1245,10.);
#414=VECTOR('',#1248,10.);
#415=VECTOR('',#1251,10.);
#416=VECTOR('',#1252,10.);
#417=VECTOR('',#1253,10.);
#418=VECTOR('',#1254,10.);
#419=VECTOR('',#1257,10.);
#420=VECTOR('',#1258,10.);
#421=VECTOR('',#1259,10.);
#422=VECTOR('',#1262,10.);
#423=VECTOR('',#1263,10.);
#424=VECTOR('',#1266,10.);
#425=VECTOR('',#1271,10.);
#426=VERTEX_POINT('',#1276);
#427=VERTEX_POINT('',#1277);
#428=VERTEX_POINT('',#1279);
#429=VERTEX_POINT('',#1281);
#430=VERTEX_POINT('',#1285);
#431=VERTEX_POINT('',#1286);
#432=VERTEX_POINT('',#1288);
#433=VERTEX_POINT('',#1290);
#434=VERTEX_POINT('',#1300);
#435=VERTEX_POINT('',#1302);
#436=VERTEX_POINT('',#1306);
#437=VERTEX_POINT('',#1310);
#438=VERTEX_POINT('',#1311);
#439=VERTEX_POINT('',#1313);
#440=VERTEX_POINT('',#1315);
#441=VERTEX_POINT('',#1319);
#442=VERTEX_POINT('',#1320);
#443=VERTEX_POINT('',#1322);
#444=VERTEX_POINT('',#1324);
#445=VERTEX_POINT('',#1328);
#446=VERTEX_POINT('',#1330);
#447=VERTEX_POINT('',#1334);
#448=VERTEX_POINT('',#1335);
#449=VERTEX_POINT('',#1337);
#450=VERTEX_POINT('',#1339);
#451=VERTEX_POINT('',#1343);
#452=VERTEX_POINT('',#1345);
#453=VERTEX_POINT('',#1349);
#454=VERTEX_POINT('',#1350);
#455=VERTEX_POINT('',#1352);
#456=VERTEX_POINT('',#1354);
#457=VERTEX_POINT('',#1358);
#458=VERTEX_POINT('',#1360);
#459=VERTEX_POINT('',#1364);
#460=VERTEX_POINT('',#1365);
#461=VERTEX_POINT('',#1367);
#462=VERTEX_POINT('',#1369);
#463=VERTEX_POINT('',#1373);
#464=VERTEX_POINT('',#1375);
#465=VERTEX_POINT('',#1379);
#466=VERTEX_POINT('',#1380);
#467=VERTEX_POINT('',#1382);
#468=VERTEX_POINT('',#1386);
#469=VERTEX_POINT('',#1387);
#470=VERTEX_POINT('',#1389);
#471=VERTEX_POINT('',#1393);
#472=VERTEX_POINT('',#1394);
#473=VERTEX_POINT('',#1396);
#474=VERTEX_POINT('',#1400);
#475=VERTEX_POINT('',#1401);
#476=VERTEX_POINT('',#1406);
#477=VERTEX_POINT('',#1407);
#478=VERTEX_POINT('',#1409);
#479=VERTEX_POINT('',#1413);
#480=VERTEX_POINT('',#1415);
#481=VERTEX_POINT('',#1424);
#482=VERTEX_POINT('',#1425);
#483=VERTEX_POINT('',#1432);
#484=VERTEX_POINT('',#1433);
#485=VERTEX_POINT('',#1472);
#486=VERTEX_POINT('',#1478);
#487=VERTEX_POINT('',#1484);
#488=VERTEX_POINT('',#1492);
#489=VERTEX_POINT('',#1504);
#490=VERTEX_POINT('',#1505);
#491=VERTEX_POINT('',#1507);
#492=VERTEX_POINT('',#1509);
#493=VERTEX_POINT('',#1513);
#494=EDGE_CURVE('',#426,#427,#202,.T.);
#495=EDGE_CURVE('',#427,#428,#190,.T.);
#496=EDGE_CURVE('',#428,#429,#203,.T.);
#497=EDGE_CURVE('',#429,#426,#191,.T.);
#498=EDGE_CURVE('',#430,#431,#204,.T.);
#499=EDGE_CURVE('',#431,#432,#192,.T.);
#500=EDGE_CURVE('',#432,#433,#205,.T.);
#501=EDGE_CURVE('',#430,#433,#193,.T.);
#502=EDGE_CURVE('',#427,#432,#206,.T.);
#503=EDGE_CURVE('',#431,#428,#207,.T.);
#504=EDGE_CURVE('',#433,#426,#208,.T.);
#505=EDGE_CURVE('',#429,#430,#209,.T.);
#506=EDGE_CURVE('',#433,#434,#210,.T.);
#507=EDGE_CURVE('',#435,#434,#211,.T.);
#508=EDGE_CURVE('',#426,#435,#212,.T.);
#509=EDGE_CURVE('',#432,#436,#213,.T.);
#510=EDGE_CURVE('',#434,#436,#214,.T.);
#511=EDGE_CURVE('',#437,#438,#215,.T.);
#512=EDGE_CURVE('',#439,#437,#216,.T.);
#513=EDGE_CURVE('',#440,#439,#217,.T.);
#514=EDGE_CURVE('',#438,#440,#218,.T.);
#515=EDGE_CURVE('',#441,#442,#194,.T.);
#516=EDGE_CURVE('',#442,#443,#219,.T.);
#517=EDGE_CURVE('',#443,#444,#195,.T.);
#518=EDGE_CURVE('',#444,#441,#220,.T.);
#519=EDGE_CURVE('',#445,#442,#221,.T.);
#520=EDGE_CURVE('',#446,#445,#222,.T.);
#521=EDGE_CURVE('',#443,#446,#223,.T.);
#522=EDGE_CURVE('',#447,#448,#196,.T.);
#523=EDGE_CURVE('',#448,#449,#224,.T.);
#524=EDGE_CURVE('',#449,#450,#197,.T.);
#525=EDGE_CURVE('',#450,#447,#225,.T.);
#526=EDGE_CURVE('',#451,#448,#226,.T.);
#527=EDGE_CURVE('',#452,#451,#227,.T.);
#528=EDGE_CURVE('',#449,#452,#228,.T.);
#529=EDGE_CURVE('',#453,#454,#198,.T.);
#530=EDGE_CURVE('',#454,#455,#229,.T.);
#531=EDGE_CURVE('',#455,#456,#199,.T.);
#532=EDGE_CURVE('',#456,#453,#230,.T.);
#533=EDGE_CURVE('',#457,#454,#231,.T.);
#534=EDGE_CURVE('',#458,#457,#232,.T.);
#535=EDGE_CURVE('',#455,#458,#233,.T.);
#536=EDGE_CURVE('',#459,#460,#200,.T.);
#537=EDGE_CURVE('',#460,#461,#234,.T.);
#538=EDGE_CURVE('',#461,#462,#201,.T.);
#539=EDGE_CURVE('',#462,#459,#235,.T.);
#540=EDGE_CURVE('',#463,#460,#236,.T.);
#541=EDGE_CURVE('',#464,#463,#237,.T.);
#542=EDGE_CURVE('',#461,#464,#238,.T.);
#543=EDGE_CURVE('',#465,#466,#239,.T.);
#544=EDGE_CURVE('',#467,#465,#240,.T.);
#545=EDGE_CURVE('',#466,#467,#241,.T.);
#546=EDGE_CURVE('',#468,#469,#242,.T.);
#547=EDGE_CURVE('',#470,#468,#243,.T.);
#548=EDGE_CURVE('',#469,#470,#244,.T.);
#549=EDGE_CURVE('',#471,#472,#245,.T.);
#550=EDGE_CURVE('',#473,#471,#246,.T.);
#551=EDGE_CURVE('',#472,#473,#247,.T.);
#552=EDGE_CURVE('',#474,#475,#248,.T.);
#553=EDGE_CURVE('',#438,#474,#249,.T.);
#554=EDGE_CURVE('',#475,#438,#250,.T.);
#555=EDGE_CURVE('',#476,#477,#251,.T.);
#556=EDGE_CURVE('',#478,#476,#252,.T.);
#557=EDGE_CURVE('',#477,#478,#253,.T.);
#558=EDGE_CURVE('',#437,#479,#254,.T.);
#559=EDGE_CURVE('',#480,#437,#255,.T.);
#560=EDGE_CURVE('',#479,#480,#256,.T.);
#561=EDGE_CURVE('',#474,#480,#257,.T.);
#562=EDGE_CURVE('',#468,#479,#258,.T.);
#563=EDGE_CURVE('',#480,#470,#259,.T.);
#564=EDGE_CURVE('',#481,#482,#260,.T.);
#565=EDGE_CURVE('',#440,#481,#261,.T.);
#566=EDGE_CURVE('',#482,#440,#262,.T.);
#567=EDGE_CURVE('',#481,#475,#263,.T.);
#568=EDGE_CURVE('',#483,#484,#264,.T.);
#569=EDGE_CURVE('',#439,#483,#265,.T.);
#570=EDGE_CURVE('',#484,#439,#266,.T.);
#571=EDGE_CURVE('',#483,#482,#267,.T.);
#572=EDGE_CURVE('',#479,#484,#268,.T.);
#573=EDGE_CURVE('',#476,#483,#269,.T.);
#574=EDGE_CURVE('',#484,#478,#270,.T.);
#575=EDGE_CURVE('',#471,#481,#271,.T.);
#576=EDGE_CURVE('',#482,#473,#272,.T.);
#577=EDGE_CURVE('',#469,#477,#273,.T.);
#578=EDGE_CURVE('',#478,#468,#274,.T.);
#579=EDGE_CURVE('',#477,#472,#275,.T.);
#580=EDGE_CURVE('',#473,#476,#276,.T.);
#581=EDGE_CURVE('',#465,#474,#277,.T.);
#582=EDGE_CURVE('',#475,#467,#278,.T.);
#583=EDGE_CURVE('',#472,#466,#279,.T.);
#584=EDGE_CURVE('',#467,#471,#280,.T.);
#585=EDGE_CURVE('',#466,#469,#281,.T.);
#586=EDGE_CURVE('',#470,#465,#282,.T.);
#587=EDGE_CURVE('',#447,#444,#283,.T.);
#588=EDGE_CURVE('',#453,#450,#284,.T.);
#589=EDGE_CURVE('',#459,#456,#285,.T.);
#590=EDGE_CURVE('',#441,#462,#286,.T.);
#591=EDGE_CURVE('',#463,#485,#287,.T.);
#592=EDGE_CURVE('',#458,#463,#288,.T.);
#593=EDGE_CURVE('',#485,#458,#289,.T.);
#594=EDGE_CURVE('',#457,#486,#290,.T.);
#595=EDGE_CURVE('',#452,#457,#291,.T.);
#596=EDGE_CURVE('',#486,#452,#292,.T.);
#597=EDGE_CURVE('',#445,#487,#293,.T.);
#598=EDGE_CURVE('',#464,#445,#294,.T.);
#599=EDGE_CURVE('',#487,#464,#295,.T.);
#600=EDGE_CURVE('',#485,#487,#296,.T.);
#601=EDGE_CURVE('',#451,#488,#297,.T.);
#602=EDGE_CURVE('',#446,#451,#298,.T.);
#603=EDGE_CURVE('',#488,#446,#299,.T.);
#604=EDGE_CURVE('',#487,#488,#300,.T.);
#605=EDGE_CURVE('',#488,#486,#301,.T.);
#606=EDGE_CURVE('',#486,#485,#302,.T.);
#607=EDGE_CURVE('',#489,#490,#303,.T.);
#608=EDGE_CURVE('',#491,#489,#304,.T.);
#609=EDGE_CURVE('',#492,#491,#305,.T.);
#610=EDGE_CURVE('',#490,#492,#306,.T.);
#611=EDGE_CURVE('',#490,#493,#307,.T.);
#612=EDGE_CURVE('',#493,#435,#308,.T.);
#613=EDGE_CURVE('',#489,#435,#309,.T.);
#614=EDGE_CURVE('',#492,#436,#310,.T.);
#615=EDGE_CURVE('',#436,#493,#311,.T.);
#616=EDGE_CURVE('',#491,#434,#312,.T.);
#617=EDGE_CURVE('',#427,#493,#313,.T.);
#618=ORIENTED_EDGE('',*,*,#494,.T.);
#619=ORIENTED_EDGE('',*,*,#495,.T.);
#620=ORIENTED_EDGE('',*,*,#496,.T.);
#621=ORIENTED_EDGE('',*,*,#497,.T.);
#622=ORIENTED_EDGE('',*,*,#498,.T.);
#623=ORIENTED_EDGE('',*,*,#499,.T.);
#624=ORIENTED_EDGE('',*,*,#500,.T.);
#625=ORIENTED_EDGE('',*,*,#501,.F.);
#626=ORIENTED_EDGE('',*,*,#502,.T.);
#627=ORIENTED_EDGE('',*,*,#499,.F.);
#628=ORIENTED_EDGE('',*,*,#503,.T.);
#629=ORIENTED_EDGE('',*,*,#495,.F.);
#630=ORIENTED_EDGE('',*,*,#504,.T.);
#631=ORIENTED_EDGE('',*,*,#497,.F.);
#632=ORIENTED_EDGE('',*,*,#505,.T.);
#633=ORIENTED_EDGE('',*,*,#501,.T.);
#634=ORIENTED_EDGE('',*,*,#504,.F.);
#635=ORIENTED_EDGE('',*,*,#506,.T.);
#636=ORIENTED_EDGE('',*,*,#507,.F.);
#637=ORIENTED_EDGE('',*,*,#508,.F.);
#638=ORIENTED_EDGE('',*,*,#500,.F.);
#639=ORIENTED_EDGE('',*,*,#509,.T.);
#640=ORIENTED_EDGE('',*,*,#510,.F.);
#641=ORIENTED_EDGE('',*,*,#506,.F.);
#642=ORIENTED_EDGE('',*,*,#511,.F.);
#643=ORIENTED_EDGE('',*,*,#512,.F.);
#644=ORIENTED_EDGE('',*,*,#513,.F.);
#645=ORIENTED_EDGE('',*,*,#514,.F.);
#646=ORIENTED_EDGE('',*,*,#498,.F.);
#647=ORIENTED_EDGE('',*,*,#505,.F.);
#648=ORIENTED_EDGE('',*,*,#496,.F.);
#649=ORIENTED_EDGE('',*,*,#503,.F.);
#650=ORIENTED_EDGE('',*,*,#515,.T.);
#651=ORIENTED_EDGE('',*,*,#516,.T.);
#652=ORIENTED_EDGE('',*,*,#517,.T.);
#653=ORIENTED_EDGE('',*,*,#518,.T.);
#654=ORIENTED_EDGE('',*,*,#516,.F.);
#655=ORIENTED_EDGE('',*,*,#519,.F.);
#656=ORIENTED_EDGE('',*,*,#520,.F.);
#657=ORIENTED_EDGE('',*,*,#521,.F.);
#658=ORIENTED_EDGE('',*,*,#522,.T.);
#659=ORIENTED_EDGE('',*,*,#523,.T.);
#660=ORIENTED_EDGE('',*,*,#524,.T.);
#661=ORIENTED_EDGE('',*,*,#525,.T.);
#662=ORIENTED_EDGE('',*,*,#523,.F.);
#663=ORIENTED_EDGE('',*,*,#526,.F.);
#664=ORIENTED_EDGE('',*,*,#527,.F.);
#665=ORIENTED_EDGE('',*,*,#528,.F.);
#666=ORIENTED_EDGE('',*,*,#529,.T.);
#667=ORIENTED_EDGE('',*,*,#530,.T.);
#668=ORIENTED_EDGE('',*,*,#531,.T.);
#669=ORIENTED_EDGE('',*,*,#532,.T.);
#670=ORIENTED_EDGE('',*,*,#530,.F.);
#671=ORIENTED_EDGE('',*,*,#533,.F.);
#672=ORIENTED_EDGE('',*,*,#534,.F.);
#673=ORIENTED_EDGE('',*,*,#535,.F.);
#674=ORIENTED_EDGE('',*,*,#536,.T.);
#675=ORIENTED_EDGE('',*,*,#537,.T.);
#676=ORIENTED_EDGE('',*,*,#538,.T.);
#677=ORIENTED_EDGE('',*,*,#539,.T.);
#678=ORIENTED_EDGE('',*,*,#537,.F.);
#679=ORIENTED_EDGE('',*,*,#540,.F.);
#680=ORIENTED_EDGE('',*,*,#541,.F.);
#681=ORIENTED_EDGE('',*,*,#542,.F.);
#682=ORIENTED_EDGE('',*,*,#543,.F.);
#683=ORIENTED_EDGE('',*,*,#544,.F.);
#684=ORIENTED_EDGE('',*,*,#545,.F.);
#685=ORIENTED_EDGE('',*,*,#546,.F.);
#686=ORIENTED_EDGE('',*,*,#547,.F.);
#687=ORIENTED_EDGE('',*,*,#548,.F.);
#688=ORIENTED_EDGE('',*,*,#549,.F.);
#689=ORIENTED_EDGE('',*,*,#550,.F.);
#690=ORIENTED_EDGE('',*,*,#551,.F.);
#691=ORIENTED_EDGE('',*,*,#552,.F.);
#692=ORIENTED_EDGE('',*,*,#553,.F.);
#693=ORIENTED_EDGE('',*,*,#554,.F.);
#694=ORIENTED_EDGE('',*,*,#555,.F.);
#695=ORIENTED_EDGE('',*,*,#556,.F.);
#696=ORIENTED_EDGE('',*,*,#557,.F.);
#697=ORIENTED_EDGE('',*,*,#558,.F.);
#698=ORIENTED_EDGE('',*,*,#559,.F.);
#699=ORIENTED_EDGE('',*,*,#560,.F.);
#700=ORIENTED_EDGE('',*,*,#559,.T.);
#701=ORIENTED_EDGE('',*,*,#511,.T.);
#702=ORIENTED_EDGE('',*,*,#553,.T.);
#703=ORIENTED_EDGE('',*,*,#561,.T.);
#704=ORIENTED_EDGE('',*,*,#547,.T.);
#705=ORIENTED_EDGE('',*,*,#562,.T.);
#706=ORIENTED_EDGE('',*,*,#560,.T.);
#707=ORIENTED_EDGE('',*,*,#563,.T.);
#708=ORIENTED_EDGE('',*,*,#564,.F.);
#709=ORIENTED_EDGE('',*,*,#565,.F.);
#710=ORIENTED_EDGE('',*,*,#566,.F.);
#711=ORIENTED_EDGE('',*,*,#554,.T.);
#712=ORIENTED_EDGE('',*,*,#514,.T.);
#713=ORIENTED_EDGE('',*,*,#565,.T.);
#714=ORIENTED_EDGE('',*,*,#567,.T.);
#715=ORIENTED_EDGE('',*,*,#568,.F.);
#716=ORIENTED_EDGE('',*,*,#569,.F.);
#717=ORIENTED_EDGE('',*,*,#570,.F.);
#718=ORIENTED_EDGE('',*,*,#566,.T.);
#719=ORIENTED_EDGE('',*,*,#513,.T.);
#720=ORIENTED_EDGE('',*,*,#569,.T.);
#721=ORIENTED_EDGE('',*,*,#571,.T.);
#722=ORIENTED_EDGE('',*,*,#570,.T.);
#723=ORIENTED_EDGE('',*,*,#512,.T.);
#724=ORIENTED_EDGE('',*,*,#558,.T.);
#725=ORIENTED_EDGE('',*,*,#572,.T.);
#726=ORIENTED_EDGE('',*,*,#556,.T.);
#727=ORIENTED_EDGE('',*,*,#573,.T.);
#728=ORIENTED_EDGE('',*,*,#568,.T.);
#729=ORIENTED_EDGE('',*,*,#574,.T.);
#730=ORIENTED_EDGE('',*,*,#550,.T.);
#731=ORIENTED_EDGE('',*,*,#575,.T.);
#732=ORIENTED_EDGE('',*,*,#564,.T.);
#733=ORIENTED_EDGE('',*,*,#576,.T.);
#734=ORIENTED_EDGE('',*,*,#546,.T.);
#735=ORIENTED_EDGE('',*,*,#577,.T.);
#736=ORIENTED_EDGE('',*,*,#557,.T.);
#737=ORIENTED_EDGE('',*,*,#578,.T.);
#738=ORIENTED_EDGE('',*,*,#555,.T.);
#739=ORIENTED_EDGE('',*,*,#579,.T.);
#740=ORIENTED_EDGE('',*,*,#551,.T.);
#741=ORIENTED_EDGE('',*,*,#580,.T.);
#742=ORIENTED_EDGE('',*,*,#544,.T.);
#743=ORIENTED_EDGE('',*,*,#581,.T.);
#744=ORIENTED_EDGE('',*,*,#552,.T.);
#745=ORIENTED_EDGE('',*,*,#582,.T.);
#746=ORIENTED_EDGE('',*,*,#549,.T.);
#747=ORIENTED_EDGE('',*,*,#583,.T.);
#748=ORIENTED_EDGE('',*,*,#545,.T.);
#749=ORIENTED_EDGE('',*,*,#584,.T.);
#750=ORIENTED_EDGE('',*,*,#543,.T.);
#751=ORIENTED_EDGE('',*,*,#585,.T.);
#752=ORIENTED_EDGE('',*,*,#548,.T.);
#753=ORIENTED_EDGE('',*,*,#586,.T.);
#754=ORIENTED_EDGE('',*,*,#561,.F.);
#755=ORIENTED_EDGE('',*,*,#581,.F.);
#756=ORIENTED_EDGE('',*,*,#586,.F.);
#757=ORIENTED_EDGE('',*,*,#563,.F.);
#758=ORIENTED_EDGE('',*,*,#562,.F.);
#759=ORIENTED_EDGE('',*,*,#578,.F.);
#760=ORIENTED_EDGE('',*,*,#574,.F.);
#761=ORIENTED_EDGE('',*,*,#572,.F.);
#762=ORIENTED_EDGE('',*,*,#567,.F.);
#763=ORIENTED_EDGE('',*,*,#575,.F.);
#764=ORIENTED_EDGE('',*,*,#584,.F.);
#765=ORIENTED_EDGE('',*,*,#582,.F.);
#766=ORIENTED_EDGE('',*,*,#571,.F.);
#767=ORIENTED_EDGE('',*,*,#573,.F.);
#768=ORIENTED_EDGE('',*,*,#580,.F.);
#769=ORIENTED_EDGE('',*,*,#576,.F.);
#770=ORIENTED_EDGE('',*,*,#577,.F.);
#771=ORIENTED_EDGE('',*,*,#585,.F.);
#772=ORIENTED_EDGE('',*,*,#583,.F.);
#773=ORIENTED_EDGE('',*,*,#579,.F.);
#774=ORIENTED_EDGE('',*,*,#587,.F.);
#775=ORIENTED_EDGE('',*,*,#525,.F.);
#776=ORIENTED_EDGE('',*,*,#588,.F.);
#777=ORIENTED_EDGE('',*,*,#532,.F.);
#778=ORIENTED_EDGE('',*,*,#589,.F.);
#779=ORIENTED_EDGE('',*,*,#539,.F.);
#780=ORIENTED_EDGE('',*,*,#590,.F.);
#781=ORIENTED_EDGE('',*,*,#518,.F.);
#782=ORIENTED_EDGE('',*,*,#591,.F.);
#783=ORIENTED_EDGE('',*,*,#592,.F.);
#784=ORIENTED_EDGE('',*,*,#593,.F.);
#785=ORIENTED_EDGE('',*,*,#589,.T.);
#786=ORIENTED_EDGE('',*,*,#531,.F.);
#787=ORIENTED_EDGE('',*,*,#535,.T.);
#788=ORIENTED_EDGE('',*,*,#592,.T.);
#789=ORIENTED_EDGE('',*,*,#540,.T.);
#790=ORIENTED_EDGE('',*,*,#536,.F.);
#791=ORIENTED_EDGE('',*,*,#594,.F.);
#792=ORIENTED_EDGE('',*,*,#595,.F.);
#793=ORIENTED_EDGE('',*,*,#596,.F.);
#794=ORIENTED_EDGE('',*,*,#588,.T.);
#795=ORIENTED_EDGE('',*,*,#524,.F.);
#796=ORIENTED_EDGE('',*,*,#528,.T.);
#797=ORIENTED_EDGE('',*,*,#595,.T.);
#798=ORIENTED_EDGE('',*,*,#533,.T.);
#799=ORIENTED_EDGE('',*,*,#529,.F.);
#800=ORIENTED_EDGE('',*,*,#597,.F.);
#801=ORIENTED_EDGE('',*,*,#598,.F.);
#802=ORIENTED_EDGE('',*,*,#599,.F.);
#803=ORIENTED_EDGE('',*,*,#590,.T.);
#804=ORIENTED_EDGE('',*,*,#538,.F.);
#805=ORIENTED_EDGE('',*,*,#542,.T.);
#806=ORIENTED_EDGE('',*,*,#598,.T.);
#807=ORIENTED_EDGE('',*,*,#519,.T.);
#808=ORIENTED_EDGE('',*,*,#515,.F.);
#809=ORIENTED_EDGE('',*,*,#591,.T.);
#810=ORIENTED_EDGE('',*,*,#600,.T.);
#811=ORIENTED_EDGE('',*,*,#599,.T.);
#812=ORIENTED_EDGE('',*,*,#541,.T.);
#813=ORIENTED_EDGE('',*,*,#601,.F.);
#814=ORIENTED_EDGE('',*,*,#602,.F.);
#815=ORIENTED_EDGE('',*,*,#603,.F.);
#816=ORIENTED_EDGE('',*,*,#587,.T.);
#817=ORIENTED_EDGE('',*,*,#517,.F.);
#818=ORIENTED_EDGE('',*,*,#521,.T.);
#819=ORIENTED_EDGE('',*,*,#602,.T.);
#820=ORIENTED_EDGE('',*,*,#526,.T.);
#821=ORIENTED_EDGE('',*,*,#522,.F.);
#822=ORIENTED_EDGE('',*,*,#597,.T.);
#823=ORIENTED_EDGE('',*,*,#604,.T.);
#824=ORIENTED_EDGE('',*,*,#603,.T.);
#825=ORIENTED_EDGE('',*,*,#520,.T.);
#826=ORIENTED_EDGE('',*,*,#601,.T.);
#827=ORIENTED_EDGE('',*,*,#605,.T.);
#828=ORIENTED_EDGE('',*,*,#596,.T.);
#829=ORIENTED_EDGE('',*,*,#527,.T.);
#830=ORIENTED_EDGE('',*,*,#594,.T.);
#831=ORIENTED_EDGE('',*,*,#606,.T.);
#832=ORIENTED_EDGE('',*,*,#593,.T.);
#833=ORIENTED_EDGE('',*,*,#534,.T.);
#834=ORIENTED_EDGE('',*,*,#600,.F.);
#835=ORIENTED_EDGE('',*,*,#606,.F.);
#836=ORIENTED_EDGE('',*,*,#605,.F.);
#837=ORIENTED_EDGE('',*,*,#604,.F.);
#838=ORIENTED_EDGE('',*,*,#607,.F.);
#839=ORIENTED_EDGE('',*,*,#608,.F.);
#840=ORIENTED_EDGE('',*,*,#609,.F.);
#841=ORIENTED_EDGE('',*,*,#610,.F.);
#842=ORIENTED_EDGE('',*,*,#607,.T.);
#843=ORIENTED_EDGE('',*,*,#611,.T.);
#844=ORIENTED_EDGE('',*,*,#612,.T.);
#845=ORIENTED_EDGE('',*,*,#613,.F.);
#846=ORIENTED_EDGE('',*,*,#610,.T.);
#847=ORIENTED_EDGE('',*,*,#614,.T.);
#848=ORIENTED_EDGE('',*,*,#615,.T.);
#849=ORIENTED_EDGE('',*,*,#611,.F.);
#850=ORIENTED_EDGE('',*,*,#609,.T.);
#851=ORIENTED_EDGE('',*,*,#616,.T.);
#852=ORIENTED_EDGE('',*,*,#510,.T.);
#853=ORIENTED_EDGE('',*,*,#614,.F.);
#854=ORIENTED_EDGE('',*,*,#507,.T.);
#855=ORIENTED_EDGE('',*,*,#616,.F.);
#856=ORIENTED_EDGE('',*,*,#608,.T.);
#857=ORIENTED_EDGE('',*,*,#613,.T.);
#858=ORIENTED_EDGE('',*,*,#494,.F.);
#859=ORIENTED_EDGE('',*,*,#508,.T.);
#860=ORIENTED_EDGE('',*,*,#612,.F.);
#861=ORIENTED_EDGE('',*,*,#617,.F.);
#862=ORIENTED_EDGE('',*,*,#502,.F.);
#863=ORIENTED_EDGE('',*,*,#617,.T.);
#864=ORIENTED_EDGE('',*,*,#615,.F.);
#865=ORIENTED_EDGE('',*,*,#509,.F.);
#866=CYLINDRICAL_SURFACE('',#947,0.2);
#867=CYLINDRICAL_SURFACE('',#950,0.2);
#868=CYLINDRICAL_SURFACE('',#953,0.2);
#869=CYLINDRICAL_SURFACE('',#954,0.2);
#870=CYLINDRICAL_SURFACE('',#958,0.2);
#871=CYLINDRICAL_SURFACE('',#962,0.2);
#872=CYLINDRICAL_SURFACE('',#966,0.2);
#873=CYLINDRICAL_SURFACE('',#970,0.2);
#874=ADVANCED_FACE('',(#69),#866,.T.);
#875=ADVANCED_FACE('',(#70),#867,.T.);
#876=ADVANCED_FACE('',(#71),#868,.T.);
#877=ADVANCED_FACE('',(#72),#869,.T.);
#878=ADVANCED_FACE('',(#73),#18,.T.);
#879=ADVANCED_FACE('',(#74),#19,.T.);
#880=ADVANCED_FACE('',(#75,#15),#20,.F.);
#881=ADVANCED_FACE('',(#76),#870,.F.);
#882=ADVANCED_FACE('',(#77),#21,.T.);
#883=ADVANCED_FACE('',(#78),#871,.F.);
#884=ADVANCED_FACE('',(#79),#22,.T.);
#885=ADVANCED_FACE('',(#80),#872,.F.);
#886=ADVANCED_FACE('',(#81),#23,.T.);
#887=ADVANCED_FACE('',(#82),#873,.F.);
#888=ADVANCED_FACE('',(#83),#24,.T.);
#889=ADVANCED_FACE('',(#84),#25,.T.);
#890=ADVANCED_FACE('',(#85),#26,.T.);
#891=ADVANCED_FACE('',(#86),#27,.T.);
#892=ADVANCED_FACE('',(#87),#28,.T.);
#893=ADVANCED_FACE('',(#88),#29,.T.);
#894=ADVANCED_FACE('',(#89),#30,.T.);
#895=ADVANCED_FACE('',(#90),#31,.T.);
#896=ADVANCED_FACE('',(#91),#32,.T.);
#897=ADVANCED_FACE('',(#92),#33,.T.);
#898=ADVANCED_FACE('',(#93),#34,.T.);
#899=ADVANCED_FACE('',(#94),#35,.T.);
#900=ADVANCED_FACE('',(#95),#36,.T.);
#901=ADVANCED_FACE('',(#96),#37,.T.);
#902=ADVANCED_FACE('',(#97),#38,.T.);
#903=ADVANCED_FACE('',(#98),#39,.T.);
#904=ADVANCED_FACE('',(#99),#40,.T.);
#905=ADVANCED_FACE('',(#100),#41,.T.);
#906=ADVANCED_FACE('',(#101),#42,.T.);
#907=ADVANCED_FACE('',(#102),#43,.T.);
#908=ADVANCED_FACE('',(#103),#44,.T.);
#909=ADVANCED_FACE('',(#104),#45,.T.);
#910=ADVANCED_FACE('',(#105),#46,.T.);
#911=ADVANCED_FACE('',(#106),#47,.T.);
#912=ADVANCED_FACE('',(#107),#48,.T.);
#913=ADVANCED_FACE('',(#108,#16),#49,.T.);
#914=ADVANCED_FACE('',(#109),#50,.T.);
#915=ADVANCED_FACE('',(#110),#51,.T.);
#916=ADVANCED_FACE('',(#111),#52,.T.);
#917=ADVANCED_FACE('',(#112),#53,.T.);
#918=ADVANCED_FACE('',(#113),#54,.T.);
#919=ADVANCED_FACE('',(#114),#55,.T.);
#920=ADVANCED_FACE('',(#115),#56,.T.);
#921=ADVANCED_FACE('',(#116),#57,.T.);
#922=ADVANCED_FACE('',(#117),#58,.T.);
#923=ADVANCED_FACE('',(#118),#59,.T.);
#924=ADVANCED_FACE('',(#119),#60,.T.);
#925=ADVANCED_FACE('',(#120),#61,.T.);
#926=ADVANCED_FACE('',(#121,#17),#62,.T.);
#927=ADVANCED_FACE('',(#122),#63,.T.);
#928=ADVANCED_FACE('',(#123),#64,.T.);
#929=ADVANCED_FACE('',(#124),#65,.T.);
#930=ADVANCED_FACE('',(#125),#66,.T.);
#931=ADVANCED_FACE('',(#126),#67,.T.);
#932=ADVANCED_FACE('',(#127),#68,.T.);
#933=CLOSED_SHELL('',(#874,#875,#876,#877,#878,#879,#880,#881,#882,#883,
#884,#885,#886,#887,#888,#889,#890,#891,#892,#893,#894,#895,#896,#897,#898,
#899,#900,#901,#902,#903,#904,#905,#906,#907,#908,#909,#910,#911,#912,#913,
#914,#915,#916,#917,#918,#919,#920,#921,#922,#923,#924,#925,#926,#927,#928,
#929,#930,#931,#932));
#934=DERIVED_UNIT_ELEMENT(#936,1.);
#935=DERIVED_UNIT_ELEMENT(#1531,-3.);
#936=(
MASS_UNIT()
NAMED_UNIT(*)
SI_UNIT(.KILO.,.GRAM.)
);
#937=DERIVED_UNIT((#934,#935));
#938=MEASURE_REPRESENTATION_ITEM('density measure',
POSITIVE_RATIO_MEASURE(7850.),#937);
#939=PROPERTY_DEFINITION_REPRESENTATION(#944,#941);
#940=PROPERTY_DEFINITION_REPRESENTATION(#945,#942);
#941=REPRESENTATION('material name',(#943),#1528);
#942=REPRESENTATION('density',(#938),#1528);
#943=DESCRIPTIVE_REPRESENTATION_ITEM('Steel','Steel');
#944=PROPERTY_DEFINITION('material property','material name',#1538);
#945=PROPERTY_DEFINITION('material property','density of part',#1538);
#946=AXIS2_PLACEMENT_3D('',#1274,#1018,#1019);
#947=AXIS2_PLACEMENT_3D('',#1275,#1020,#1021);
#948=AXIS2_PLACEMENT_3D('',#1280,#1023,#1024);
#949=AXIS2_PLACEMENT_3D('',#1283,#1026,#1027);
#950=AXIS2_PLACEMENT_3D('',#1284,#1028,#1029);
#951=AXIS2_PLACEMENT_3D('',#1289,#1031,#1032);
#952=AXIS2_PLACEMENT_3D('',#1292,#1034,#1035);
#953=AXIS2_PLACEMENT_3D('',#1293,#1036,#1037);
#954=AXIS2_PLACEMENT_3D('',#1296,#1040,#1041);
#955=AXIS2_PLACEMENT_3D('',#1299,#1044,#1045);
#956=AXIS2_PLACEMENT_3D('',#1305,#1049,#1050);
#957=AXIS2_PLACEMENT_3D('',#1309,#1053,#1054);
#958=AXIS2_PLACEMENT_3D('',#1318,#1059,#1060);
#959=AXIS2_PLACEMENT_3D('',#1321,#1061,#1062);
#960=AXIS2_PLACEMENT_3D('',#1325,#1064,#1065);
#961=AXIS2_PLACEMENT_3D('',#1327,#1067,#1068);
#962=AXIS2_PLACEMENT_3D('',#1333,#1072,#1073);
#963=AXIS2_PLACEMENT_3D('',#1336,#1074,#1075);
#964=AXIS2_PLACEMENT_3D('',#1340,#1077,#1078);
#965=AXIS2_PLACEMENT_3D('',#1342,#1080,#1081);
#966=AXIS2_PLACEMENT_3D('',#1348,#1085,#1086);
#967=AXIS2_PLACEMENT_3D('',#1351,#1087,#1088);
#968=AXIS2_PLACEMENT_3D('',#1355,#1090,#1091);
#969=AXIS2_PLACEMENT_3D('',#1357,#1093,#1094);
#970=AXIS2_PLACEMENT_3D('',#1363,#1098,#1099);
#971=AXIS2_PLACEMENT_3D('',#1366,#1100,#1101);
#972=AXIS2_PLACEMENT_3D('',#1370,#1103,#1104);
#973=AXIS2_PLACEMENT_3D('',#1372,#1106,#1107);
#974=AXIS2_PLACEMENT_3D('',#1378,#1111,#1112);
#975=AXIS2_PLACEMENT_3D('',#1385,#1116,#1117);
#976=AXIS2_PLACEMENT_3D('',#1392,#1121,#1122);
#977=AXIS2_PLACEMENT_3D('',#1399,#1126,#1127);
#978=AXIS2_PLACEMENT_3D('',#1405,#1131,#1132);
#979=AXIS2_PLACEMENT_3D('',#1412,#1136,#1137);
#980=AXIS2_PLACEMENT_3D('',#1418,#1141,#1142);
#981=AXIS2_PLACEMENT_3D('',#1420,#1144,#1145);
#982=AXIS2_PLACEMENT_3D('',#1423,#1148,#1149);
#983=AXIS2_PLACEMENT_3D('',#1429,#1153,#1154);
#984=AXIS2_PLACEMENT_3D('',#1431,#1156,#1157);
#985=AXIS2_PLACEMENT_3D('',#1437,#1161,#1162);
#986=AXIS2_PLACEMENT_3D('',#1439,#1164,#1165);
#987=AXIS2_PLACEMENT_3D('',#1441,#1167,#1168);
#988=AXIS2_PLACEMENT_3D('',#1444,#1171,#1172);
#989=AXIS2_PLACEMENT_3D('',#1447,#1175,#1176);
#990=AXIS2_PLACEMENT_3D('',#1450,#1179,#1180);
#991=AXIS2_PLACEMENT_3D('',#1453,#1183,#1184);
#992=AXIS2_PLACEMENT_3D('',#1456,#1187,#1188);
#993=AXIS2_PLACEMENT_3D('',#1459,#1191,#1192);
#994=AXIS2_PLACEMENT_3D('',#1462,#1195,#1196);
#995=AXIS2_PLACEMENT_3D('',#1463,#1197,#1198);
#996=AXIS2_PLACEMENT_3D('',#1464,#1199,#1200);
#997=AXIS2_PLACEMENT_3D('',#1465,#1201,#1202);
#998=AXIS2_PLACEMENT_3D('',#1466,#1203,#1204);
#999=AXIS2_PLACEMENT_3D('',#1471,#1209,#1210);
#1000=AXIS2_PLACEMENT_3D('',#1476,#1214,#1215);
#1001=AXIS2_PLACEMENT_3D('',#1477,#1216,#1217);
#1002=AXIS2_PLACEMENT_3D('',#1482,#1221,#1222);
#1003=AXIS2_PLACEMENT_3D('',#1483,#1223,#1224);
#1004=AXIS2_PLACEMENT_3D('',#1488,#1228,#1229);
#1005=AXIS2_PLACEMENT_3D('',#1489,#1230,#1231);
#1006=AXIS2_PLACEMENT_3D('',#1491,#1233,#1234);
#1007=AXIS2_PLACEMENT_3D('',#1496,#1238,#1239);
#1008=AXIS2_PLACEMENT_3D('',#1497,#1240,#1241);
#1009=AXIS2_PLACEMENT_3D('',#1499,#1243,#1244);
#1010=AXIS2_PLACEMENT_3D('',#1501,#1246,#1247);
#1011=AXIS2_PLACEMENT_3D('',#1503,#1249,#1250);
#1012=AXIS2_PLACEMENT_3D('',#1512,#1255,#1256);
#1013=AXIS2_PLACEMENT_3D('',#1517,#1260,#1261);
#1014=AXIS2_PLACEMENT_3D('',#1520,#1264,#1265);
#1015=AXIS2_PLACEMENT_3D('',#1522,#1267,#1268);
#1016=AXIS2_PLACEMENT_3D('',#1523,#1269,#1270);
#1017=AXIS2_PLACEMENT_3D('',#1525,#1272,#1273);
#1018=DIRECTION('axis',(0.,0.,1.));
#1019=DIRECTION('refdir',(1.,0.,0.));
#1020=DIRECTION('center_axis',(1.,0.,0.));
#1021=DIRECTION('ref_axis',(0.,-0.707106781186548,-0.707106781186547));
#1022=DIRECTION('',(-1.,0.,0.));
#1023=DIRECTION('center_axis',(0.707106781186548,0.707106781186548,-7.85046229341887E-15));
#1024=DIRECTION('ref_axis',(-0.707106781186547,0.707106781186547,-7.85046229341887E-15));
#1025=DIRECTION('',(1.,0.,0.));
#1026=DIRECTION('center_axis',(-0.707106781186551,0.707106781186544,-7.85046229341892E-15));
#1027=DIRECTION('ref_axis',(-0.707106781186544,-0.707106781186551,7.85046229341901E-15));
#1028=DIRECTION('center_axis',(-1.,-1.58603289232165E-16,0.));
#1029=DIRECTION('ref_axis',(0.,0.707106781186548,-0.707106781186547));
#1030=DIRECTION('',(-1.,-1.58603289232165E-16,0.));
#1031=DIRECTION('center_axis',(0.707106781186548,-0.707106781186548,0.));
#1032=DIRECTION('ref_axis',(0.707106781186547,0.707106781186547,0.));
#1033=DIRECTION('',(1.,1.58603289232165E-16,0.));
#1034=DIRECTION('center_axis',(0.707106781186548,0.707106781186548,7.85046229341887E-15));
#1035=DIRECTION('ref_axis',(-0.707106781186547,0.707106781186547,-7.85046229341887E-15));
#1036=DIRECTION('center_axis',(-4.75809867696496E-16,1.,0.));
#1037=DIRECTION('ref_axis',(0.707106781186548,0.,-0.707106781186547));
#1038=DIRECTION('',(4.75809867696496E-16,-1.,0.));
#1039=DIRECTION('',(-4.75809867696496E-16,1.,0.));
#1040=DIRECTION('center_axis',(7.93016446160826E-17,-1.,0.));
#1041=DIRECTION('ref_axis',(-0.707106781186548,0.,-0.707106781186547));
#1042=DIRECTION('',(-7.93016446160826E-17,1.,0.));
#1043=DIRECTION('',(7.93016446160826E-17,-1.,0.));
#1044=DIRECTION('center_axis',(-1.,-7.93016446160826E-17,0.));
#1045=DIRECTION('ref_axis',(7.93016446160826E-17,-1.,0.));
#1046=DIRECTION('',(0.,0.,1.));
#1047=DIRECTION('',(7.93016446160826E-17,-1.,0.));
#1048=DIRECTION('',(0.,0.,1.));
#1049=DIRECTION('center_axis',(-1.58603289232165E-16,1.,0.));
#1050=DIRECTION('ref_axis',(-1.,-1.58603289232165E-16,0.));
#1051=DIRECTION('',(0.,0.,1.));
#1052=DIRECTION('',(-1.,-1.58603289232165E-16,0.));
#1053=DIRECTION('center_axis',(0.,0.,1.));
#1054=DIRECTION('ref_axis',(1.,0.,0.));
#1055=DIRECTION('',(-1.,1.2335811384724E-16,0.));
#1056=DIRECTION('',(0.,1.,0.));
#1057=DIRECTION('',(1.,-1.2335811384724E-16,0.));
#1058=DIRECTION('',(1.85037170770859E-16,-1.,0.));
#1059=DIRECTION('center_axis',(0.,-1.,0.));
#1060=DIRECTION('ref_axis',(-0.707106781186548,0.,-0.707106781186548));
#1061=DIRECTION('center_axis',(0.70710678118654,0.707106781186555,0.));
#1062=DIRECTION('ref_axis',(-0.707106781186555,0.70710678118654,0.));
#1063=DIRECTION('',(0.,-1.,0.));
#1064=DIRECTION('center_axis',(0.707106781186548,-0.707106781186548,0.));
#1065=DIRECTION('ref_axis',(-0.707106781186547,-0.707106781186547,0.));
#1066=DIRECTION('',(0.,1.,0.));
#1067=DIRECTION('center_axis',(1.,0.,0.));
#1068=DIRECTION('ref_axis',(0.,1.,0.));
#1069=DIRECTION('',(0.,0.,-1.));
#1070=DIRECTION('',(0.,1.,0.));
#1071=DIRECTION('',(0.,0.,1.));
#1072=DIRECTION('center_axis',(-1.,0.,0.));
#1073=DIRECTION('ref_axis',(0.,0.707106781186548,-0.707106781186548));
#1074=DIRECTION('center_axis',(0.707106781186548,-0.707106781186548,0.));
#1075=DIRECTION('ref_axis',(0.707106781186547,0.707106781186547,0.));
#1076=DIRECTION('',(-1.,0.,0.));
#1077=DIRECTION('center_axis',(-0.707106781186555,-0.70710678118654,0.));
#1078=DIRECTION('ref_axis',(-0.70710678118654,0.707106781186555,0.));
#1079=DIRECTION('',(1.,0.,0.));
#1080=DIRECTION('center_axis',(0.,-1.,0.));
#1081=DIRECTION('ref_axis',(1.,0.,0.));
#1082=DIRECTION('',(0.,0.,-1.));
#1083=DIRECTION('',(1.,0.,0.));
#1084=DIRECTION('',(0.,0.,1.));
#1085=DIRECTION('center_axis',(-3.76346788008528E-16,1.,0.));
#1086=DIRECTION('ref_axis',(0.707106781186548,0.,-0.707106781186548));
#1087=DIRECTION('center_axis',(-0.707106781186555,-0.70710678118654,0.));
#1088=DIRECTION('ref_axis',(0.70710678118654,-0.707106781186555,0.));
#1089=DIRECTION('',(-3.76346788008528E-16,1.,0.));
#1090=DIRECTION('center_axis',(-0.707106781186555,0.70710678118654,0.));
#1091=DIRECTION('ref_axis',(0.70710678118654,0.707106781186555,0.));
#1092=DIRECTION('',(3.76346788008528E-16,-1.,0.));
#1093=DIRECTION('center_axis',(-1.,-3.76346788008528E-16,0.));
#1094=DIRECTION('ref_axis',(3.76346788008528E-16,-1.,0.));
#1095=DIRECTION('',(0.,0.,-1.));
#1096=DIRECTION('',(3.76346788008528E-16,-1.,0.));
#1097=DIRECTION('',(0.,0.,1.));
#1098=DIRECTION('center_axis',(1.,0.,0.));
#1099=DIRECTION('ref_axis',(0.,-0.707106781186548,-0.707106781186548));
#1100=DIRECTION('center_axis',(-0.707106781186555,0.70710678118654,0.));
#1101=DIRECTION('ref_axis',(-0.70710678118654,-0.707106781186555,0.));
#1102=DIRECTION('',(1.,0.,0.));
#1103=DIRECTION('center_axis',(0.70710678118654,0.707106781186555,0.));
#1104=DIRECTION('ref_axis',(0.707106781186555,-0.70710678118654,0.));
#1105=DIRECTION('',(-1.,0.,0.));
#1106=DIRECTION('center_axis',(0.,1.,0.));
#1107=DIRECTION('ref_axis',(-1.,0.,0.));
#1108=DIRECTION('',(0.,0.,-1.));
#1109=DIRECTION('',(-1.,0.,0.));
#1110=DIRECTION('',(0.,0.,1.));
#1111=DIRECTION('center_axis',(-0.577350269189639,0.577350269189626,0.577350269189613));
#1112=DIRECTION('ref_axis',(0.707106781186532,0.,0.707106781186563));
#1113=DIRECTION('',(0.,-0.70710678118654,0.707106781186555));
#1114=DIRECTION('',(0.70710678118654,0.707106781186555,0.));
#1115=DIRECTION('',(-0.707106781186548,-3.14018491736755E-14,-0.707106781186548));
#1116=DIRECTION('center_axis',(0.577350269189643,0.577350269189617,0.577350269189617));
#1117=DIRECTION('ref_axis',(0.707106781186532,0.,-0.707106781186563));
#1118=DIRECTION('',(-0.707106781186548,6.28036983473509E-14,0.707106781186548));
#1119=DIRECTION('',(0.707106781186532,-0.707106781186563,0.));
#1120=DIRECTION('',(1.57009245868379E-14,0.70710678118654,-0.707106781186555));
#1121=DIRECTION('center_axis',(-0.57735026918963,-0.57735026918963,0.577350269189617));
#1122=DIRECTION('ref_axis',(0.70710678118654,0.,0.707106781186555));
#1123=DIRECTION('',(0.707106781186548,0.,0.707106781186548));
#1124=DIRECTION('',(-0.707106781186548,0.707106781186548,0.));
#1125=DIRECTION('',(0.,-0.70710678118654,-0.707106781186555));
#1126=DIRECTION('center_axis',(-0.577350269189638,0.577350269189613,-0.577350269189626));
#1127=DIRECTION('ref_axis',(-0.70710678118654,0.,0.707106781186555));
#1128=DIRECTION('',(-0.70710678118654,-0.707106781186555,0.));
#1129=DIRECTION('',(-3.14018491736758E-14,0.70710678118654,0.707106781186555));
#1130=DIRECTION('',(0.707106781186548,1.57009245868377E-14,-0.707106781186547));
#1131=DIRECTION('center_axis',(0.577350269189639,-0.577350269189626,0.577350269189613));
#1132=DIRECTION('ref_axis',(0.707106781186532,0.,-0.707106781186563));
#1133=DIRECTION('',(0.,0.70710678118654,0.707106781186555));
#1134=DIRECTION('',(-0.70710678118654,-0.707106781186555,0.));
#1135=DIRECTION('',(0.707106781186548,3.14018491736755E-14,-0.707106781186548));
#1136=DIRECTION('center_axis',(0.577350269189643,0.577350269189617,-0.577350269189618));
#1137=DIRECTION('ref_axis',(-0.707106781186532,0.,-0.707106781186563));
#1138=DIRECTION('',(0.707106781186548,-6.2803698347351E-14,0.707106781186547));
#1139=DIRECTION('',(-1.57009245868379E-14,-0.70710678118654,-0.707106781186555));
#1140=DIRECTION('',(-0.707106781186532,0.707106781186563,0.));
#1141=DIRECTION('center_axis',(8.72273588157662E-17,0.707106781186555,-0.70710678118654));
#1142=DIRECTION('ref_axis',(-1.,0.,-1.23358113847242E-16));
#1143=DIRECTION('',(1.,-1.2335811384724E-16,0.));
#1144=DIRECTION('center_axis',(0.707106781186563,0.707106781186532,0.));
#1145=DIRECTION('ref_axis',(0.,0.,-1.));
#1146=DIRECTION('',(0.,0.,-1.));
#1147=DIRECTION('',(0.,0.,1.));
#1148=DIRECTION('center_axis',(-0.577350269189621,-0.577350269189634,-0.577350269189622));
#1149=DIRECTION('ref_axis',(-0.707106781186548,0.,0.707106781186547));
#1150=DIRECTION('',(0.707106781186548,-0.707106781186548,0.));
#1151=DIRECTION('',(-0.707106781186548,0.,0.707106781186547));
#1152=DIRECTION('',(0.,0.70710678118654,-0.707106781186555));
#1153=DIRECTION('center_axis',(-0.707106781186547,-1.30841038223648E-16,
-0.707106781186548));
#1154=DIRECTION('ref_axis',(-0.707106781186548,0.,0.707106781186547));
#1155=DIRECTION('',(-1.85037170770859E-16,1.,0.));
#1156=DIRECTION('center_axis',(0.57735026918963,-0.57735026918963,-0.577350269189617));
#1157=DIRECTION('ref_axis',(-0.70710678118654,0.,-0.707106781186555));
#1158=DIRECTION('',(0.70710678118654,0.707106781186555,0.));
#1159=DIRECTION('',(0.,-0.70710678118654,0.707106781186555));
#1160=DIRECTION('',(-0.707106781186548,-1.57009245868377E-14,-0.707106781186547));
#1161=DIRECTION('center_axis',(-8.72273588157662E-17,-0.707106781186555,
-0.70710678118654));
#1162=DIRECTION('ref_axis',(-1.,0.,1.23358113847242E-16));
#1163=DIRECTION('',(-1.,1.2335811384724E-16,0.));
#1164=DIRECTION('center_axis',(0.707106781186547,0.,-0.707106781186548));
#1165=DIRECTION('ref_axis',(-0.707106781186548,0.,-0.707106781186547));
#1166=DIRECTION('',(0.,-1.,0.));
#1167=DIRECTION('center_axis',(0.707106781186555,-0.70710678118654,0.));
#1168=DIRECTION('ref_axis',(0.,0.,-1.));
#1169=DIRECTION('',(0.,0.,-1.));
#1170=DIRECTION('',(0.,0.,1.));
#1171=DIRECTION('center_axis',(-0.707106781186548,-0.707106781186548,0.));
#1172=DIRECTION('ref_axis',(0.,0.,1.));
#1173=DIRECTION('',(0.,0.,-1.));
#1174=DIRECTION('',(0.,0.,1.));
#1175=DIRECTION('center_axis',(0.707106781186548,0.,0.707106781186548));
#1176=DIRECTION('ref_axis',(0.707106781186548,0.,-0.707106781186548));
#1177=DIRECTION('',(0.,-1.,0.));
#1178=DIRECTION('',(0.,1.,0.));
#1179=DIRECTION('center_axis',(-8.72273588157663E-17,-0.707106781186555,
0.70710678118654));
#1180=DIRECTION('ref_axis',(1.,0.,1.23358113847242E-16));
#1181=DIRECTION('',(-1.,1.2335811384724E-16,0.));
#1182=DIRECTION('',(1.,-1.2335811384724E-16,0.));
#1183=DIRECTION('center_axis',(-0.707106781186555,0.70710678118654,0.));
#1184=DIRECTION('ref_axis',(0.,0.,1.));
#1185=DIRECTION('',(0.,0.,-1.));
#1186=DIRECTION('',(0.,0.,1.));
#1187=DIRECTION('center_axis',(-0.707106781186548,-1.30841038223648E-16,
0.707106781186548));
#1188=DIRECTION('ref_axis',(0.707106781186548,0.,0.707106781186548));
#1189=DIRECTION('',(-1.85037170770859E-16,1.,0.));
#1190=DIRECTION('',(1.85037170770859E-16,-1.,0.));
#1191=DIRECTION('center_axis',(8.72273588157663E-17,0.707106781186555,0.70710678118654));
#1192=DIRECTION('ref_axis',(1.,0.,-1.23358113847242E-16));
#1193=DIRECTION('',(1.,-1.2335811384724E-16,0.));
#1194=DIRECTION('',(-1.,1.2335811384724E-16,0.));
#1195=DIRECTION('center_axis',(1.2335811384724E-16,1.,0.));
#1196=DIRECTION('ref_axis',(-1.,1.2335811384724E-16,0.));
#1197=DIRECTION('center_axis',(1.,0.,0.));
#1198=DIRECTION('ref_axis',(0.,1.,0.));
#1199=DIRECTION('center_axis',(-1.,-1.85037170770859E-16,0.));
#1200=DIRECTION('ref_axis',(1.85037170770859E-16,-1.,0.));
#1201=DIRECTION('center_axis',(-1.2335811384724E-16,-1.,0.));
#1202=DIRECTION('ref_axis',(1.,-1.2335811384724E-16,0.));
#1203=DIRECTION('center_axis',(0.,0.,1.));
#1204=DIRECTION('ref_axis',(1.,0.,0.));
#1205=DIRECTION('',(0.707106781186548,0.707106781186548,0.));
#1206=DIRECTION('',(0.70710678118654,-0.707106781186555,0.));
#1207=DIRECTION('',(-0.70710678118654,-0.707106781186555,0.));
#1208=DIRECTION('',(-0.707106781186555,0.70710678118654,0.));
#1209=DIRECTION('center_axis',(-0.57735026918963,0.577350269189617,0.57735026918963));
#1210=DIRECTION('ref_axis',(0.707106781186547,0.,0.707106781186547));
#1211=DIRECTION('',(0.,-0.707106781186548,0.707106781186548));
#1212=DIRECTION('',(0.70710678118654,0.707106781186555,0.));
#1213=DIRECTION('',(-0.707106781186548,0.,-0.707106781186548));
#1214=DIRECTION('center_axis',(-0.707106781186555,0.70710678118654,0.));
#1215=DIRECTION('ref_axis',(0.,0.,1.));
#1216=DIRECTION('center_axis',(-0.57735026918963,-0.577350269189617,0.57735026918963));
#1217=DIRECTION('ref_axis',(0.707106781186548,0.,0.707106781186547));
#1218=DIRECTION('',(0.707106781186548,0.,0.707106781186548));
#1219=DIRECTION('',(-0.70710678118654,0.707106781186555,0.));
#1220=DIRECTION('',(-1.57009245868377E-14,-0.707106781186548,-0.707106781186548));
#1221=DIRECTION('center_axis',(-0.707106781186555,-0.70710678118654,0.));
#1222=DIRECTION('ref_axis',(0.,0.,1.));
#1223=DIRECTION('center_axis',(0.577350269189617,0.57735026918963,0.57735026918963));
#1224=DIRECTION('ref_axis',(0.707106781186555,0.,-0.70710678118654));
#1225=DIRECTION('',(-0.707106781186548,-3.14018491736755E-14,0.707106781186548));
#1226=DIRECTION('',(0.707106781186555,-0.70710678118654,0.));
#1227=DIRECTION('',(0.,0.707106781186548,-0.707106781186548));
#1228=DIRECTION('center_axis',(0.70710678118654,0.707106781186555,0.));
#1229=DIRECTION('ref_axis',(0.,0.,-1.));
#1230=DIRECTION('center_axis',(0.,0.707106781186548,0.707106781186548));
#1231=DIRECTION('ref_axis',(1.,0.,0.));
#1232=DIRECTION('',(1.,0.,0.));
#1233=DIRECTION('center_axis',(0.577350269189626,-0.577350269189626,0.577350269189626));
#1234=DIRECTION('ref_axis',(0.707106781186547,0.,-0.707106781186547));
#1235=DIRECTION('',(0.,0.707106781186548,0.707106781186548));
#1236=DIRECTION('',(-0.707106781186548,-0.707106781186548,0.));
#1237=DIRECTION('',(0.707106781186548,0.,-0.707106781186548));
#1238=DIRECTION('center_axis',(0.707106781186548,-0.707106781186548,0.));
#1239=DIRECTION('ref_axis',(0.,0.,-1.));
#1240=DIRECTION('center_axis',(0.707106781186548,0.,0.707106781186548));
#1241=DIRECTION('ref_axis',(0.707106781186548,0.,-0.707106781186548));
#1242=DIRECTION('',(0.,-1.,0.));
#1243=DIRECTION('center_axis',(0.,-0.707106781186548,0.707106781186548));
#1244=DIRECTION('ref_axis',(1.,0.,0.));
#1245=DIRECTION('',(-1.,0.,0.));
#1246=DIRECTION('center_axis',(-0.707106781186548,-2.66117365878606E-16,
0.707106781186548));
#1247=DIRECTION('ref_axis',(0.707106781186548,0.,0.707106781186548));
#1248=DIRECTION('',(-3.76346788008528E-16,1.,0.));
#1249=DIRECTION('center_axis',(0.,0.,1.));
#1250=DIRECTION('ref_axis',(1.,0.,0.));
#1251=DIRECTION('',(-1.,0.,0.));
#1252=DIRECTION('',(-7.93016446160826E-17,1.,0.));
#1253=DIRECTION('',(1.,1.58603289232165E-16,0.));
#1254=DIRECTION('',(4.75809867696496E-16,-1.,0.));
#1255=DIRECTION('center_axis',(0.,-0.707106781186548,0.707106781186548));
#1256=DIRECTION('ref_axis',(1.,0.,0.));
#1257=DIRECTION('',(0.57735026918963,-0.577350269189617,-0.57735026918963));
#1258=DIRECTION('',(1.,0.,0.));
#1259=DIRECTION('',(-0.577350269189609,-0.577350269189634,-0.577350269189634));
#1260=DIRECTION('center_axis',(0.707106781186555,3.3644838400367E-16,0.70710678118654));
#1261=DIRECTION('ref_axis',(0.70710678118654,0.,-0.707106781186555));
#1262=DIRECTION('',(0.577350269189613,0.577350269189638,-0.577350269189626));
#1263=DIRECTION('',(-4.75809867696496E-16,1.,0.));
#1264=DIRECTION('center_axis',(-1.12149461334554E-16,0.70710678118654,0.707106781186555));
#1265=DIRECTION('ref_axis',(1.,0.,1.58603289232162E-16));
#1266=DIRECTION('',(-0.577350269189613,0.577350269189638,-0.577350269189626));
#1267=DIRECTION('center_axis',(-0.707106781186555,-5.60747306672783E-17,
0.70710678118654));
#1268=DIRECTION('ref_axis',(0.70710678118654,0.,0.707106781186555));
#1269=DIRECTION('center_axis',(0.,-1.,0.));
#1270=DIRECTION('ref_axis',(1.,0.,0.));
#1271=DIRECTION('',(0.,0.,1.));
#1272=DIRECTION('center_axis',(1.,4.75809867696496E-16,0.));
#1273=DIRECTION('ref_axis',(-4.75809867696496E-16,1.,0.));
#1274=CARTESIAN_POINT('',(0.,0.,0.));
#1275=CARTESIAN_POINT('Origin',(-7.00000000000001,14.2,0.2));
#1276=CARTESIAN_POINT('',(14.,14.,0.2));
#1277=CARTESIAN_POINT('',(-14.,14.,0.2));
#1278=CARTESIAN_POINT('',(-7.00000000000001,14.,0.2));
#1279=CARTESIAN_POINT('',(-14.2,14.2,0.));
#1280=CARTESIAN_POINT('Origin',(-14.2,14.2,0.2));
#1281=CARTESIAN_POINT('',(14.2,14.2,0.));
#1282=CARTESIAN_POINT('',(-7.00000000000001,14.2,0.));
#1283=CARTESIAN_POINT('Origin',(14.2,14.2,0.2));
#1284=CARTESIAN_POINT('Origin',(7.,-14.2,0.2));
#1285=CARTESIAN_POINT('',(14.2,-14.2,0.));
#1286=CARTESIAN_POINT('',(-14.2,-14.2,0.));
#1287=CARTESIAN_POINT('',(7.,-14.2,0.));
#1288=CARTESIAN_POINT('',(-14.,-14.,0.2));
#1289=CARTESIAN_POINT('Origin',(-14.2,-14.2,0.2));
#1290=CARTESIAN_POINT('',(14.,-14.,0.2));
#1291=CARTESIAN_POINT('',(7.,-14.,0.2));
#1292=CARTESIAN_POINT('Origin',(14.2,-14.2,0.2));
#1293=CARTESIAN_POINT('Origin',(-14.2,-7.,0.2));
#1294=CARTESIAN_POINT('',(-14.,-7.,0.2));
#1295=CARTESIAN_POINT('',(-14.2,-7.,0.));
#1296=CARTESIAN_POINT('Origin',(14.2,7.,0.2));
#1297=CARTESIAN_POINT('',(14.,7.,0.2));
#1298=CARTESIAN_POINT('',(14.2,7.,0.));
#1299=CARTESIAN_POINT('Origin',(14.,14.,0.));
#1300=CARTESIAN_POINT('',(14.,-14.,3.9));
#1301=CARTESIAN_POINT('',(14.,-14.,0.));
#1302=CARTESIAN_POINT('',(14.,14.,3.9));
#1303=CARTESIAN_POINT('',(14.,7.,3.9));
#1304=CARTESIAN_POINT('',(14.,14.,0.));
#1305=CARTESIAN_POINT('Origin',(14.,-14.,0.));
#1306=CARTESIAN_POINT('',(-14.,-14.,3.9));
#1307=CARTESIAN_POINT('',(-14.,-14.,0.));
#1308=CARTESIAN_POINT('',(7.,-14.,3.9));
#1309=CARTESIAN_POINT('Origin',(-2.22044604925031E-15,4.44089209850063E-15,
0.));
#1310=CARTESIAN_POINT('',(17.9,17.9,0.));
#1311=CARTESIAN_POINT('',(-17.9,17.9,0.));
#1312=CARTESIAN_POINT('',(9.,17.9,0.));
#1313=CARTESIAN_POINT('',(17.9,-17.9,0.));
#1314=CARTESIAN_POINT('',(17.9,-9.,0.));
#1315=CARTESIAN_POINT('',(-17.9,-17.9,0.));
#1316=CARTESIAN_POINT('',(-9.,-17.9,0.));
#1317=CARTESIAN_POINT('',(-17.9,9.00000000000001,0.));
#1318=CARTESIAN_POINT('Origin',(14.95,-7.375,1.2));
#1319=CARTESIAN_POINT('',(14.95,14.45,1.));
#1320=CARTESIAN_POINT('',(14.75,14.65,1.2));
#1321=CARTESIAN_POINT('Origin',(14.95,14.45,1.2));
#1322=CARTESIAN_POINT('',(14.75,-14.65,1.2));
#1323=CARTESIAN_POINT('',(14.75,-7.375,1.2));
#1324=CARTESIAN_POINT('',(14.95,-14.45,1.));
#1325=CARTESIAN_POINT('Origin',(14.95,-14.45,1.2));
#1326=CARTESIAN_POINT('',(14.95,-7.375,1.));
#1327=CARTESIAN_POINT('Origin',(14.75,-14.75,1.));
#1328=CARTESIAN_POINT('',(14.75,14.65,3.9));
#1329=CARTESIAN_POINT('',(14.75,14.65,1.));
#1330=CARTESIAN_POINT('',(14.75,-14.65,3.9));
#1331=CARTESIAN_POINT('',(14.75,-7.375,3.9));
#1332=CARTESIAN_POINT('',(14.75,-14.65,1.));
#1333=CARTESIAN_POINT('Origin',(-7.375,-14.95,1.2));
#1334=CARTESIAN_POINT('',(14.45,-14.95,1.));
#1335=CARTESIAN_POINT('',(14.65,-14.75,1.2));
#1336=CARTESIAN_POINT('Origin',(14.45,-14.95,1.2));
#1337=CARTESIAN_POINT('',(-14.65,-14.75,1.2));
#1338=CARTESIAN_POINT('',(-7.375,-14.75,1.2));
#1339=CARTESIAN_POINT('',(-14.45,-14.95,1.));
#1340=CARTESIAN_POINT('Origin',(-14.45,-14.95,1.2));
#1341=CARTESIAN_POINT('',(-7.375,-14.95,1.));
#1342=CARTESIAN_POINT('Origin',(-14.75,-14.75,1.));
#1343=CARTESIAN_POINT('',(14.65,-14.75,3.9));
#1344=CARTESIAN_POINT('',(14.65,-14.75,1.));
#1345=CARTESIAN_POINT('',(-14.65,-14.75,3.9));
#1346=CARTESIAN_POINT('',(-7.375,-14.75,3.9));
#1347=CARTESIAN_POINT('',(-14.65,-14.75,1.));
#1348=CARTESIAN_POINT('Origin',(-14.95,7.375,1.2));
#1349=CARTESIAN_POINT('',(-14.95,-14.45,1.));
#1350=CARTESIAN_POINT('',(-14.75,-14.65,1.2));
#1351=CARTESIAN_POINT('Origin',(-14.95,-14.45,1.2));
#1352=CARTESIAN_POINT('',(-14.75,14.65,1.2));
#1353=CARTESIAN_POINT('',(-14.75,7.375,1.2));
#1354=CARTESIAN_POINT('',(-14.95,14.45,1.));
#1355=CARTESIAN_POINT('Origin',(-14.95,14.45,1.2));
#1356=CARTESIAN_POINT('',(-14.95,7.375,1.));
#1357=CARTESIAN_POINT('Origin',(-14.75,14.75,1.));
#1358=CARTESIAN_POINT('',(-14.75,-14.65,3.9));
#1359=CARTESIAN_POINT('',(-14.75,-14.65,1.));
#1360=CARTESIAN_POINT('',(-14.75,14.65,3.9));
#1361=CARTESIAN_POINT('',(-14.75,7.375,3.9));
#1362=CARTESIAN_POINT('',(-14.75,14.65,1.));
#1363=CARTESIAN_POINT('Origin',(7.37499999999999,14.95,1.2));
#1364=CARTESIAN_POINT('',(-14.45,14.95,1.));
#1365=CARTESIAN_POINT('',(-14.65,14.75,1.2));
#1366=CARTESIAN_POINT('Origin',(-14.45,14.95,1.2));
#1367=CARTESIAN_POINT('',(14.65,14.75,1.2));
#1368=CARTESIAN_POINT('',(7.37499999999999,14.75,1.2));
#1369=CARTESIAN_POINT('',(14.45,14.95,1.));
#1370=CARTESIAN_POINT('Origin',(14.45,14.95,1.2));
#1371=CARTESIAN_POINT('',(7.37499999999999,14.95,1.));
#1372=CARTESIAN_POINT('Origin',(14.75,14.75,1.));
#1373=CARTESIAN_POINT('',(-14.65,14.75,3.9));
#1374=CARTESIAN_POINT('',(-14.65,14.75,1.));
#1375=CARTESIAN_POINT('',(14.65,14.75,3.9));
#1376=CARTESIAN_POINT('',(7.37499999999999,14.75,3.9));
#1377=CARTESIAN_POINT('',(14.65,14.75,1.));
#1378=CARTESIAN_POINT('Origin',(-18.,17.9,0.9));
#1379=CARTESIAN_POINT('',(-17.9,18.,0.9));
#1380=CARTESIAN_POINT('',(-17.9,17.9,1.));
#1381=CARTESIAN_POINT('',(-17.9,18.,0.9));
#1382=CARTESIAN_POINT('',(-18.,17.9,0.9));
#1383=CARTESIAN_POINT('',(-18.,17.9,0.9));
#1384=CARTESIAN_POINT('',(-17.9,17.9,1.));
#1385=CARTESIAN_POINT('Origin',(17.9,18.,0.9));
#1386=CARTESIAN_POINT('',(18.,17.9,0.9));
#1387=CARTESIAN_POINT('',(17.9,17.9,1.));
#1388=CARTESIAN_POINT('',(18.,17.9,0.9));
#1389=CARTESIAN_POINT('',(17.9,18.,0.9));
#1390=CARTESIAN_POINT('',(17.9,18.,0.9));
#1391=CARTESIAN_POINT('',(17.9,17.9,1.));
#1392=CARTESIAN_POINT('Origin',(-17.9,-18.,0.9));
#1393=CARTESIAN_POINT('',(-18.,-17.9,0.9));
#1394=CARTESIAN_POINT('',(-17.9,-17.9,1.));
#1395=CARTESIAN_POINT('',(-18.,-17.9,0.9));
#1396=CARTESIAN_POINT('',(-17.9,-18.,0.9));
#1397=CARTESIAN_POINT('',(-17.9,-18.,0.9));
#1398=CARTESIAN_POINT('',(-17.9,-17.9,1.));
#1399=CARTESIAN_POINT('Origin',(-17.9,17.9,0.));
#1400=CARTESIAN_POINT('',(-17.9,18.,0.1));
#1401=CARTESIAN_POINT('',(-18.,17.9,0.1));
#1402=CARTESIAN_POINT('',(-17.9,18.,0.1));
#1403=CARTESIAN_POINT('',(-17.9,17.9,0.));
#1404=CARTESIAN_POINT('',(-18.,17.9,0.1));
#1405=CARTESIAN_POINT('Origin',(18.,-17.9,0.9));
#1406=CARTESIAN_POINT('',(17.9,-18.,0.9));
#1407=CARTESIAN_POINT('',(17.9,-17.9,1.));
#1408=CARTESIAN_POINT('',(17.9,-18.,0.9));
#1409=CARTESIAN_POINT('',(18.,-17.9,0.9));
#1410=CARTESIAN_POINT('',(18.,-17.9,0.9));
#1411=CARTESIAN_POINT('',(17.9,-17.9,1.));
#1412=CARTESIAN_POINT('Origin',(17.9,18.,0.1));
#1413=CARTESIAN_POINT('',(18.,17.9,0.1));
#1414=CARTESIAN_POINT('',(17.9,17.9,0.));
#1415=CARTESIAN_POINT('',(17.9,18.,0.1));
#1416=CARTESIAN_POINT('',(17.9,18.,0.1));
#1417=CARTESIAN_POINT('',(18.,17.9,0.1));
#1418=CARTESIAN_POINT('Origin',(9.,17.95,0.05));
#1419=CARTESIAN_POINT('',(9.,18.,0.1));
#1420=CARTESIAN_POINT('Origin',(17.95,17.95,0.));
#1421=CARTESIAN_POINT('',(18.,17.9,0.));
#1422=CARTESIAN_POINT('',(17.9,18.,0.));
#1423=CARTESIAN_POINT('Origin',(-17.9,-17.9,0.));
#1424=CARTESIAN_POINT('',(-18.,-17.9,0.1));
#1425=CARTESIAN_POINT('',(-17.9,-18.,0.1));
#1426=CARTESIAN_POINT('',(-18.,-17.9,0.1));
#1427=CARTESIAN_POINT('',(-17.9,-17.9,0.));
#1428=CARTESIAN_POINT('',(-17.9,-18.,0.1));
#1429=CARTESIAN_POINT('Origin',(-17.95,9.00000000000001,0.05));
#1430=CARTESIAN_POINT('',(-18.,9.00000000000001,0.1));
#1431=CARTESIAN_POINT('Origin',(17.9,-17.9,0.));
#1432=CARTESIAN_POINT('',(17.9,-18.,0.1));
#1433=CARTESIAN_POINT('',(18.,-17.9,0.1));
#1434=CARTESIAN_POINT('',(17.9,-18.,0.1));
#1435=CARTESIAN_POINT('',(17.9,-17.9,0.));
#1436=CARTESIAN_POINT('',(18.,-17.9,0.1));
#1437=CARTESIAN_POINT('Origin',(-9.,-17.95,0.05));
#1438=CARTESIAN_POINT('',(-9.,-18.,0.1));
#1439=CARTESIAN_POINT('Origin',(17.95,-9.,0.05));
#1440=CARTESIAN_POINT('',(18.,-9.,0.1));
#1441=CARTESIAN_POINT('Origin',(17.95,-17.95,0.));
#1442=CARTESIAN_POINT('',(17.9,-18.,0.));
#1443=CARTESIAN_POINT('',(18.,-17.9,0.));
#1444=CARTESIAN_POINT('Origin',(-17.95,-17.95,0.));
#1445=CARTESIAN_POINT('',(-18.,-17.9,0.));
#1446=CARTESIAN_POINT('',(-17.9,-18.,0.));
#1447=CARTESIAN_POINT('Origin',(17.95,-9.,0.95));
#1448=CARTESIAN_POINT('',(17.9,-9.,1.));
#1449=CARTESIAN_POINT('',(18.,-9.,0.9));
#1450=CARTESIAN_POINT('Origin',(-9.,-17.95,0.95));
#1451=CARTESIAN_POINT('',(-9.,-17.9,1.));
#1452=CARTESIAN_POINT('',(-9.,-18.,0.9));
#1453=CARTESIAN_POINT('Origin',(-17.95,17.95,0.));
#1454=CARTESIAN_POINT('',(-17.9,18.,0.));
#1455=CARTESIAN_POINT('',(-18.,17.9,0.));
#1456=CARTESIAN_POINT('Origin',(-17.95,9.00000000000001,0.95));
#1457=CARTESIAN_POINT('',(-17.9,9.00000000000001,1.));
#1458=CARTESIAN_POINT('',(-18.,9.00000000000001,0.9));
#1459=CARTESIAN_POINT('Origin',(9.,17.95,0.95));
#1460=CARTESIAN_POINT('',(9.,17.9,1.));
#1461=CARTESIAN_POINT('',(9.,18.,0.9));
#1462=CARTESIAN_POINT('Origin',(18.,18.,0.));
#1463=CARTESIAN_POINT('Origin',(18.,-18.,0.));
#1464=CARTESIAN_POINT('Origin',(-18.,18.,0.));
#1465=CARTESIAN_POINT('Origin',(-18.,-18.,0.));
#1466=CARTESIAN_POINT('Origin',(-2.22044604925031E-15,4.44089209850063E-15,
1.));
#1467=CARTESIAN_POINT('',(14.7,-14.7,1.));
#1468=CARTESIAN_POINT('',(-14.7000000000001,-14.6999999999999,1.));
#1469=CARTESIAN_POINT('',(-14.7000000000001,14.6999999999999,1.));
#1470=CARTESIAN_POINT('',(14.6999999999999,14.7000000000001,1.));
#1471=CARTESIAN_POINT('Origin',(-14.75,14.65,3.9));
#1472=CARTESIAN_POINT('',(-14.65,14.65,4.));
#1473=CARTESIAN_POINT('',(-14.65,14.75,3.9));
#1474=CARTESIAN_POINT('',(-14.75,14.65,3.9));
#1475=CARTESIAN_POINT('',(-14.65,14.65,4.));
#1476=CARTESIAN_POINT('Origin',(-14.7,14.7,1.));
#1477=CARTESIAN_POINT('Origin',(-14.65,-14.75,3.9));
#1478=CARTESIAN_POINT('',(-14.65,-14.65,4.));
#1479=CARTESIAN_POINT('',(-14.75,-14.65,3.9));
#1480=CARTESIAN_POINT('',(-14.65,-14.75,3.9));
#1481=CARTESIAN_POINT('',(-14.65,-14.65,4.));
#1482=CARTESIAN_POINT('Origin',(-14.7,-14.7,1.));
#1483=CARTESIAN_POINT('Origin',(14.65,14.75,3.9));
#1484=CARTESIAN_POINT('',(14.65,14.65,4.));
#1485=CARTESIAN_POINT('',(14.75,14.65,3.9));
#1486=CARTESIAN_POINT('',(14.65,14.75,3.9));
#1487=CARTESIAN_POINT('',(14.65,14.65,4.));
#1488=CARTESIAN_POINT('Origin',(14.7,14.7,1.));
#1489=CARTESIAN_POINT('Origin',(7.37499999999999,14.7,3.95));
#1490=CARTESIAN_POINT('',(7.37499999999999,14.65,4.));
#1491=CARTESIAN_POINT('Origin',(14.75,-14.65,3.9));
#1492=CARTESIAN_POINT('',(14.65,-14.65,4.));
#1493=CARTESIAN_POINT('',(14.65,-14.75,3.9));
#1494=CARTESIAN_POINT('',(14.75,-14.65,3.9));
#1495=CARTESIAN_POINT('',(14.65,-14.65,4.));
#1496=CARTESIAN_POINT('Origin',(14.7,-14.7,1.));
#1497=CARTESIAN_POINT('Origin',(14.7,-7.375,3.95));
#1498=CARTESIAN_POINT('',(14.65,-7.375,4.));
#1499=CARTESIAN_POINT('Origin',(-7.375,-14.7,3.95));
#1500=CARTESIAN_POINT('',(-7.375,-14.65,4.));
#1501=CARTESIAN_POINT('Origin',(-14.7,7.375,3.95));
#1502=CARTESIAN_POINT('',(-14.65,7.375,4.));
#1503=CARTESIAN_POINT('Origin',(-2.22044604925031E-15,4.44089209850063E-15,
4.));
#1504=CARTESIAN_POINT('',(14.1,14.1,4.));
#1505=CARTESIAN_POINT('',(-14.1,14.1,4.));
#1506=CARTESIAN_POINT('',(-7.00000000000001,14.1,4.));
#1507=CARTESIAN_POINT('',(14.1,-14.1,4.));
#1508=CARTESIAN_POINT('',(14.1,7.,4.));
#1509=CARTESIAN_POINT('',(-14.1,-14.1,4.));
#1510=CARTESIAN_POINT('',(7.,-14.1,4.));
#1511=CARTESIAN_POINT('',(-14.1,-7.,4.));
#1512=CARTESIAN_POINT('Origin',(-7.00000000000001,14.05,3.95));
#1513=CARTESIAN_POINT('',(-14.,14.,3.9));
#1514=CARTESIAN_POINT('',(-14.1,14.1,4.));
#1515=CARTESIAN_POINT('',(-7.00000000000001,14.,3.9));
#1516=CARTESIAN_POINT('',(14.1,14.1,4.));
#1517=CARTESIAN_POINT('Origin',(-14.05,-7.,3.95));
#1518=CARTESIAN_POINT('',(-14.1,-14.1,4.));
#1519=CARTESIAN_POINT('',(-14.,-7.,3.9));
#1520=CARTESIAN_POINT('Origin',(7.,-14.05,3.95));
#1521=CARTESIAN_POINT('',(14.1,-14.1,4.));
#1522=CARTESIAN_POINT('Origin',(14.05,7.,3.95));
#1523=CARTESIAN_POINT('Origin',(-14.,14.,0.));
#1524=CARTESIAN_POINT('',(-14.,14.,0.));
#1525=CARTESIAN_POINT('Origin',(-14.,-14.,0.));
#1526=UNCERTAINTY_MEASURE_WITH_UNIT(LENGTH_MEASURE(0.01),#1530,
'DISTANCE_ACCURACY_VALUE',
'Maximum model space distance between geometric entities at asserted c
onnectivities');
#1527=UNCERTAINTY_MEASURE_WITH_UNIT(LENGTH_MEASURE(0.01),#1530,
'DISTANCE_ACCURACY_VALUE',
'Maximum model space distance between geometric entities at asserted c
onnectivities');
#1528=(
GEOMETRIC_REPRESENTATION_CONTEXT(3)
GLOBAL_UNCERTAINTY_ASSIGNED_CONTEXT((#1526))
GLOBAL_UNIT_ASSIGNED_CONTEXT((#1530,#1532,#1533))
REPRESENTATION_CONTEXT('','3D')
);
#1529=(
GEOMETRIC_REPRESENTATION_CONTEXT(3)
GLOBAL_UNCERTAINTY_ASSIGNED_CONTEXT((#1527))
GLOBAL_UNIT_ASSIGNED_CONTEXT((#1530,#1532,#1533))
REPRESENTATION_CONTEXT('','3D')
);
#1530=(
LENGTH_UNIT()
NAMED_UNIT(*)
SI_UNIT(.MILLI.,.METRE.)
);
#1531=(
LENGTH_UNIT()
NAMED_UNIT(*)
SI_UNIT($,.METRE.)
);
#1532=(
NAMED_UNIT(*)
PLANE_ANGLE_UNIT()
SI_UNIT($,.RADIAN.)
);
#1533=(
NAMED_UNIT(*)
SI_UNIT($,.STERADIAN.)
SOLID_ANGLE_UNIT()
);
#1534=SHAPE_DEFINITION_REPRESENTATION(#1535,#1536);
#1535=PRODUCT_DEFINITION_SHAPE('',$,#1538);
#1536=SHAPE_REPRESENTATION('',(#946),#1528);
#1537=PRODUCT_DEFINITION_CONTEXT('part definition',#1542,'design');
#1538=PRODUCT_DEFINITION('2026-08-21-18-32-57-626','profile_square',#1539,
#1537);
#1539=PRODUCT_DEFINITION_FORMATION('',$,#1544);
#1540=PRODUCT_RELATED_PRODUCT_CATEGORY('profile_square',
'profile_square',(#1544));
#1541=APPLICATION_PROTOCOL_DEFINITION('international standard',
'automotive_design',2009,#1542);
#1542=APPLICATION_CONTEXT(
'Core Data for Automotive Mechanical Design Process');
#1543=PRODUCT_CONTEXT('part definition',#1542,'mechanical');
#1544=PRODUCT('2026-08-21-18-32-57-626','profile_square',$,(#1543));
#1545=PRESENTATION_STYLE_ASSIGNMENT((#1546));
#1546=SURFACE_STYLE_USAGE(.BOTH.,#1547);
#1547=SURFACE_SIDE_STYLE('',(#1548));
#1548=SURFACE_STYLE_FILL_AREA(#1549);
#1549=FILL_AREA_STYLE('Steel - Satin',(#1550));
#1550=FILL_AREA_STYLE_COLOUR('Steel - Satin',#1551);
#1551=COLOUR_RGB('Steel - Satin',0.627450980392157,0.627450980392157,0.627450980392157);
ENDSEC;
END-ISO-10303-21;
