ISO-10303-21;
HEADER;
/* Generated by software containing ST-Developer
 * from STEP Tools, Inc. (www.steptools.com) 
 */

FILE_DESCRIPTION(
/* description */ (''),
/* implementation_level */ '2;1');

FILE_NAME(
/* name */ 'profile_switch_v001.step',
/* time_stamp */ '2026-08-25T20:13:18+04:00',
/* author */ (''),
/* organization */ (''),
/* preprocessor_version */ 'ST-DEVELOPER v20.1',
/* originating_system */ 'Autodesk Translation Framework v15.8.0.0',
/* authorisation */ '');

FILE_SCHEMA (('AUTOMOTIVE_DESIGN { 1 0 10303 214 3 1 1 }'));
ENDSEC;

DATA;
#10=MECHANICAL_DESIGN_GEOMETRIC_PRESENTATION_REPRESENTATION('',(#13),#881);
#11=SHAPE_REPRESENTATION_RELATIONSHIP('SRR','None',#888,#12);
#12=ADVANCED_BREP_SHAPE_REPRESENTATION('',(#14),#880);
#13=STYLED_ITEM('',(#897),#14);
#14=MANIFOLD_SOLID_BREP('Body1',#513);
#15=FACE_BOUND('',#63,.T.);
#16=FACE_BOUND('',#86,.T.);
#17=FACE_BOUND('',#89,.T.);
#18=PLANE('',#530);
#19=PLANE('',#531);
#20=PLANE('',#541);
#21=PLANE('',#544);
#22=PLANE('',#549);
#23=PLANE('',#553);
#24=PLANE('',#557);
#25=PLANE('',#560);
#26=PLANE('',#564);
#27=PLANE('',#568);
#28=PLANE('',#571);
#29=PLANE('',#574);
#30=PLANE('',#575);
#31=PLANE('',#576);
#32=PLANE('',#577);
#33=FACE_OUTER_BOUND('',#60,.T.);
#34=FACE_OUTER_BOUND('',#61,.T.);
#35=FACE_OUTER_BOUND('',#62,.T.);
#36=FACE_OUTER_BOUND('',#64,.T.);
#37=FACE_OUTER_BOUND('',#65,.T.);
#38=FACE_OUTER_BOUND('',#66,.T.);
#39=FACE_OUTER_BOUND('',#67,.T.);
#40=FACE_OUTER_BOUND('',#68,.T.);
#41=FACE_OUTER_BOUND('',#69,.T.);
#42=FACE_OUTER_BOUND('',#70,.T.);
#43=FACE_OUTER_BOUND('',#71,.T.);
#44=FACE_OUTER_BOUND('',#72,.T.);
#45=FACE_OUTER_BOUND('',#73,.T.);
#46=FACE_OUTER_BOUND('',#74,.T.);
#47=FACE_OUTER_BOUND('',#75,.T.);
#48=FACE_OUTER_BOUND('',#76,.T.);
#49=FACE_OUTER_BOUND('',#77,.T.);
#50=FACE_OUTER_BOUND('',#78,.T.);
#51=FACE_OUTER_BOUND('',#79,.T.);
#52=FACE_OUTER_BOUND('',#80,.T.);
#53=FACE_OUTER_BOUND('',#81,.T.);
#54=FACE_OUTER_BOUND('',#82,.T.);
#55=FACE_OUTER_BOUND('',#83,.T.);
#56=FACE_OUTER_BOUND('',#84,.T.);
#57=FACE_OUTER_BOUND('',#85,.T.);
#58=FACE_OUTER_BOUND('',#87,.T.);
#59=FACE_OUTER_BOUND('',#88,.T.);
#60=EDGE_LOOP('',(#330,#331,#332,#333));
#61=EDGE_LOOP('',(#334,#335,#336,#337));
#62=EDGE_LOOP('',(#338,#339,#340,#341,#342,#343,#344,#345));
#63=EDGE_LOOP('',(#346,#347,#348,#349,#350,#351,#352,#353));
#64=EDGE_LOOP('',(#354,#355,#356,#357));
#65=EDGE_LOOP('',(#358,#359,#360,#361));
#66=EDGE_LOOP('',(#362,#363,#364,#365));
#67=EDGE_LOOP('',(#366,#367,#368,#369));
#68=EDGE_LOOP('',(#370,#371,#372,#373));
#69=EDGE_LOOP('',(#374,#375,#376,#377));
#70=EDGE_LOOP('',(#378,#379,#380,#381));
#71=EDGE_LOOP('',(#382,#383,#384,#385));
#72=EDGE_LOOP('',(#386,#387,#388,#389));
#73=EDGE_LOOP('',(#390,#391,#392,#393));
#74=EDGE_LOOP('',(#394,#395,#396,#397));
#75=EDGE_LOOP('',(#398,#399,#400,#401));
#76=EDGE_LOOP('',(#402,#403,#404,#405));
#77=EDGE_LOOP('',(#406,#407,#408,#409));
#78=EDGE_LOOP('',(#410,#411,#412,#413));
#79=EDGE_LOOP('',(#414,#415,#416,#417));
#80=EDGE_LOOP('',(#418,#419,#420,#421));
#81=EDGE_LOOP('',(#422,#423,#424,#425));
#82=EDGE_LOOP('',(#426,#427,#428,#429));
#83=EDGE_LOOP('',(#430,#431,#432,#433));
#84=EDGE_LOOP('',(#434,#435,#436,#437));
#85=EDGE_LOOP('',(#438,#439,#440,#441,#442,#443,#444,#445));
#86=EDGE_LOOP('',(#446,#447,#448,#449,#450,#451,#452,#453));
#87=EDGE_LOOP('',(#454,#455,#456,#457));
#88=EDGE_LOOP('',(#458,#459,#460,#461,#462,#463,#464,#465));
#89=EDGE_LOOP('',(#466,#467,#468,#469,#470,#471,#472,#473));
#90=LINE('',#736,#138);
#91=LINE('',#739,#139);
#92=LINE('',#742,#140);
#93=LINE('',#744,#141);
#94=LINE('',#745,#142);
#95=LINE('',#748,#143);
#96=LINE('',#752,#144);
#97=LINE('',#756,#145);
#98=LINE('',#760,#146);
#99=LINE('',#764,#147);
#100=LINE('',#768,#148);
#101=LINE('',#772,#149);
#102=LINE('',#776,#150);
#103=LINE('',#780,#151);
#104=LINE('',#781,#152);
#105=LINE('',#784,#153);
#106=LINE('',#787,#154);
#107=LINE('',#789,#155);
#108=LINE('',#792,#156);
#109=LINE('',#796,#157);
#110=LINE('',#799,#158);
#111=LINE('',#802,#159);
#112=LINE('',#803,#160);
#113=LINE('',#809,#161);
#114=LINE('',#812,#162);
#115=LINE('',#815,#163);
#116=LINE('',#817,#164);
#117=LINE('',#818,#165);
#118=LINE('',#824,#166);
#119=LINE('',#827,#167);
#120=LINE('',#829,#168);
#121=LINE('',#830,#169);
#122=LINE('',#833,#170);
#123=LINE('',#836,#171);
#124=LINE('',#839,#172);
#125=LINE('',#840,#173);
#126=LINE('',#846,#174);
#127=LINE('',#849,#175);
#128=LINE('',#851,#176);
#129=LINE('',#852,#177);
#130=LINE('',#858,#178);
#131=LINE('',#860,#179);
#132=LINE('',#861,#180);
#133=LINE('',#864,#181);
#134=LINE('',#867,#182);
#135=LINE('',#870,#183);
#136=LINE('',#873,#184);
#137=LINE('',#876,#185);
#138=VECTOR('',#584,10.);
#139=VECTOR('',#587,10.);
#140=VECTOR('',#590,10.);
#141=VECTOR('',#591,10.);
#142=VECTOR('',#592,10.);
#143=VECTOR('',#595,10.);
#144=VECTOR('',#598,10.);
#145=VECTOR('',#601,10.);
#146=VECTOR('',#604,10.);
#147=VECTOR('',#607,10.);
#148=VECTOR('',#610,10.);
#149=VECTOR('',#613,10.);
#150=VECTOR('',#618,10.);
#151=VECTOR('',#623,10.);
#152=VECTOR('',#624,10.);
#153=VECTOR('',#627,10.);
#154=VECTOR('',#630,10.);
#155=VECTOR('',#633,10.);
#156=VECTOR('',#636,10.);
#157=VECTOR('',#641,10.);
#158=VECTOR('',#644,10.);
#159=VECTOR('',#647,10.);
#160=VECTOR('',#648,10.);
#161=VECTOR('',#653,10.);
#162=VECTOR('',#656,10.);
#163=VECTOR('',#659,10.);
#164=VECTOR('',#660,10.);
#165=VECTOR('',#661,10.);
#166=VECTOR('',#666,10.);
#167=VECTOR('',#669,10.);
#168=VECTOR('',#672,10.);
#169=VECTOR('',#673,10.);
#170=VECTOR('',#676,10.);
#171=VECTOR('',#679,10.);
#172=VECTOR('',#682,10.);
#173=VECTOR('',#683,10.);
#174=VECTOR('',#688,10.);
#175=VECTOR('',#691,10.);
#176=VECTOR('',#694,10.);
#177=VECTOR('',#695,10.);
#178=VECTOR('',#702,10.);
#179=VECTOR('',#705,10.);
#180=VECTOR('',#706,10.);
#181=VECTOR('',#709,10.);
#182=VECTOR('',#714,10.);
#183=VECTOR('',#717,10.);
#184=VECTOR('',#722,10.);
#185=VECTOR('',#727,10.);
#186=CIRCLE('',#528,2.);
#187=CIRCLE('',#529,2.);
#188=CIRCLE('',#532,2.);
#189=CIRCLE('',#533,2.);
#190=CIRCLE('',#534,2.);
#191=CIRCLE('',#535,1.);
#192=CIRCLE('',#536,1.);
#193=CIRCLE('',#537,1.);
#194=CIRCLE('',#538,1.);
#195=CIRCLE('',#540,2.);
#196=CIRCLE('',#543,2.);
#197=CIRCLE('',#546,2.);
#198=CIRCLE('',#548,1.);
#199=CIRCLE('',#551,1.);
#200=CIRCLE('',#552,1.);
#201=CIRCLE('',#555,1.);
#202=CIRCLE('',#556,1.);
#203=CIRCLE('',#559,1.);
#204=CIRCLE('',#562,1.);
#205=CIRCLE('',#563,1.);
#206=CIRCLE('',#566,1.);
#207=CIRCLE('',#567,1.);
#208=CIRCLE('',#570,1.);
#209=CIRCLE('',#573,1.);
#210=VERTEX_POINT('',#732);
#211=VERTEX_POINT('',#733);
#212=VERTEX_POINT('',#735);
#213=VERTEX_POINT('',#737);
#214=VERTEX_POINT('',#741);
#215=VERTEX_POINT('',#743);
#216=VERTEX_POINT('',#747);
#217=VERTEX_POINT('',#749);
#218=VERTEX_POINT('',#751);
#219=VERTEX_POINT('',#753);
#220=VERTEX_POINT('',#755);
#221=VERTEX_POINT('',#758);
#222=VERTEX_POINT('',#759);
#223=VERTEX_POINT('',#761);
#224=VERTEX_POINT('',#763);
#225=VERTEX_POINT('',#765);
#226=VERTEX_POINT('',#767);
#227=VERTEX_POINT('',#769);
#228=VERTEX_POINT('',#771);
#229=VERTEX_POINT('',#775);
#230=VERTEX_POINT('',#779);
#231=VERTEX_POINT('',#783);
#232=VERTEX_POINT('',#785);
#233=VERTEX_POINT('',#791);
#234=VERTEX_POINT('',#795);
#235=VERTEX_POINT('',#797);
#236=VERTEX_POINT('',#801);
#237=VERTEX_POINT('',#805);
#238=VERTEX_POINT('',#806);
#239=VERTEX_POINT('',#808);
#240=VERTEX_POINT('',#810);
#241=VERTEX_POINT('',#814);
#242=VERTEX_POINT('',#816);
#243=VERTEX_POINT('',#820);
#244=VERTEX_POINT('',#821);
#245=VERTEX_POINT('',#823);
#246=VERTEX_POINT('',#825);
#247=VERTEX_POINT('',#832);
#248=VERTEX_POINT('',#834);
#249=VERTEX_POINT('',#838);
#250=VERTEX_POINT('',#842);
#251=VERTEX_POINT('',#843);
#252=VERTEX_POINT('',#845);
#253=VERTEX_POINT('',#847);
#254=VERTEX_POINT('',#854);
#255=VERTEX_POINT('',#856);
#256=VERTEX_POINT('',#863);
#257=VERTEX_POINT('',#869);
#258=EDGE_CURVE('',#210,#211,#186,.T.);
#259=EDGE_CURVE('',#211,#212,#90,.T.);
#260=EDGE_CURVE('',#212,#213,#187,.T.);
#261=EDGE_CURVE('',#213,#210,#91,.T.);
#262=EDGE_CURVE('',#214,#211,#92,.T.);
#263=EDGE_CURVE('',#215,#214,#93,.T.);
#264=EDGE_CURVE('',#212,#215,#94,.T.);
#265=EDGE_CURVE('',#210,#216,#95,.T.);
#266=EDGE_CURVE('',#217,#216,#188,.T.);
#267=EDGE_CURVE('',#217,#218,#96,.T.);
#268=EDGE_CURVE('',#219,#218,#189,.T.);
#269=EDGE_CURVE('',#219,#220,#97,.T.);
#270=EDGE_CURVE('',#214,#220,#190,.T.);
#271=EDGE_CURVE('',#221,#222,#98,.T.);
#272=EDGE_CURVE('',#223,#222,#191,.T.);
#273=EDGE_CURVE('',#223,#224,#99,.T.);
#274=EDGE_CURVE('',#225,#224,#192,.T.);
#275=EDGE_CURVE('',#225,#226,#100,.T.);
#276=EDGE_CURVE('',#227,#226,#193,.T.);
#277=EDGE_CURVE('',#227,#228,#101,.T.);
#278=EDGE_CURVE('',#221,#228,#194,.T.);
#279=EDGE_CURVE('',#220,#229,#102,.T.);
#280=EDGE_CURVE('',#229,#215,#195,.T.);
#281=EDGE_CURVE('',#230,#219,#103,.T.);
#282=EDGE_CURVE('',#229,#230,#104,.T.);
#283=EDGE_CURVE('',#216,#231,#105,.T.);
#284=EDGE_CURVE('',#231,#232,#196,.T.);
#285=EDGE_CURVE('',#232,#217,#106,.T.);
#286=EDGE_CURVE('',#231,#213,#107,.T.);
#287=EDGE_CURVE('',#218,#233,#108,.T.);
#288=EDGE_CURVE('',#233,#230,#197,.T.);
#289=EDGE_CURVE('',#228,#234,#109,.T.);
#290=EDGE_CURVE('',#234,#235,#198,.T.);
#291=EDGE_CURVE('',#235,#221,#110,.T.);
#292=EDGE_CURVE('',#236,#227,#111,.T.);
#293=EDGE_CURVE('',#234,#236,#112,.T.);
#294=EDGE_CURVE('',#237,#238,#199,.T.);
#295=EDGE_CURVE('',#238,#239,#113,.T.);
#296=EDGE_CURVE('',#239,#240,#200,.F.);
#297=EDGE_CURVE('',#240,#237,#114,.T.);
#298=EDGE_CURVE('',#240,#241,#115,.T.);
#299=EDGE_CURVE('',#242,#241,#116,.T.);
#300=EDGE_CURVE('',#237,#242,#117,.T.);
#301=EDGE_CURVE('',#243,#244,#201,.T.);
#302=EDGE_CURVE('',#244,#245,#118,.T.);
#303=EDGE_CURVE('',#245,#246,#202,.F.);
#304=EDGE_CURVE('',#246,#243,#119,.T.);
#305=EDGE_CURVE('',#243,#238,#120,.T.);
#306=EDGE_CURVE('',#246,#239,#121,.T.);
#307=EDGE_CURVE('',#224,#247,#122,.T.);
#308=EDGE_CURVE('',#247,#248,#203,.T.);
#309=EDGE_CURVE('',#248,#225,#123,.T.);
#310=EDGE_CURVE('',#249,#223,#124,.T.);
#311=EDGE_CURVE('',#247,#249,#125,.T.);
#312=EDGE_CURVE('',#250,#251,#204,.T.);
#313=EDGE_CURVE('',#251,#252,#126,.T.);
#314=EDGE_CURVE('',#252,#253,#205,.F.);
#315=EDGE_CURVE('',#253,#250,#127,.T.);
#316=EDGE_CURVE('',#250,#244,#128,.T.);
#317=EDGE_CURVE('',#253,#245,#129,.T.);
#318=EDGE_CURVE('',#254,#242,#206,.T.);
#319=EDGE_CURVE('',#241,#255,#207,.F.);
#320=EDGE_CURVE('',#255,#254,#130,.T.);
#321=EDGE_CURVE('',#254,#251,#131,.T.);
#322=EDGE_CURVE('',#255,#252,#132,.T.);
#323=EDGE_CURVE('',#222,#256,#133,.T.);
#324=EDGE_CURVE('',#256,#249,#208,.T.);
#325=EDGE_CURVE('',#256,#235,#134,.T.);
#326=EDGE_CURVE('',#226,#257,#135,.T.);
#327=EDGE_CURVE('',#257,#236,#209,.T.);
#328=EDGE_CURVE('',#257,#248,#136,.T.);
#329=EDGE_CURVE('',#233,#232,#137,.T.);
#330=ORIENTED_EDGE('',*,*,#258,.T.);
#331=ORIENTED_EDGE('',*,*,#259,.T.);
#332=ORIENTED_EDGE('',*,*,#260,.T.);
#333=ORIENTED_EDGE('',*,*,#261,.T.);
#334=ORIENTED_EDGE('',*,*,#259,.F.);
#335=ORIENTED_EDGE('',*,*,#262,.F.);
#336=ORIENTED_EDGE('',*,*,#263,.F.);
#337=ORIENTED_EDGE('',*,*,#264,.F.);
#338=ORIENTED_EDGE('',*,*,#258,.F.);
#339=ORIENTED_EDGE('',*,*,#265,.T.);
#340=ORIENTED_EDGE('',*,*,#266,.F.);
#341=ORIENTED_EDGE('',*,*,#267,.T.);
#342=ORIENTED_EDGE('',*,*,#268,.F.);
#343=ORIENTED_EDGE('',*,*,#269,.T.);
#344=ORIENTED_EDGE('',*,*,#270,.F.);
#345=ORIENTED_EDGE('',*,*,#262,.T.);
#346=ORIENTED_EDGE('',*,*,#271,.T.);
#347=ORIENTED_EDGE('',*,*,#272,.F.);
#348=ORIENTED_EDGE('',*,*,#273,.T.);
#349=ORIENTED_EDGE('',*,*,#274,.F.);
#350=ORIENTED_EDGE('',*,*,#275,.T.);
#351=ORIENTED_EDGE('',*,*,#276,.F.);
#352=ORIENTED_EDGE('',*,*,#277,.T.);
#353=ORIENTED_EDGE('',*,*,#278,.F.);
#354=ORIENTED_EDGE('',*,*,#270,.T.);
#355=ORIENTED_EDGE('',*,*,#279,.T.);
#356=ORIENTED_EDGE('',*,*,#280,.T.);
#357=ORIENTED_EDGE('',*,*,#263,.T.);
#358=ORIENTED_EDGE('',*,*,#279,.F.);
#359=ORIENTED_EDGE('',*,*,#269,.F.);
#360=ORIENTED_EDGE('',*,*,#281,.F.);
#361=ORIENTED_EDGE('',*,*,#282,.F.);
#362=ORIENTED_EDGE('',*,*,#266,.T.);
#363=ORIENTED_EDGE('',*,*,#283,.T.);
#364=ORIENTED_EDGE('',*,*,#284,.T.);
#365=ORIENTED_EDGE('',*,*,#285,.T.);
#366=ORIENTED_EDGE('',*,*,#261,.F.);
#367=ORIENTED_EDGE('',*,*,#286,.F.);
#368=ORIENTED_EDGE('',*,*,#283,.F.);
#369=ORIENTED_EDGE('',*,*,#265,.F.);
#370=ORIENTED_EDGE('',*,*,#268,.T.);
#371=ORIENTED_EDGE('',*,*,#287,.T.);
#372=ORIENTED_EDGE('',*,*,#288,.T.);
#373=ORIENTED_EDGE('',*,*,#281,.T.);
#374=ORIENTED_EDGE('',*,*,#278,.T.);
#375=ORIENTED_EDGE('',*,*,#289,.T.);
#376=ORIENTED_EDGE('',*,*,#290,.T.);
#377=ORIENTED_EDGE('',*,*,#291,.T.);
#378=ORIENTED_EDGE('',*,*,#289,.F.);
#379=ORIENTED_EDGE('',*,*,#277,.F.);
#380=ORIENTED_EDGE('',*,*,#292,.F.);
#381=ORIENTED_EDGE('',*,*,#293,.F.);
#382=ORIENTED_EDGE('',*,*,#294,.T.);
#383=ORIENTED_EDGE('',*,*,#295,.T.);
#384=ORIENTED_EDGE('',*,*,#296,.T.);
#385=ORIENTED_EDGE('',*,*,#297,.T.);
#386=ORIENTED_EDGE('',*,*,#297,.F.);
#387=ORIENTED_EDGE('',*,*,#298,.T.);
#388=ORIENTED_EDGE('',*,*,#299,.F.);
#389=ORIENTED_EDGE('',*,*,#300,.F.);
#390=ORIENTED_EDGE('',*,*,#301,.T.);
#391=ORIENTED_EDGE('',*,*,#302,.T.);
#392=ORIENTED_EDGE('',*,*,#303,.T.);
#393=ORIENTED_EDGE('',*,*,#304,.T.);
#394=ORIENTED_EDGE('',*,*,#295,.F.);
#395=ORIENTED_EDGE('',*,*,#305,.F.);
#396=ORIENTED_EDGE('',*,*,#304,.F.);
#397=ORIENTED_EDGE('',*,*,#306,.T.);
#398=ORIENTED_EDGE('',*,*,#274,.T.);
#399=ORIENTED_EDGE('',*,*,#307,.T.);
#400=ORIENTED_EDGE('',*,*,#308,.T.);
#401=ORIENTED_EDGE('',*,*,#309,.T.);
#402=ORIENTED_EDGE('',*,*,#307,.F.);
#403=ORIENTED_EDGE('',*,*,#273,.F.);
#404=ORIENTED_EDGE('',*,*,#310,.F.);
#405=ORIENTED_EDGE('',*,*,#311,.F.);
#406=ORIENTED_EDGE('',*,*,#312,.T.);
#407=ORIENTED_EDGE('',*,*,#313,.T.);
#408=ORIENTED_EDGE('',*,*,#314,.T.);
#409=ORIENTED_EDGE('',*,*,#315,.T.);
#410=ORIENTED_EDGE('',*,*,#302,.F.);
#411=ORIENTED_EDGE('',*,*,#316,.F.);
#412=ORIENTED_EDGE('',*,*,#315,.F.);
#413=ORIENTED_EDGE('',*,*,#317,.T.);
#414=ORIENTED_EDGE('',*,*,#318,.T.);
#415=ORIENTED_EDGE('',*,*,#299,.T.);
#416=ORIENTED_EDGE('',*,*,#319,.T.);
#417=ORIENTED_EDGE('',*,*,#320,.T.);
#418=ORIENTED_EDGE('',*,*,#313,.F.);
#419=ORIENTED_EDGE('',*,*,#321,.F.);
#420=ORIENTED_EDGE('',*,*,#320,.F.);
#421=ORIENTED_EDGE('',*,*,#322,.T.);
#422=ORIENTED_EDGE('',*,*,#272,.T.);
#423=ORIENTED_EDGE('',*,*,#323,.T.);
#424=ORIENTED_EDGE('',*,*,#324,.T.);
#425=ORIENTED_EDGE('',*,*,#310,.T.);
#426=ORIENTED_EDGE('',*,*,#291,.F.);
#427=ORIENTED_EDGE('',*,*,#325,.F.);
#428=ORIENTED_EDGE('',*,*,#323,.F.);
#429=ORIENTED_EDGE('',*,*,#271,.F.);
#430=ORIENTED_EDGE('',*,*,#276,.T.);
#431=ORIENTED_EDGE('',*,*,#326,.T.);
#432=ORIENTED_EDGE('',*,*,#327,.T.);
#433=ORIENTED_EDGE('',*,*,#292,.T.);
#434=ORIENTED_EDGE('',*,*,#309,.F.);
#435=ORIENTED_EDGE('',*,*,#328,.F.);
#436=ORIENTED_EDGE('',*,*,#326,.F.);
#437=ORIENTED_EDGE('',*,*,#275,.F.);
#438=ORIENTED_EDGE('',*,*,#294,.F.);
#439=ORIENTED_EDGE('',*,*,#300,.T.);
#440=ORIENTED_EDGE('',*,*,#318,.F.);
#441=ORIENTED_EDGE('',*,*,#321,.T.);
#442=ORIENTED_EDGE('',*,*,#312,.F.);
#443=ORIENTED_EDGE('',*,*,#316,.T.);
#444=ORIENTED_EDGE('',*,*,#301,.F.);
#445=ORIENTED_EDGE('',*,*,#305,.T.);
#446=ORIENTED_EDGE('',*,*,#325,.T.);
#447=ORIENTED_EDGE('',*,*,#290,.F.);
#448=ORIENTED_EDGE('',*,*,#293,.T.);
#449=ORIENTED_EDGE('',*,*,#327,.F.);
#450=ORIENTED_EDGE('',*,*,#328,.T.);
#451=ORIENTED_EDGE('',*,*,#308,.F.);
#452=ORIENTED_EDGE('',*,*,#311,.T.);
#453=ORIENTED_EDGE('',*,*,#324,.F.);
#454=ORIENTED_EDGE('',*,*,#285,.F.);
#455=ORIENTED_EDGE('',*,*,#329,.F.);
#456=ORIENTED_EDGE('',*,*,#287,.F.);
#457=ORIENTED_EDGE('',*,*,#267,.F.);
#458=ORIENTED_EDGE('',*,*,#260,.F.);
#459=ORIENTED_EDGE('',*,*,#264,.T.);
#460=ORIENTED_EDGE('',*,*,#280,.F.);
#461=ORIENTED_EDGE('',*,*,#282,.T.);
#462=ORIENTED_EDGE('',*,*,#288,.F.);
#463=ORIENTED_EDGE('',*,*,#329,.T.);
#464=ORIENTED_EDGE('',*,*,#284,.F.);
#465=ORIENTED_EDGE('',*,*,#286,.T.);
#466=ORIENTED_EDGE('',*,*,#314,.F.);
#467=ORIENTED_EDGE('',*,*,#322,.F.);
#468=ORIENTED_EDGE('',*,*,#319,.F.);
#469=ORIENTED_EDGE('',*,*,#298,.F.);
#470=ORIENTED_EDGE('',*,*,#296,.F.);
#471=ORIENTED_EDGE('',*,*,#306,.F.);
#472=ORIENTED_EDGE('',*,*,#303,.F.);
#473=ORIENTED_EDGE('',*,*,#317,.F.);
#474=CYLINDRICAL_SURFACE('',#527,2.);
#475=CYLINDRICAL_SURFACE('',#539,2.);
#476=CYLINDRICAL_SURFACE('',#542,2.);
#477=CYLINDRICAL_SURFACE('',#545,2.);
#478=CYLINDRICAL_SURFACE('',#547,1.);
#479=CYLINDRICAL_SURFACE('',#550,1.);
#480=CYLINDRICAL_SURFACE('',#554,1.);
#481=CYLINDRICAL_SURFACE('',#558,1.);
#482=CYLINDRICAL_SURFACE('',#561,1.);
#483=CYLINDRICAL_SURFACE('',#565,1.);
#484=CYLINDRICAL_SURFACE('',#569,1.);
#485=CYLINDRICAL_SURFACE('',#572,1.);
#486=ADVANCED_FACE('',(#33),#474,.T.);
#487=ADVANCED_FACE('',(#34),#18,.T.);
#488=ADVANCED_FACE('',(#35,#15),#19,.T.);
#489=ADVANCED_FACE('',(#36),#475,.T.);
#490=ADVANCED_FACE('',(#37),#20,.T.);
#491=ADVANCED_FACE('',(#38),#476,.T.);
#492=ADVANCED_FACE('',(#39),#21,.T.);
#493=ADVANCED_FACE('',(#40),#477,.T.);
#494=ADVANCED_FACE('',(#41),#478,.F.);
#495=ADVANCED_FACE('',(#42),#22,.F.);
#496=ADVANCED_FACE('',(#43),#479,.T.);
#497=ADVANCED_FACE('',(#44),#23,.T.);
#498=ADVANCED_FACE('',(#45),#480,.T.);
#499=ADVANCED_FACE('',(#46),#24,.T.);
#500=ADVANCED_FACE('',(#47),#481,.F.);
#501=ADVANCED_FACE('',(#48),#25,.F.);
#502=ADVANCED_FACE('',(#49),#482,.T.);
#503=ADVANCED_FACE('',(#50),#26,.T.);
#504=ADVANCED_FACE('',(#51),#483,.T.);
#505=ADVANCED_FACE('',(#52),#27,.T.);
#506=ADVANCED_FACE('',(#53),#484,.F.);
#507=ADVANCED_FACE('',(#54),#28,.F.);
#508=ADVANCED_FACE('',(#55),#485,.F.);
#509=ADVANCED_FACE('',(#56),#29,.F.);
#510=ADVANCED_FACE('',(#57,#16),#30,.T.);
#511=ADVANCED_FACE('',(#58),#31,.T.);
#512=ADVANCED_FACE('',(#59,#17),#32,.F.);
#513=CLOSED_SHELL('',(#486,#487,#488,#489,#490,#491,#492,#493,#494,#495,
#496,#497,#498,#499,#500,#501,#502,#503,#504,#505,#506,#507,#508,#509,#510,
#511,#512));
#514=DERIVED_UNIT_ELEMENT(#516,1.);
#515=DERIVED_UNIT_ELEMENT(#883,-3.);
#516=(
MASS_UNIT()
NAMED_UNIT(*)
SI_UNIT(.KILO.,.GRAM.)
);
#517=DERIVED_UNIT((#514,#515));
#518=MEASURE_REPRESENTATION_ITEM('density measure',
POSITIVE_RATIO_MEASURE(7850.),#517);
#519=PROPERTY_DEFINITION_REPRESENTATION(#524,#521);
#520=PROPERTY_DEFINITION_REPRESENTATION(#525,#522);
#521=REPRESENTATION('material name',(#523),#880);
#522=REPRESENTATION('density',(#518),#880);
#523=DESCRIPTIVE_REPRESENTATION_ITEM('Steel','Steel');
#524=PROPERTY_DEFINITION('material property','material name',#890);
#525=PROPERTY_DEFINITION('material property','density of part',#890);
#526=AXIS2_PLACEMENT_3D('',#730,#578,#579);
#527=AXIS2_PLACEMENT_3D('',#731,#580,#581);
#528=AXIS2_PLACEMENT_3D('',#734,#582,#583);
#529=AXIS2_PLACEMENT_3D('',#738,#585,#586);
#530=AXIS2_PLACEMENT_3D('',#740,#588,#589);
#531=AXIS2_PLACEMENT_3D('',#746,#593,#594);
#532=AXIS2_PLACEMENT_3D('',#750,#596,#597);
#533=AXIS2_PLACEMENT_3D('',#754,#599,#600);
#534=AXIS2_PLACEMENT_3D('',#757,#602,#603);
#535=AXIS2_PLACEMENT_3D('',#762,#605,#606);
#536=AXIS2_PLACEMENT_3D('',#766,#608,#609);
#537=AXIS2_PLACEMENT_3D('',#770,#611,#612);
#538=AXIS2_PLACEMENT_3D('',#773,#614,#615);
#539=AXIS2_PLACEMENT_3D('',#774,#616,#617);
#540=AXIS2_PLACEMENT_3D('',#777,#619,#620);
#541=AXIS2_PLACEMENT_3D('',#778,#621,#622);
#542=AXIS2_PLACEMENT_3D('',#782,#625,#626);
#543=AXIS2_PLACEMENT_3D('',#786,#628,#629);
#544=AXIS2_PLACEMENT_3D('',#788,#631,#632);
#545=AXIS2_PLACEMENT_3D('',#790,#634,#635);
#546=AXIS2_PLACEMENT_3D('',#793,#637,#638);
#547=AXIS2_PLACEMENT_3D('',#794,#639,#640);
#548=AXIS2_PLACEMENT_3D('',#798,#642,#643);
#549=AXIS2_PLACEMENT_3D('',#800,#645,#646);
#550=AXIS2_PLACEMENT_3D('',#804,#649,#650);
#551=AXIS2_PLACEMENT_3D('',#807,#651,#652);
#552=AXIS2_PLACEMENT_3D('',#811,#654,#655);
#553=AXIS2_PLACEMENT_3D('',#813,#657,#658);
#554=AXIS2_PLACEMENT_3D('',#819,#662,#663);
#555=AXIS2_PLACEMENT_3D('',#822,#664,#665);
#556=AXIS2_PLACEMENT_3D('',#826,#667,#668);
#557=AXIS2_PLACEMENT_3D('',#828,#670,#671);
#558=AXIS2_PLACEMENT_3D('',#831,#674,#675);
#559=AXIS2_PLACEMENT_3D('',#835,#677,#678);
#560=AXIS2_PLACEMENT_3D('',#837,#680,#681);
#561=AXIS2_PLACEMENT_3D('',#841,#684,#685);
#562=AXIS2_PLACEMENT_3D('',#844,#686,#687);
#563=AXIS2_PLACEMENT_3D('',#848,#689,#690);
#564=AXIS2_PLACEMENT_3D('',#850,#692,#693);
#565=AXIS2_PLACEMENT_3D('',#853,#696,#697);
#566=AXIS2_PLACEMENT_3D('',#855,#698,#699);
#567=AXIS2_PLACEMENT_3D('',#857,#700,#701);
#568=AXIS2_PLACEMENT_3D('',#859,#703,#704);
#569=AXIS2_PLACEMENT_3D('',#862,#707,#708);
#570=AXIS2_PLACEMENT_3D('',#865,#710,#711);
#571=AXIS2_PLACEMENT_3D('',#866,#712,#713);
#572=AXIS2_PLACEMENT_3D('',#868,#715,#716);
#573=AXIS2_PLACEMENT_3D('',#871,#718,#719);
#574=AXIS2_PLACEMENT_3D('',#872,#720,#721);
#575=AXIS2_PLACEMENT_3D('',#874,#723,#724);
#576=AXIS2_PLACEMENT_3D('',#875,#725,#726);
#577=AXIS2_PLACEMENT_3D('',#877,#728,#729);
#578=DIRECTION('axis',(0.,0.,1.));
#579=DIRECTION('refdir',(1.,0.,0.));
#580=DIRECTION('center_axis',(0.,0.,1.));
#581=DIRECTION('ref_axis',(0.707106781186547,0.707106781186548,0.));
#582=DIRECTION('center_axis',(0.,0.,-1.));
#583=DIRECTION('ref_axis',(0.707106781186547,0.707106781186548,0.));
#584=DIRECTION('',(0.,0.,-1.));
#585=DIRECTION('center_axis',(0.,0.,1.));
#586=DIRECTION('ref_axis',(0.707106781186547,0.707106781186548,0.));
#587=DIRECTION('',(0.,0.,1.));
#588=DIRECTION('center_axis',(1.,0.,0.));
#589=DIRECTION('ref_axis',(0.,1.,0.));
#590=DIRECTION('',(0.,1.,0.));
#591=DIRECTION('',(0.,0.,1.));
#592=DIRECTION('',(0.,-1.,0.));
#593=DIRECTION('center_axis',(0.,0.,1.));
#594=DIRECTION('ref_axis',(1.,0.,0.));
#595=DIRECTION('',(-1.,0.,0.));
#596=DIRECTION('center_axis',(0.,0.,-1.));
#597=DIRECTION('ref_axis',(-0.707106781186548,0.707106781186548,0.));
#598=DIRECTION('',(0.,-1.,0.));
#599=DIRECTION('center_axis',(0.,0.,-1.));
#600=DIRECTION('ref_axis',(-0.707106781186548,-0.707106781186548,0.));
#601=DIRECTION('',(1.,0.,0.));
#602=DIRECTION('center_axis',(0.,0.,-1.));
#603=DIRECTION('ref_axis',(0.707106781186548,-0.707106781186547,0.));
#604=DIRECTION('',(0.,-1.,0.));
#605=DIRECTION('center_axis',(0.,0.,1.));
#606=DIRECTION('ref_axis',(0.707106781186548,-0.707106781186547,0.));
#607=DIRECTION('',(-1.,0.,0.));
#608=DIRECTION('center_axis',(0.,0.,1.));
#609=DIRECTION('ref_axis',(-0.707106781186548,-0.707106781186547,0.));
#610=DIRECTION('',(0.,1.,0.));
#611=DIRECTION('center_axis',(0.,0.,1.));
#612=DIRECTION('ref_axis',(-0.707106781186548,0.707106781186547,0.));
#613=DIRECTION('',(1.,0.,0.));
#614=DIRECTION('center_axis',(0.,0.,1.));
#615=DIRECTION('ref_axis',(0.707106781186548,0.707106781186547,0.));
#616=DIRECTION('center_axis',(0.,0.,1.));
#617=DIRECTION('ref_axis',(0.707106781186548,-0.707106781186547,0.));
#618=DIRECTION('',(0.,0.,-1.));
#619=DIRECTION('center_axis',(0.,0.,1.));
#620=DIRECTION('ref_axis',(0.707106781186548,-0.707106781186547,0.));
#621=DIRECTION('center_axis',(0.,-1.,0.));
#622=DIRECTION('ref_axis',(1.,0.,0.));
#623=DIRECTION('',(0.,0.,1.));
#624=DIRECTION('',(-1.,0.,0.));
#625=DIRECTION('center_axis',(0.,0.,1.));
#626=DIRECTION('ref_axis',(-0.707106781186548,0.707106781186548,0.));
#627=DIRECTION('',(0.,0.,-1.));
#628=DIRECTION('center_axis',(0.,0.,1.));
#629=DIRECTION('ref_axis',(-0.707106781186548,0.707106781186548,0.));
#630=DIRECTION('',(0.,0.,1.));
#631=DIRECTION('center_axis',(0.,1.,0.));
#632=DIRECTION('ref_axis',(-1.,0.,0.));
#633=DIRECTION('',(1.,0.,0.));
#634=DIRECTION('center_axis',(0.,0.,1.));
#635=DIRECTION('ref_axis',(-0.707106781186548,-0.707106781186548,0.));
#636=DIRECTION('',(0.,0.,-1.));
#637=DIRECTION('center_axis',(0.,0.,1.));
#638=DIRECTION('ref_axis',(-0.707106781186548,-0.707106781186548,0.));
#639=DIRECTION('center_axis',(0.,0.,-1.));
#640=DIRECTION('ref_axis',(0.707106781186548,0.707106781186547,0.));
#641=DIRECTION('',(0.,0.,-1.));
#642=DIRECTION('center_axis',(0.,0.,-1.));
#643=DIRECTION('ref_axis',(0.707106781186548,0.707106781186547,0.));
#644=DIRECTION('',(0.,0.,1.));
#645=DIRECTION('center_axis',(0.,1.,0.));
#646=DIRECTION('ref_axis',(1.,0.,0.));
#647=DIRECTION('',(0.,0.,1.));
#648=DIRECTION('',(-1.,0.,0.));
#649=DIRECTION('center_axis',(0.,0.,-1.));
#650=DIRECTION('ref_axis',(0.707106781186548,-0.707106781186548,0.));
#651=DIRECTION('center_axis',(0.,0.,1.));
#652=DIRECTION('ref_axis',(0.707106781186548,-0.707106781186548,0.));
#653=DIRECTION('',(0.,0.,1.));
#654=DIRECTION('center_axis',(0.,0.,1.));
#655=DIRECTION('ref_axis',(0.707106781186548,-0.707106781186548,0.));
#656=DIRECTION('',(0.,0.,-1.));
#657=DIRECTION('center_axis',(0.,-1.,0.));
#658=DIRECTION('ref_axis',(-1.,0.,0.));
#659=DIRECTION('',(-1.,-1.85037170770859E-16,0.));
#660=DIRECTION('',(0.,0.,1.));
#661=DIRECTION('',(-1.,0.,0.));
#662=DIRECTION('center_axis',(0.,0.,-1.));
#663=DIRECTION('ref_axis',(0.707106781186548,0.707106781186548,0.));
#664=DIRECTION('center_axis',(0.,0.,1.));
#665=DIRECTION('ref_axis',(0.707106781186548,0.707106781186548,0.));
#666=DIRECTION('',(0.,0.,1.));
#667=DIRECTION('center_axis',(0.,0.,1.));
#668=DIRECTION('ref_axis',(0.707106781186548,0.707106781186548,0.));
#669=DIRECTION('',(0.,0.,-1.));
#670=DIRECTION('center_axis',(1.,0.,0.));
#671=DIRECTION('ref_axis',(0.,-1.,0.));
#672=DIRECTION('',(0.,-1.,0.));
#673=DIRECTION('',(-1.09381578780804E-16,-1.,0.));
#674=DIRECTION('center_axis',(0.,0.,-1.));
#675=DIRECTION('ref_axis',(-0.707106781186548,-0.707106781186547,0.));
#676=DIRECTION('',(0.,0.,-1.));
#677=DIRECTION('center_axis',(0.,0.,-1.));
#678=DIRECTION('ref_axis',(-0.707106781186548,-0.707106781186547,0.));
#679=DIRECTION('',(0.,0.,1.));
#680=DIRECTION('center_axis',(0.,-1.,0.));
#681=DIRECTION('ref_axis',(-1.,0.,0.));
#682=DIRECTION('',(0.,0.,1.));
#683=DIRECTION('',(1.,0.,0.));
#684=DIRECTION('center_axis',(0.,0.,-1.));
#685=DIRECTION('ref_axis',(-0.707106781186548,0.707106781186548,0.));
#686=DIRECTION('center_axis',(0.,0.,1.));
#687=DIRECTION('ref_axis',(-0.707106781186548,0.707106781186548,0.));
#688=DIRECTION('',(0.,0.,1.));
#689=DIRECTION('center_axis',(0.,0.,1.));
#690=DIRECTION('ref_axis',(-0.707106781186548,0.707106781186548,0.));
#691=DIRECTION('',(0.,0.,-1.));
#692=DIRECTION('center_axis',(0.,1.,0.));
#693=DIRECTION('ref_axis',(1.,0.,0.));
#694=DIRECTION('',(1.,0.,0.));
#695=DIRECTION('',(1.,0.,0.));
#696=DIRECTION('center_axis',(0.,0.,-1.));
#697=DIRECTION('ref_axis',(-0.707106781186547,-0.707106781186548,0.));
#698=DIRECTION('center_axis',(0.,0.,1.));
#699=DIRECTION('ref_axis',(-0.707106781186547,-0.707106781186548,0.));
#700=DIRECTION('center_axis',(0.,0.,1.));
#701=DIRECTION('ref_axis',(-0.707106781186547,-0.707106781186548,0.));
#702=DIRECTION('',(0.,0.,-1.));
#703=DIRECTION('center_axis',(-1.,0.,0.));
#704=DIRECTION('ref_axis',(0.,1.,0.));
#705=DIRECTION('',(0.,1.,0.));
#706=DIRECTION('',(0.,1.,0.));
#707=DIRECTION('center_axis',(0.,0.,-1.));
#708=DIRECTION('ref_axis',(0.707106781186548,-0.707106781186547,0.));
#709=DIRECTION('',(0.,0.,-1.));
#710=DIRECTION('center_axis',(0.,0.,-1.));
#711=DIRECTION('ref_axis',(0.707106781186548,-0.707106781186547,0.));
#712=DIRECTION('center_axis',(1.,0.,0.));
#713=DIRECTION('ref_axis',(0.,-1.,0.));
#714=DIRECTION('',(0.,1.,0.));
#715=DIRECTION('center_axis',(0.,0.,-1.));
#716=DIRECTION('ref_axis',(-0.707106781186548,0.707106781186547,0.));
#717=DIRECTION('',(0.,0.,-1.));
#718=DIRECTION('center_axis',(0.,0.,-1.));
#719=DIRECTION('ref_axis',(-0.707106781186548,0.707106781186547,0.));
#720=DIRECTION('center_axis',(-1.,0.,0.));
#721=DIRECTION('ref_axis',(0.,1.,0.));
#722=DIRECTION('',(0.,-1.,0.));
#723=DIRECTION('center_axis',(0.,0.,-1.));
#724=DIRECTION('ref_axis',(-1.,0.,0.));
#725=DIRECTION('center_axis',(-1.,0.,0.));
#726=DIRECTION('ref_axis',(0.,-1.,0.));
#727=DIRECTION('',(0.,1.,0.));
#728=DIRECTION('center_axis',(0.,0.,1.));
#729=DIRECTION('ref_axis',(1.,0.,0.));
#730=CARTESIAN_POINT('',(0.,0.,0.));
#731=CARTESIAN_POINT('Origin',(7.,11.15,0.));
#732=CARTESIAN_POINT('',(7.00000000000001,13.15,1.));
#733=CARTESIAN_POINT('',(9.,11.15,1.));
#734=CARTESIAN_POINT('Origin',(7.,11.15,1.));
#735=CARTESIAN_POINT('',(9.,11.15,0.));
#736=CARTESIAN_POINT('',(9.,11.15,0.));
#737=CARTESIAN_POINT('',(7.00000000000001,13.15,0.));
#738=CARTESIAN_POINT('Origin',(7.,11.15,0.));
#739=CARTESIAN_POINT('',(7.,13.15,0.));
#740=CARTESIAN_POINT('Origin',(9.,-13.15,0.));
#741=CARTESIAN_POINT('',(9.,-11.15,1.));
#742=CARTESIAN_POINT('',(9.,13.15,1.));
#743=CARTESIAN_POINT('',(9.,-11.15,0.));
#744=CARTESIAN_POINT('',(9.,-11.15,0.));
#745=CARTESIAN_POINT('',(9.,13.15,0.));
#746=CARTESIAN_POINT('Origin',(1.11022302462516E-15,0.,1.));
#747=CARTESIAN_POINT('',(-7.,13.15,1.));
#748=CARTESIAN_POINT('',(-9.,13.15,1.));
#749=CARTESIAN_POINT('',(-9.,11.15,1.));
#750=CARTESIAN_POINT('Origin',(-7.,11.15,1.));
#751=CARTESIAN_POINT('',(-9.,-11.15,1.));
#752=CARTESIAN_POINT('',(-9.,-13.15,1.));
#753=CARTESIAN_POINT('',(-7.,-13.15,1.));
#754=CARTESIAN_POINT('Origin',(-7.,-11.15,1.));
#755=CARTESIAN_POINT('',(7.,-13.15,1.));
#756=CARTESIAN_POINT('',(9.,-13.15,1.));
#757=CARTESIAN_POINT('Origin',(7.,-11.15,1.));
#758=CARTESIAN_POINT('',(5.5,8.65,1.));
#759=CARTESIAN_POINT('',(5.5,-8.65,1.));
#760=CARTESIAN_POINT('',(5.5,5.075,1.));
#761=CARTESIAN_POINT('',(4.5,-9.65,1.));
#762=CARTESIAN_POINT('Origin',(4.5,-8.65,1.));
#763=CARTESIAN_POINT('',(-4.5,-9.65,1.));
#764=CARTESIAN_POINT('',(3.,-9.65,1.));
#765=CARTESIAN_POINT('',(-5.5,-8.65,1.));
#766=CARTESIAN_POINT('Origin',(-4.5,-8.65,1.));
#767=CARTESIAN_POINT('',(-5.5,8.65,1.));
#768=CARTESIAN_POINT('',(-5.5,-5.075,1.));
#769=CARTESIAN_POINT('',(-4.5,9.65,1.));
#770=CARTESIAN_POINT('Origin',(-4.5,8.65,1.));
#771=CARTESIAN_POINT('',(4.5,9.65,1.));
#772=CARTESIAN_POINT('',(-3.,9.65,1.));
#773=CARTESIAN_POINT('Origin',(4.5,8.65,1.));
#774=CARTESIAN_POINT('Origin',(7.,-11.15,0.));
#775=CARTESIAN_POINT('',(7.,-13.15,0.));
#776=CARTESIAN_POINT('',(7.,-13.15,0.));
#777=CARTESIAN_POINT('Origin',(7.,-11.15,0.));
#778=CARTESIAN_POINT('Origin',(-9.,-13.15,0.));
#779=CARTESIAN_POINT('',(-7.,-13.15,0.));
#780=CARTESIAN_POINT('',(-7.,-13.15,0.));
#781=CARTESIAN_POINT('',(9.,-13.15,0.));
#782=CARTESIAN_POINT('Origin',(-7.,11.15,0.));
#783=CARTESIAN_POINT('',(-7.,13.15,0.));
#784=CARTESIAN_POINT('',(-7.,13.15,0.));
#785=CARTESIAN_POINT('',(-9.,11.15,0.));
#786=CARTESIAN_POINT('Origin',(-7.,11.15,0.));
#787=CARTESIAN_POINT('',(-9.,11.15,0.));
#788=CARTESIAN_POINT('Origin',(9.,13.15,0.));
#789=CARTESIAN_POINT('',(-9.,13.15,0.));
#790=CARTESIAN_POINT('Origin',(-7.,-11.15,0.));
#791=CARTESIAN_POINT('',(-9.,-11.15,0.));
#792=CARTESIAN_POINT('',(-9.,-11.15,0.));
#793=CARTESIAN_POINT('Origin',(-7.,-11.15,0.));
#794=CARTESIAN_POINT('Origin',(4.5,8.65,1.));
#795=CARTESIAN_POINT('',(4.5,9.65,-3.));
#796=CARTESIAN_POINT('',(4.5,9.65,1.));
#797=CARTESIAN_POINT('',(5.5,8.65,-3.));
#798=CARTESIAN_POINT('Origin',(4.5,8.65,-3.));
#799=CARTESIAN_POINT('',(5.5,8.65,1.));
#800=CARTESIAN_POINT('Origin',(-6.,9.65,1.));
#801=CARTESIAN_POINT('',(-4.5,9.65,-3.));
#802=CARTESIAN_POINT('',(-4.5,9.65,1.));
#803=CARTESIAN_POINT('',(-3.,9.65,-3.));
#804=CARTESIAN_POINT('Origin',(5.,-9.15,1.));
#805=CARTESIAN_POINT('',(5.,-10.15,-3.));
#806=CARTESIAN_POINT('',(6.,-9.15,-3.));
#807=CARTESIAN_POINT('Origin',(5.,-9.15,-3.));
#808=CARTESIAN_POINT('',(6.,-9.15,0.));
#809=CARTESIAN_POINT('',(6.,-9.15,1.));
#810=CARTESIAN_POINT('',(5.,-10.15,0.));
#811=CARTESIAN_POINT('Origin',(5.,-9.15,0.));
#812=CARTESIAN_POINT('',(5.,-10.15,1.));
#813=CARTESIAN_POINT('Origin',(6.,-10.15,1.));
#814=CARTESIAN_POINT('',(-5.,-10.15,0.));
#815=CARTESIAN_POINT('',(6.,-10.15,0.));
#816=CARTESIAN_POINT('',(-5.,-10.15,-3.));
#817=CARTESIAN_POINT('',(-5.,-10.15,1.));
#818=CARTESIAN_POINT('',(6.,-10.15,-3.));
#819=CARTESIAN_POINT('Origin',(5.,9.15,1.));
#820=CARTESIAN_POINT('',(6.,9.15,-3.));
#821=CARTESIAN_POINT('',(5.,10.15,-3.));
#822=CARTESIAN_POINT('Origin',(5.,9.15,-3.));
#823=CARTESIAN_POINT('',(5.,10.15,0.));
#824=CARTESIAN_POINT('',(5.,10.15,1.));
#825=CARTESIAN_POINT('',(6.,9.15,0.));
#826=CARTESIAN_POINT('Origin',(5.,9.15,0.));
#827=CARTESIAN_POINT('',(6.,9.15,1.));
#828=CARTESIAN_POINT('Origin',(6.,10.15,1.));
#829=CARTESIAN_POINT('',(6.,10.15,-3.));
#830=CARTESIAN_POINT('',(6.,10.15,0.));
#831=CARTESIAN_POINT('Origin',(-4.5,-8.65,1.));
#832=CARTESIAN_POINT('',(-4.5,-9.65,-3.));
#833=CARTESIAN_POINT('',(-4.5,-9.65,1.));
#834=CARTESIAN_POINT('',(-5.5,-8.65,-3.));
#835=CARTESIAN_POINT('Origin',(-4.5,-8.65,-3.));
#836=CARTESIAN_POINT('',(-5.5,-8.65,1.));
#837=CARTESIAN_POINT('Origin',(6.,-9.65,1.));
#838=CARTESIAN_POINT('',(4.5,-9.65,-3.));
#839=CARTESIAN_POINT('',(4.5,-9.65,1.));
#840=CARTESIAN_POINT('',(3.,-9.65,-3.));
#841=CARTESIAN_POINT('Origin',(-5.,9.15,1.));
#842=CARTESIAN_POINT('',(-5.,10.15,-3.));
#843=CARTESIAN_POINT('',(-6.,9.15,-3.));
#844=CARTESIAN_POINT('Origin',(-5.,9.15,-3.));
#845=CARTESIAN_POINT('',(-6.,9.15,0.));
#846=CARTESIAN_POINT('',(-6.,9.15,1.));
#847=CARTESIAN_POINT('',(-5.,10.15,0.));
#848=CARTESIAN_POINT('Origin',(-5.,9.15,0.));
#849=CARTESIAN_POINT('',(-5.,10.15,1.));
#850=CARTESIAN_POINT('Origin',(-6.,10.15,1.));
#851=CARTESIAN_POINT('',(-6.,10.15,-3.));
#852=CARTESIAN_POINT('',(-6.,10.15,0.));
#853=CARTESIAN_POINT('Origin',(-5.,-9.15,1.));
#854=CARTESIAN_POINT('',(-6.,-9.15,-3.));
#855=CARTESIAN_POINT('Origin',(-5.,-9.15,-3.));
#856=CARTESIAN_POINT('',(-6.,-9.15,0.));
#857=CARTESIAN_POINT('Origin',(-5.,-9.15,0.));
#858=CARTESIAN_POINT('',(-6.,-9.15,1.));
#859=CARTESIAN_POINT('Origin',(-6.,-10.15,1.));
#860=CARTESIAN_POINT('',(-6.,-10.15,-3.));
#861=CARTESIAN_POINT('',(-6.,-10.15,0.));
#862=CARTESIAN_POINT('Origin',(4.5,-8.65,1.));
#863=CARTESIAN_POINT('',(5.5,-8.65,-3.));
#864=CARTESIAN_POINT('',(5.5,-8.65,1.));
#865=CARTESIAN_POINT('Origin',(4.5,-8.65,-3.));
#866=CARTESIAN_POINT('Origin',(5.5,10.15,1.));
#867=CARTESIAN_POINT('',(5.5,5.075,-3.));
#868=CARTESIAN_POINT('Origin',(-4.5,8.65,1.));
#869=CARTESIAN_POINT('',(-5.5,8.65,-3.));
#870=CARTESIAN_POINT('',(-5.5,8.65,1.));
#871=CARTESIAN_POINT('Origin',(-4.5,8.65,-3.));
#872=CARTESIAN_POINT('Origin',(-5.5,-10.15,1.));
#873=CARTESIAN_POINT('',(-5.5,-5.075,-3.));
#874=CARTESIAN_POINT('Origin',(1.11022302462516E-15,0.,-3.));
#875=CARTESIAN_POINT('Origin',(-9.,13.15,0.));
#876=CARTESIAN_POINT('',(-9.,-13.15,0.));
#877=CARTESIAN_POINT('Origin',(1.11022302462516E-15,0.,0.));
#878=UNCERTAINTY_MEASURE_WITH_UNIT(LENGTH_MEASURE(0.01),#882,
'DISTANCE_ACCURACY_VALUE',
'Maximum model space distance between geometric entities at asserted c
onnectivities');
#879=UNCERTAINTY_MEASURE_WITH_UNIT(LENGTH_MEASURE(0.01),#882,
'DISTANCE_ACCURACY_VALUE',
'Maximum model space distance between geometric entities at asserted c
onnectivities');
#880=(
GEOMETRIC_REPRESENTATION_CONTEXT(3)
GLOBAL_UNCERTAINTY_ASSIGNED_CONTEXT((#878))
GLOBAL_UNIT_ASSIGNED_CONTEXT((#882,#884,#885))
REPRESENTATION_CONTEXT('','3D')
);
#881=(
GEOMETRIC_REPRESENTATION_CONTEXT(3)
GLOBAL_UNCERTAINTY_ASSIGNED_CONTEXT((#879))
GLOBAL_UNIT_ASSIGNED_CONTEXT((#882,#884,#885))
REPRESENTATION_CONTEXT('','3D')
);
#882=(
LENGTH_UNIT()
NAMED_UNIT(*)
SI_UNIT(.MILLI.,.METRE.)
);
#883=(
LENGTH_UNIT()
NAMED_UNIT(*)
SI_UNIT($,.METRE.)
);
#884=(
NAMED_UNIT(*)
PLANE_ANGLE_UNIT()
SI_UNIT($,.RADIAN.)
);
#885=(
NAMED_UNIT(*)
SI_UNIT($,.STERADIAN.)
SOLID_ANGLE_UNIT()
);
#886=SHAPE_DEFINITION_REPRESENTATION(#887,#888);
#887=PRODUCT_DEFINITION_SHAPE('',$,#890);
#888=SHAPE_REPRESENTATION('',(#526),#880);
#889=PRODUCT_DEFINITION_CONTEXT('part definition',#894,'design');
#890=PRODUCT_DEFINITION('2026-08-25-20-13-18-006','profile_switch',#891,
#889);
#891=PRODUCT_DEFINITION_FORMATION('',$,#896);
#892=PRODUCT_RELATED_PRODUCT_CATEGORY('profile_switch','profile_switch',
(#896));
#893=APPLICATION_PROTOCOL_DEFINITION('international standard',
'automotive_design',2009,#894);
#894=APPLICATION_CONTEXT(
'Core Data for Automotive Mechanical Design Process');
#895=PRODUCT_CONTEXT('part definition',#894,'mechanical');
#896=PRODUCT('2026-08-25-20-13-18-006','profile_switch',$,(#895));
#897=PRESENTATION_STYLE_ASSIGNMENT((#898));
#898=SURFACE_STYLE_USAGE(.BOTH.,#899);
#899=SURFACE_SIDE_STYLE('',(#900));
#900=SURFACE_STYLE_FILL_AREA(#901);
#901=FILL_AREA_STYLE('Steel - Satin',(#902));
#902=FILL_AREA_STYLE_COLOUR('Steel - Satin',#903);
#903=COLOUR_RGB('Steel - Satin',0.627450980392157,0.627450980392157,0.627450980392157);
ENDSEC;
END-ISO-10303-21;
