ISO-10303-21;
HEADER;
/* Generated by software containing ST-Developer
 * from STEP Tools, Inc. (www.steptools.com) 
 */

FILE_DESCRIPTION(
/* description */ (''),
/* implementation_level */ '2;1');

FILE_NAME(
/* name */ 'profile_switch_v002.step',
/* time_stamp */ '2026-08-25T21:36:17+04:00',
/* author */ (''),
/* organization */ (''),
/* preprocessor_version */ 'ST-DEVELOPER v20.1',
/* originating_system */ 'Autodesk Translation Framework v15.8.0.0',
/* authorisation */ '');

FILE_SCHEMA (('AUTOMOTIVE_DESIGN { 1 0 10303 214 3 1 1 }'));
ENDSEC;

DATA;
#10=MECHANICAL_DESIGN_GEOMETRIC_PRESENTATION_REPRESENTATION('',(#13),#607);
#11=SHAPE_REPRESENTATION_RELATIONSHIP('SRR','None',#614,#12);
#12=ADVANCED_BREP_SHAPE_REPRESENTATION('',(#14),#606);
#13=STYLED_ITEM('',(#623),#14);
#14=MANIFOLD_SOLID_BREP('Body1',#363);
#15=FACE_BOUND('',#67,.T.);
#16=FACE_BOUND('',#70,.T.);
#17=CIRCLE('',#381,2.);
#18=CIRCLE('',#382,2.);
#19=CIRCLE('',#385,2.);
#20=CIRCLE('',#386,2.);
#21=CIRCLE('',#387,2.);
#22=CIRCLE('',#389,2.);
#23=CIRCLE('',#392,2.);
#24=CIRCLE('',#395,2.);
#25=CYLINDRICAL_SURFACE('',#380,2.);
#26=CYLINDRICAL_SURFACE('',#388,2.);
#27=CYLINDRICAL_SURFACE('',#391,2.);
#28=CYLINDRICAL_SURFACE('',#394,2.);
#29=FACE_OUTER_BOUND('',#49,.T.);
#30=FACE_OUTER_BOUND('',#50,.T.);
#31=FACE_OUTER_BOUND('',#51,.T.);
#32=FACE_OUTER_BOUND('',#52,.T.);
#33=FACE_OUTER_BOUND('',#53,.T.);
#34=FACE_OUTER_BOUND('',#54,.T.);
#35=FACE_OUTER_BOUND('',#55,.T.);
#36=FACE_OUTER_BOUND('',#56,.T.);
#37=FACE_OUTER_BOUND('',#57,.T.);
#38=FACE_OUTER_BOUND('',#58,.T.);
#39=FACE_OUTER_BOUND('',#59,.T.);
#40=FACE_OUTER_BOUND('',#60,.T.);
#41=FACE_OUTER_BOUND('',#61,.T.);
#42=FACE_OUTER_BOUND('',#62,.T.);
#43=FACE_OUTER_BOUND('',#63,.T.);
#44=FACE_OUTER_BOUND('',#64,.T.);
#45=FACE_OUTER_BOUND('',#65,.T.);
#46=FACE_OUTER_BOUND('',#66,.T.);
#47=FACE_OUTER_BOUND('',#68,.T.);
#48=FACE_OUTER_BOUND('',#69,.T.);
#49=EDGE_LOOP('',(#231,#232,#233,#234));
#50=EDGE_LOOP('',(#235,#236,#237,#238));
#51=EDGE_LOOP('',(#239,#240,#241,#242));
#52=EDGE_LOOP('',(#243,#244,#245,#246));
#53=EDGE_LOOP('',(#247,#248,#249,#250));
#54=EDGE_LOOP('',(#251,#252,#253,#254,#255,#256,#257,#258));
#55=EDGE_LOOP('',(#259,#260,#261,#262));
#56=EDGE_LOOP('',(#263,#264,#265,#266));
#57=EDGE_LOOP('',(#267,#268,#269,#270));
#58=EDGE_LOOP('',(#271,#272,#273,#274));
#59=EDGE_LOOP('',(#275,#276,#277,#278));
#60=EDGE_LOOP('',(#279,#280,#281,#282));
#61=EDGE_LOOP('',(#283,#284,#285,#286));
#62=EDGE_LOOP('',(#287,#288,#289,#290));
#63=EDGE_LOOP('',(#291,#292,#293,#294));
#64=EDGE_LOOP('',(#295,#296,#297,#298));
#65=EDGE_LOOP('',(#299,#300,#301,#302));
#66=EDGE_LOOP('',(#303,#304,#305,#306));
#67=EDGE_LOOP('',(#307,#308,#309,#310));
#68=EDGE_LOOP('',(#311,#312,#313,#314));
#69=EDGE_LOOP('',(#315,#316,#317,#318,#319,#320,#321,#322));
#70=EDGE_LOOP('',(#323,#324,#325,#326));
#71=LINE('',#507,#111);
#72=LINE('',#509,#112);
#73=LINE('',#511,#113);
#74=LINE('',#512,#114);
#75=LINE('',#515,#115);
#76=LINE('',#517,#116);
#77=LINE('',#518,#117);
#78=LINE('',#521,#118);
#79=LINE('',#522,#119);
#80=LINE('',#528,#120);
#81=LINE('',#531,#121);
#82=LINE('',#534,#122);
#83=LINE('',#536,#123);
#84=LINE('',#537,#124);
#85=LINE('',#540,#125);
#86=LINE('',#544,#126);
#87=LINE('',#548,#127);
#88=LINE('',#552,#128);
#89=LINE('',#556,#129);
#90=LINE('',#557,#130);
#91=LINE('',#560,#131);
#92=LINE('',#563,#132);
#93=LINE('',#565,#133);
#94=LINE('',#568,#134);
#95=LINE('',#573,#135);
#96=LINE('',#575,#136);
#97=LINE('',#577,#137);
#98=LINE('',#578,#138);
#99=LINE('',#581,#139);
#100=LINE('',#583,#140);
#101=LINE('',#584,#141);
#102=LINE('',#587,#142);
#103=LINE('',#588,#143);
#104=LINE('',#590,#144);
#105=LINE('',#593,#145);
#106=LINE('',#595,#146);
#107=LINE('',#596,#147);
#108=LINE('',#598,#148);
#109=LINE('',#599,#149);
#110=LINE('',#602,#150);
#111=VECTOR('',#409,10.);
#112=VECTOR('',#410,10.);
#113=VECTOR('',#411,10.);
#114=VECTOR('',#412,10.);
#115=VECTOR('',#415,10.);
#116=VECTOR('',#416,10.);
#117=VECTOR('',#417,10.);
#118=VECTOR('',#420,10.);
#119=VECTOR('',#421,10.);
#120=VECTOR('',#426,10.);
#121=VECTOR('',#429,10.);
#122=VECTOR('',#432,10.);
#123=VECTOR('',#433,10.);
#124=VECTOR('',#434,10.);
#125=VECTOR('',#437,10.);
#126=VECTOR('',#440,10.);
#127=VECTOR('',#443,10.);
#128=VECTOR('',#448,10.);
#129=VECTOR('',#453,10.);
#130=VECTOR('',#454,10.);
#131=VECTOR('',#457,10.);
#132=VECTOR('',#460,10.);
#133=VECTOR('',#463,10.);
#134=VECTOR('',#466,10.);
#135=VECTOR('',#471,10.);
#136=VECTOR('',#472,10.);
#137=VECTOR('',#473,10.);
#138=VECTOR('',#474,10.);
#139=VECTOR('',#477,10.);
#140=VECTOR('',#478,10.);
#141=VECTOR('',#479,10.);
#142=VECTOR('',#482,10.);
#143=VECTOR('',#483,10.);
#144=VECTOR('',#486,10.);
#145=VECTOR('',#489,10.);
#146=VECTOR('',#490,10.);
#147=VECTOR('',#491,10.);
#148=VECTOR('',#494,10.);
#149=VECTOR('',#495,10.);
#150=VECTOR('',#500,10.);
#151=VERTEX_POINT('',#505);
#152=VERTEX_POINT('',#506);
#153=VERTEX_POINT('',#508);
#154=VERTEX_POINT('',#510);
#155=VERTEX_POINT('',#514);
#156=VERTEX_POINT('',#516);
#157=VERTEX_POINT('',#520);
#158=VERTEX_POINT('',#524);
#159=VERTEX_POINT('',#525);
#160=VERTEX_POINT('',#527);
#161=VERTEX_POINT('',#529);
#162=VERTEX_POINT('',#533);
#163=VERTEX_POINT('',#535);
#164=VERTEX_POINT('',#539);
#165=VERTEX_POINT('',#541);
#166=VERTEX_POINT('',#543);
#167=VERTEX_POINT('',#545);
#168=VERTEX_POINT('',#547);
#169=VERTEX_POINT('',#551);
#170=VERTEX_POINT('',#555);
#171=VERTEX_POINT('',#559);
#172=VERTEX_POINT('',#561);
#173=VERTEX_POINT('',#567);
#174=VERTEX_POINT('',#571);
#175=VERTEX_POINT('',#572);
#176=VERTEX_POINT('',#574);
#177=VERTEX_POINT('',#576);
#178=VERTEX_POINT('',#580);
#179=VERTEX_POINT('',#582);
#180=VERTEX_POINT('',#586);
#181=VERTEX_POINT('',#592);
#182=VERTEX_POINT('',#594);
#183=EDGE_CURVE('',#151,#152,#71,.T.);
#184=EDGE_CURVE('',#153,#151,#72,.T.);
#185=EDGE_CURVE('',#154,#153,#73,.T.);
#186=EDGE_CURVE('',#152,#154,#74,.T.);
#187=EDGE_CURVE('',#152,#155,#75,.T.);
#188=EDGE_CURVE('',#156,#155,#76,.T.);
#189=EDGE_CURVE('',#151,#156,#77,.F.);
#190=EDGE_CURVE('',#154,#157,#78,.F.);
#191=EDGE_CURVE('',#155,#157,#79,.T.);
#192=EDGE_CURVE('',#158,#159,#17,.T.);
#193=EDGE_CURVE('',#159,#160,#80,.T.);
#194=EDGE_CURVE('',#160,#161,#18,.T.);
#195=EDGE_CURVE('',#161,#158,#81,.T.);
#196=EDGE_CURVE('',#162,#159,#82,.T.);
#197=EDGE_CURVE('',#163,#162,#83,.T.);
#198=EDGE_CURVE('',#160,#163,#84,.T.);
#199=EDGE_CURVE('',#158,#164,#85,.T.);
#200=EDGE_CURVE('',#165,#164,#19,.T.);
#201=EDGE_CURVE('',#165,#166,#86,.T.);
#202=EDGE_CURVE('',#167,#166,#20,.T.);
#203=EDGE_CURVE('',#167,#168,#87,.T.);
#204=EDGE_CURVE('',#162,#168,#21,.T.);
#205=EDGE_CURVE('',#168,#169,#88,.T.);
#206=EDGE_CURVE('',#169,#163,#22,.T.);
#207=EDGE_CURVE('',#170,#167,#89,.T.);
#208=EDGE_CURVE('',#169,#170,#90,.T.);
#209=EDGE_CURVE('',#164,#171,#91,.T.);
#210=EDGE_CURVE('',#171,#172,#23,.T.);
#211=EDGE_CURVE('',#172,#165,#92,.T.);
#212=EDGE_CURVE('',#171,#161,#93,.T.);
#213=EDGE_CURVE('',#166,#173,#94,.T.);
#214=EDGE_CURVE('',#173,#170,#24,.T.);
#215=EDGE_CURVE('',#174,#175,#95,.T.);
#216=EDGE_CURVE('',#175,#176,#96,.T.);
#217=EDGE_CURVE('',#177,#176,#97,.T.);
#218=EDGE_CURVE('',#174,#177,#98,.T.);
#219=EDGE_CURVE('',#175,#178,#99,.T.);
#220=EDGE_CURVE('',#178,#179,#100,.T.);
#221=EDGE_CURVE('',#176,#179,#101,.T.);
#222=EDGE_CURVE('',#153,#180,#102,.F.);
#223=EDGE_CURVE('',#157,#180,#103,.T.);
#224=EDGE_CURVE('',#180,#156,#104,.T.);
#225=EDGE_CURVE('',#181,#174,#105,.T.);
#226=EDGE_CURVE('',#182,#177,#106,.T.);
#227=EDGE_CURVE('',#181,#182,#107,.T.);
#228=EDGE_CURVE('',#178,#181,#108,.T.);
#229=EDGE_CURVE('',#179,#182,#109,.T.);
#230=EDGE_CURVE('',#173,#172,#110,.T.);
#231=ORIENTED_EDGE('',*,*,#183,.F.);
#232=ORIENTED_EDGE('',*,*,#184,.F.);
#233=ORIENTED_EDGE('',*,*,#185,.F.);
#234=ORIENTED_EDGE('',*,*,#186,.F.);
#235=ORIENTED_EDGE('',*,*,#183,.T.);
#236=ORIENTED_EDGE('',*,*,#187,.T.);
#237=ORIENTED_EDGE('',*,*,#188,.F.);
#238=ORIENTED_EDGE('',*,*,#189,.F.);
#239=ORIENTED_EDGE('',*,*,#186,.T.);
#240=ORIENTED_EDGE('',*,*,#190,.T.);
#241=ORIENTED_EDGE('',*,*,#191,.F.);
#242=ORIENTED_EDGE('',*,*,#187,.F.);
#243=ORIENTED_EDGE('',*,*,#192,.T.);
#244=ORIENTED_EDGE('',*,*,#193,.T.);
#245=ORIENTED_EDGE('',*,*,#194,.T.);
#246=ORIENTED_EDGE('',*,*,#195,.T.);
#247=ORIENTED_EDGE('',*,*,#193,.F.);
#248=ORIENTED_EDGE('',*,*,#196,.F.);
#249=ORIENTED_EDGE('',*,*,#197,.F.);
#250=ORIENTED_EDGE('',*,*,#198,.F.);
#251=ORIENTED_EDGE('',*,*,#192,.F.);
#252=ORIENTED_EDGE('',*,*,#199,.T.);
#253=ORIENTED_EDGE('',*,*,#200,.F.);
#254=ORIENTED_EDGE('',*,*,#201,.T.);
#255=ORIENTED_EDGE('',*,*,#202,.F.);
#256=ORIENTED_EDGE('',*,*,#203,.T.);
#257=ORIENTED_EDGE('',*,*,#204,.F.);
#258=ORIENTED_EDGE('',*,*,#196,.T.);
#259=ORIENTED_EDGE('',*,*,#204,.T.);
#260=ORIENTED_EDGE('',*,*,#205,.T.);
#261=ORIENTED_EDGE('',*,*,#206,.T.);
#262=ORIENTED_EDGE('',*,*,#197,.T.);
#263=ORIENTED_EDGE('',*,*,#205,.F.);
#264=ORIENTED_EDGE('',*,*,#203,.F.);
#265=ORIENTED_EDGE('',*,*,#207,.F.);
#266=ORIENTED_EDGE('',*,*,#208,.F.);
#267=ORIENTED_EDGE('',*,*,#200,.T.);
#268=ORIENTED_EDGE('',*,*,#209,.T.);
#269=ORIENTED_EDGE('',*,*,#210,.T.);
#270=ORIENTED_EDGE('',*,*,#211,.T.);
#271=ORIENTED_EDGE('',*,*,#195,.F.);
#272=ORIENTED_EDGE('',*,*,#212,.F.);
#273=ORIENTED_EDGE('',*,*,#209,.F.);
#274=ORIENTED_EDGE('',*,*,#199,.F.);
#275=ORIENTED_EDGE('',*,*,#202,.T.);
#276=ORIENTED_EDGE('',*,*,#213,.T.);
#277=ORIENTED_EDGE('',*,*,#214,.T.);
#278=ORIENTED_EDGE('',*,*,#207,.T.);
#279=ORIENTED_EDGE('',*,*,#215,.T.);
#280=ORIENTED_EDGE('',*,*,#216,.T.);
#281=ORIENTED_EDGE('',*,*,#217,.F.);
#282=ORIENTED_EDGE('',*,*,#218,.F.);
#283=ORIENTED_EDGE('',*,*,#219,.T.);
#284=ORIENTED_EDGE('',*,*,#220,.T.);
#285=ORIENTED_EDGE('',*,*,#221,.F.);
#286=ORIENTED_EDGE('',*,*,#216,.F.);
#287=ORIENTED_EDGE('',*,*,#185,.T.);
#288=ORIENTED_EDGE('',*,*,#222,.T.);
#289=ORIENTED_EDGE('',*,*,#223,.F.);
#290=ORIENTED_EDGE('',*,*,#190,.F.);
#291=ORIENTED_EDGE('',*,*,#184,.T.);
#292=ORIENTED_EDGE('',*,*,#189,.T.);
#293=ORIENTED_EDGE('',*,*,#224,.F.);
#294=ORIENTED_EDGE('',*,*,#222,.F.);
#295=ORIENTED_EDGE('',*,*,#225,.T.);
#296=ORIENTED_EDGE('',*,*,#218,.T.);
#297=ORIENTED_EDGE('',*,*,#226,.F.);
#298=ORIENTED_EDGE('',*,*,#227,.F.);
#299=ORIENTED_EDGE('',*,*,#228,.T.);
#300=ORIENTED_EDGE('',*,*,#227,.T.);
#301=ORIENTED_EDGE('',*,*,#229,.F.);
#302=ORIENTED_EDGE('',*,*,#220,.F.);
#303=ORIENTED_EDGE('',*,*,#221,.T.);
#304=ORIENTED_EDGE('',*,*,#229,.T.);
#305=ORIENTED_EDGE('',*,*,#226,.T.);
#306=ORIENTED_EDGE('',*,*,#217,.T.);
#307=ORIENTED_EDGE('',*,*,#191,.T.);
#308=ORIENTED_EDGE('',*,*,#223,.T.);
#309=ORIENTED_EDGE('',*,*,#224,.T.);
#310=ORIENTED_EDGE('',*,*,#188,.T.);
#311=ORIENTED_EDGE('',*,*,#211,.F.);
#312=ORIENTED_EDGE('',*,*,#230,.F.);
#313=ORIENTED_EDGE('',*,*,#213,.F.);
#314=ORIENTED_EDGE('',*,*,#201,.F.);
#315=ORIENTED_EDGE('',*,*,#194,.F.);
#316=ORIENTED_EDGE('',*,*,#198,.T.);
#317=ORIENTED_EDGE('',*,*,#206,.F.);
#318=ORIENTED_EDGE('',*,*,#208,.T.);
#319=ORIENTED_EDGE('',*,*,#214,.F.);
#320=ORIENTED_EDGE('',*,*,#230,.T.);
#321=ORIENTED_EDGE('',*,*,#210,.F.);
#322=ORIENTED_EDGE('',*,*,#212,.T.);
#323=ORIENTED_EDGE('',*,*,#225,.F.);
#324=ORIENTED_EDGE('',*,*,#228,.F.);
#325=ORIENTED_EDGE('',*,*,#219,.F.);
#326=ORIENTED_EDGE('',*,*,#215,.F.);
#327=PLANE('',#377);
#328=PLANE('',#378);
#329=PLANE('',#379);
#330=PLANE('',#383);
#331=PLANE('',#384);
#332=PLANE('',#390);
#333=PLANE('',#393);
#334=PLANE('',#396);
#335=PLANE('',#397);
#336=PLANE('',#398);
#337=PLANE('',#399);
#338=PLANE('',#400);
#339=PLANE('',#401);
#340=PLANE('',#402);
#341=PLANE('',#403);
#342=PLANE('',#404);
#343=ADVANCED_FACE('',(#29),#327,.T.);
#344=ADVANCED_FACE('',(#30),#328,.F.);
#345=ADVANCED_FACE('',(#31),#329,.F.);
#346=ADVANCED_FACE('',(#32),#25,.T.);
#347=ADVANCED_FACE('',(#33),#330,.T.);
#348=ADVANCED_FACE('',(#34),#331,.T.);
#349=ADVANCED_FACE('',(#35),#26,.T.);
#350=ADVANCED_FACE('',(#36),#332,.T.);
#351=ADVANCED_FACE('',(#37),#27,.T.);
#352=ADVANCED_FACE('',(#38),#333,.T.);
#353=ADVANCED_FACE('',(#39),#28,.T.);
#354=ADVANCED_FACE('',(#40),#334,.T.);
#355=ADVANCED_FACE('',(#41),#335,.T.);
#356=ADVANCED_FACE('',(#42),#336,.F.);
#357=ADVANCED_FACE('',(#43),#337,.F.);
#358=ADVANCED_FACE('',(#44),#338,.T.);
#359=ADVANCED_FACE('',(#45),#339,.T.);
#360=ADVANCED_FACE('',(#46,#15),#340,.T.);
#361=ADVANCED_FACE('',(#47),#341,.T.);
#362=ADVANCED_FACE('',(#48,#16),#342,.F.);
#363=CLOSED_SHELL('',(#343,#344,#345,#346,#347,#348,#349,#350,#351,#352,
#353,#354,#355,#356,#357,#358,#359,#360,#361,#362));
#364=DERIVED_UNIT_ELEMENT(#366,1.);
#365=DERIVED_UNIT_ELEMENT(#609,-3.);
#366=(
MASS_UNIT()
NAMED_UNIT(*)
SI_UNIT(.KILO.,.GRAM.)
);
#367=DERIVED_UNIT((#364,#365));
#368=MEASURE_REPRESENTATION_ITEM('density measure',
POSITIVE_RATIO_MEASURE(7850.),#367);
#369=PROPERTY_DEFINITION_REPRESENTATION(#374,#371);
#370=PROPERTY_DEFINITION_REPRESENTATION(#375,#372);
#371=REPRESENTATION('material name',(#373),#606);
#372=REPRESENTATION('density',(#368),#606);
#373=DESCRIPTIVE_REPRESENTATION_ITEM('Steel','Steel');
#374=PROPERTY_DEFINITION('material property','material name',#616);
#375=PROPERTY_DEFINITION('material property','density of part',#616);
#376=AXIS2_PLACEMENT_3D('',#503,#405,#406);
#377=AXIS2_PLACEMENT_3D('',#504,#407,#408);
#378=AXIS2_PLACEMENT_3D('',#513,#413,#414);
#379=AXIS2_PLACEMENT_3D('',#519,#418,#419);
#380=AXIS2_PLACEMENT_3D('',#523,#422,#423);
#381=AXIS2_PLACEMENT_3D('',#526,#424,#425);
#382=AXIS2_PLACEMENT_3D('',#530,#427,#428);
#383=AXIS2_PLACEMENT_3D('',#532,#430,#431);
#384=AXIS2_PLACEMENT_3D('',#538,#435,#436);
#385=AXIS2_PLACEMENT_3D('',#542,#438,#439);
#386=AXIS2_PLACEMENT_3D('',#546,#441,#442);
#387=AXIS2_PLACEMENT_3D('',#549,#444,#445);
#388=AXIS2_PLACEMENT_3D('',#550,#446,#447);
#389=AXIS2_PLACEMENT_3D('',#553,#449,#450);
#390=AXIS2_PLACEMENT_3D('',#554,#451,#452);
#391=AXIS2_PLACEMENT_3D('',#558,#455,#456);
#392=AXIS2_PLACEMENT_3D('',#562,#458,#459);
#393=AXIS2_PLACEMENT_3D('',#564,#461,#462);
#394=AXIS2_PLACEMENT_3D('',#566,#464,#465);
#395=AXIS2_PLACEMENT_3D('',#569,#467,#468);
#396=AXIS2_PLACEMENT_3D('',#570,#469,#470);
#397=AXIS2_PLACEMENT_3D('',#579,#475,#476);
#398=AXIS2_PLACEMENT_3D('',#585,#480,#481);
#399=AXIS2_PLACEMENT_3D('',#589,#484,#485);
#400=AXIS2_PLACEMENT_3D('',#591,#487,#488);
#401=AXIS2_PLACEMENT_3D('',#597,#492,#493);
#402=AXIS2_PLACEMENT_3D('',#600,#496,#497);
#403=AXIS2_PLACEMENT_3D('',#601,#498,#499);
#404=AXIS2_PLACEMENT_3D('',#603,#501,#502);
#405=DIRECTION('axis',(0.,0.,1.));
#406=DIRECTION('refdir',(1.,0.,0.));
#407=DIRECTION('center_axis',(0.,0.,-1.));
#408=DIRECTION('ref_axis',(-1.,0.,0.));
#409=DIRECTION('',(1.,0.,0.));
#410=DIRECTION('',(0.,-1.,0.));
#411=DIRECTION('',(-1.,0.,0.));
#412=DIRECTION('',(0.,1.,0.));
#413=DIRECTION('center_axis',(0.,-1.,0.));
#414=DIRECTION('ref_axis',(-1.,0.,0.));
#415=DIRECTION('',(0.,0.,-1.));
#416=DIRECTION('',(1.,0.,0.));
#417=DIRECTION('',(0.,0.,1.));
#418=DIRECTION('center_axis',(1.,0.,0.));
#419=DIRECTION('ref_axis',(0.,-1.,0.));
#420=DIRECTION('',(0.,0.,1.));
#421=DIRECTION('',(0.,1.,0.));
#422=DIRECTION('center_axis',(0.,0.,1.));
#423=DIRECTION('ref_axis',(0.707106781186547,0.707106781186548,0.));
#424=DIRECTION('center_axis',(0.,0.,-1.));
#425=DIRECTION('ref_axis',(0.707106781186547,0.707106781186548,0.));
#426=DIRECTION('',(0.,0.,-1.));
#427=DIRECTION('center_axis',(0.,0.,1.));
#428=DIRECTION('ref_axis',(0.707106781186547,0.707106781186548,0.));
#429=DIRECTION('',(0.,0.,1.));
#430=DIRECTION('center_axis',(1.,0.,0.));
#431=DIRECTION('ref_axis',(0.,1.,0.));
#432=DIRECTION('',(0.,1.,0.));
#433=DIRECTION('',(0.,0.,1.));
#434=DIRECTION('',(0.,-1.,0.));
#435=DIRECTION('center_axis',(0.,0.,1.));
#436=DIRECTION('ref_axis',(1.,0.,0.));
#437=DIRECTION('',(-1.,0.,0.));
#438=DIRECTION('center_axis',(0.,0.,-1.));
#439=DIRECTION('ref_axis',(-0.707106781186548,0.707106781186548,0.));
#440=DIRECTION('',(0.,-1.,0.));
#441=DIRECTION('center_axis',(0.,0.,-1.));
#442=DIRECTION('ref_axis',(-0.707106781186548,-0.707106781186548,0.));
#443=DIRECTION('',(1.,0.,0.));
#444=DIRECTION('center_axis',(0.,0.,-1.));
#445=DIRECTION('ref_axis',(0.707106781186548,-0.707106781186547,0.));
#446=DIRECTION('center_axis',(0.,0.,1.));
#447=DIRECTION('ref_axis',(0.707106781186548,-0.707106781186547,0.));
#448=DIRECTION('',(0.,0.,-1.));
#449=DIRECTION('center_axis',(0.,0.,1.));
#450=DIRECTION('ref_axis',(0.707106781186548,-0.707106781186547,0.));
#451=DIRECTION('center_axis',(0.,-1.,0.));
#452=DIRECTION('ref_axis',(1.,0.,0.));
#453=DIRECTION('',(0.,0.,1.));
#454=DIRECTION('',(-1.,0.,0.));
#455=DIRECTION('center_axis',(0.,0.,1.));
#456=DIRECTION('ref_axis',(-0.707106781186548,0.707106781186548,0.));
#457=DIRECTION('',(0.,0.,-1.));
#458=DIRECTION('center_axis',(0.,0.,1.));
#459=DIRECTION('ref_axis',(-0.707106781186548,0.707106781186548,0.));
#460=DIRECTION('',(0.,0.,1.));
#461=DIRECTION('center_axis',(0.,1.,0.));
#462=DIRECTION('ref_axis',(-1.,0.,0.));
#463=DIRECTION('',(1.,0.,0.));
#464=DIRECTION('center_axis',(0.,0.,1.));
#465=DIRECTION('ref_axis',(-0.707106781186548,-0.707106781186548,0.));
#466=DIRECTION('',(0.,0.,-1.));
#467=DIRECTION('center_axis',(0.,0.,1.));
#468=DIRECTION('ref_axis',(-0.707106781186548,-0.707106781186548,0.));
#469=DIRECTION('center_axis',(1.,0.,0.));
#470=DIRECTION('ref_axis',(0.,-1.,0.));
#471=DIRECTION('',(-1.09381578780804E-16,-1.,0.));
#472=DIRECTION('',(0.,0.,-1.));
#473=DIRECTION('',(0.,-1.,0.));
#474=DIRECTION('',(0.,0.,-1.));
#475=DIRECTION('center_axis',(0.,-1.,0.));
#476=DIRECTION('ref_axis',(-1.,0.,0.));
#477=DIRECTION('',(-1.,-1.85037170770859E-16,0.));
#478=DIRECTION('',(0.,0.,-1.));
#479=DIRECTION('',(-1.,0.,0.));
#480=DIRECTION('center_axis',(0.,1.,0.));
#481=DIRECTION('ref_axis',(1.,0.,0.));
#482=DIRECTION('',(0.,0.,1.));
#483=DIRECTION('',(-1.,0.,0.));
#484=DIRECTION('center_axis',(-1.,0.,0.));
#485=DIRECTION('ref_axis',(0.,1.,0.));
#486=DIRECTION('',(0.,-1.,0.));
#487=DIRECTION('center_axis',(0.,1.,0.));
#488=DIRECTION('ref_axis',(1.,0.,0.));
#489=DIRECTION('',(1.,0.,0.));
#490=DIRECTION('',(1.,0.,0.));
#491=DIRECTION('',(0.,0.,-1.));
#492=DIRECTION('center_axis',(-1.,0.,0.));
#493=DIRECTION('ref_axis',(0.,1.,0.));
#494=DIRECTION('',(0.,1.,0.));
#495=DIRECTION('',(0.,1.,0.));
#496=DIRECTION('center_axis',(0.,0.,-1.));
#497=DIRECTION('ref_axis',(-1.,0.,0.));
#498=DIRECTION('center_axis',(-1.,0.,0.));
#499=DIRECTION('ref_axis',(0.,-1.,0.));
#500=DIRECTION('',(0.,1.,0.));
#501=DIRECTION('center_axis',(0.,0.,1.));
#502=DIRECTION('ref_axis',(1.,0.,0.));
#503=CARTESIAN_POINT('',(0.,0.,0.));
#504=CARTESIAN_POINT('Origin',(1.11022302462516E-15,0.,0.));
#505=CARTESIAN_POINT('',(-5.5,-9.65,0.));
#506=CARTESIAN_POINT('',(5.5,-9.65,0.));
#507=CARTESIAN_POINT('',(3.,-9.65,0.));
#508=CARTESIAN_POINT('',(-5.5,9.65,0.));
#509=CARTESIAN_POINT('',(-5.5,-5.075,0.));
#510=CARTESIAN_POINT('',(5.5,9.65,0.));
#511=CARTESIAN_POINT('',(-3.,9.65,0.));
#512=CARTESIAN_POINT('',(5.5,5.075,0.));
#513=CARTESIAN_POINT('Origin',(6.,-9.65,1.));
#514=CARTESIAN_POINT('',(5.5,-9.65,-3.));
#515=CARTESIAN_POINT('',(5.5,-9.65,1.));
#516=CARTESIAN_POINT('',(-5.5,-9.65,-3.));
#517=CARTESIAN_POINT('',(3.,-9.65,-3.));
#518=CARTESIAN_POINT('',(-5.5,-9.65,1.));
#519=CARTESIAN_POINT('Origin',(5.5,10.15,1.));
#520=CARTESIAN_POINT('',(5.5,9.65,-3.));
#521=CARTESIAN_POINT('',(5.5,9.65,1.));
#522=CARTESIAN_POINT('',(5.5,5.075,-3.));
#523=CARTESIAN_POINT('Origin',(7.,11.15,0.));
#524=CARTESIAN_POINT('',(7.00000000000001,13.15,1.));
#525=CARTESIAN_POINT('',(9.,11.15,1.));
#526=CARTESIAN_POINT('Origin',(7.,11.15,1.));
#527=CARTESIAN_POINT('',(9.,11.15,0.));
#528=CARTESIAN_POINT('',(9.,11.15,0.));
#529=CARTESIAN_POINT('',(7.00000000000001,13.15,0.));
#530=CARTESIAN_POINT('Origin',(7.,11.15,0.));
#531=CARTESIAN_POINT('',(7.,13.15,0.));
#532=CARTESIAN_POINT('Origin',(9.,-13.15,0.));
#533=CARTESIAN_POINT('',(9.,-11.15,1.));
#534=CARTESIAN_POINT('',(9.,13.15,1.));
#535=CARTESIAN_POINT('',(9.,-11.15,0.));
#536=CARTESIAN_POINT('',(9.,-11.15,0.));
#537=CARTESIAN_POINT('',(9.,13.15,0.));
#538=CARTESIAN_POINT('Origin',(1.11022302462516E-15,0.,1.));
#539=CARTESIAN_POINT('',(-7.,13.15,1.));
#540=CARTESIAN_POINT('',(-9.,13.15,1.));
#541=CARTESIAN_POINT('',(-9.,11.15,1.));
#542=CARTESIAN_POINT('Origin',(-7.,11.15,1.));
#543=CARTESIAN_POINT('',(-9.,-11.15,1.));
#544=CARTESIAN_POINT('',(-9.,-13.15,1.));
#545=CARTESIAN_POINT('',(-7.,-13.15,1.));
#546=CARTESIAN_POINT('Origin',(-7.,-11.15,1.));
#547=CARTESIAN_POINT('',(7.,-13.15,1.));
#548=CARTESIAN_POINT('',(9.,-13.15,1.));
#549=CARTESIAN_POINT('Origin',(7.,-11.15,1.));
#550=CARTESIAN_POINT('Origin',(7.,-11.15,0.));
#551=CARTESIAN_POINT('',(7.,-13.15,0.));
#552=CARTESIAN_POINT('',(7.,-13.15,0.));
#553=CARTESIAN_POINT('Origin',(7.,-11.15,0.));
#554=CARTESIAN_POINT('Origin',(-9.,-13.15,0.));
#555=CARTESIAN_POINT('',(-7.,-13.15,0.));
#556=CARTESIAN_POINT('',(-7.,-13.15,0.));
#557=CARTESIAN_POINT('',(9.,-13.15,0.));
#558=CARTESIAN_POINT('Origin',(-7.,11.15,0.));
#559=CARTESIAN_POINT('',(-7.,13.15,0.));
#560=CARTESIAN_POINT('',(-7.,13.15,0.));
#561=CARTESIAN_POINT('',(-9.,11.15,0.));
#562=CARTESIAN_POINT('Origin',(-7.,11.15,0.));
#563=CARTESIAN_POINT('',(-9.,11.15,0.));
#564=CARTESIAN_POINT('Origin',(9.,13.15,0.));
#565=CARTESIAN_POINT('',(-9.,13.15,0.));
#566=CARTESIAN_POINT('Origin',(-7.,-11.15,0.));
#567=CARTESIAN_POINT('',(-9.,-11.15,0.));
#568=CARTESIAN_POINT('',(-9.,-11.15,0.));
#569=CARTESIAN_POINT('Origin',(-7.,-11.15,0.));
#570=CARTESIAN_POINT('Origin',(6.,10.15,1.));
#571=CARTESIAN_POINT('',(6.,10.15,0.));
#572=CARTESIAN_POINT('',(6.,-10.15,0.));
#573=CARTESIAN_POINT('',(6.,10.15,0.));
#574=CARTESIAN_POINT('',(6.,-10.15,-3.));
#575=CARTESIAN_POINT('',(6.,-10.15,1.));
#576=CARTESIAN_POINT('',(6.,10.15,-3.));
#577=CARTESIAN_POINT('',(6.,10.15,-3.));
#578=CARTESIAN_POINT('',(6.,10.15,1.));
#579=CARTESIAN_POINT('Origin',(6.,-10.15,1.));
#580=CARTESIAN_POINT('',(-6.,-10.15,0.));
#581=CARTESIAN_POINT('',(6.,-10.15,0.));
#582=CARTESIAN_POINT('',(-6.,-10.15,-3.));
#583=CARTESIAN_POINT('',(-6.,-10.15,1.));
#584=CARTESIAN_POINT('',(6.,-10.15,-3.));
#585=CARTESIAN_POINT('Origin',(-6.,9.65,1.));
#586=CARTESIAN_POINT('',(-5.5,9.65,-3.));
#587=CARTESIAN_POINT('',(-5.5,9.65,1.));
#588=CARTESIAN_POINT('',(-3.,9.65,-3.));
#589=CARTESIAN_POINT('Origin',(-5.5,-10.15,1.));
#590=CARTESIAN_POINT('',(-5.5,-5.075,-3.));
#591=CARTESIAN_POINT('Origin',(-6.,10.15,1.));
#592=CARTESIAN_POINT('',(-6.,10.15,0.));
#593=CARTESIAN_POINT('',(-6.,10.15,0.));
#594=CARTESIAN_POINT('',(-6.,10.15,-3.));
#595=CARTESIAN_POINT('',(-6.,10.15,-3.));
#596=CARTESIAN_POINT('',(-6.,10.15,1.));
#597=CARTESIAN_POINT('Origin',(-6.,-10.15,1.));
#598=CARTESIAN_POINT('',(-6.,-10.15,0.));
#599=CARTESIAN_POINT('',(-6.,-10.15,-3.));
#600=CARTESIAN_POINT('Origin',(1.11022302462516E-15,0.,-3.));
#601=CARTESIAN_POINT('Origin',(-9.,13.15,0.));
#602=CARTESIAN_POINT('',(-9.,-13.15,0.));
#603=CARTESIAN_POINT('Origin',(1.11022302462516E-15,0.,0.));
#604=UNCERTAINTY_MEASURE_WITH_UNIT(LENGTH_MEASURE(0.01),#608,
'DISTANCE_ACCURACY_VALUE',
'Maximum model space distance between geometric entities at asserted c
onnectivities');
#605=UNCERTAINTY_MEASURE_WITH_UNIT(LENGTH_MEASURE(0.01),#608,
'DISTANCE_ACCURACY_VALUE',
'Maximum model space distance between geometric entities at asserted c
onnectivities');
#606=(
GEOMETRIC_REPRESENTATION_CONTEXT(3)
GLOBAL_UNCERTAINTY_ASSIGNED_CONTEXT((#604))
GLOBAL_UNIT_ASSIGNED_CONTEXT((#608,#610,#611))
REPRESENTATION_CONTEXT('','3D')
);
#607=(
GEOMETRIC_REPRESENTATION_CONTEXT(3)
GLOBAL_UNCERTAINTY_ASSIGNED_CONTEXT((#605))
GLOBAL_UNIT_ASSIGNED_CONTEXT((#608,#610,#611))
REPRESENTATION_CONTEXT('','3D')
);
#608=(
LENGTH_UNIT()
NAMED_UNIT(*)
SI_UNIT(.MILLI.,.METRE.)
);
#609=(
LENGTH_UNIT()
NAMED_UNIT(*)
SI_UNIT($,.METRE.)
);
#610=(
NAMED_UNIT(*)
PLANE_ANGLE_UNIT()
SI_UNIT($,.RADIAN.)
);
#611=(
NAMED_UNIT(*)
SI_UNIT($,.STERADIAN.)
SOLID_ANGLE_UNIT()
);
#612=SHAPE_DEFINITION_REPRESENTATION(#613,#614);
#613=PRODUCT_DEFINITION_SHAPE('',$,#616);
#614=SHAPE_REPRESENTATION('',(#376),#606);
#615=PRODUCT_DEFINITION_CONTEXT('part definition',#620,'design');
#616=PRODUCT_DEFINITION('2026-08-25-21-36-17-062','profile_switch',#617,
#615);
#617=PRODUCT_DEFINITION_FORMATION('',$,#622);
#618=PRODUCT_RELATED_PRODUCT_CATEGORY('profile_switch','profile_switch',
(#622));
#619=APPLICATION_PROTOCOL_DEFINITION('international standard',
'automotive_design',2009,#620);
#620=APPLICATION_CONTEXT(
'Core Data for Automotive Mechanical Design Process');
#621=PRODUCT_CONTEXT('part definition',#620,'mechanical');
#622=PRODUCT('2026-08-25-21-36-17-062','profile_switch',$,(#621));
#623=PRESENTATION_STYLE_ASSIGNMENT((#624));
#624=SURFACE_STYLE_USAGE(.BOTH.,#625);
#625=SURFACE_SIDE_STYLE('',(#626));
#626=SURFACE_STYLE_FILL_AREA(#627);
#627=FILL_AREA_STYLE('Steel - Satin',(#628));
#628=FILL_AREA_STYLE_COLOUR('Steel - Satin',#629);
#629=COLOUR_RGB('Steel - Satin',0.627450980392157,0.627450980392157,0.627450980392157);
ENDSEC;
END-ISO-10303-21;
