ISO-10303-21;
HEADER;
/* Generated by software containing ST-Developer
 * from STEP Tools, Inc. (www.steptools.com) 
 */

FILE_DESCRIPTION(
/* description */ (''),
/* implementation_level */ '2;1');

FILE_NAME(
/* name */ 'LED_Ring_Cover_v008.step',
/* time_stamp */ '2026-09-26T10:07:54+04:00',
/* author */ (''),
/* organization */ (''),
/* preprocessor_version */ 'ST-DEVELOPER v20.2',
/* originating_system */ 'Autodesk Translation Framework v15.15.0.0',
/* authorisation */ '');

FILE_SCHEMA (('AUTOMOTIVE_DESIGN { 1 0 10303 214 3 1 1 }'));
ENDSEC;

DATA;
#10=MECHANICAL_DESIGN_GEOMETRIC_PRESENTATION_REPRESENTATION('',(#29,#30,
#31),#826);
#11=ITEM_DEFINED_TRANSFORMATION($,$,#474,#530);
#12=ITEM_DEFINED_TRANSFORMATION($,$,#515,#531);
#13=ITEM_DEFINED_TRANSFORMATION($,$,#521,#532);
#14=(
REPRESENTATION_RELATIONSHIP($,$,#843,#842)
REPRESENTATION_RELATIONSHIP_WITH_TRANSFORMATION(#11)
SHAPE_REPRESENTATION_RELATIONSHIP()
);
#15=(
REPRESENTATION_RELATIONSHIP($,$,#844,#842)
REPRESENTATION_RELATIONSHIP_WITH_TRANSFORMATION(#12)
SHAPE_REPRESENTATION_RELATIONSHIP()
);
#16=(
REPRESENTATION_RELATIONSHIP($,$,#845,#842)
REPRESENTATION_RELATIONSHIP_WITH_TRANSFORMATION(#13)
SHAPE_REPRESENTATION_RELATIONSHIP()
);
#17=CONTEXT_DEPENDENT_SHAPE_REPRESENTATION(#14,#839);
#18=CONTEXT_DEPENDENT_SHAPE_REPRESENTATION(#15,#840);
#19=CONTEXT_DEPENDENT_SHAPE_REPRESENTATION(#16,#841);
#20=NEXT_ASSEMBLY_USAGE_OCCURRENCE('Exerior:1','Exerior:1','Exerior:1',
#847,#848,'Exerior:1');
#21=NEXT_ASSEMBLY_USAGE_OCCURRENCE('Interior:1','Interior:1',
'Interior:1',#847,#849,'Interior:1');
#22=NEXT_ASSEMBLY_USAGE_OCCURRENCE('White:1','White:1','White:1',#847,#850,
'White:1');
#23=SHAPE_REPRESENTATION_RELATIONSHIP('SRR','None',#843,#26);
#24=SHAPE_REPRESENTATION_RELATIONSHIP('SRR','None',#844,#27);
#25=SHAPE_REPRESENTATION_RELATIONSHIP('SRR','None',#845,#28);
#26=ADVANCED_BREP_SHAPE_REPRESENTATION('',(#32),#823);
#27=ADVANCED_BREP_SHAPE_REPRESENTATION('',(#33),#824);
#28=ADVANCED_BREP_SHAPE_REPRESENTATION('',(#34),#825);
#29=STYLED_ITEM('',(#867),#32);
#30=STYLED_ITEM('',(#867),#33);
#31=STYLED_ITEM('',(#868),#34);
#32=MANIFOLD_SOLID_BREP('Body1',#436);
#33=MANIFOLD_SOLID_BREP('Body1',#437);
#34=MANIFOLD_SOLID_BREP('Body1',#438);
#35=FACE_BOUND('',#85,.T.);
#36=FACE_BOUND('',#86,.T.);
#37=FACE_BOUND('',#87,.T.);
#38=FACE_BOUND('',#88,.T.);
#39=FACE_BOUND('',#107,.T.);
#40=FACE_BOUND('',#114,.T.);
#41=FACE_BOUND('',#116,.T.);
#42=PLANE('',#477);
#43=PLANE('',#488);
#44=PLANE('',#491);
#45=PLANE('',#494);
#46=PLANE('',#497);
#47=PLANE('',#500);
#48=PLANE('',#503);
#49=PLANE('',#506);
#50=PLANE('',#511);
#51=PLANE('',#514);
#52=PLANE('',#519);
#53=PLANE('',#520);
#54=PLANE('',#528);
#55=PLANE('',#529);
#56=FACE_OUTER_BOUND('',#83,.T.);
#57=FACE_OUTER_BOUND('',#84,.T.);
#58=FACE_OUTER_BOUND('',#89,.T.);
#59=FACE_OUTER_BOUND('',#90,.T.);
#60=FACE_OUTER_BOUND('',#91,.T.);
#61=FACE_OUTER_BOUND('',#92,.T.);
#62=FACE_OUTER_BOUND('',#93,.T.);
#63=FACE_OUTER_BOUND('',#94,.T.);
#64=FACE_OUTER_BOUND('',#95,.T.);
#65=FACE_OUTER_BOUND('',#96,.T.);
#66=FACE_OUTER_BOUND('',#97,.T.);
#67=FACE_OUTER_BOUND('',#98,.T.);
#68=FACE_OUTER_BOUND('',#99,.T.);
#69=FACE_OUTER_BOUND('',#100,.T.);
#70=FACE_OUTER_BOUND('',#101,.T.);
#71=FACE_OUTER_BOUND('',#102,.T.);
#72=FACE_OUTER_BOUND('',#103,.T.);
#73=FACE_OUTER_BOUND('',#104,.T.);
#74=FACE_OUTER_BOUND('',#105,.T.);
#75=FACE_OUTER_BOUND('',#106,.T.);
#76=FACE_OUTER_BOUND('',#108,.T.);
#77=FACE_OUTER_BOUND('',#109,.T.);
#78=FACE_OUTER_BOUND('',#110,.T.);
#79=FACE_OUTER_BOUND('',#111,.T.);
#80=FACE_OUTER_BOUND('',#112,.T.);
#81=FACE_OUTER_BOUND('',#113,.T.);
#82=FACE_OUTER_BOUND('',#115,.T.);
#83=EDGE_LOOP('',(#288,#289,#290,#291));
#84=EDGE_LOOP('',(#292,#293,#294,#295,#296,#297,#298,#299,#300,#301,#302,
#303,#304));
#85=EDGE_LOOP('',(#305));
#86=EDGE_LOOP('',(#306));
#87=EDGE_LOOP('',(#307));
#88=EDGE_LOOP('',(#308));
#89=EDGE_LOOP('',(#309,#310,#311,#312,#313,#314));
#90=EDGE_LOOP('',(#315,#316,#317,#318));
#91=EDGE_LOOP('',(#319));
#92=EDGE_LOOP('',(#320,#321,#322,#323));
#93=EDGE_LOOP('',(#324));
#94=EDGE_LOOP('',(#325,#326,#327,#328));
#95=EDGE_LOOP('',(#329));
#96=EDGE_LOOP('',(#330,#331,#332,#333));
#97=EDGE_LOOP('',(#334));
#98=EDGE_LOOP('',(#335,#336,#337,#338,#339,#340));
#99=EDGE_LOOP('',(#341,#342,#343,#344));
#100=EDGE_LOOP('',(#345,#346,#347,#348));
#101=EDGE_LOOP('',(#349,#350,#351,#352));
#102=EDGE_LOOP('',(#353,#354,#355,#356));
#103=EDGE_LOOP('',(#357,#358,#359,#360));
#104=EDGE_LOOP('',(#361,#362,#363,#364));
#105=EDGE_LOOP('',(#365,#366,#367,#368));
#106=EDGE_LOOP('',(#369,#370,#371,#372,#373,#374,#375,#376));
#107=EDGE_LOOP('',(#377));
#108=EDGE_LOOP('',(#378,#379,#380,#381));
#109=EDGE_LOOP('',(#382));
#110=EDGE_LOOP('',(#383));
#111=EDGE_LOOP('',(#384,#385,#386,#387));
#112=EDGE_LOOP('',(#388,#389,#390,#391));
#113=EDGE_LOOP('',(#392));
#114=EDGE_LOOP('',(#393));
#115=EDGE_LOOP('',(#394));
#116=EDGE_LOOP('',(#395));
#117=CIRCLE('',#476,63.3999999999995);
#118=CIRCLE('',#478,2.00000000000001);
#119=CIRCLE('',#479,2.00000000000001);
#120=CIRCLE('',#480,2.00000000000001);
#121=CIRCLE('',#481,2.00000000000001);
#122=CIRCLE('',#482,27.15);
#123=CIRCLE('',#483,27.15);
#124=CIRCLE('',#484,0.800000000000001);
#125=CIRCLE('',#485,0.800000000000001);
#126=CIRCLE('',#486,0.800000000000001);
#127=CIRCLE('',#487,0.800000000000001);
#128=CIRCLE('',#490,0.800000000000001);
#129=CIRCLE('',#493,0.800000000000001);
#130=CIRCLE('',#496,0.800000000000001);
#131=CIRCLE('',#499,0.800000000000001);
#132=CIRCLE('',#502,27.15);
#133=CIRCLE('',#505,2.00000000000001);
#134=CIRCLE('',#508,2.00000000000001);
#135=CIRCLE('',#510,2.00000000000001);
#136=CIRCLE('',#513,2.00000000000001);
#137=CIRCLE('',#517,22.6);
#138=CIRCLE('',#518,22.6);
#139=CIRCLE('',#523,22.6);
#140=CIRCLE('',#524,22.6);
#141=CIRCLE('',#526,27.15);
#142=CIRCLE('',#527,27.15);
#143=LINE('',#700,#170);
#144=LINE('',#703,#171);
#145=LINE('',#706,#172);
#146=LINE('',#710,#173);
#147=LINE('',#714,#174);
#148=LINE('',#718,#175);
#149=LINE('',#721,#176);
#150=LINE('',#735,#177);
#151=LINE('',#737,#178);
#152=LINE('',#738,#179);
#153=LINE('',#742,#180);
#154=LINE('',#747,#181);
#155=LINE('',#752,#182);
#156=LINE('',#757,#183);
#157=LINE('',#762,#184);
#158=LINE('',#765,#185);
#159=LINE('',#767,#186);
#160=LINE('',#768,#187);
#161=LINE('',#772,#188);
#162=LINE('',#775,#189);
#163=LINE('',#776,#190);
#164=LINE('',#782,#191);
#165=LINE('',#785,#192);
#166=LINE('',#786,#193);
#167=LINE('',#795,#194);
#168=LINE('',#804,#195);
#169=LINE('',#810,#196);
#170=VECTOR('',#539,10.);
#171=VECTOR('',#542,10.);
#172=VECTOR('',#545,10.);
#173=VECTOR('',#548,10.);
#174=VECTOR('',#551,10.);
#175=VECTOR('',#554,10.);
#176=VECTOR('',#557,10.);
#177=VECTOR('',#572,10.);
#178=VECTOR('',#573,10.);
#179=VECTOR('',#574,10.);
#180=VECTOR('',#579,0.800000000000001);
#181=VECTOR('',#586,0.800000000000001);
#182=VECTOR('',#593,0.800000000000001);
#183=VECTOR('',#600,0.800000000000001);
#184=VECTOR('',#607,27.15);
#185=VECTOR('',#610,10.);
#186=VECTOR('',#611,10.);
#187=VECTOR('',#612,10.);
#188=VECTOR('',#617,10.);
#189=VECTOR('',#620,10.);
#190=VECTOR('',#621,10.);
#191=VECTOR('',#630,10.);
#192=VECTOR('',#633,10.);
#193=VECTOR('',#634,10.);
#194=VECTOR('',#647,22.6);
#195=VECTOR('',#660,22.6);
#196=VECTOR('',#667,27.15);
#197=B_SPLINE_CURVE_WITH_KNOTS('',3,(#685,#686,#687,#688,#689,#690,#691,
#692,#693,#694,#695,#696,#697,#698),.UNSPECIFIED.,.F.,.F.,(4,2,2,2,2,2,
4),(2.61654214860996,3.1130705008124,3.63144409763571,4.14981769445903,
4.66819129098389,5.18656488750875,5.68309326381268),.UNSPECIFIED.);
#198=VERTEX_POINT('',#683);
#199=VERTEX_POINT('',#684);
#200=VERTEX_POINT('',#699);
#201=VERTEX_POINT('',#701);
#202=VERTEX_POINT('',#705);
#203=VERTEX_POINT('',#707);
#204=VERTEX_POINT('',#709);
#205=VERTEX_POINT('',#711);
#206=VERTEX_POINT('',#713);
#207=VERTEX_POINT('',#715);
#208=VERTEX_POINT('',#717);
#209=VERTEX_POINT('',#719);
#210=VERTEX_POINT('',#722);
#211=VERTEX_POINT('',#725);
#212=VERTEX_POINT('',#727);
#213=VERTEX_POINT('',#729);
#214=VERTEX_POINT('',#731);
#215=VERTEX_POINT('',#734);
#216=VERTEX_POINT('',#736);
#217=VERTEX_POINT('',#740);
#218=VERTEX_POINT('',#745);
#219=VERTEX_POINT('',#750);
#220=VERTEX_POINT('',#755);
#221=VERTEX_POINT('',#760);
#222=VERTEX_POINT('',#764);
#223=VERTEX_POINT('',#766);
#224=VERTEX_POINT('',#770);
#225=VERTEX_POINT('',#774);
#226=VERTEX_POINT('',#780);
#227=VERTEX_POINT('',#784);
#228=VERTEX_POINT('',#792);
#229=VERTEX_POINT('',#794);
#230=VERTEX_POINT('',#801);
#231=VERTEX_POINT('',#803);
#232=VERTEX_POINT('',#807);
#233=VERTEX_POINT('',#809);
#234=EDGE_CURVE('',#198,#199,#197,.T.);
#235=EDGE_CURVE('',#200,#198,#143,.T.);
#236=EDGE_CURVE('',#201,#200,#117,.T.);
#237=EDGE_CURVE('',#199,#201,#144,.T.);
#238=EDGE_CURVE('',#202,#201,#145,.T.);
#239=EDGE_CURVE('',#203,#202,#118,.T.);
#240=EDGE_CURVE('',#204,#203,#146,.T.);
#241=EDGE_CURVE('',#205,#204,#119,.T.);
#242=EDGE_CURVE('',#205,#206,#147,.T.);
#243=EDGE_CURVE('',#207,#206,#120,.T.);
#244=EDGE_CURVE('',#208,#207,#148,.T.);
#245=EDGE_CURVE('',#209,#208,#121,.T.);
#246=EDGE_CURVE('',#200,#209,#149,.T.);
#247=EDGE_CURVE('',#210,#198,#122,.T.);
#248=EDGE_CURVE('',#199,#210,#123,.T.);
#249=EDGE_CURVE('',#211,#211,#124,.T.);
#250=EDGE_CURVE('',#212,#212,#125,.T.);
#251=EDGE_CURVE('',#213,#213,#126,.T.);
#252=EDGE_CURVE('',#214,#214,#127,.T.);
#253=EDGE_CURVE('',#209,#215,#150,.T.);
#254=EDGE_CURVE('',#216,#215,#151,.T.);
#255=EDGE_CURVE('',#202,#216,#152,.T.);
#256=EDGE_CURVE('',#217,#217,#128,.T.);
#257=EDGE_CURVE('',#217,#214,#153,.T.);
#258=EDGE_CURVE('',#218,#218,#129,.T.);
#259=EDGE_CURVE('',#218,#213,#154,.T.);
#260=EDGE_CURVE('',#219,#219,#130,.T.);
#261=EDGE_CURVE('',#219,#212,#155,.T.);
#262=EDGE_CURVE('',#220,#220,#131,.T.);
#263=EDGE_CURVE('',#220,#211,#156,.T.);
#264=EDGE_CURVE('',#221,#221,#132,.T.);
#265=EDGE_CURVE('',#221,#210,#157,.T.);
#266=EDGE_CURVE('',#205,#222,#158,.T.);
#267=EDGE_CURVE('',#223,#222,#159,.T.);
#268=EDGE_CURVE('',#206,#223,#160,.T.);
#269=EDGE_CURVE('',#224,#223,#133,.T.);
#270=EDGE_CURVE('',#207,#224,#161,.T.);
#271=EDGE_CURVE('',#225,#224,#162,.T.);
#272=EDGE_CURVE('',#208,#225,#163,.T.);
#273=EDGE_CURVE('',#215,#225,#134,.T.);
#274=EDGE_CURVE('',#226,#216,#135,.T.);
#275=EDGE_CURVE('',#203,#226,#164,.T.);
#276=EDGE_CURVE('',#227,#226,#165,.T.);
#277=EDGE_CURVE('',#204,#227,#166,.T.);
#278=EDGE_CURVE('',#222,#227,#136,.T.);
#279=EDGE_CURVE('',#228,#228,#137,.T.);
#280=EDGE_CURVE('',#228,#229,#167,.T.);
#281=EDGE_CURVE('',#229,#229,#138,.T.);
#282=EDGE_CURVE('',#230,#230,#139,.T.);
#283=EDGE_CURVE('',#230,#231,#168,.T.);
#284=EDGE_CURVE('',#231,#231,#140,.T.);
#285=EDGE_CURVE('',#232,#232,#141,.T.);
#286=EDGE_CURVE('',#232,#233,#169,.T.);
#287=EDGE_CURVE('',#233,#233,#142,.T.);
#288=ORIENTED_EDGE('',*,*,#234,.F.);
#289=ORIENTED_EDGE('',*,*,#235,.F.);
#290=ORIENTED_EDGE('',*,*,#236,.F.);
#291=ORIENTED_EDGE('',*,*,#237,.F.);
#292=ORIENTED_EDGE('',*,*,#237,.T.);
#293=ORIENTED_EDGE('',*,*,#238,.F.);
#294=ORIENTED_EDGE('',*,*,#239,.F.);
#295=ORIENTED_EDGE('',*,*,#240,.F.);
#296=ORIENTED_EDGE('',*,*,#241,.F.);
#297=ORIENTED_EDGE('',*,*,#242,.T.);
#298=ORIENTED_EDGE('',*,*,#243,.F.);
#299=ORIENTED_EDGE('',*,*,#244,.F.);
#300=ORIENTED_EDGE('',*,*,#245,.F.);
#301=ORIENTED_EDGE('',*,*,#246,.F.);
#302=ORIENTED_EDGE('',*,*,#235,.T.);
#303=ORIENTED_EDGE('',*,*,#247,.F.);
#304=ORIENTED_EDGE('',*,*,#248,.F.);
#305=ORIENTED_EDGE('',*,*,#249,.T.);
#306=ORIENTED_EDGE('',*,*,#250,.T.);
#307=ORIENTED_EDGE('',*,*,#251,.T.);
#308=ORIENTED_EDGE('',*,*,#252,.T.);
#309=ORIENTED_EDGE('',*,*,#236,.T.);
#310=ORIENTED_EDGE('',*,*,#246,.T.);
#311=ORIENTED_EDGE('',*,*,#253,.T.);
#312=ORIENTED_EDGE('',*,*,#254,.F.);
#313=ORIENTED_EDGE('',*,*,#255,.F.);
#314=ORIENTED_EDGE('',*,*,#238,.T.);
#315=ORIENTED_EDGE('',*,*,#256,.F.);
#316=ORIENTED_EDGE('',*,*,#257,.T.);
#317=ORIENTED_EDGE('',*,*,#252,.F.);
#318=ORIENTED_EDGE('',*,*,#257,.F.);
#319=ORIENTED_EDGE('',*,*,#256,.T.);
#320=ORIENTED_EDGE('',*,*,#258,.F.);
#321=ORIENTED_EDGE('',*,*,#259,.T.);
#322=ORIENTED_EDGE('',*,*,#251,.F.);
#323=ORIENTED_EDGE('',*,*,#259,.F.);
#324=ORIENTED_EDGE('',*,*,#258,.T.);
#325=ORIENTED_EDGE('',*,*,#260,.F.);
#326=ORIENTED_EDGE('',*,*,#261,.T.);
#327=ORIENTED_EDGE('',*,*,#250,.F.);
#328=ORIENTED_EDGE('',*,*,#261,.F.);
#329=ORIENTED_EDGE('',*,*,#260,.T.);
#330=ORIENTED_EDGE('',*,*,#262,.F.);
#331=ORIENTED_EDGE('',*,*,#263,.T.);
#332=ORIENTED_EDGE('',*,*,#249,.F.);
#333=ORIENTED_EDGE('',*,*,#263,.F.);
#334=ORIENTED_EDGE('',*,*,#262,.T.);
#335=ORIENTED_EDGE('',*,*,#264,.F.);
#336=ORIENTED_EDGE('',*,*,#265,.T.);
#337=ORIENTED_EDGE('',*,*,#247,.T.);
#338=ORIENTED_EDGE('',*,*,#234,.T.);
#339=ORIENTED_EDGE('',*,*,#248,.T.);
#340=ORIENTED_EDGE('',*,*,#265,.F.);
#341=ORIENTED_EDGE('',*,*,#242,.F.);
#342=ORIENTED_EDGE('',*,*,#266,.T.);
#343=ORIENTED_EDGE('',*,*,#267,.F.);
#344=ORIENTED_EDGE('',*,*,#268,.F.);
#345=ORIENTED_EDGE('',*,*,#243,.T.);
#346=ORIENTED_EDGE('',*,*,#268,.T.);
#347=ORIENTED_EDGE('',*,*,#269,.F.);
#348=ORIENTED_EDGE('',*,*,#270,.F.);
#349=ORIENTED_EDGE('',*,*,#244,.T.);
#350=ORIENTED_EDGE('',*,*,#270,.T.);
#351=ORIENTED_EDGE('',*,*,#271,.F.);
#352=ORIENTED_EDGE('',*,*,#272,.F.);
#353=ORIENTED_EDGE('',*,*,#245,.T.);
#354=ORIENTED_EDGE('',*,*,#272,.T.);
#355=ORIENTED_EDGE('',*,*,#273,.F.);
#356=ORIENTED_EDGE('',*,*,#253,.F.);
#357=ORIENTED_EDGE('',*,*,#239,.T.);
#358=ORIENTED_EDGE('',*,*,#255,.T.);
#359=ORIENTED_EDGE('',*,*,#274,.F.);
#360=ORIENTED_EDGE('',*,*,#275,.F.);
#361=ORIENTED_EDGE('',*,*,#240,.T.);
#362=ORIENTED_EDGE('',*,*,#275,.T.);
#363=ORIENTED_EDGE('',*,*,#276,.F.);
#364=ORIENTED_EDGE('',*,*,#277,.F.);
#365=ORIENTED_EDGE('',*,*,#241,.T.);
#366=ORIENTED_EDGE('',*,*,#277,.T.);
#367=ORIENTED_EDGE('',*,*,#278,.F.);
#368=ORIENTED_EDGE('',*,*,#266,.F.);
#369=ORIENTED_EDGE('',*,*,#278,.T.);
#370=ORIENTED_EDGE('',*,*,#276,.T.);
#371=ORIENTED_EDGE('',*,*,#274,.T.);
#372=ORIENTED_EDGE('',*,*,#254,.T.);
#373=ORIENTED_EDGE('',*,*,#273,.T.);
#374=ORIENTED_EDGE('',*,*,#271,.T.);
#375=ORIENTED_EDGE('',*,*,#269,.T.);
#376=ORIENTED_EDGE('',*,*,#267,.T.);
#377=ORIENTED_EDGE('',*,*,#264,.T.);
#378=ORIENTED_EDGE('',*,*,#279,.T.);
#379=ORIENTED_EDGE('',*,*,#280,.T.);
#380=ORIENTED_EDGE('',*,*,#281,.T.);
#381=ORIENTED_EDGE('',*,*,#280,.F.);
#382=ORIENTED_EDGE('',*,*,#279,.F.);
#383=ORIENTED_EDGE('',*,*,#281,.F.);
#384=ORIENTED_EDGE('',*,*,#282,.T.);
#385=ORIENTED_EDGE('',*,*,#283,.T.);
#386=ORIENTED_EDGE('',*,*,#284,.T.);
#387=ORIENTED_EDGE('',*,*,#283,.F.);
#388=ORIENTED_EDGE('',*,*,#285,.T.);
#389=ORIENTED_EDGE('',*,*,#286,.T.);
#390=ORIENTED_EDGE('',*,*,#287,.T.);
#391=ORIENTED_EDGE('',*,*,#286,.F.);
#392=ORIENTED_EDGE('',*,*,#287,.F.);
#393=ORIENTED_EDGE('',*,*,#284,.F.);
#394=ORIENTED_EDGE('',*,*,#285,.F.);
#395=ORIENTED_EDGE('',*,*,#282,.F.);
#396=CYLINDRICAL_SURFACE('',#475,63.3999999999995);
#397=CYLINDRICAL_SURFACE('',#489,0.800000000000001);
#398=CYLINDRICAL_SURFACE('',#492,0.800000000000001);
#399=CYLINDRICAL_SURFACE('',#495,0.800000000000001);
#400=CYLINDRICAL_SURFACE('',#498,0.800000000000001);
#401=CYLINDRICAL_SURFACE('',#501,27.15);
#402=CYLINDRICAL_SURFACE('',#504,2.00000000000001);
#403=CYLINDRICAL_SURFACE('',#507,2.00000000000001);
#404=CYLINDRICAL_SURFACE('',#509,2.00000000000001);
#405=CYLINDRICAL_SURFACE('',#512,2.00000000000001);
#406=CYLINDRICAL_SURFACE('',#516,22.6);
#407=CYLINDRICAL_SURFACE('',#522,22.6);
#408=CYLINDRICAL_SURFACE('',#525,27.15);
#409=ADVANCED_FACE('',(#56),#396,.F.);
#410=ADVANCED_FACE('',(#57,#35,#36,#37,#38),#42,.F.);
#411=ADVANCED_FACE('',(#58),#43,.T.);
#412=ADVANCED_FACE('',(#59),#397,.T.);
#413=ADVANCED_FACE('',(#60),#44,.F.);
#414=ADVANCED_FACE('',(#61),#398,.T.);
#415=ADVANCED_FACE('',(#62),#45,.F.);
#416=ADVANCED_FACE('',(#63),#399,.T.);
#417=ADVANCED_FACE('',(#64),#46,.F.);
#418=ADVANCED_FACE('',(#65),#400,.T.);
#419=ADVANCED_FACE('',(#66),#47,.F.);
#420=ADVANCED_FACE('',(#67),#401,.F.);
#421=ADVANCED_FACE('',(#68),#48,.T.);
#422=ADVANCED_FACE('',(#69),#402,.T.);
#423=ADVANCED_FACE('',(#70),#49,.T.);
#424=ADVANCED_FACE('',(#71),#403,.T.);
#425=ADVANCED_FACE('',(#72),#404,.T.);
#426=ADVANCED_FACE('',(#73),#50,.T.);
#427=ADVANCED_FACE('',(#74),#405,.T.);
#428=ADVANCED_FACE('',(#75,#39),#51,.T.);
#429=ADVANCED_FACE('',(#76),#406,.T.);
#430=ADVANCED_FACE('',(#77),#52,.T.);
#431=ADVANCED_FACE('',(#78),#53,.F.);
#432=ADVANCED_FACE('',(#79),#407,.F.);
#433=ADVANCED_FACE('',(#80),#408,.T.);
#434=ADVANCED_FACE('',(#81,#40),#54,.F.);
#435=ADVANCED_FACE('',(#82,#41),#55,.T.);
#436=CLOSED_SHELL('',(#409,#410,#411,#412,#413,#414,#415,#416,#417,#418,
#419,#420,#421,#422,#423,#424,#425,#426,#427,#428));
#437=CLOSED_SHELL('',(#429,#430,#431));
#438=CLOSED_SHELL('',(#432,#433,#434,#435));
#439=DERIVED_UNIT_ELEMENT(#445,1.);
#440=DERIVED_UNIT_ELEMENT(#828,-3.);
#441=DERIVED_UNIT_ELEMENT(#445,1.);
#442=DERIVED_UNIT_ELEMENT(#828,-3.);
#443=DERIVED_UNIT_ELEMENT(#445,1.);
#444=DERIVED_UNIT_ELEMENT(#828,-3.);
#445=(
MASS_UNIT()
NAMED_UNIT(*)
SI_UNIT(.KILO.,.GRAM.)
);
#446=DERIVED_UNIT((#439,#440));
#447=DERIVED_UNIT((#441,#442));
#448=DERIVED_UNIT((#443,#444));
#449=MEASURE_REPRESENTATION_ITEM('density measure',
POSITIVE_RATIO_MEASURE(7850.),#446);
#450=MEASURE_REPRESENTATION_ITEM('density measure',
POSITIVE_RATIO_MEASURE(7850.),#447);
#451=MEASURE_REPRESENTATION_ITEM('density measure',
POSITIVE_RATIO_MEASURE(7850.),#448);
#452=PROPERTY_DEFINITION_REPRESENTATION(#467,#458);
#453=PROPERTY_DEFINITION_REPRESENTATION(#468,#459);
#454=PROPERTY_DEFINITION_REPRESENTATION(#469,#460);
#455=PROPERTY_DEFINITION_REPRESENTATION(#470,#461);
#456=PROPERTY_DEFINITION_REPRESENTATION(#471,#462);
#457=PROPERTY_DEFINITION_REPRESENTATION(#472,#463);
#458=REPRESENTATION('material name',(#464),#823);
#459=REPRESENTATION('density',(#449),#823);
#460=REPRESENTATION('material name',(#465),#824);
#461=REPRESENTATION('density',(#450),#824);
#462=REPRESENTATION('material name',(#466),#825);
#463=REPRESENTATION('density',(#451),#825);
#464=DESCRIPTIVE_REPRESENTATION_ITEM('Steel','Steel');
#465=DESCRIPTIVE_REPRESENTATION_ITEM('Steel','Steel');
#466=DESCRIPTIVE_REPRESENTATION_ITEM('Steel','Steel');
#467=PROPERTY_DEFINITION('material property','material name',#848);
#468=PROPERTY_DEFINITION('material property','density of part',#848);
#469=PROPERTY_DEFINITION('material property','material name',#849);
#470=PROPERTY_DEFINITION('material property','density of part',#849);
#471=PROPERTY_DEFINITION('material property','material name',#850);
#472=PROPERTY_DEFINITION('material property','density of part',#850);
#473=AXIS2_PLACEMENT_3D('',#680,#533,#534);
#474=AXIS2_PLACEMENT_3D('',#681,#535,#536);
#475=AXIS2_PLACEMENT_3D('',#682,#537,#538);
#476=AXIS2_PLACEMENT_3D('',#702,#540,#541);
#477=AXIS2_PLACEMENT_3D('',#704,#543,#544);
#478=AXIS2_PLACEMENT_3D('',#708,#546,#547);
#479=AXIS2_PLACEMENT_3D('',#712,#549,#550);
#480=AXIS2_PLACEMENT_3D('',#716,#552,#553);
#481=AXIS2_PLACEMENT_3D('',#720,#555,#556);
#482=AXIS2_PLACEMENT_3D('',#723,#558,#559);
#483=AXIS2_PLACEMENT_3D('',#724,#560,#561);
#484=AXIS2_PLACEMENT_3D('',#726,#562,#563);
#485=AXIS2_PLACEMENT_3D('',#728,#564,#565);
#486=AXIS2_PLACEMENT_3D('',#730,#566,#567);
#487=AXIS2_PLACEMENT_3D('',#732,#568,#569);
#488=AXIS2_PLACEMENT_3D('',#733,#570,#571);
#489=AXIS2_PLACEMENT_3D('',#739,#575,#576);
#490=AXIS2_PLACEMENT_3D('',#741,#577,#578);
#491=AXIS2_PLACEMENT_3D('',#743,#580,#581);
#492=AXIS2_PLACEMENT_3D('',#744,#582,#583);
#493=AXIS2_PLACEMENT_3D('',#746,#584,#585);
#494=AXIS2_PLACEMENT_3D('',#748,#587,#588);
#495=AXIS2_PLACEMENT_3D('',#749,#589,#590);
#496=AXIS2_PLACEMENT_3D('',#751,#591,#592);
#497=AXIS2_PLACEMENT_3D('',#753,#594,#595);
#498=AXIS2_PLACEMENT_3D('',#754,#596,#597);
#499=AXIS2_PLACEMENT_3D('',#756,#598,#599);
#500=AXIS2_PLACEMENT_3D('',#758,#601,#602);
#501=AXIS2_PLACEMENT_3D('',#759,#603,#604);
#502=AXIS2_PLACEMENT_3D('',#761,#605,#606);
#503=AXIS2_PLACEMENT_3D('',#763,#608,#609);
#504=AXIS2_PLACEMENT_3D('',#769,#613,#614);
#505=AXIS2_PLACEMENT_3D('',#771,#615,#616);
#506=AXIS2_PLACEMENT_3D('',#773,#618,#619);
#507=AXIS2_PLACEMENT_3D('',#777,#622,#623);
#508=AXIS2_PLACEMENT_3D('',#778,#624,#625);
#509=AXIS2_PLACEMENT_3D('',#779,#626,#627);
#510=AXIS2_PLACEMENT_3D('',#781,#628,#629);
#511=AXIS2_PLACEMENT_3D('',#783,#631,#632);
#512=AXIS2_PLACEMENT_3D('',#787,#635,#636);
#513=AXIS2_PLACEMENT_3D('',#788,#637,#638);
#514=AXIS2_PLACEMENT_3D('',#789,#639,#640);
#515=AXIS2_PLACEMENT_3D('',#790,#641,#642);
#516=AXIS2_PLACEMENT_3D('',#791,#643,#644);
#517=AXIS2_PLACEMENT_3D('',#793,#645,#646);
#518=AXIS2_PLACEMENT_3D('',#796,#648,#649);
#519=AXIS2_PLACEMENT_3D('',#797,#650,#651);
#520=AXIS2_PLACEMENT_3D('',#798,#652,#653);
#521=AXIS2_PLACEMENT_3D('',#799,#654,#655);
#522=AXIS2_PLACEMENT_3D('',#800,#656,#657);
#523=AXIS2_PLACEMENT_3D('',#802,#658,#659);
#524=AXIS2_PLACEMENT_3D('',#805,#661,#662);
#525=AXIS2_PLACEMENT_3D('',#806,#663,#664);
#526=AXIS2_PLACEMENT_3D('',#808,#665,#666);
#527=AXIS2_PLACEMENT_3D('',#811,#668,#669);
#528=AXIS2_PLACEMENT_3D('',#812,#670,#671);
#529=AXIS2_PLACEMENT_3D('',#813,#672,#673);
#530=AXIS2_PLACEMENT_3D('',#814,#674,#675);
#531=AXIS2_PLACEMENT_3D('',#815,#676,#677);
#532=AXIS2_PLACEMENT_3D('',#816,#678,#679);
#533=DIRECTION('axis',(0.,0.,1.));
#534=DIRECTION('refdir',(1.,0.,0.));
#535=DIRECTION('axis',(0.,0.,1.));
#536=DIRECTION('refdir',(1.,0.,0.));
#537=DIRECTION('center_axis',(0.,-1.,0.));
#538=DIRECTION('ref_axis',(-0.23659305993691,0.,0.971608832807571));
#539=DIRECTION('',(0.,-1.,0.));
#540=DIRECTION('center_axis',(0.,-1.,0.));
#541=DIRECTION('ref_axis',(-0.23659305993691,0.,0.971608832807571));
#542=DIRECTION('',(0.,1.,0.));
#543=DIRECTION('center_axis',(0.,0.,1.));
#544=DIRECTION('ref_axis',(-1.,0.,0.));
#545=DIRECTION('',(-1.,0.,0.));
#546=DIRECTION('center_axis',(0.,0.,1.));
#547=DIRECTION('ref_axis',(1.,2.2204460492503E-15,0.));
#548=DIRECTION('',(0.,1.,0.));
#549=DIRECTION('center_axis',(0.,0.,1.));
#550=DIRECTION('ref_axis',(2.2204460492503E-15,-1.,0.));
#551=DIRECTION('',(-1.,8.07434927000114E-17,0.));
#552=DIRECTION('center_axis',(0.,0.,1.));
#553=DIRECTION('ref_axis',(-1.,-4.4408920985006E-15,0.));
#554=DIRECTION('',(8.07434927000114E-17,-1.,0.));
#555=DIRECTION('center_axis',(0.,0.,1.));
#556=DIRECTION('ref_axis',(0.,1.,0.));
#557=DIRECTION('',(-1.,0.,0.));
#558=DIRECTION('center_axis',(0.,0.,-1.));
#559=DIRECTION('ref_axis',(-1.,0.,0.));
#560=DIRECTION('center_axis',(0.,0.,-1.));
#561=DIRECTION('ref_axis',(-1.,0.,0.));
#562=DIRECTION('center_axis',(0.,0.,1.));
#563=DIRECTION('ref_axis',(-1.,0.,0.));
#564=DIRECTION('center_axis',(0.,0.,1.));
#565=DIRECTION('ref_axis',(-1.,0.,0.));
#566=DIRECTION('center_axis',(0.,0.,1.));
#567=DIRECTION('ref_axis',(-1.,0.,0.));
#568=DIRECTION('center_axis',(0.,0.,1.));
#569=DIRECTION('ref_axis',(-1.,0.,0.));
#570=DIRECTION('center_axis',(0.,1.,0.));
#571=DIRECTION('ref_axis',(-1.,0.,0.));
#572=DIRECTION('',(0.,0.,1.));
#573=DIRECTION('',(-1.,0.,0.));
#574=DIRECTION('',(0.,0.,1.));
#575=DIRECTION('center_axis',(0.,0.,-1.));
#576=DIRECTION('ref_axis',(-1.,0.,0.));
#577=DIRECTION('center_axis',(0.,0.,-1.));
#578=DIRECTION('ref_axis',(-1.,0.,0.));
#579=DIRECTION('',(0.,0.,1.));
#580=DIRECTION('center_axis',(0.,0.,1.));
#581=DIRECTION('ref_axis',(-1.,0.,0.));
#582=DIRECTION('center_axis',(0.,0.,-1.));
#583=DIRECTION('ref_axis',(-1.,0.,0.));
#584=DIRECTION('center_axis',(0.,0.,-1.));
#585=DIRECTION('ref_axis',(-1.,0.,0.));
#586=DIRECTION('',(0.,0.,1.));
#587=DIRECTION('center_axis',(0.,0.,1.));
#588=DIRECTION('ref_axis',(-1.,0.,0.));
#589=DIRECTION('center_axis',(0.,0.,-1.));
#590=DIRECTION('ref_axis',(-1.,0.,0.));
#591=DIRECTION('center_axis',(0.,0.,-1.));
#592=DIRECTION('ref_axis',(-1.,0.,0.));
#593=DIRECTION('',(0.,0.,1.));
#594=DIRECTION('center_axis',(0.,0.,1.));
#595=DIRECTION('ref_axis',(-1.,0.,0.));
#596=DIRECTION('center_axis',(0.,0.,-1.));
#597=DIRECTION('ref_axis',(-1.,0.,0.));
#598=DIRECTION('center_axis',(0.,0.,-1.));
#599=DIRECTION('ref_axis',(-1.,0.,0.));
#600=DIRECTION('',(0.,0.,1.));
#601=DIRECTION('center_axis',(0.,0.,1.));
#602=DIRECTION('ref_axis',(-1.,0.,0.));
#603=DIRECTION('center_axis',(0.,0.,1.));
#604=DIRECTION('ref_axis',(-1.,0.,0.));
#605=DIRECTION('center_axis',(0.,0.,-1.));
#606=DIRECTION('ref_axis',(-1.,0.,0.));
#607=DIRECTION('',(0.,0.,-1.));
#608=DIRECTION('center_axis',(-8.07434927000114E-17,-1.,0.));
#609=DIRECTION('ref_axis',(1.,-8.07434927000114E-17,0.));
#610=DIRECTION('',(0.,0.,1.));
#611=DIRECTION('',(1.,-8.07434927000114E-17,0.));
#612=DIRECTION('',(0.,0.,1.));
#613=DIRECTION('center_axis',(0.,0.,1.));
#614=DIRECTION('ref_axis',(-1.,-4.4408920985006E-15,0.));
#615=DIRECTION('center_axis',(0.,0.,1.));
#616=DIRECTION('ref_axis',(-1.,-4.4408920985006E-15,0.));
#617=DIRECTION('',(0.,0.,1.));
#618=DIRECTION('center_axis',(-1.,-8.07434927000114E-17,0.));
#619=DIRECTION('ref_axis',(8.07434927000114E-17,-1.,0.));
#620=DIRECTION('',(8.07434927000114E-17,-1.,0.));
#621=DIRECTION('',(0.,0.,1.));
#622=DIRECTION('center_axis',(0.,0.,1.));
#623=DIRECTION('ref_axis',(0.,1.,0.));
#624=DIRECTION('center_axis',(0.,0.,1.));
#625=DIRECTION('ref_axis',(0.,1.,0.));
#626=DIRECTION('center_axis',(0.,0.,1.));
#627=DIRECTION('ref_axis',(1.,2.2204460492503E-15,0.));
#628=DIRECTION('center_axis',(0.,0.,1.));
#629=DIRECTION('ref_axis',(1.,2.2204460492503E-15,0.));
#630=DIRECTION('',(0.,0.,1.));
#631=DIRECTION('center_axis',(1.,0.,0.));
#632=DIRECTION('ref_axis',(0.,1.,0.));
#633=DIRECTION('',(0.,1.,0.));
#634=DIRECTION('',(0.,0.,1.));
#635=DIRECTION('center_axis',(0.,0.,1.));
#636=DIRECTION('ref_axis',(2.2204460492503E-15,-1.,0.));
#637=DIRECTION('center_axis',(0.,0.,1.));
#638=DIRECTION('ref_axis',(2.2204460492503E-15,-1.,0.));
#639=DIRECTION('center_axis',(0.,0.,1.));
#640=DIRECTION('ref_axis',(-1.,0.,0.));
#641=DIRECTION('axis',(0.,0.,1.));
#642=DIRECTION('refdir',(1.,0.,0.));
#643=DIRECTION('center_axis',(0.,0.,1.));
#644=DIRECTION('ref_axis',(-1.,0.,0.));
#645=DIRECTION('center_axis',(0.,0.,-1.));
#646=DIRECTION('ref_axis',(-1.,0.,0.));
#647=DIRECTION('',(0.,0.,-1.));
#648=DIRECTION('center_axis',(0.,0.,1.));
#649=DIRECTION('ref_axis',(-1.,0.,0.));
#650=DIRECTION('center_axis',(0.,0.,1.));
#651=DIRECTION('ref_axis',(1.,0.,0.));
#652=DIRECTION('center_axis',(0.,0.,1.));
#653=DIRECTION('ref_axis',(1.,0.,0.));
#654=DIRECTION('axis',(0.,0.,1.));
#655=DIRECTION('refdir',(1.,0.,0.));
#656=DIRECTION('center_axis',(0.,0.,1.));
#657=DIRECTION('ref_axis',(1.,0.,0.));
#658=DIRECTION('center_axis',(0.,0.,1.));
#659=DIRECTION('ref_axis',(1.,0.,0.));
#660=DIRECTION('',(0.,0.,-1.));
#661=DIRECTION('center_axis',(0.,0.,-1.));
#662=DIRECTION('ref_axis',(1.,0.,0.));
#663=DIRECTION('center_axis',(0.,0.,1.));
#664=DIRECTION('ref_axis',(1.,0.,0.));
#665=DIRECTION('center_axis',(0.,0.,-1.));
#666=DIRECTION('ref_axis',(1.,0.,0.));
#667=DIRECTION('',(0.,0.,-1.));
#668=DIRECTION('center_axis',(0.,0.,1.));
#669=DIRECTION('ref_axis',(1.,0.,0.));
#670=DIRECTION('center_axis',(0.,0.,1.));
#671=DIRECTION('ref_axis',(1.,0.,0.));
#672=DIRECTION('center_axis',(0.,0.,1.));
#673=DIRECTION('ref_axis',(1.,0.,0.));
#674=DIRECTION('',(0.,0.,1.));
#675=DIRECTION('',(1.,0.,0.));
#676=DIRECTION('',(0.,0.,1.));
#677=DIRECTION('',(1.,0.,0.));
#678=DIRECTION('',(0.,0.,1.));
#679=DIRECTION('',(1.,0.,0.));
#680=CARTESIAN_POINT('',(0.,0.,0.));
#681=CARTESIAN_POINT('',(0.,0.,0.));
#682=CARTESIAN_POINT('Origin',(1.02964004500272E-7,29.5,-59.7999999999995));
#683=CARTESIAN_POINT('',(-14.999999897036,22.6301237974723,1.8));
#684=CARTESIAN_POINT('',(15.000000102964,22.6301236609763,1.8));
#685=CARTESIAN_POINT('Ctrl Pts',(-14.999999897036,22.6301237974723,1.79999999999999));
#686=CARTESIAN_POINT('Ctrl Pts',(-13.580939036699,23.5707246067935,2.14555053417295));
#687=CARTESIAN_POINT('Ctrl Pts',(-12.0503278626657,24.3908523545085,2.46538214461986));
#688=CARTESIAN_POINT('Ctrl Pts',(-8.78198072399606,25.754044988298,3.01163412022118));
#689=CARTESIAN_POINT('Ctrl Pts',(-7.034932886974,26.2842917328728,3.23333490036874));
#690=CARTESIAN_POINT('Ctrl Pts',(-3.50792760911654,26.9823778885704,3.52760878167977));
#691=CARTESIAN_POINT('Ctrl Pts',(-1.72791198941106,27.15,3.59999999719382));
#692=CARTESIAN_POINT('Ctrl Pts',(1.7279119884162,27.15,3.60000000280621));
#693=CARTESIAN_POINT('Ctrl Pts',(3.50792760737568,26.9823778887598,3.52760879315526));
#694=CARTESIAN_POINT('Ctrl Pts',(7.03493288420676,26.2842917335756,3.23333492363238));
#695=CARTESIAN_POINT('Ctrl Pts',(8.78198072094722,25.7540449893215,3.0116341494103));
#696=CARTESIAN_POINT('Ctrl Pts',(12.0503279379094,24.3908523233629,2.46538217195786));
#697=CARTESIAN_POINT('Ctrl Pts',(13.5809391836784,23.5707245279571,2.14555054852733));
#698=CARTESIAN_POINT('Ctrl Pts',(15.000000102964,22.6301236609763,1.79999999999999));
#699=CARTESIAN_POINT('',(-14.999999897036,29.5,1.8));
#700=CARTESIAN_POINT('',(-14.9999998970359,29.5,1.80000000000001));
#701=CARTESIAN_POINT('',(15.000000102964,29.5,1.8));
#702=CARTESIAN_POINT('Origin',(1.02964004500272E-7,29.5,-59.7999999999995));
#703=CARTESIAN_POINT('',(15.000000102964,29.5,1.80000000000001));
#704=CARTESIAN_POINT('Origin',(0.,0.,1.8));
#705=CARTESIAN_POINT('',(27.5,29.5,1.8));
#706=CARTESIAN_POINT('',(27.5,29.5,1.8));
#707=CARTESIAN_POINT('',(29.5,27.5,1.8));
#708=CARTESIAN_POINT('Origin',(27.5,27.5,1.8));
#709=CARTESIAN_POINT('',(29.5,-27.5,1.8));
#710=CARTESIAN_POINT('',(29.5,-27.5,1.8));
#711=CARTESIAN_POINT('',(27.5,-29.5,1.8));
#712=CARTESIAN_POINT('Origin',(27.5,-27.5,1.8));
#713=CARTESIAN_POINT('',(-27.5,-29.5,1.8));
#714=CARTESIAN_POINT('',(27.5,-29.5,1.8));
#715=CARTESIAN_POINT('',(-29.5,-27.5,1.8));
#716=CARTESIAN_POINT('Origin',(-27.5,-27.5,1.8));
#717=CARTESIAN_POINT('',(-29.5,27.5,1.8));
#718=CARTESIAN_POINT('',(-29.5,27.5,1.8));
#719=CARTESIAN_POINT('',(-27.5,29.5,1.8));
#720=CARTESIAN_POINT('Origin',(-27.5,27.5,1.8));
#721=CARTESIAN_POINT('',(27.5,29.5,1.8));
#722=CARTESIAN_POINT('',(27.15,3.32491605968506E-15,1.79999999999999));
#723=CARTESIAN_POINT('Origin',(0.,0.,1.8));
#724=CARTESIAN_POINT('Origin',(0.,0.,1.8));
#725=CARTESIAN_POINT('',(-21.4738636073762,22.2738636073763,1.8));
#726=CARTESIAN_POINT('Origin',(-22.2738636073762,22.2738636073763,1.8));
#727=CARTESIAN_POINT('',(-21.4738636073763,-22.2738636073762,1.8));
#728=CARTESIAN_POINT('Origin',(-22.2738636073763,-22.2738636073762,1.8));
#729=CARTESIAN_POINT('',(23.0738636073763,22.2738636073762,1.8));
#730=CARTESIAN_POINT('Origin',(22.2738636073763,22.2738636073762,1.8));
#731=CARTESIAN_POINT('',(23.0738636073762,-22.2738636073763,1.8));
#732=CARTESIAN_POINT('Origin',(22.2738636073762,-22.2738636073763,1.8));
#733=CARTESIAN_POINT('Origin',(27.5,29.5,1.8));
#734=CARTESIAN_POINT('',(-27.5,29.5,4.8));
#735=CARTESIAN_POINT('',(-27.5,29.5,1.8));
#736=CARTESIAN_POINT('',(27.5,29.5,4.8));
#737=CARTESIAN_POINT('',(27.5,29.5,4.8));
#738=CARTESIAN_POINT('',(27.5,29.5,1.8));
#739=CARTESIAN_POINT('Origin',(22.2738636073762,-22.2738636073763,1.8));
#740=CARTESIAN_POINT('',(23.0738636073762,-22.2738636073763,-4.2));
#741=CARTESIAN_POINT('Origin',(22.2738636073762,-22.2738636073763,-4.2));
#742=CARTESIAN_POINT('',(23.0738636073762,-22.2738636073763,1.8));
#743=CARTESIAN_POINT('Origin',(22.2738636073762,-22.2738636073763,-4.2));
#744=CARTESIAN_POINT('Origin',(22.2738636073763,22.2738636073762,1.8));
#745=CARTESIAN_POINT('',(23.0738636073763,22.2738636073762,-4.2));
#746=CARTESIAN_POINT('Origin',(22.2738636073763,22.2738636073762,-4.2));
#747=CARTESIAN_POINT('',(23.0738636073763,22.2738636073762,1.8));
#748=CARTESIAN_POINT('Origin',(22.2738636073763,22.2738636073762,-4.2));
#749=CARTESIAN_POINT('Origin',(-22.2738636073763,-22.2738636073762,1.8));
#750=CARTESIAN_POINT('',(-21.4738636073763,-22.2738636073762,-4.2));
#751=CARTESIAN_POINT('Origin',(-22.2738636073763,-22.2738636073762,-4.2));
#752=CARTESIAN_POINT('',(-21.4738636073763,-22.2738636073762,1.8));
#753=CARTESIAN_POINT('Origin',(-22.2738636073763,-22.2738636073762,-4.2));
#754=CARTESIAN_POINT('Origin',(-22.2738636073762,22.2738636073763,1.8));
#755=CARTESIAN_POINT('',(-21.4738636073762,22.2738636073763,-4.2));
#756=CARTESIAN_POINT('Origin',(-22.2738636073762,22.2738636073763,-4.2));
#757=CARTESIAN_POINT('',(-21.4738636073762,22.2738636073763,1.8));
#758=CARTESIAN_POINT('Origin',(-22.2738636073762,22.2738636073763,-4.2));
#759=CARTESIAN_POINT('Origin',(0.,0.,1.8));
#760=CARTESIAN_POINT('',(27.15,3.32491605968506E-15,4.8));
#761=CARTESIAN_POINT('Origin',(0.,0.,4.8));
#762=CARTESIAN_POINT('',(27.15,3.32491605968506E-15,1.8));
#763=CARTESIAN_POINT('Origin',(-27.5,-29.5,1.8));
#764=CARTESIAN_POINT('',(27.5,-29.5,4.8));
#765=CARTESIAN_POINT('',(27.5,-29.5,1.8));
#766=CARTESIAN_POINT('',(-27.5,-29.5,4.8));
#767=CARTESIAN_POINT('',(27.5,-29.5,4.8));
#768=CARTESIAN_POINT('',(-27.5,-29.5,1.8));
#769=CARTESIAN_POINT('Origin',(-27.5,-27.5,1.8));
#770=CARTESIAN_POINT('',(-29.5,-27.5,4.8));
#771=CARTESIAN_POINT('Origin',(-27.5,-27.5,4.8));
#772=CARTESIAN_POINT('',(-29.5,-27.5,1.8));
#773=CARTESIAN_POINT('Origin',(-29.5,27.5,1.8));
#774=CARTESIAN_POINT('',(-29.5,27.5,4.8));
#775=CARTESIAN_POINT('',(-29.5,27.5,4.8));
#776=CARTESIAN_POINT('',(-29.5,27.5,1.8));
#777=CARTESIAN_POINT('Origin',(-27.5,27.5,1.8));
#778=CARTESIAN_POINT('Origin',(-27.5,27.5,4.8));
#779=CARTESIAN_POINT('Origin',(27.5,27.5,1.8));
#780=CARTESIAN_POINT('',(29.5,27.5,4.8));
#781=CARTESIAN_POINT('Origin',(27.5,27.5,4.8));
#782=CARTESIAN_POINT('',(29.5,27.5,1.8));
#783=CARTESIAN_POINT('Origin',(29.5,-27.5,1.8));
#784=CARTESIAN_POINT('',(29.5,-27.5,4.8));
#785=CARTESIAN_POINT('',(29.5,-27.5,4.8));
#786=CARTESIAN_POINT('',(29.5,-27.5,1.8));
#787=CARTESIAN_POINT('Origin',(27.5,-27.5,1.8));
#788=CARTESIAN_POINT('Origin',(27.5,-27.5,4.8));
#789=CARTESIAN_POINT('Origin',(0.,0.,4.8));
#790=CARTESIAN_POINT('',(0.,0.,0.));
#791=CARTESIAN_POINT('Origin',(0.,0.,1.8));
#792=CARTESIAN_POINT('',(22.6,-2.76770176607302E-15,4.8));
#793=CARTESIAN_POINT('Origin',(0.,0.,4.8));
#794=CARTESIAN_POINT('',(22.6,2.76770176607302E-15,1.8));
#795=CARTESIAN_POINT('',(22.6,2.76770176607302E-15,1.8));
#796=CARTESIAN_POINT('Origin',(0.,0.,1.8));
#797=CARTESIAN_POINT('Origin',(0.,0.,4.8));
#798=CARTESIAN_POINT('Origin',(0.,0.,1.8));
#799=CARTESIAN_POINT('',(0.,0.,0.));
#800=CARTESIAN_POINT('Origin',(0.,0.,4.4));
#801=CARTESIAN_POINT('',(-22.6,-2.76770176607302E-15,4.8));
#802=CARTESIAN_POINT('Origin',(0.,0.,4.8));
#803=CARTESIAN_POINT('',(-22.6,-2.76770176607302E-15,4.4));
#804=CARTESIAN_POINT('',(-22.6,-2.76770176607302E-15,4.4));
#805=CARTESIAN_POINT('Origin',(0.,0.,4.4));
#806=CARTESIAN_POINT('Origin',(0.,0.,4.4));
#807=CARTESIAN_POINT('',(-27.15,3.32491605968506E-15,4.8));
#808=CARTESIAN_POINT('Origin',(0.,0.,4.8));
#809=CARTESIAN_POINT('',(-27.15,3.32491605968506E-15,4.4));
#810=CARTESIAN_POINT('',(-27.15,-3.32491605968506E-15,4.4));
#811=CARTESIAN_POINT('Origin',(0.,0.,4.4));
#812=CARTESIAN_POINT('Origin',(0.,0.,4.4));
#813=CARTESIAN_POINT('Origin',(0.,0.,4.8));
#814=CARTESIAN_POINT('',(0.,0.,0.));
#815=CARTESIAN_POINT('',(0.,0.,0.));
#816=CARTESIAN_POINT('',(0.,0.,0.));
#817=UNCERTAINTY_MEASURE_WITH_UNIT(LENGTH_MEASURE(0.01),#827,
'DISTANCE_ACCURACY_VALUE',
'Maximum model space distance between geometric entities at asserted c
onnectivities');
#818=UNCERTAINTY_MEASURE_WITH_UNIT(LENGTH_MEASURE(0.01),#827,
'DISTANCE_ACCURACY_VALUE',
'Maximum model space distance between geometric entities at asserted c
onnectivities');
#819=UNCERTAINTY_MEASURE_WITH_UNIT(LENGTH_MEASURE(0.01),#827,
'DISTANCE_ACCURACY_VALUE',
'Maximum model space distance between geometric entities at asserted c
onnectivities');
#820=UNCERTAINTY_MEASURE_WITH_UNIT(LENGTH_MEASURE(0.01),#827,
'DISTANCE_ACCURACY_VALUE',
'Maximum model space distance between geometric entities at asserted c
onnectivities');
#821=UNCERTAINTY_MEASURE_WITH_UNIT(LENGTH_MEASURE(0.01),#827,
'DISTANCE_ACCURACY_VALUE',
'Maximum model space distance between geometric entities at asserted c
onnectivities');
#822=(
GEOMETRIC_REPRESENTATION_CONTEXT(3)
GLOBAL_UNCERTAINTY_ASSIGNED_CONTEXT((#817))
GLOBAL_UNIT_ASSIGNED_CONTEXT((#827,#829,#830))
REPRESENTATION_CONTEXT('','3D')
);
#823=(
GEOMETRIC_REPRESENTATION_CONTEXT(3)
GLOBAL_UNCERTAINTY_ASSIGNED_CONTEXT((#818))
GLOBAL_UNIT_ASSIGNED_CONTEXT((#827,#829,#830))
REPRESENTATION_CONTEXT('','3D')
);
#824=(
GEOMETRIC_REPRESENTATION_CONTEXT(3)
GLOBAL_UNCERTAINTY_ASSIGNED_CONTEXT((#819))
GLOBAL_UNIT_ASSIGNED_CONTEXT((#827,#829,#830))
REPRESENTATION_CONTEXT('','3D')
);
#825=(
GEOMETRIC_REPRESENTATION_CONTEXT(3)
GLOBAL_UNCERTAINTY_ASSIGNED_CONTEXT((#820))
GLOBAL_UNIT_ASSIGNED_CONTEXT((#827,#829,#830))
REPRESENTATION_CONTEXT('','3D')
);
#826=(
GEOMETRIC_REPRESENTATION_CONTEXT(3)
GLOBAL_UNCERTAINTY_ASSIGNED_CONTEXT((#821))
GLOBAL_UNIT_ASSIGNED_CONTEXT((#827,#829,#830))
REPRESENTATION_CONTEXT('','3D')
);
#827=(
LENGTH_UNIT()
NAMED_UNIT(*)
SI_UNIT(.MILLI.,.METRE.)
);
#828=(
LENGTH_UNIT()
NAMED_UNIT(*)
SI_UNIT($,.METRE.)
);
#829=(
NAMED_UNIT(*)
PLANE_ANGLE_UNIT()
SI_UNIT($,.RADIAN.)
);
#830=(
NAMED_UNIT(*)
SI_UNIT($,.STERADIAN.)
SOLID_ANGLE_UNIT()
);
#831=SHAPE_DEFINITION_REPRESENTATION(#835,#842);
#832=SHAPE_DEFINITION_REPRESENTATION(#836,#843);
#833=SHAPE_DEFINITION_REPRESENTATION(#837,#844);
#834=SHAPE_DEFINITION_REPRESENTATION(#838,#845);
#835=PRODUCT_DEFINITION_SHAPE('',$,#847);
#836=PRODUCT_DEFINITION_SHAPE('',$,#848);
#837=PRODUCT_DEFINITION_SHAPE('',$,#849);
#838=PRODUCT_DEFINITION_SHAPE('',$,#850);
#839=PRODUCT_DEFINITION_SHAPE($,$,#20);
#840=PRODUCT_DEFINITION_SHAPE($,$,#21);
#841=PRODUCT_DEFINITION_SHAPE($,$,#22);
#842=SHAPE_REPRESENTATION('',(#473,#530,#531,#532),#822);
#843=SHAPE_REPRESENTATION('',(#474),#823);
#844=SHAPE_REPRESENTATION('',(#515),#824);
#845=SHAPE_REPRESENTATION('',(#521),#825);
#846=PRODUCT_DEFINITION_CONTEXT('part definition',#860,'design');
#847=PRODUCT_DEFINITION('2026-09-26-10-07-54-294','Cover',#851,#846);
#848=PRODUCT_DEFINITION('2026-09-26-10-07-54-295','Exerior',#852,#846);
#849=PRODUCT_DEFINITION('2026-09-26-10-07-54-295_1','Interior',#853,#846);
#850=PRODUCT_DEFINITION('2026-09-26-10-07-54-295_2','White',#854,#846);
#851=PRODUCT_DEFINITION_FORMATION('',$,#862);
#852=PRODUCT_DEFINITION_FORMATION('',$,#863);
#853=PRODUCT_DEFINITION_FORMATION('',$,#864);
#854=PRODUCT_DEFINITION_FORMATION('',$,#865);
#855=PRODUCT_RELATED_PRODUCT_CATEGORY('Cover','Cover',(#862));
#856=PRODUCT_RELATED_PRODUCT_CATEGORY('Exerior','Exerior',(#863));
#857=PRODUCT_RELATED_PRODUCT_CATEGORY('Interior','Interior',(#864));
#858=PRODUCT_RELATED_PRODUCT_CATEGORY('White','White',(#865));
#859=APPLICATION_PROTOCOL_DEFINITION('international standard',
'automotive_design',2009,#860);
#860=APPLICATION_CONTEXT(
'Core Data for Automotive Mechanical Design Process');
#861=PRODUCT_CONTEXT('part definition',#860,'mechanical');
#862=PRODUCT('2026-09-26-10-07-54-294','Cover',$,(#861));
#863=PRODUCT('2026-09-26-10-07-54-295','Exerior',$,(#861));
#864=PRODUCT('2026-09-26-10-07-54-295_1','Interior',$,(#861));
#865=PRODUCT('2026-09-26-10-07-54-295_2','White',$,(#861));
#866=PRESENTATION_STYLE_ASSIGNMENT((#869));
#867=PRESENTATION_STYLE_ASSIGNMENT((#870));
#868=PRESENTATION_STYLE_ASSIGNMENT((#871));
#869=SURFACE_STYLE_USAGE(.BOTH.,#872);
#870=SURFACE_STYLE_USAGE(.BOTH.,#873);
#871=SURFACE_STYLE_USAGE(.BOTH.,#874);
#872=SURFACE_SIDE_STYLE('',(#875));
#873=SURFACE_SIDE_STYLE('',(#876));
#874=SURFACE_SIDE_STYLE('',(#877));
#875=SURFACE_STYLE_FILL_AREA(#878);
#876=SURFACE_STYLE_FILL_AREA(#879);
#877=SURFACE_STYLE_FILL_AREA(#880);
#878=FILL_AREA_STYLE('Steel - Satin',(#881));
#879=FILL_AREA_STYLE('Plastic - Matte (Blue)',(#882));
#880=FILL_AREA_STYLE('Plastic - Matte (White)',(#883));
#881=FILL_AREA_STYLE_COLOUR('Steel - Satin',#884);
#882=FILL_AREA_STYLE_COLOUR('Plastic - Matte (Blue)',#885);
#883=FILL_AREA_STYLE_COLOUR('Plastic - Matte (White)',#886);
#884=COLOUR_RGB('Steel - Satin',0.627450980392157,0.627450980392157,0.627450980392157);
#885=COLOUR_RGB('Plastic - Matte (Blue)',0.188235294117647,0.231372549019608,
0.588235294117647);
#886=COLOUR_RGB('Plastic - Matte (White)',0.964705882352941,0.964705882352941,
0.952941176470588);
ENDSEC;
END-ISO-10303-21;
