ISO-10303-21;
HEADER;
/* Generated by software containing ST-Developer
 * from STEP Tools, Inc. (www.steptools.com) 
 */

FILE_DESCRIPTION(
/* description */ (''),
/* implementation_level */ '2;1');

FILE_NAME(
/* name */ 'Mast_Frame_Big_v003.step',
/* time_stamp */ '2026-08-23T15:18:54+04:00',
/* author */ (''),
/* organization */ (''),
/* preprocessor_version */ 'ST-DEVELOPER v20.1',
/* originating_system */ 'Autodesk Translation Framework v15.8.0.0',
/* authorisation */ '');

FILE_SCHEMA (('AUTOMOTIVE_DESIGN { 1 0 10303 214 3 1 1 }'));
ENDSEC;

DATA;
#10=MECHANICAL_DESIGN_GEOMETRIC_PRESENTATION_REPRESENTATION('',(#13),#881);
#11=SHAPE_REPRESENTATION_RELATIONSHIP('SRR','None',#888,#12);
#12=ADVANCED_BREP_SHAPE_REPRESENTATION('',(#14),#880);
#13=STYLED_ITEM('',(#897),#14);
#14=MANIFOLD_SOLID_BREP('Body1',#513);
#15=FACE_BOUND('',#63,.T.);
#16=FACE_BOUND('',#80,.T.);
#17=FACE_BOUND('',#89,.T.);
#18=PLANE('',#530);
#19=PLANE('',#531);
#20=PLANE('',#541);
#21=PLANE('',#544);
#22=PLANE('',#549);
#23=PLANE('',#552);
#24=PLANE('',#555);
#25=PLANE('',#558);
#26=PLANE('',#562);
#27=PLANE('',#563);
#28=PLANE('',#569);
#29=PLANE('',#572);
#30=PLANE('',#575);
#31=PLANE('',#576);
#32=PLANE('',#577);
#33=FACE_OUTER_BOUND('',#60,.T.);
#34=FACE_OUTER_BOUND('',#61,.T.);
#35=FACE_OUTER_BOUND('',#62,.T.);
#36=FACE_OUTER_BOUND('',#64,.T.);
#37=FACE_OUTER_BOUND('',#65,.T.);
#38=FACE_OUTER_BOUND('',#66,.T.);
#39=FACE_OUTER_BOUND('',#67,.T.);
#40=FACE_OUTER_BOUND('',#68,.T.);
#41=FACE_OUTER_BOUND('',#69,.T.);
#42=FACE_OUTER_BOUND('',#70,.T.);
#43=FACE_OUTER_BOUND('',#71,.T.);
#44=FACE_OUTER_BOUND('',#72,.T.);
#45=FACE_OUTER_BOUND('',#73,.T.);
#46=FACE_OUTER_BOUND('',#74,.T.);
#47=FACE_OUTER_BOUND('',#75,.T.);
#48=FACE_OUTER_BOUND('',#76,.T.);
#49=FACE_OUTER_BOUND('',#77,.T.);
#50=FACE_OUTER_BOUND('',#78,.T.);
#51=FACE_OUTER_BOUND('',#79,.T.);
#52=FACE_OUTER_BOUND('',#81,.T.);
#53=FACE_OUTER_BOUND('',#82,.T.);
#54=FACE_OUTER_BOUND('',#83,.T.);
#55=FACE_OUTER_BOUND('',#84,.T.);
#56=FACE_OUTER_BOUND('',#85,.T.);
#57=FACE_OUTER_BOUND('',#86,.T.);
#58=FACE_OUTER_BOUND('',#87,.T.);
#59=FACE_OUTER_BOUND('',#88,.T.);
#60=EDGE_LOOP('',(#330,#331,#332,#333));
#61=EDGE_LOOP('',(#334,#335,#336,#337));
#62=EDGE_LOOP('',(#338,#339,#340,#341,#342,#343,#344,#345));
#63=EDGE_LOOP('',(#346,#347,#348,#349,#350,#351,#352,#353));
#64=EDGE_LOOP('',(#354,#355,#356,#357));
#65=EDGE_LOOP('',(#358,#359,#360,#361));
#66=EDGE_LOOP('',(#362,#363,#364,#365));
#67=EDGE_LOOP('',(#366,#367,#368,#369));
#68=EDGE_LOOP('',(#370,#371,#372,#373));
#69=EDGE_LOOP('',(#374,#375,#376,#377));
#70=EDGE_LOOP('',(#378,#379,#380,#381));
#71=EDGE_LOOP('',(#382,#383,#384,#385));
#72=EDGE_LOOP('',(#386,#387,#388,#389));
#73=EDGE_LOOP('',(#390,#391,#392,#393));
#74=EDGE_LOOP('',(#394,#395,#396,#397));
#75=EDGE_LOOP('',(#398,#399,#400,#401));
#76=EDGE_LOOP('',(#402,#403,#404,#405));
#77=EDGE_LOOP('',(#406,#407,#408,#409));
#78=EDGE_LOOP('',(#410,#411,#412,#413));
#79=EDGE_LOOP('',(#414,#415,#416,#417,#418,#419,#420,#421));
#80=EDGE_LOOP('',(#422,#423,#424,#425,#426,#427,#428,#429));
#81=EDGE_LOOP('',(#430,#431,#432,#433));
#82=EDGE_LOOP('',(#434,#435,#436,#437));
#83=EDGE_LOOP('',(#438,#439,#440,#441));
#84=EDGE_LOOP('',(#442,#443,#444,#445));
#85=EDGE_LOOP('',(#446,#447,#448,#449));
#86=EDGE_LOOP('',(#450,#451,#452,#453));
#87=EDGE_LOOP('',(#454,#455,#456,#457));
#88=EDGE_LOOP('',(#458,#459,#460,#461,#462,#463,#464,#465));
#89=EDGE_LOOP('',(#466,#467,#468,#469,#470,#471,#472,#473));
#90=LINE('',#736,#138);
#91=LINE('',#739,#139);
#92=LINE('',#742,#140);
#93=LINE('',#744,#141);
#94=LINE('',#745,#142);
#95=LINE('',#748,#143);
#96=LINE('',#752,#144);
#97=LINE('',#756,#145);
#98=LINE('',#760,#146);
#99=LINE('',#764,#147);
#100=LINE('',#768,#148);
#101=LINE('',#772,#149);
#102=LINE('',#776,#150);
#103=LINE('',#779,#151);
#104=LINE('',#782,#152);
#105=LINE('',#783,#153);
#106=LINE('',#787,#154);
#107=LINE('',#790,#155);
#108=LINE('',#791,#156);
#109=LINE('',#798,#157);
#110=LINE('',#799,#158);
#111=LINE('',#802,#159);
#112=LINE('',#803,#160);
#113=LINE('',#808,#161);
#114=LINE('',#809,#162);
#115=LINE('',#812,#163);
#116=LINE('',#813,#164);
#117=LINE('',#817,#165);
#118=LINE('',#819,#166);
#119=LINE('',#823,#167);
#120=LINE('',#825,#168);
#121=LINE('',#831,#169);
#122=LINE('',#834,#170);
#123=LINE('',#837,#171);
#124=LINE('',#839,#172);
#125=LINE('',#840,#173);
#126=LINE('',#843,#174);
#127=LINE('',#847,#175);
#128=LINE('',#851,#176);
#129=LINE('',#856,#177);
#130=LINE('',#859,#178);
#131=LINE('',#860,#179);
#132=LINE('',#864,#180);
#133=LINE('',#867,#181);
#134=LINE('',#868,#182);
#135=LINE('',#872,#183);
#136=LINE('',#874,#184);
#137=LINE('',#876,#185);
#138=VECTOR('',#584,10.);
#139=VECTOR('',#587,10.);
#140=VECTOR('',#590,10.);
#141=VECTOR('',#591,10.);
#142=VECTOR('',#592,10.);
#143=VECTOR('',#595,10.);
#144=VECTOR('',#598,10.);
#145=VECTOR('',#601,10.);
#146=VECTOR('',#604,10.);
#147=VECTOR('',#607,10.);
#148=VECTOR('',#610,10.);
#149=VECTOR('',#613,10.);
#150=VECTOR('',#618,10.);
#151=VECTOR('',#621,10.);
#152=VECTOR('',#624,10.);
#153=VECTOR('',#625,10.);
#154=VECTOR('',#630,10.);
#155=VECTOR('',#633,10.);
#156=VECTOR('',#634,10.);
#157=VECTOR('',#643,10.);
#158=VECTOR('',#644,10.);
#159=VECTOR('',#647,10.);
#160=VECTOR('',#648,10.);
#161=VECTOR('',#653,10.);
#162=VECTOR('',#654,10.);
#163=VECTOR('',#657,10.);
#164=VECTOR('',#658,10.);
#165=VECTOR('',#663,10.);
#166=VECTOR('',#666,10.);
#167=VECTOR('',#671,10.);
#168=VECTOR('',#674,10.);
#169=VECTOR('',#679,10.);
#170=VECTOR('',#682,10.);
#171=VECTOR('',#685,10.);
#172=VECTOR('',#686,10.);
#173=VECTOR('',#687,10.);
#174=VECTOR('',#690,10.);
#175=VECTOR('',#693,10.);
#176=VECTOR('',#696,10.);
#177=VECTOR('',#703,10.);
#178=VECTOR('',#706,10.);
#179=VECTOR('',#707,10.);
#180=VECTOR('',#712,10.);
#181=VECTOR('',#715,10.);
#182=VECTOR('',#716,10.);
#183=VECTOR('',#721,10.);
#184=VECTOR('',#724,10.);
#185=VECTOR('',#727,10.);
#186=CIRCLE('',#528,1.);
#187=CIRCLE('',#529,1.);
#188=CIRCLE('',#532,1.);
#189=CIRCLE('',#533,1.);
#190=CIRCLE('',#534,1.);
#191=CIRCLE('',#535,1.);
#192=CIRCLE('',#536,1.);
#193=CIRCLE('',#537,1.);
#194=CIRCLE('',#538,1.);
#195=CIRCLE('',#540,1.);
#196=CIRCLE('',#543,1.);
#197=CIRCLE('',#546,1.);
#198=CIRCLE('',#548,1.);
#199=CIRCLE('',#551,1.);
#200=CIRCLE('',#554,1.);
#201=CIRCLE('',#557,1.);
#202=CIRCLE('',#560,2.5);
#203=CIRCLE('',#561,2.5);
#204=CIRCLE('',#564,2.5);
#205=CIRCLE('',#565,2.5);
#206=CIRCLE('',#566,2.5);
#207=CIRCLE('',#568,2.5);
#208=CIRCLE('',#571,2.5);
#209=CIRCLE('',#574,2.5);
#210=VERTEX_POINT('',#732);
#211=VERTEX_POINT('',#733);
#212=VERTEX_POINT('',#735);
#213=VERTEX_POINT('',#737);
#214=VERTEX_POINT('',#741);
#215=VERTEX_POINT('',#743);
#216=VERTEX_POINT('',#747);
#217=VERTEX_POINT('',#749);
#218=VERTEX_POINT('',#751);
#219=VERTEX_POINT('',#753);
#220=VERTEX_POINT('',#755);
#221=VERTEX_POINT('',#758);
#222=VERTEX_POINT('',#759);
#223=VERTEX_POINT('',#761);
#224=VERTEX_POINT('',#763);
#225=VERTEX_POINT('',#765);
#226=VERTEX_POINT('',#767);
#227=VERTEX_POINT('',#769);
#228=VERTEX_POINT('',#771);
#229=VERTEX_POINT('',#775);
#230=VERTEX_POINT('',#777);
#231=VERTEX_POINT('',#781);
#232=VERTEX_POINT('',#785);
#233=VERTEX_POINT('',#789);
#234=VERTEX_POINT('',#795);
#235=VERTEX_POINT('',#796);
#236=VERTEX_POINT('',#801);
#237=VERTEX_POINT('',#805);
#238=VERTEX_POINT('',#806);
#239=VERTEX_POINT('',#811);
#240=VERTEX_POINT('',#815);
#241=VERTEX_POINT('',#821);
#242=VERTEX_POINT('',#827);
#243=VERTEX_POINT('',#828);
#244=VERTEX_POINT('',#830);
#245=VERTEX_POINT('',#832);
#246=VERTEX_POINT('',#836);
#247=VERTEX_POINT('',#838);
#248=VERTEX_POINT('',#842);
#249=VERTEX_POINT('',#844);
#250=VERTEX_POINT('',#846);
#251=VERTEX_POINT('',#848);
#252=VERTEX_POINT('',#850);
#253=VERTEX_POINT('',#854);
#254=VERTEX_POINT('',#858);
#255=VERTEX_POINT('',#862);
#256=VERTEX_POINT('',#866);
#257=VERTEX_POINT('',#870);
#258=EDGE_CURVE('',#210,#211,#186,.T.);
#259=EDGE_CURVE('',#211,#212,#90,.T.);
#260=EDGE_CURVE('',#212,#213,#187,.F.);
#261=EDGE_CURVE('',#213,#210,#91,.T.);
#262=EDGE_CURVE('',#214,#211,#92,.T.);
#263=EDGE_CURVE('',#215,#214,#93,.T.);
#264=EDGE_CURVE('',#212,#215,#94,.T.);
#265=EDGE_CURVE('',#210,#216,#95,.T.);
#266=EDGE_CURVE('',#217,#216,#188,.T.);
#267=EDGE_CURVE('',#217,#218,#96,.T.);
#268=EDGE_CURVE('',#219,#218,#189,.T.);
#269=EDGE_CURVE('',#219,#220,#97,.T.);
#270=EDGE_CURVE('',#214,#220,#190,.T.);
#271=EDGE_CURVE('',#221,#222,#98,.T.);
#272=EDGE_CURVE('',#223,#222,#191,.T.);
#273=EDGE_CURVE('',#223,#224,#99,.T.);
#274=EDGE_CURVE('',#225,#224,#192,.T.);
#275=EDGE_CURVE('',#225,#226,#100,.T.);
#276=EDGE_CURVE('',#227,#226,#193,.T.);
#277=EDGE_CURVE('',#227,#228,#101,.T.);
#278=EDGE_CURVE('',#221,#228,#194,.T.);
#279=EDGE_CURVE('',#216,#229,#102,.T.);
#280=EDGE_CURVE('',#229,#230,#195,.F.);
#281=EDGE_CURVE('',#230,#217,#103,.T.);
#282=EDGE_CURVE('',#231,#230,#104,.T.);
#283=EDGE_CURVE('',#218,#231,#105,.T.);
#284=EDGE_CURVE('',#231,#232,#196,.F.);
#285=EDGE_CURVE('',#232,#219,#106,.T.);
#286=EDGE_CURVE('',#233,#232,#107,.T.);
#287=EDGE_CURVE('',#220,#233,#108,.T.);
#288=EDGE_CURVE('',#233,#215,#197,.F.);
#289=EDGE_CURVE('',#234,#235,#198,.T.);
#290=EDGE_CURVE('',#235,#221,#109,.T.);
#291=EDGE_CURVE('',#228,#234,#110,.T.);
#292=EDGE_CURVE('',#236,#235,#111,.T.);
#293=EDGE_CURVE('',#222,#236,#112,.T.);
#294=EDGE_CURVE('',#237,#238,#199,.T.);
#295=EDGE_CURVE('',#238,#225,#113,.T.);
#296=EDGE_CURVE('',#224,#237,#114,.T.);
#297=EDGE_CURVE('',#239,#238,#115,.T.);
#298=EDGE_CURVE('',#226,#239,#116,.T.);
#299=EDGE_CURVE('',#236,#240,#200,.T.);
#300=EDGE_CURVE('',#240,#223,#117,.T.);
#301=EDGE_CURVE('',#237,#240,#118,.T.);
#302=EDGE_CURVE('',#239,#241,#201,.T.);
#303=EDGE_CURVE('',#241,#227,#119,.T.);
#304=EDGE_CURVE('',#234,#241,#120,.T.);
#305=EDGE_CURVE('',#242,#243,#202,.T.);
#306=EDGE_CURVE('',#243,#244,#121,.T.);
#307=EDGE_CURVE('',#244,#245,#203,.T.);
#308=EDGE_CURVE('',#245,#242,#122,.T.);
#309=EDGE_CURVE('',#246,#245,#123,.T.);
#310=EDGE_CURVE('',#247,#246,#124,.T.);
#311=EDGE_CURVE('',#242,#247,#125,.T.);
#312=EDGE_CURVE('',#244,#248,#126,.T.);
#313=EDGE_CURVE('',#249,#248,#204,.T.);
#314=EDGE_CURVE('',#249,#250,#127,.T.);
#315=EDGE_CURVE('',#251,#250,#205,.T.);
#316=EDGE_CURVE('',#251,#252,#128,.T.);
#317=EDGE_CURVE('',#246,#252,#206,.T.);
#318=EDGE_CURVE('',#253,#247,#207,.T.);
#319=EDGE_CURVE('',#252,#253,#129,.T.);
#320=EDGE_CURVE('',#254,#251,#130,.T.);
#321=EDGE_CURVE('',#253,#254,#131,.T.);
#322=EDGE_CURVE('',#255,#254,#208,.T.);
#323=EDGE_CURVE('',#250,#255,#132,.T.);
#324=EDGE_CURVE('',#256,#249,#133,.T.);
#325=EDGE_CURVE('',#255,#256,#134,.T.);
#326=EDGE_CURVE('',#257,#256,#209,.T.);
#327=EDGE_CURVE('',#248,#257,#135,.T.);
#328=EDGE_CURVE('',#229,#213,#136,.T.);
#329=EDGE_CURVE('',#257,#243,#137,.T.);
#330=ORIENTED_EDGE('',*,*,#258,.T.);
#331=ORIENTED_EDGE('',*,*,#259,.T.);
#332=ORIENTED_EDGE('',*,*,#260,.T.);
#333=ORIENTED_EDGE('',*,*,#261,.T.);
#334=ORIENTED_EDGE('',*,*,#259,.F.);
#335=ORIENTED_EDGE('',*,*,#262,.F.);
#336=ORIENTED_EDGE('',*,*,#263,.F.);
#337=ORIENTED_EDGE('',*,*,#264,.F.);
#338=ORIENTED_EDGE('',*,*,#258,.F.);
#339=ORIENTED_EDGE('',*,*,#265,.T.);
#340=ORIENTED_EDGE('',*,*,#266,.F.);
#341=ORIENTED_EDGE('',*,*,#267,.T.);
#342=ORIENTED_EDGE('',*,*,#268,.F.);
#343=ORIENTED_EDGE('',*,*,#269,.T.);
#344=ORIENTED_EDGE('',*,*,#270,.F.);
#345=ORIENTED_EDGE('',*,*,#262,.T.);
#346=ORIENTED_EDGE('',*,*,#271,.T.);
#347=ORIENTED_EDGE('',*,*,#272,.F.);
#348=ORIENTED_EDGE('',*,*,#273,.T.);
#349=ORIENTED_EDGE('',*,*,#274,.F.);
#350=ORIENTED_EDGE('',*,*,#275,.T.);
#351=ORIENTED_EDGE('',*,*,#276,.F.);
#352=ORIENTED_EDGE('',*,*,#277,.T.);
#353=ORIENTED_EDGE('',*,*,#278,.F.);
#354=ORIENTED_EDGE('',*,*,#266,.T.);
#355=ORIENTED_EDGE('',*,*,#279,.T.);
#356=ORIENTED_EDGE('',*,*,#280,.T.);
#357=ORIENTED_EDGE('',*,*,#281,.T.);
#358=ORIENTED_EDGE('',*,*,#281,.F.);
#359=ORIENTED_EDGE('',*,*,#282,.F.);
#360=ORIENTED_EDGE('',*,*,#283,.F.);
#361=ORIENTED_EDGE('',*,*,#267,.F.);
#362=ORIENTED_EDGE('',*,*,#268,.T.);
#363=ORIENTED_EDGE('',*,*,#283,.T.);
#364=ORIENTED_EDGE('',*,*,#284,.T.);
#365=ORIENTED_EDGE('',*,*,#285,.T.);
#366=ORIENTED_EDGE('',*,*,#285,.F.);
#367=ORIENTED_EDGE('',*,*,#286,.F.);
#368=ORIENTED_EDGE('',*,*,#287,.F.);
#369=ORIENTED_EDGE('',*,*,#269,.F.);
#370=ORIENTED_EDGE('',*,*,#270,.T.);
#371=ORIENTED_EDGE('',*,*,#287,.T.);
#372=ORIENTED_EDGE('',*,*,#288,.T.);
#373=ORIENTED_EDGE('',*,*,#263,.T.);
#374=ORIENTED_EDGE('',*,*,#289,.T.);
#375=ORIENTED_EDGE('',*,*,#290,.T.);
#376=ORIENTED_EDGE('',*,*,#278,.T.);
#377=ORIENTED_EDGE('',*,*,#291,.T.);
#378=ORIENTED_EDGE('',*,*,#290,.F.);
#379=ORIENTED_EDGE('',*,*,#292,.F.);
#380=ORIENTED_EDGE('',*,*,#293,.F.);
#381=ORIENTED_EDGE('',*,*,#271,.F.);
#382=ORIENTED_EDGE('',*,*,#294,.T.);
#383=ORIENTED_EDGE('',*,*,#295,.T.);
#384=ORIENTED_EDGE('',*,*,#274,.T.);
#385=ORIENTED_EDGE('',*,*,#296,.T.);
#386=ORIENTED_EDGE('',*,*,#295,.F.);
#387=ORIENTED_EDGE('',*,*,#297,.F.);
#388=ORIENTED_EDGE('',*,*,#298,.F.);
#389=ORIENTED_EDGE('',*,*,#275,.F.);
#390=ORIENTED_EDGE('',*,*,#299,.T.);
#391=ORIENTED_EDGE('',*,*,#300,.T.);
#392=ORIENTED_EDGE('',*,*,#272,.T.);
#393=ORIENTED_EDGE('',*,*,#293,.T.);
#394=ORIENTED_EDGE('',*,*,#296,.F.);
#395=ORIENTED_EDGE('',*,*,#273,.F.);
#396=ORIENTED_EDGE('',*,*,#300,.F.);
#397=ORIENTED_EDGE('',*,*,#301,.F.);
#398=ORIENTED_EDGE('',*,*,#302,.T.);
#399=ORIENTED_EDGE('',*,*,#303,.T.);
#400=ORIENTED_EDGE('',*,*,#276,.T.);
#401=ORIENTED_EDGE('',*,*,#298,.T.);
#402=ORIENTED_EDGE('',*,*,#291,.F.);
#403=ORIENTED_EDGE('',*,*,#277,.F.);
#404=ORIENTED_EDGE('',*,*,#303,.F.);
#405=ORIENTED_EDGE('',*,*,#304,.F.);
#406=ORIENTED_EDGE('',*,*,#305,.T.);
#407=ORIENTED_EDGE('',*,*,#306,.T.);
#408=ORIENTED_EDGE('',*,*,#307,.T.);
#409=ORIENTED_EDGE('',*,*,#308,.T.);
#410=ORIENTED_EDGE('',*,*,#308,.F.);
#411=ORIENTED_EDGE('',*,*,#309,.F.);
#412=ORIENTED_EDGE('',*,*,#310,.F.);
#413=ORIENTED_EDGE('',*,*,#311,.F.);
#414=ORIENTED_EDGE('',*,*,#307,.F.);
#415=ORIENTED_EDGE('',*,*,#312,.T.);
#416=ORIENTED_EDGE('',*,*,#313,.F.);
#417=ORIENTED_EDGE('',*,*,#314,.T.);
#418=ORIENTED_EDGE('',*,*,#315,.F.);
#419=ORIENTED_EDGE('',*,*,#316,.T.);
#420=ORIENTED_EDGE('',*,*,#317,.F.);
#421=ORIENTED_EDGE('',*,*,#309,.T.);
#422=ORIENTED_EDGE('',*,*,#292,.T.);
#423=ORIENTED_EDGE('',*,*,#289,.F.);
#424=ORIENTED_EDGE('',*,*,#304,.T.);
#425=ORIENTED_EDGE('',*,*,#302,.F.);
#426=ORIENTED_EDGE('',*,*,#297,.T.);
#427=ORIENTED_EDGE('',*,*,#294,.F.);
#428=ORIENTED_EDGE('',*,*,#301,.T.);
#429=ORIENTED_EDGE('',*,*,#299,.F.);
#430=ORIENTED_EDGE('',*,*,#318,.T.);
#431=ORIENTED_EDGE('',*,*,#310,.T.);
#432=ORIENTED_EDGE('',*,*,#317,.T.);
#433=ORIENTED_EDGE('',*,*,#319,.T.);
#434=ORIENTED_EDGE('',*,*,#319,.F.);
#435=ORIENTED_EDGE('',*,*,#316,.F.);
#436=ORIENTED_EDGE('',*,*,#320,.F.);
#437=ORIENTED_EDGE('',*,*,#321,.F.);
#438=ORIENTED_EDGE('',*,*,#322,.T.);
#439=ORIENTED_EDGE('',*,*,#320,.T.);
#440=ORIENTED_EDGE('',*,*,#315,.T.);
#441=ORIENTED_EDGE('',*,*,#323,.T.);
#442=ORIENTED_EDGE('',*,*,#323,.F.);
#443=ORIENTED_EDGE('',*,*,#314,.F.);
#444=ORIENTED_EDGE('',*,*,#324,.F.);
#445=ORIENTED_EDGE('',*,*,#325,.F.);
#446=ORIENTED_EDGE('',*,*,#326,.T.);
#447=ORIENTED_EDGE('',*,*,#324,.T.);
#448=ORIENTED_EDGE('',*,*,#313,.T.);
#449=ORIENTED_EDGE('',*,*,#327,.T.);
#450=ORIENTED_EDGE('',*,*,#261,.F.);
#451=ORIENTED_EDGE('',*,*,#328,.F.);
#452=ORIENTED_EDGE('',*,*,#279,.F.);
#453=ORIENTED_EDGE('',*,*,#265,.F.);
#454=ORIENTED_EDGE('',*,*,#306,.F.);
#455=ORIENTED_EDGE('',*,*,#329,.F.);
#456=ORIENTED_EDGE('',*,*,#327,.F.);
#457=ORIENTED_EDGE('',*,*,#312,.F.);
#458=ORIENTED_EDGE('',*,*,#305,.F.);
#459=ORIENTED_EDGE('',*,*,#311,.T.);
#460=ORIENTED_EDGE('',*,*,#318,.F.);
#461=ORIENTED_EDGE('',*,*,#321,.T.);
#462=ORIENTED_EDGE('',*,*,#322,.F.);
#463=ORIENTED_EDGE('',*,*,#325,.T.);
#464=ORIENTED_EDGE('',*,*,#326,.F.);
#465=ORIENTED_EDGE('',*,*,#329,.T.);
#466=ORIENTED_EDGE('',*,*,#286,.T.);
#467=ORIENTED_EDGE('',*,*,#284,.F.);
#468=ORIENTED_EDGE('',*,*,#282,.T.);
#469=ORIENTED_EDGE('',*,*,#280,.F.);
#470=ORIENTED_EDGE('',*,*,#328,.T.);
#471=ORIENTED_EDGE('',*,*,#260,.F.);
#472=ORIENTED_EDGE('',*,*,#264,.T.);
#473=ORIENTED_EDGE('',*,*,#288,.F.);
#474=CYLINDRICAL_SURFACE('',#527,1.);
#475=CYLINDRICAL_SURFACE('',#539,1.);
#476=CYLINDRICAL_SURFACE('',#542,1.);
#477=CYLINDRICAL_SURFACE('',#545,1.);
#478=CYLINDRICAL_SURFACE('',#547,1.);
#479=CYLINDRICAL_SURFACE('',#550,1.);
#480=CYLINDRICAL_SURFACE('',#553,1.);
#481=CYLINDRICAL_SURFACE('',#556,1.);
#482=CYLINDRICAL_SURFACE('',#559,2.5);
#483=CYLINDRICAL_SURFACE('',#567,2.5);
#484=CYLINDRICAL_SURFACE('',#570,2.5);
#485=CYLINDRICAL_SURFACE('',#573,2.5);
#486=ADVANCED_FACE('',(#33),#474,.T.);
#487=ADVANCED_FACE('',(#34),#18,.T.);
#488=ADVANCED_FACE('',(#35,#15),#19,.T.);
#489=ADVANCED_FACE('',(#36),#475,.T.);
#490=ADVANCED_FACE('',(#37),#20,.T.);
#491=ADVANCED_FACE('',(#38),#476,.T.);
#492=ADVANCED_FACE('',(#39),#21,.T.);
#493=ADVANCED_FACE('',(#40),#477,.T.);
#494=ADVANCED_FACE('',(#41),#478,.F.);
#495=ADVANCED_FACE('',(#42),#22,.T.);
#496=ADVANCED_FACE('',(#43),#479,.F.);
#497=ADVANCED_FACE('',(#44),#23,.T.);
#498=ADVANCED_FACE('',(#45),#480,.F.);
#499=ADVANCED_FACE('',(#46),#24,.T.);
#500=ADVANCED_FACE('',(#47),#481,.F.);
#501=ADVANCED_FACE('',(#48),#25,.T.);
#502=ADVANCED_FACE('',(#49),#482,.T.);
#503=ADVANCED_FACE('',(#50),#26,.T.);
#504=ADVANCED_FACE('',(#51,#16),#27,.T.);
#505=ADVANCED_FACE('',(#52),#483,.T.);
#506=ADVANCED_FACE('',(#53),#28,.T.);
#507=ADVANCED_FACE('',(#54),#484,.T.);
#508=ADVANCED_FACE('',(#55),#29,.T.);
#509=ADVANCED_FACE('',(#56),#485,.T.);
#510=ADVANCED_FACE('',(#57),#30,.T.);
#511=ADVANCED_FACE('',(#58),#31,.T.);
#512=ADVANCED_FACE('',(#59,#17),#32,.T.);
#513=CLOSED_SHELL('',(#486,#487,#488,#489,#490,#491,#492,#493,#494,#495,
#496,#497,#498,#499,#500,#501,#502,#503,#504,#505,#506,#507,#508,#509,#510,
#511,#512));
#514=DERIVED_UNIT_ELEMENT(#516,1.);
#515=DERIVED_UNIT_ELEMENT(#883,-3.);
#516=(
MASS_UNIT()
NAMED_UNIT(*)
SI_UNIT(.KILO.,.GRAM.)
);
#517=DERIVED_UNIT((#514,#515));
#518=MEASURE_REPRESENTATION_ITEM('density measure',
POSITIVE_RATIO_MEASURE(7850.),#517);
#519=PROPERTY_DEFINITION_REPRESENTATION(#524,#521);
#520=PROPERTY_DEFINITION_REPRESENTATION(#525,#522);
#521=REPRESENTATION('material name',(#523),#880);
#522=REPRESENTATION('density',(#518),#880);
#523=DESCRIPTIVE_REPRESENTATION_ITEM('Steel','Steel');
#524=PROPERTY_DEFINITION('material property','material name',#890);
#525=PROPERTY_DEFINITION('material property','density of part',#890);
#526=AXIS2_PLACEMENT_3D('',#730,#578,#579);
#527=AXIS2_PLACEMENT_3D('',#731,#580,#581);
#528=AXIS2_PLACEMENT_3D('',#734,#582,#583);
#529=AXIS2_PLACEMENT_3D('',#738,#585,#586);
#530=AXIS2_PLACEMENT_3D('',#740,#588,#589);
#531=AXIS2_PLACEMENT_3D('',#746,#593,#594);
#532=AXIS2_PLACEMENT_3D('',#750,#596,#597);
#533=AXIS2_PLACEMENT_3D('',#754,#599,#600);
#534=AXIS2_PLACEMENT_3D('',#757,#602,#603);
#535=AXIS2_PLACEMENT_3D('',#762,#605,#606);
#536=AXIS2_PLACEMENT_3D('',#766,#608,#609);
#537=AXIS2_PLACEMENT_3D('',#770,#611,#612);
#538=AXIS2_PLACEMENT_3D('',#773,#614,#615);
#539=AXIS2_PLACEMENT_3D('',#774,#616,#617);
#540=AXIS2_PLACEMENT_3D('',#778,#619,#620);
#541=AXIS2_PLACEMENT_3D('',#780,#622,#623);
#542=AXIS2_PLACEMENT_3D('',#784,#626,#627);
#543=AXIS2_PLACEMENT_3D('',#786,#628,#629);
#544=AXIS2_PLACEMENT_3D('',#788,#631,#632);
#545=AXIS2_PLACEMENT_3D('',#792,#635,#636);
#546=AXIS2_PLACEMENT_3D('',#793,#637,#638);
#547=AXIS2_PLACEMENT_3D('',#794,#639,#640);
#548=AXIS2_PLACEMENT_3D('',#797,#641,#642);
#549=AXIS2_PLACEMENT_3D('',#800,#645,#646);
#550=AXIS2_PLACEMENT_3D('',#804,#649,#650);
#551=AXIS2_PLACEMENT_3D('',#807,#651,#652);
#552=AXIS2_PLACEMENT_3D('',#810,#655,#656);
#553=AXIS2_PLACEMENT_3D('',#814,#659,#660);
#554=AXIS2_PLACEMENT_3D('',#816,#661,#662);
#555=AXIS2_PLACEMENT_3D('',#818,#664,#665);
#556=AXIS2_PLACEMENT_3D('',#820,#667,#668);
#557=AXIS2_PLACEMENT_3D('',#822,#669,#670);
#558=AXIS2_PLACEMENT_3D('',#824,#672,#673);
#559=AXIS2_PLACEMENT_3D('',#826,#675,#676);
#560=AXIS2_PLACEMENT_3D('',#829,#677,#678);
#561=AXIS2_PLACEMENT_3D('',#833,#680,#681);
#562=AXIS2_PLACEMENT_3D('',#835,#683,#684);
#563=AXIS2_PLACEMENT_3D('',#841,#688,#689);
#564=AXIS2_PLACEMENT_3D('',#845,#691,#692);
#565=AXIS2_PLACEMENT_3D('',#849,#694,#695);
#566=AXIS2_PLACEMENT_3D('',#852,#697,#698);
#567=AXIS2_PLACEMENT_3D('',#853,#699,#700);
#568=AXIS2_PLACEMENT_3D('',#855,#701,#702);
#569=AXIS2_PLACEMENT_3D('',#857,#704,#705);
#570=AXIS2_PLACEMENT_3D('',#861,#708,#709);
#571=AXIS2_PLACEMENT_3D('',#863,#710,#711);
#572=AXIS2_PLACEMENT_3D('',#865,#713,#714);
#573=AXIS2_PLACEMENT_3D('',#869,#717,#718);
#574=AXIS2_PLACEMENT_3D('',#871,#719,#720);
#575=AXIS2_PLACEMENT_3D('',#873,#722,#723);
#576=AXIS2_PLACEMENT_3D('',#875,#725,#726);
#577=AXIS2_PLACEMENT_3D('',#877,#728,#729);
#578=DIRECTION('axis',(0.,0.,1.));
#579=DIRECTION('refdir',(1.,0.,0.));
#580=DIRECTION('center_axis',(0.,0.,-1.));
#581=DIRECTION('ref_axis',(0.707106781186548,0.707106781186548,0.));
#582=DIRECTION('center_axis',(0.,0.,1.));
#583=DIRECTION('ref_axis',(0.707106781186548,0.707106781186548,0.));
#584=DIRECTION('',(0.,0.,1.));
#585=DIRECTION('center_axis',(0.,0.,1.));
#586=DIRECTION('ref_axis',(0.707106781186548,0.707106781186548,0.));
#587=DIRECTION('',(0.,0.,-1.));
#588=DIRECTION('center_axis',(3.41607084500048E-16,1.,0.));
#589=DIRECTION('ref_axis',(1.,-3.41607084500048E-16,0.));
#590=DIRECTION('',(1.,-3.41607084500048E-16,0.));
#591=DIRECTION('',(0.,0.,-1.));
#592=DIRECTION('',(-1.,3.41607084500048E-16,0.));
#593=DIRECTION('center_axis',(0.,0.,-1.));
#594=DIRECTION('ref_axis',(-1.,0.,0.));
#595=DIRECTION('',(-2.96059473233375E-16,-1.,0.));
#596=DIRECTION('center_axis',(0.,0.,1.));
#597=DIRECTION('ref_axis',(0.707106781186548,-0.707106781186548,0.));
#598=DIRECTION('',(-1.,3.41607084500048E-16,0.));
#599=DIRECTION('center_axis',(0.,0.,1.));
#600=DIRECTION('ref_axis',(-0.707106781186549,-0.707106781186546,0.));
#601=DIRECTION('',(3.70074341541719E-16,1.,0.));
#602=DIRECTION('center_axis',(0.,0.,1.));
#603=DIRECTION('ref_axis',(-0.707106781186548,0.707106781186548,0.));
#604=DIRECTION('',(7.93016446160826E-17,1.,0.));
#605=DIRECTION('center_axis',(0.,0.,-1.));
#606=DIRECTION('ref_axis',(0.707106781186548,0.707106781186548,0.));
#607=DIRECTION('',(-1.,-9.25185853854297E-17,0.));
#608=DIRECTION('center_axis',(0.,0.,-1.));
#609=DIRECTION('ref_axis',(-0.707106781186548,0.707106781186548,0.));
#610=DIRECTION('',(-2.37904933848248E-16,-1.,0.));
#611=DIRECTION('center_axis',(0.,0.,-1.));
#612=DIRECTION('ref_axis',(-0.707106781186548,-0.707106781186548,0.));
#613=DIRECTION('',(1.,0.,0.));
#614=DIRECTION('center_axis',(0.,0.,-1.));
#615=DIRECTION('ref_axis',(0.707106781186548,-0.707106781186548,0.));
#616=DIRECTION('center_axis',(0.,0.,-1.));
#617=DIRECTION('ref_axis',(0.707106781186548,-0.707106781186548,0.));
#618=DIRECTION('',(0.,0.,1.));
#619=DIRECTION('center_axis',(0.,0.,1.));
#620=DIRECTION('ref_axis',(0.707106781186548,-0.707106781186548,0.));
#621=DIRECTION('',(0.,0.,-1.));
#622=DIRECTION('center_axis',(-3.41607084500048E-16,-1.,0.));
#623=DIRECTION('ref_axis',(-1.,3.41607084500048E-16,0.));
#624=DIRECTION('',(1.,-3.41607084500048E-16,0.));
#625=DIRECTION('',(0.,0.,1.));
#626=DIRECTION('center_axis',(0.,0.,-1.));
#627=DIRECTION('ref_axis',(-0.707106781186549,-0.707106781186546,0.));
#628=DIRECTION('center_axis',(0.,0.,1.));
#629=DIRECTION('ref_axis',(-0.707106781186549,-0.707106781186546,0.));
#630=DIRECTION('',(0.,0.,-1.));
#631=DIRECTION('center_axis',(-1.,3.70074341541719E-16,0.));
#632=DIRECTION('ref_axis',(3.70074341541719E-16,1.,0.));
#633=DIRECTION('',(-3.70074341541719E-16,-1.,0.));
#634=DIRECTION('',(0.,0.,1.));
#635=DIRECTION('center_axis',(0.,0.,-1.));
#636=DIRECTION('ref_axis',(-0.707106781186548,0.707106781186548,0.));
#637=DIRECTION('center_axis',(0.,0.,1.));
#638=DIRECTION('ref_axis',(-0.707106781186548,0.707106781186548,0.));
#639=DIRECTION('center_axis',(0.,0.,-1.));
#640=DIRECTION('ref_axis',(0.707106781186548,-0.707106781186548,0.));
#641=DIRECTION('center_axis',(0.,0.,1.));
#642=DIRECTION('ref_axis',(0.707106781186548,-0.707106781186548,0.));
#643=DIRECTION('',(0.,0.,-1.));
#644=DIRECTION('',(0.,0.,1.));
#645=DIRECTION('center_axis',(-1.,7.93016446160826E-17,0.));
#646=DIRECTION('ref_axis',(7.93016446160826E-17,1.,0.));
#647=DIRECTION('',(-7.93016446160826E-17,-1.,0.));
#648=DIRECTION('',(0.,0.,1.));
#649=DIRECTION('center_axis',(0.,0.,-1.));
#650=DIRECTION('ref_axis',(-0.707106781186548,0.707106781186548,0.));
#651=DIRECTION('center_axis',(0.,0.,1.));
#652=DIRECTION('ref_axis',(-0.707106781186548,0.707106781186548,0.));
#653=DIRECTION('',(0.,0.,-1.));
#654=DIRECTION('',(0.,0.,1.));
#655=DIRECTION('center_axis',(1.,-2.37904933848248E-16,0.));
#656=DIRECTION('ref_axis',(-2.37904933848248E-16,-1.,0.));
#657=DIRECTION('',(2.37904933848248E-16,1.,0.));
#658=DIRECTION('',(0.,0.,1.));
#659=DIRECTION('center_axis',(0.,0.,-1.));
#660=DIRECTION('ref_axis',(0.707106781186548,0.707106781186548,0.));
#661=DIRECTION('center_axis',(0.,0.,1.));
#662=DIRECTION('ref_axis',(0.707106781186548,0.707106781186548,0.));
#663=DIRECTION('',(0.,0.,-1.));
#664=DIRECTION('center_axis',(9.25185853854297E-17,-1.,0.));
#665=DIRECTION('ref_axis',(-1.,-9.25185853854297E-17,0.));
#666=DIRECTION('',(1.,9.25185853854297E-17,0.));
#667=DIRECTION('center_axis',(0.,0.,-1.));
#668=DIRECTION('ref_axis',(-0.707106781186548,-0.707106781186548,0.));
#669=DIRECTION('center_axis',(0.,0.,1.));
#670=DIRECTION('ref_axis',(-0.707106781186548,-0.707106781186548,0.));
#671=DIRECTION('',(0.,0.,-1.));
#672=DIRECTION('center_axis',(0.,1.,0.));
#673=DIRECTION('ref_axis',(1.,0.,0.));
#674=DIRECTION('',(-1.,0.,0.));
#675=DIRECTION('center_axis',(0.,0.,-1.));
#676=DIRECTION('ref_axis',(0.707106781186547,0.707106781186547,0.));
#677=DIRECTION('center_axis',(0.,0.,1.));
#678=DIRECTION('ref_axis',(0.707106781186547,0.707106781186547,0.));
#679=DIRECTION('',(0.,0.,1.));
#680=DIRECTION('center_axis',(0.,0.,-1.));
#681=DIRECTION('ref_axis',(0.707106781186547,0.707106781186547,0.));
#682=DIRECTION('',(0.,0.,-1.));
#683=DIRECTION('center_axis',(1.,0.,0.));
#684=DIRECTION('ref_axis',(0.,-1.,0.));
#685=DIRECTION('',(0.,1.,0.));
#686=DIRECTION('',(0.,0.,1.));
#687=DIRECTION('',(0.,-1.,0.));
#688=DIRECTION('center_axis',(0.,0.,1.));
#689=DIRECTION('ref_axis',(1.,0.,0.));
#690=DIRECTION('',(-1.,0.,0.));
#691=DIRECTION('center_axis',(0.,0.,-1.));
#692=DIRECTION('ref_axis',(-0.707106781186547,0.707106781186547,0.));
#693=DIRECTION('',(0.,-1.,0.));
#694=DIRECTION('center_axis',(0.,0.,-1.));
#695=DIRECTION('ref_axis',(-0.707106781186547,-0.707106781186547,0.));
#696=DIRECTION('',(1.,0.,0.));
#697=DIRECTION('center_axis',(0.,0.,-1.));
#698=DIRECTION('ref_axis',(0.707106781186547,-0.707106781186547,0.));
#699=DIRECTION('center_axis',(0.,0.,-1.));
#700=DIRECTION('ref_axis',(0.707106781186547,-0.707106781186547,0.));
#701=DIRECTION('center_axis',(0.,0.,1.));
#702=DIRECTION('ref_axis',(0.707106781186547,-0.707106781186547,0.));
#703=DIRECTION('',(0.,0.,-1.));
#704=DIRECTION('center_axis',(0.,-1.,0.));
#705=DIRECTION('ref_axis',(-1.,0.,0.));
#706=DIRECTION('',(0.,0.,1.));
#707=DIRECTION('',(-1.,0.,0.));
#708=DIRECTION('center_axis',(0.,0.,-1.));
#709=DIRECTION('ref_axis',(-0.707106781186547,-0.707106781186547,0.));
#710=DIRECTION('center_axis',(0.,0.,1.));
#711=DIRECTION('ref_axis',(-0.707106781186547,-0.707106781186547,0.));
#712=DIRECTION('',(0.,0.,-1.));
#713=DIRECTION('center_axis',(-1.,0.,0.));
#714=DIRECTION('ref_axis',(0.,1.,0.));
#715=DIRECTION('',(0.,0.,1.));
#716=DIRECTION('',(0.,1.,0.));
#717=DIRECTION('center_axis',(0.,0.,-1.));
#718=DIRECTION('ref_axis',(-0.707106781186547,0.707106781186547,0.));
#719=DIRECTION('center_axis',(0.,0.,1.));
#720=DIRECTION('ref_axis',(-0.707106781186547,0.707106781186547,0.));
#721=DIRECTION('',(0.,0.,-1.));
#722=DIRECTION('center_axis',(1.,-2.96059473233375E-16,0.));
#723=DIRECTION('ref_axis',(-2.96059473233375E-16,-1.,0.));
#724=DIRECTION('',(2.96059473233375E-16,1.,0.));
#725=DIRECTION('center_axis',(0.,1.,0.));
#726=DIRECTION('ref_axis',(1.,0.,0.));
#727=DIRECTION('',(1.,0.,0.));
#728=DIRECTION('center_axis',(0.,0.,-1.));
#729=DIRECTION('ref_axis',(-1.,0.,0.));
#730=CARTESIAN_POINT('',(0.,0.,0.));
#731=CARTESIAN_POINT('Origin',(12.0000000000004,14.0000000000009,0.));
#732=CARTESIAN_POINT('',(13.0000000000004,14.0000000000009,-3.));
#733=CARTESIAN_POINT('',(12.0000000000004,15.0000000000009,-3.));
#734=CARTESIAN_POINT('Origin',(12.0000000000004,14.0000000000009,-3.));
#735=CARTESIAN_POINT('',(12.0000000000004,15.0000000000009,-1.));
#736=CARTESIAN_POINT('',(12.0000000000004,15.0000000000009,0.));
#737=CARTESIAN_POINT('',(13.0000000000004,14.0000000000009,-1.));
#738=CARTESIAN_POINT('Origin',(12.0000000000004,14.0000000000009,-1.));
#739=CARTESIAN_POINT('',(13.0000000000004,14.0000000000009,0.));
#740=CARTESIAN_POINT('Origin',(-12.9999999999996,15.0000000000009,0.));
#741=CARTESIAN_POINT('',(-11.9999999999996,15.0000000000009,-3.));
#742=CARTESIAN_POINT('',(13.0000000000004,15.0000000000009,-3.));
#743=CARTESIAN_POINT('',(-11.9999999999996,15.0000000000009,-1.));
#744=CARTESIAN_POINT('',(-11.9999999999996,15.0000000000009,0.));
#745=CARTESIAN_POINT('',(13.0000000000004,15.0000000000009,-1.));
#746=CARTESIAN_POINT('Origin',(4.01900734914307E-13,9.17044218340379E-13,
-3.));
#747=CARTESIAN_POINT('',(13.0000000000004,-13.9999999999991,-3.));
#748=CARTESIAN_POINT('',(13.0000000000004,-14.9999999999991,-3.));
#749=CARTESIAN_POINT('',(12.0000000000004,-14.9999999999991,-3.));
#750=CARTESIAN_POINT('Origin',(12.0000000000004,-13.9999999999991,-3.));
#751=CARTESIAN_POINT('',(-11.9999999999996,-14.9999999999991,-3.));
#752=CARTESIAN_POINT('',(-12.9999999999996,-14.9999999999991,-3.));
#753=CARTESIAN_POINT('',(-12.9999999999996,-13.9999999999991,-3.));
#754=CARTESIAN_POINT('Origin',(-11.9999999999996,-13.9999999999991,-3.));
#755=CARTESIAN_POINT('',(-12.9999999999996,14.0000000000009,-3.));
#756=CARTESIAN_POINT('',(-12.9999999999996,15.0000000000009,-3.));
#757=CARTESIAN_POINT('Origin',(-11.9999999999996,14.0000000000009,-3.));
#758=CARTESIAN_POINT('',(12.0000000000004,-12.9999999999991,-3.));
#759=CARTESIAN_POINT('',(12.0000000000004,13.0000000000009,-3.));
#760=CARTESIAN_POINT('',(12.0000000000004,-13.9999999999991,-3.));
#761=CARTESIAN_POINT('',(11.0000000000004,14.0000000000009,-3.));
#762=CARTESIAN_POINT('Origin',(11.0000000000004,13.0000000000009,-3.));
#763=CARTESIAN_POINT('',(-10.9999999999996,14.0000000000009,-3.));
#764=CARTESIAN_POINT('',(12.0000000000004,14.0000000000009,-3.));
#765=CARTESIAN_POINT('',(-11.9999999999996,13.0000000000009,-3.));
#766=CARTESIAN_POINT('Origin',(-10.9999999999996,13.0000000000009,-3.));
#767=CARTESIAN_POINT('',(-11.9999999999996,-12.9999999999991,-3.));
#768=CARTESIAN_POINT('',(-11.9999999999996,14.0000000000009,-3.));
#769=CARTESIAN_POINT('',(-10.9999999999996,-13.9999999999991,-3.));
#770=CARTESIAN_POINT('Origin',(-10.9999999999996,-12.9999999999991,-3.));
#771=CARTESIAN_POINT('',(11.0000000000004,-13.9999999999991,-3.));
#772=CARTESIAN_POINT('',(-11.9999999999996,-13.9999999999991,-3.));
#773=CARTESIAN_POINT('Origin',(11.0000000000004,-12.9999999999991,-3.));
#774=CARTESIAN_POINT('Origin',(12.0000000000004,-13.9999999999991,0.));
#775=CARTESIAN_POINT('',(13.0000000000004,-13.9999999999991,-1.));
#776=CARTESIAN_POINT('',(13.0000000000004,-13.9999999999991,0.));
#777=CARTESIAN_POINT('',(12.0000000000004,-14.9999999999991,-1.));
#778=CARTESIAN_POINT('Origin',(12.0000000000004,-13.9999999999991,-1.));
#779=CARTESIAN_POINT('',(12.0000000000004,-14.9999999999991,0.));
#780=CARTESIAN_POINT('Origin',(13.0000000000004,-14.9999999999991,0.));
#781=CARTESIAN_POINT('',(-11.9999999999996,-14.9999999999991,-1.));
#782=CARTESIAN_POINT('',(-12.9999999999996,-14.9999999999991,-1.));
#783=CARTESIAN_POINT('',(-11.9999999999996,-14.9999999999991,0.));
#784=CARTESIAN_POINT('Origin',(-11.9999999999996,-13.9999999999991,0.));
#785=CARTESIAN_POINT('',(-12.9999999999996,-13.9999999999991,-1.));
#786=CARTESIAN_POINT('Origin',(-11.9999999999996,-13.9999999999991,-1.));
#787=CARTESIAN_POINT('',(-12.9999999999996,-13.9999999999991,0.));
#788=CARTESIAN_POINT('Origin',(-12.9999999999996,-14.9999999999991,0.));
#789=CARTESIAN_POINT('',(-12.9999999999996,14.0000000000009,-1.));
#790=CARTESIAN_POINT('',(-12.9999999999996,15.0000000000009,-1.));
#791=CARTESIAN_POINT('',(-12.9999999999996,14.0000000000009,0.));
#792=CARTESIAN_POINT('Origin',(-11.9999999999996,14.0000000000009,0.));
#793=CARTESIAN_POINT('Origin',(-11.9999999999996,14.0000000000009,-1.));
#794=CARTESIAN_POINT('Origin',(11.0000000000004,-12.9999999999991,0.));
#795=CARTESIAN_POINT('',(11.0000000000004,-13.9999999999991,0.));
#796=CARTESIAN_POINT('',(12.0000000000004,-12.9999999999991,0.));
#797=CARTESIAN_POINT('Origin',(11.0000000000004,-12.9999999999991,0.));
#798=CARTESIAN_POINT('',(12.0000000000004,-12.9999999999991,0.));
#799=CARTESIAN_POINT('',(11.0000000000004,-13.9999999999991,0.));
#800=CARTESIAN_POINT('Origin',(12.0000000000004,-13.9999999999991,0.));
#801=CARTESIAN_POINT('',(12.0000000000004,13.0000000000009,0.));
#802=CARTESIAN_POINT('',(12.0000000000004,-13.9999999999991,0.));
#803=CARTESIAN_POINT('',(12.0000000000004,13.0000000000009,0.));
#804=CARTESIAN_POINT('Origin',(-10.9999999999996,13.0000000000009,0.));
#805=CARTESIAN_POINT('',(-10.9999999999996,14.0000000000009,0.));
#806=CARTESIAN_POINT('',(-11.9999999999996,13.0000000000009,0.));
#807=CARTESIAN_POINT('Origin',(-10.9999999999996,13.0000000000009,0.));
#808=CARTESIAN_POINT('',(-11.9999999999996,13.0000000000009,0.));
#809=CARTESIAN_POINT('',(-10.9999999999996,14.0000000000009,0.));
#810=CARTESIAN_POINT('Origin',(-11.9999999999996,14.0000000000009,0.));
#811=CARTESIAN_POINT('',(-11.9999999999996,-12.9999999999991,0.));
#812=CARTESIAN_POINT('',(-11.9999999999996,14.0000000000009,0.));
#813=CARTESIAN_POINT('',(-11.9999999999996,-12.9999999999991,0.));
#814=CARTESIAN_POINT('Origin',(11.0000000000004,13.0000000000009,0.));
#815=CARTESIAN_POINT('',(11.0000000000004,14.0000000000009,0.));
#816=CARTESIAN_POINT('Origin',(11.0000000000004,13.0000000000009,0.));
#817=CARTESIAN_POINT('',(11.0000000000004,14.0000000000009,0.));
#818=CARTESIAN_POINT('Origin',(12.0000000000004,14.0000000000009,0.));
#819=CARTESIAN_POINT('',(12.0000000000004,14.0000000000009,0.));
#820=CARTESIAN_POINT('Origin',(-10.9999999999996,-12.9999999999991,0.));
#821=CARTESIAN_POINT('',(-10.9999999999996,-13.9999999999991,0.));
#822=CARTESIAN_POINT('Origin',(-10.9999999999996,-12.9999999999991,0.));
#823=CARTESIAN_POINT('',(-10.9999999999996,-13.9999999999991,0.));
#824=CARTESIAN_POINT('Origin',(-11.9999999999996,-13.9999999999991,0.));
#825=CARTESIAN_POINT('',(-11.9999999999996,-13.9999999999991,0.));
#826=CARTESIAN_POINT('Origin',(14.25,16.25,0.));
#827=CARTESIAN_POINT('',(16.75,16.25,-1.));
#828=CARTESIAN_POINT('',(14.25,18.75,-1.));
#829=CARTESIAN_POINT('Origin',(14.25,16.25,-1.));
#830=CARTESIAN_POINT('',(14.25,18.75,0.));
#831=CARTESIAN_POINT('',(14.25,18.75,0.));
#832=CARTESIAN_POINT('',(16.75,16.25,0.));
#833=CARTESIAN_POINT('Origin',(14.25,16.25,0.));
#834=CARTESIAN_POINT('',(16.75,16.25,0.));
#835=CARTESIAN_POINT('Origin',(16.75,18.75,0.));
#836=CARTESIAN_POINT('',(16.75,-16.25,0.));
#837=CARTESIAN_POINT('',(16.75,-18.75,0.));
#838=CARTESIAN_POINT('',(16.75,-16.25,-1.));
#839=CARTESIAN_POINT('',(16.75,-16.25,0.));
#840=CARTESIAN_POINT('',(16.75,-18.75,-1.));
#841=CARTESIAN_POINT('Origin',(0.,0.,0.));
#842=CARTESIAN_POINT('',(-14.25,18.75,0.));
#843=CARTESIAN_POINT('',(16.75,18.75,0.));
#844=CARTESIAN_POINT('',(-16.75,16.25,0.));
#845=CARTESIAN_POINT('Origin',(-14.25,16.25,0.));
#846=CARTESIAN_POINT('',(-16.75,-16.25,0.));
#847=CARTESIAN_POINT('',(-16.75,18.75,0.));
#848=CARTESIAN_POINT('',(-14.25,-18.75,0.));
#849=CARTESIAN_POINT('Origin',(-14.25,-16.25,0.));
#850=CARTESIAN_POINT('',(14.25,-18.75,0.));
#851=CARTESIAN_POINT('',(-16.75,-18.75,0.));
#852=CARTESIAN_POINT('Origin',(14.25,-16.25,0.));
#853=CARTESIAN_POINT('Origin',(14.25,-16.25,0.));
#854=CARTESIAN_POINT('',(14.25,-18.75,-1.));
#855=CARTESIAN_POINT('Origin',(14.25,-16.25,-1.));
#856=CARTESIAN_POINT('',(14.25,-18.75,0.));
#857=CARTESIAN_POINT('Origin',(16.75,-18.75,0.));
#858=CARTESIAN_POINT('',(-14.25,-18.75,-1.));
#859=CARTESIAN_POINT('',(-14.25,-18.75,0.));
#860=CARTESIAN_POINT('',(-16.75,-18.75,-1.));
#861=CARTESIAN_POINT('Origin',(-14.25,-16.25,0.));
#862=CARTESIAN_POINT('',(-16.75,-16.25,-1.));
#863=CARTESIAN_POINT('Origin',(-14.25,-16.25,-1.));
#864=CARTESIAN_POINT('',(-16.75,-16.25,0.));
#865=CARTESIAN_POINT('Origin',(-16.75,-18.75,0.));
#866=CARTESIAN_POINT('',(-16.75,16.25,-1.));
#867=CARTESIAN_POINT('',(-16.75,16.25,0.));
#868=CARTESIAN_POINT('',(-16.75,18.75,-1.));
#869=CARTESIAN_POINT('Origin',(-14.25,16.25,0.));
#870=CARTESIAN_POINT('',(-14.25,18.75,-1.));
#871=CARTESIAN_POINT('Origin',(-14.25,16.25,-1.));
#872=CARTESIAN_POINT('',(-14.25,18.75,0.));
#873=CARTESIAN_POINT('Origin',(13.0000000000004,15.0000000000009,0.));
#874=CARTESIAN_POINT('',(13.0000000000004,-14.9999999999991,-1.));
#875=CARTESIAN_POINT('Origin',(-16.75,18.75,0.));
#876=CARTESIAN_POINT('',(16.75,18.75,-1.));
#877=CARTESIAN_POINT('Origin',(0.,0.,-1.));
#878=UNCERTAINTY_MEASURE_WITH_UNIT(LENGTH_MEASURE(0.01),#882,
'DISTANCE_ACCURACY_VALUE',
'Maximum model space distance between geometric entities at asserted c
onnectivities');
#879=UNCERTAINTY_MEASURE_WITH_UNIT(LENGTH_MEASURE(0.01),#882,
'DISTANCE_ACCURACY_VALUE',
'Maximum model space distance between geometric entities at asserted c
onnectivities');
#880=(
GEOMETRIC_REPRESENTATION_CONTEXT(3)
GLOBAL_UNCERTAINTY_ASSIGNED_CONTEXT((#878))
GLOBAL_UNIT_ASSIGNED_CONTEXT((#882,#884,#885))
REPRESENTATION_CONTEXT('','3D')
);
#881=(
GEOMETRIC_REPRESENTATION_CONTEXT(3)
GLOBAL_UNCERTAINTY_ASSIGNED_CONTEXT((#879))
GLOBAL_UNIT_ASSIGNED_CONTEXT((#882,#884,#885))
REPRESENTATION_CONTEXT('','3D')
);
#882=(
LENGTH_UNIT()
NAMED_UNIT(*)
SI_UNIT(.MILLI.,.METRE.)
);
#883=(
LENGTH_UNIT()
NAMED_UNIT(*)
SI_UNIT($,.METRE.)
);
#884=(
NAMED_UNIT(*)
PLANE_ANGLE_UNIT()
SI_UNIT($,.RADIAN.)
);
#885=(
NAMED_UNIT(*)
SI_UNIT($,.STERADIAN.)
SOLID_ANGLE_UNIT()
);
#886=SHAPE_DEFINITION_REPRESENTATION(#887,#888);
#887=PRODUCT_DEFINITION_SHAPE('',$,#890);
#888=SHAPE_REPRESENTATION('',(#526),#880);
#889=PRODUCT_DEFINITION_CONTEXT('part definition',#894,'design');
#890=PRODUCT_DEFINITION('2026-08-23-13-27-33-575','Mast Frame Big',#891,
#889);
#891=PRODUCT_DEFINITION_FORMATION('',$,#896);
#892=PRODUCT_RELATED_PRODUCT_CATEGORY('Mast Frame Big','Mast Frame Big',
(#896));
#893=APPLICATION_PROTOCOL_DEFINITION('international standard',
'automotive_design',2009,#894);
#894=APPLICATION_CONTEXT(
'Core Data for Automotive Mechanical Design Process');
#895=PRODUCT_CONTEXT('part definition',#894,'mechanical');
#896=PRODUCT('2026-08-23-13-27-33-575','Mast Frame Big',$,(#895));
#897=PRESENTATION_STYLE_ASSIGNMENT((#898));
#898=SURFACE_STYLE_USAGE(.BOTH.,#899);
#899=SURFACE_SIDE_STYLE('',(#900));
#900=SURFACE_STYLE_FILL_AREA(#901);
#901=FILL_AREA_STYLE('Steel - Satin',(#902));
#902=FILL_AREA_STYLE_COLOUR('Steel - Satin',#903);
#903=COLOUR_RGB('Steel - Satin',0.627450980392157,0.627450980392157,0.627450980392157);
ENDSEC;
END-ISO-10303-21;
