ISO-10303-21;
HEADER;
/* Generated by software containing ST-Developer
 * from STEP Tools, Inc. (www.steptools.com) 
 */

FILE_DESCRIPTION(
/* description */ (''),
/* implementation_level */ '2;1');

FILE_NAME(
/* name */ 'Mast_Frame_Small_v003.step',
/* time_stamp */ '2026-08-23T15:19:08+04:00',
/* author */ (''),
/* organization */ (''),
/* preprocessor_version */ 'ST-DEVELOPER v20.1',
/* originating_system */ 'Autodesk Translation Framework v15.8.0.0',
/* authorisation */ '');

FILE_SCHEMA (('AUTOMOTIVE_DESIGN { 1 0 10303 214 3 1 1 }'));
ENDSEC;

DATA;
#10=MECHANICAL_DESIGN_GEOMETRIC_PRESENTATION_REPRESENTATION('',(#13),#881);
#11=SHAPE_REPRESENTATION_RELATIONSHIP('SRR','None',#888,#12);
#12=ADVANCED_BREP_SHAPE_REPRESENTATION('',(#14),#880);
#13=STYLED_ITEM('',(#897),#14);
#14=MANIFOLD_SOLID_BREP('Body1',#513);
#15=FACE_BOUND('',#62,.T.);
#16=FACE_BOUND('',#79,.T.);
#17=FACE_BOUND('',#89,.T.);
#18=PLANE('',#530);
#19=PLANE('',#538);
#20=PLANE('',#543);
#21=PLANE('',#548);
#22=PLANE('',#551);
#23=PLANE('',#554);
#24=PLANE('',#557);
#25=PLANE('',#561);
#26=PLANE('',#562);
#27=PLANE('',#568);
#28=PLANE('',#571);
#29=PLANE('',#574);
#30=PLANE('',#575);
#31=PLANE('',#576);
#32=PLANE('',#577);
#33=FACE_OUTER_BOUND('',#60,.T.);
#34=FACE_OUTER_BOUND('',#61,.T.);
#35=FACE_OUTER_BOUND('',#63,.T.);
#36=FACE_OUTER_BOUND('',#64,.T.);
#37=FACE_OUTER_BOUND('',#65,.T.);
#38=FACE_OUTER_BOUND('',#66,.T.);
#39=FACE_OUTER_BOUND('',#67,.T.);
#40=FACE_OUTER_BOUND('',#68,.T.);
#41=FACE_OUTER_BOUND('',#69,.T.);
#42=FACE_OUTER_BOUND('',#70,.T.);
#43=FACE_OUTER_BOUND('',#71,.T.);
#44=FACE_OUTER_BOUND('',#72,.T.);
#45=FACE_OUTER_BOUND('',#73,.T.);
#46=FACE_OUTER_BOUND('',#74,.T.);
#47=FACE_OUTER_BOUND('',#75,.T.);
#48=FACE_OUTER_BOUND('',#76,.T.);
#49=FACE_OUTER_BOUND('',#77,.T.);
#50=FACE_OUTER_BOUND('',#78,.T.);
#51=FACE_OUTER_BOUND('',#80,.T.);
#52=FACE_OUTER_BOUND('',#81,.T.);
#53=FACE_OUTER_BOUND('',#82,.T.);
#54=FACE_OUTER_BOUND('',#83,.T.);
#55=FACE_OUTER_BOUND('',#84,.T.);
#56=FACE_OUTER_BOUND('',#85,.T.);
#57=FACE_OUTER_BOUND('',#86,.T.);
#58=FACE_OUTER_BOUND('',#87,.T.);
#59=FACE_OUTER_BOUND('',#88,.T.);
#60=EDGE_LOOP('',(#330,#331,#332,#333));
#61=EDGE_LOOP('',(#334,#335,#336,#337,#338,#339,#340,#341));
#62=EDGE_LOOP('',(#342,#343,#344,#345,#346,#347,#348,#349));
#63=EDGE_LOOP('',(#350,#351,#352,#353));
#64=EDGE_LOOP('',(#354,#355,#356,#357));
#65=EDGE_LOOP('',(#358,#359,#360,#361));
#66=EDGE_LOOP('',(#362,#363,#364,#365));
#67=EDGE_LOOP('',(#366,#367,#368,#369));
#68=EDGE_LOOP('',(#370,#371,#372,#373));
#69=EDGE_LOOP('',(#374,#375,#376,#377));
#70=EDGE_LOOP('',(#378,#379,#380,#381));
#71=EDGE_LOOP('',(#382,#383,#384,#385));
#72=EDGE_LOOP('',(#386,#387,#388,#389));
#73=EDGE_LOOP('',(#390,#391,#392,#393));
#74=EDGE_LOOP('',(#394,#395,#396,#397));
#75=EDGE_LOOP('',(#398,#399,#400,#401));
#76=EDGE_LOOP('',(#402,#403,#404,#405));
#77=EDGE_LOOP('',(#406,#407,#408,#409));
#78=EDGE_LOOP('',(#410,#411,#412,#413,#414,#415,#416,#417));
#79=EDGE_LOOP('',(#418,#419,#420,#421,#422,#423,#424,#425));
#80=EDGE_LOOP('',(#426,#427,#428,#429));
#81=EDGE_LOOP('',(#430,#431,#432,#433));
#82=EDGE_LOOP('',(#434,#435,#436,#437));
#83=EDGE_LOOP('',(#438,#439,#440,#441));
#84=EDGE_LOOP('',(#442,#443,#444,#445));
#85=EDGE_LOOP('',(#446,#447,#448,#449));
#86=EDGE_LOOP('',(#450,#451,#452,#453));
#87=EDGE_LOOP('',(#454,#455,#456,#457));
#88=EDGE_LOOP('',(#458,#459,#460,#461,#462,#463,#464,#465));
#89=EDGE_LOOP('',(#466,#467,#468,#469,#470,#471,#472,#473));
#90=LINE('',#736,#138);
#91=LINE('',#739,#139);
#92=LINE('',#742,#140);
#93=LINE('',#746,#141);
#94=LINE('',#750,#142);
#95=LINE('',#753,#143);
#96=LINE('',#756,#144);
#97=LINE('',#760,#145);
#98=LINE('',#764,#146);
#99=LINE('',#768,#147);
#100=LINE('',#772,#148);
#101=LINE('',#773,#149);
#102=LINE('',#777,#150);
#103=LINE('',#780,#151);
#104=LINE('',#783,#152);
#105=LINE('',#786,#153);
#106=LINE('',#787,#154);
#107=LINE('',#790,#155);
#108=LINE('',#796,#156);
#109=LINE('',#797,#157);
#110=LINE('',#800,#158);
#111=LINE('',#801,#159);
#112=LINE('',#805,#160);
#113=LINE('',#808,#161);
#114=LINE('',#809,#162);
#115=LINE('',#813,#163);
#116=LINE('',#816,#164);
#117=LINE('',#817,#165);
#118=LINE('',#821,#166);
#119=LINE('',#823,#167);
#120=LINE('',#829,#168);
#121=LINE('',#832,#169);
#122=LINE('',#835,#170);
#123=LINE('',#837,#171);
#124=LINE('',#838,#172);
#125=LINE('',#841,#173);
#126=LINE('',#845,#174);
#127=LINE('',#849,#175);
#128=LINE('',#854,#176);
#129=LINE('',#857,#177);
#130=LINE('',#858,#178);
#131=LINE('',#862,#179);
#132=LINE('',#865,#180);
#133=LINE('',#866,#181);
#134=LINE('',#870,#182);
#135=LINE('',#872,#183);
#136=LINE('',#874,#184);
#137=LINE('',#876,#185);
#138=VECTOR('',#584,10.);
#139=VECTOR('',#587,10.);
#140=VECTOR('',#590,10.);
#141=VECTOR('',#593,10.);
#142=VECTOR('',#596,10.);
#143=VECTOR('',#599,10.);
#144=VECTOR('',#600,10.);
#145=VECTOR('',#603,10.);
#146=VECTOR('',#606,10.);
#147=VECTOR('',#609,10.);
#148=VECTOR('',#614,10.);
#149=VECTOR('',#615,10.);
#150=VECTOR('',#620,10.);
#151=VECTOR('',#623,10.);
#152=VECTOR('',#626,10.);
#153=VECTOR('',#629,10.);
#154=VECTOR('',#630,10.);
#155=VECTOR('',#633,10.);
#156=VECTOR('',#640,10.);
#157=VECTOR('',#641,10.);
#158=VECTOR('',#644,10.);
#159=VECTOR('',#645,10.);
#160=VECTOR('',#650,10.);
#161=VECTOR('',#653,10.);
#162=VECTOR('',#654,10.);
#163=VECTOR('',#659,10.);
#164=VECTOR('',#662,10.);
#165=VECTOR('',#663,10.);
#166=VECTOR('',#668,10.);
#167=VECTOR('',#671,10.);
#168=VECTOR('',#676,10.);
#169=VECTOR('',#679,10.);
#170=VECTOR('',#682,10.);
#171=VECTOR('',#683,10.);
#172=VECTOR('',#684,10.);
#173=VECTOR('',#687,10.);
#174=VECTOR('',#690,10.);
#175=VECTOR('',#693,10.);
#176=VECTOR('',#700,10.);
#177=VECTOR('',#703,10.);
#178=VECTOR('',#704,10.);
#179=VECTOR('',#709,10.);
#180=VECTOR('',#712,10.);
#181=VECTOR('',#713,10.);
#182=VECTOR('',#718,10.);
#183=VECTOR('',#721,10.);
#184=VECTOR('',#724,10.);
#185=VECTOR('',#727,10.);
#186=CIRCLE('',#528,1.);
#187=CIRCLE('',#529,1.);
#188=CIRCLE('',#531,1.);
#189=CIRCLE('',#532,1.);
#190=CIRCLE('',#533,1.);
#191=CIRCLE('',#534,1.);
#192=CIRCLE('',#535,1.);
#193=CIRCLE('',#536,1.);
#194=CIRCLE('',#537,1.);
#195=CIRCLE('',#540,1.);
#196=CIRCLE('',#542,1.);
#197=CIRCLE('',#545,1.);
#198=CIRCLE('',#547,1.);
#199=CIRCLE('',#550,1.);
#200=CIRCLE('',#553,1.);
#201=CIRCLE('',#556,1.);
#202=CIRCLE('',#559,2.5);
#203=CIRCLE('',#560,2.5);
#204=CIRCLE('',#563,2.5);
#205=CIRCLE('',#564,2.5);
#206=CIRCLE('',#565,2.5);
#207=CIRCLE('',#567,2.5);
#208=CIRCLE('',#570,2.5);
#209=CIRCLE('',#573,2.5);
#210=VERTEX_POINT('',#732);
#211=VERTEX_POINT('',#733);
#212=VERTEX_POINT('',#735);
#213=VERTEX_POINT('',#737);
#214=VERTEX_POINT('',#741);
#215=VERTEX_POINT('',#743);
#216=VERTEX_POINT('',#745);
#217=VERTEX_POINT('',#747);
#218=VERTEX_POINT('',#749);
#219=VERTEX_POINT('',#751);
#220=VERTEX_POINT('',#754);
#221=VERTEX_POINT('',#755);
#222=VERTEX_POINT('',#757);
#223=VERTEX_POINT('',#759);
#224=VERTEX_POINT('',#761);
#225=VERTEX_POINT('',#763);
#226=VERTEX_POINT('',#765);
#227=VERTEX_POINT('',#767);
#228=VERTEX_POINT('',#771);
#229=VERTEX_POINT('',#775);
#230=VERTEX_POINT('',#779);
#231=VERTEX_POINT('',#781);
#232=VERTEX_POINT('',#785);
#233=VERTEX_POINT('',#789);
#234=VERTEX_POINT('',#793);
#235=VERTEX_POINT('',#794);
#236=VERTEX_POINT('',#799);
#237=VERTEX_POINT('',#803);
#238=VERTEX_POINT('',#807);
#239=VERTEX_POINT('',#811);
#240=VERTEX_POINT('',#815);
#241=VERTEX_POINT('',#819);
#242=VERTEX_POINT('',#825);
#243=VERTEX_POINT('',#826);
#244=VERTEX_POINT('',#828);
#245=VERTEX_POINT('',#830);
#246=VERTEX_POINT('',#834);
#247=VERTEX_POINT('',#836);
#248=VERTEX_POINT('',#840);
#249=VERTEX_POINT('',#842);
#250=VERTEX_POINT('',#844);
#251=VERTEX_POINT('',#846);
#252=VERTEX_POINT('',#848);
#253=VERTEX_POINT('',#852);
#254=VERTEX_POINT('',#856);
#255=VERTEX_POINT('',#860);
#256=VERTEX_POINT('',#864);
#257=VERTEX_POINT('',#868);
#258=EDGE_CURVE('',#210,#211,#186,.T.);
#259=EDGE_CURVE('',#211,#212,#90,.T.);
#260=EDGE_CURVE('',#212,#213,#187,.F.);
#261=EDGE_CURVE('',#213,#210,#91,.T.);
#262=EDGE_CURVE('',#210,#214,#92,.T.);
#263=EDGE_CURVE('',#215,#214,#188,.T.);
#264=EDGE_CURVE('',#215,#216,#93,.T.);
#265=EDGE_CURVE('',#217,#216,#189,.T.);
#266=EDGE_CURVE('',#217,#218,#94,.T.);
#267=EDGE_CURVE('',#219,#218,#190,.T.);
#268=EDGE_CURVE('',#219,#211,#95,.T.);
#269=EDGE_CURVE('',#220,#221,#96,.T.);
#270=EDGE_CURVE('',#222,#221,#191,.T.);
#271=EDGE_CURVE('',#222,#223,#97,.T.);
#272=EDGE_CURVE('',#224,#223,#192,.T.);
#273=EDGE_CURVE('',#224,#225,#98,.T.);
#274=EDGE_CURVE('',#226,#225,#193,.T.);
#275=EDGE_CURVE('',#226,#227,#99,.T.);
#276=EDGE_CURVE('',#220,#227,#194,.T.);
#277=EDGE_CURVE('',#228,#213,#100,.T.);
#278=EDGE_CURVE('',#214,#228,#101,.T.);
#279=EDGE_CURVE('',#228,#229,#195,.F.);
#280=EDGE_CURVE('',#229,#215,#102,.T.);
#281=EDGE_CURVE('',#218,#230,#103,.T.);
#282=EDGE_CURVE('',#230,#231,#196,.F.);
#283=EDGE_CURVE('',#231,#219,#104,.T.);
#284=EDGE_CURVE('',#232,#217,#105,.T.);
#285=EDGE_CURVE('',#230,#232,#106,.T.);
#286=EDGE_CURVE('',#216,#233,#107,.T.);
#287=EDGE_CURVE('',#233,#232,#197,.F.);
#288=EDGE_CURVE('',#234,#235,#198,.T.);
#289=EDGE_CURVE('',#235,#226,#108,.T.);
#290=EDGE_CURVE('',#225,#234,#109,.T.);
#291=EDGE_CURVE('',#236,#235,#110,.T.);
#292=EDGE_CURVE('',#227,#236,#111,.T.);
#293=EDGE_CURVE('',#236,#237,#199,.T.);
#294=EDGE_CURVE('',#237,#220,#112,.T.);
#295=EDGE_CURVE('',#238,#237,#113,.T.);
#296=EDGE_CURVE('',#221,#238,#114,.T.);
#297=EDGE_CURVE('',#238,#239,#200,.T.);
#298=EDGE_CURVE('',#239,#222,#115,.T.);
#299=EDGE_CURVE('',#240,#239,#116,.T.);
#300=EDGE_CURVE('',#223,#240,#117,.T.);
#301=EDGE_CURVE('',#240,#241,#201,.T.);
#302=EDGE_CURVE('',#241,#224,#118,.T.);
#303=EDGE_CURVE('',#234,#241,#119,.T.);
#304=EDGE_CURVE('',#242,#243,#202,.T.);
#305=EDGE_CURVE('',#243,#244,#120,.T.);
#306=EDGE_CURVE('',#244,#245,#203,.T.);
#307=EDGE_CURVE('',#245,#242,#121,.T.);
#308=EDGE_CURVE('',#246,#245,#122,.T.);
#309=EDGE_CURVE('',#247,#246,#123,.T.);
#310=EDGE_CURVE('',#242,#247,#124,.T.);
#311=EDGE_CURVE('',#244,#248,#125,.T.);
#312=EDGE_CURVE('',#249,#248,#204,.T.);
#313=EDGE_CURVE('',#249,#250,#126,.T.);
#314=EDGE_CURVE('',#251,#250,#205,.T.);
#315=EDGE_CURVE('',#251,#252,#127,.T.);
#316=EDGE_CURVE('',#246,#252,#206,.T.);
#317=EDGE_CURVE('',#253,#247,#207,.T.);
#318=EDGE_CURVE('',#252,#253,#128,.T.);
#319=EDGE_CURVE('',#254,#251,#129,.T.);
#320=EDGE_CURVE('',#253,#254,#130,.T.);
#321=EDGE_CURVE('',#255,#254,#208,.T.);
#322=EDGE_CURVE('',#250,#255,#131,.T.);
#323=EDGE_CURVE('',#256,#249,#132,.T.);
#324=EDGE_CURVE('',#255,#256,#133,.T.);
#325=EDGE_CURVE('',#257,#256,#209,.T.);
#326=EDGE_CURVE('',#248,#257,#134,.T.);
#327=EDGE_CURVE('',#212,#231,#135,.T.);
#328=EDGE_CURVE('',#233,#229,#136,.T.);
#329=EDGE_CURVE('',#257,#243,#137,.T.);
#330=ORIENTED_EDGE('',*,*,#258,.T.);
#331=ORIENTED_EDGE('',*,*,#259,.T.);
#332=ORIENTED_EDGE('',*,*,#260,.T.);
#333=ORIENTED_EDGE('',*,*,#261,.T.);
#334=ORIENTED_EDGE('',*,*,#258,.F.);
#335=ORIENTED_EDGE('',*,*,#262,.T.);
#336=ORIENTED_EDGE('',*,*,#263,.F.);
#337=ORIENTED_EDGE('',*,*,#264,.T.);
#338=ORIENTED_EDGE('',*,*,#265,.F.);
#339=ORIENTED_EDGE('',*,*,#266,.T.);
#340=ORIENTED_EDGE('',*,*,#267,.F.);
#341=ORIENTED_EDGE('',*,*,#268,.T.);
#342=ORIENTED_EDGE('',*,*,#269,.T.);
#343=ORIENTED_EDGE('',*,*,#270,.F.);
#344=ORIENTED_EDGE('',*,*,#271,.T.);
#345=ORIENTED_EDGE('',*,*,#272,.F.);
#346=ORIENTED_EDGE('',*,*,#273,.T.);
#347=ORIENTED_EDGE('',*,*,#274,.F.);
#348=ORIENTED_EDGE('',*,*,#275,.T.);
#349=ORIENTED_EDGE('',*,*,#276,.F.);
#350=ORIENTED_EDGE('',*,*,#261,.F.);
#351=ORIENTED_EDGE('',*,*,#277,.F.);
#352=ORIENTED_EDGE('',*,*,#278,.F.);
#353=ORIENTED_EDGE('',*,*,#262,.F.);
#354=ORIENTED_EDGE('',*,*,#263,.T.);
#355=ORIENTED_EDGE('',*,*,#278,.T.);
#356=ORIENTED_EDGE('',*,*,#279,.T.);
#357=ORIENTED_EDGE('',*,*,#280,.T.);
#358=ORIENTED_EDGE('',*,*,#267,.T.);
#359=ORIENTED_EDGE('',*,*,#281,.T.);
#360=ORIENTED_EDGE('',*,*,#282,.T.);
#361=ORIENTED_EDGE('',*,*,#283,.T.);
#362=ORIENTED_EDGE('',*,*,#281,.F.);
#363=ORIENTED_EDGE('',*,*,#266,.F.);
#364=ORIENTED_EDGE('',*,*,#284,.F.);
#365=ORIENTED_EDGE('',*,*,#285,.F.);
#366=ORIENTED_EDGE('',*,*,#265,.T.);
#367=ORIENTED_EDGE('',*,*,#286,.T.);
#368=ORIENTED_EDGE('',*,*,#287,.T.);
#369=ORIENTED_EDGE('',*,*,#284,.T.);
#370=ORIENTED_EDGE('',*,*,#288,.T.);
#371=ORIENTED_EDGE('',*,*,#289,.T.);
#372=ORIENTED_EDGE('',*,*,#274,.T.);
#373=ORIENTED_EDGE('',*,*,#290,.T.);
#374=ORIENTED_EDGE('',*,*,#289,.F.);
#375=ORIENTED_EDGE('',*,*,#291,.F.);
#376=ORIENTED_EDGE('',*,*,#292,.F.);
#377=ORIENTED_EDGE('',*,*,#275,.F.);
#378=ORIENTED_EDGE('',*,*,#293,.T.);
#379=ORIENTED_EDGE('',*,*,#294,.T.);
#380=ORIENTED_EDGE('',*,*,#276,.T.);
#381=ORIENTED_EDGE('',*,*,#292,.T.);
#382=ORIENTED_EDGE('',*,*,#294,.F.);
#383=ORIENTED_EDGE('',*,*,#295,.F.);
#384=ORIENTED_EDGE('',*,*,#296,.F.);
#385=ORIENTED_EDGE('',*,*,#269,.F.);
#386=ORIENTED_EDGE('',*,*,#297,.T.);
#387=ORIENTED_EDGE('',*,*,#298,.T.);
#388=ORIENTED_EDGE('',*,*,#270,.T.);
#389=ORIENTED_EDGE('',*,*,#296,.T.);
#390=ORIENTED_EDGE('',*,*,#298,.F.);
#391=ORIENTED_EDGE('',*,*,#299,.F.);
#392=ORIENTED_EDGE('',*,*,#300,.F.);
#393=ORIENTED_EDGE('',*,*,#271,.F.);
#394=ORIENTED_EDGE('',*,*,#301,.T.);
#395=ORIENTED_EDGE('',*,*,#302,.T.);
#396=ORIENTED_EDGE('',*,*,#272,.T.);
#397=ORIENTED_EDGE('',*,*,#300,.T.);
#398=ORIENTED_EDGE('',*,*,#290,.F.);
#399=ORIENTED_EDGE('',*,*,#273,.F.);
#400=ORIENTED_EDGE('',*,*,#302,.F.);
#401=ORIENTED_EDGE('',*,*,#303,.F.);
#402=ORIENTED_EDGE('',*,*,#304,.T.);
#403=ORIENTED_EDGE('',*,*,#305,.T.);
#404=ORIENTED_EDGE('',*,*,#306,.T.);
#405=ORIENTED_EDGE('',*,*,#307,.T.);
#406=ORIENTED_EDGE('',*,*,#307,.F.);
#407=ORIENTED_EDGE('',*,*,#308,.F.);
#408=ORIENTED_EDGE('',*,*,#309,.F.);
#409=ORIENTED_EDGE('',*,*,#310,.F.);
#410=ORIENTED_EDGE('',*,*,#306,.F.);
#411=ORIENTED_EDGE('',*,*,#311,.T.);
#412=ORIENTED_EDGE('',*,*,#312,.F.);
#413=ORIENTED_EDGE('',*,*,#313,.T.);
#414=ORIENTED_EDGE('',*,*,#314,.F.);
#415=ORIENTED_EDGE('',*,*,#315,.T.);
#416=ORIENTED_EDGE('',*,*,#316,.F.);
#417=ORIENTED_EDGE('',*,*,#308,.T.);
#418=ORIENTED_EDGE('',*,*,#295,.T.);
#419=ORIENTED_EDGE('',*,*,#293,.F.);
#420=ORIENTED_EDGE('',*,*,#291,.T.);
#421=ORIENTED_EDGE('',*,*,#288,.F.);
#422=ORIENTED_EDGE('',*,*,#303,.T.);
#423=ORIENTED_EDGE('',*,*,#301,.F.);
#424=ORIENTED_EDGE('',*,*,#299,.T.);
#425=ORIENTED_EDGE('',*,*,#297,.F.);
#426=ORIENTED_EDGE('',*,*,#317,.T.);
#427=ORIENTED_EDGE('',*,*,#309,.T.);
#428=ORIENTED_EDGE('',*,*,#316,.T.);
#429=ORIENTED_EDGE('',*,*,#318,.T.);
#430=ORIENTED_EDGE('',*,*,#318,.F.);
#431=ORIENTED_EDGE('',*,*,#315,.F.);
#432=ORIENTED_EDGE('',*,*,#319,.F.);
#433=ORIENTED_EDGE('',*,*,#320,.F.);
#434=ORIENTED_EDGE('',*,*,#321,.T.);
#435=ORIENTED_EDGE('',*,*,#319,.T.);
#436=ORIENTED_EDGE('',*,*,#314,.T.);
#437=ORIENTED_EDGE('',*,*,#322,.T.);
#438=ORIENTED_EDGE('',*,*,#322,.F.);
#439=ORIENTED_EDGE('',*,*,#313,.F.);
#440=ORIENTED_EDGE('',*,*,#323,.F.);
#441=ORIENTED_EDGE('',*,*,#324,.F.);
#442=ORIENTED_EDGE('',*,*,#325,.T.);
#443=ORIENTED_EDGE('',*,*,#323,.T.);
#444=ORIENTED_EDGE('',*,*,#312,.T.);
#445=ORIENTED_EDGE('',*,*,#326,.T.);
#446=ORIENTED_EDGE('',*,*,#259,.F.);
#447=ORIENTED_EDGE('',*,*,#268,.F.);
#448=ORIENTED_EDGE('',*,*,#283,.F.);
#449=ORIENTED_EDGE('',*,*,#327,.F.);
#450=ORIENTED_EDGE('',*,*,#280,.F.);
#451=ORIENTED_EDGE('',*,*,#328,.F.);
#452=ORIENTED_EDGE('',*,*,#286,.F.);
#453=ORIENTED_EDGE('',*,*,#264,.F.);
#454=ORIENTED_EDGE('',*,*,#305,.F.);
#455=ORIENTED_EDGE('',*,*,#329,.F.);
#456=ORIENTED_EDGE('',*,*,#326,.F.);
#457=ORIENTED_EDGE('',*,*,#311,.F.);
#458=ORIENTED_EDGE('',*,*,#304,.F.);
#459=ORIENTED_EDGE('',*,*,#310,.T.);
#460=ORIENTED_EDGE('',*,*,#317,.F.);
#461=ORIENTED_EDGE('',*,*,#320,.T.);
#462=ORIENTED_EDGE('',*,*,#321,.F.);
#463=ORIENTED_EDGE('',*,*,#324,.T.);
#464=ORIENTED_EDGE('',*,*,#325,.F.);
#465=ORIENTED_EDGE('',*,*,#329,.T.);
#466=ORIENTED_EDGE('',*,*,#277,.T.);
#467=ORIENTED_EDGE('',*,*,#260,.F.);
#468=ORIENTED_EDGE('',*,*,#327,.T.);
#469=ORIENTED_EDGE('',*,*,#282,.F.);
#470=ORIENTED_EDGE('',*,*,#285,.T.);
#471=ORIENTED_EDGE('',*,*,#287,.F.);
#472=ORIENTED_EDGE('',*,*,#328,.T.);
#473=ORIENTED_EDGE('',*,*,#279,.F.);
#474=CYLINDRICAL_SURFACE('',#527,1.);
#475=CYLINDRICAL_SURFACE('',#539,1.);
#476=CYLINDRICAL_SURFACE('',#541,1.);
#477=CYLINDRICAL_SURFACE('',#544,1.);
#478=CYLINDRICAL_SURFACE('',#546,1.);
#479=CYLINDRICAL_SURFACE('',#549,1.);
#480=CYLINDRICAL_SURFACE('',#552,1.);
#481=CYLINDRICAL_SURFACE('',#555,1.);
#482=CYLINDRICAL_SURFACE('',#558,2.5);
#483=CYLINDRICAL_SURFACE('',#566,2.5);
#484=CYLINDRICAL_SURFACE('',#569,2.5);
#485=CYLINDRICAL_SURFACE('',#572,2.5);
#486=ADVANCED_FACE('',(#33),#474,.T.);
#487=ADVANCED_FACE('',(#34,#15),#18,.T.);
#488=ADVANCED_FACE('',(#35),#19,.T.);
#489=ADVANCED_FACE('',(#36),#475,.T.);
#490=ADVANCED_FACE('',(#37),#476,.T.);
#491=ADVANCED_FACE('',(#38),#20,.T.);
#492=ADVANCED_FACE('',(#39),#477,.T.);
#493=ADVANCED_FACE('',(#40),#478,.F.);
#494=ADVANCED_FACE('',(#41),#21,.T.);
#495=ADVANCED_FACE('',(#42),#479,.F.);
#496=ADVANCED_FACE('',(#43),#22,.T.);
#497=ADVANCED_FACE('',(#44),#480,.F.);
#498=ADVANCED_FACE('',(#45),#23,.T.);
#499=ADVANCED_FACE('',(#46),#481,.F.);
#500=ADVANCED_FACE('',(#47),#24,.T.);
#501=ADVANCED_FACE('',(#48),#482,.T.);
#502=ADVANCED_FACE('',(#49),#25,.T.);
#503=ADVANCED_FACE('',(#50,#16),#26,.T.);
#504=ADVANCED_FACE('',(#51),#483,.T.);
#505=ADVANCED_FACE('',(#52),#27,.T.);
#506=ADVANCED_FACE('',(#53),#484,.T.);
#507=ADVANCED_FACE('',(#54),#28,.T.);
#508=ADVANCED_FACE('',(#55),#485,.T.);
#509=ADVANCED_FACE('',(#56),#29,.T.);
#510=ADVANCED_FACE('',(#57),#30,.T.);
#511=ADVANCED_FACE('',(#58),#31,.T.);
#512=ADVANCED_FACE('',(#59,#17),#32,.T.);
#513=CLOSED_SHELL('',(#486,#487,#488,#489,#490,#491,#492,#493,#494,#495,
#496,#497,#498,#499,#500,#501,#502,#503,#504,#505,#506,#507,#508,#509,#510,
#511,#512));
#514=DERIVED_UNIT_ELEMENT(#516,1.);
#515=DERIVED_UNIT_ELEMENT(#883,-3.);
#516=(
MASS_UNIT()
NAMED_UNIT(*)
SI_UNIT(.KILO.,.GRAM.)
);
#517=DERIVED_UNIT((#514,#515));
#518=MEASURE_REPRESENTATION_ITEM('density measure',
POSITIVE_RATIO_MEASURE(7850.),#517);
#519=PROPERTY_DEFINITION_REPRESENTATION(#524,#521);
#520=PROPERTY_DEFINITION_REPRESENTATION(#525,#522);
#521=REPRESENTATION('material name',(#523),#880);
#522=REPRESENTATION('density',(#518),#880);
#523=DESCRIPTIVE_REPRESENTATION_ITEM('Steel','Steel');
#524=PROPERTY_DEFINITION('material property','material name',#890);
#525=PROPERTY_DEFINITION('material property','density of part',#890);
#526=AXIS2_PLACEMENT_3D('',#730,#578,#579);
#527=AXIS2_PLACEMENT_3D('',#731,#580,#581);
#528=AXIS2_PLACEMENT_3D('',#734,#582,#583);
#529=AXIS2_PLACEMENT_3D('',#738,#585,#586);
#530=AXIS2_PLACEMENT_3D('',#740,#588,#589);
#531=AXIS2_PLACEMENT_3D('',#744,#591,#592);
#532=AXIS2_PLACEMENT_3D('',#748,#594,#595);
#533=AXIS2_PLACEMENT_3D('',#752,#597,#598);
#534=AXIS2_PLACEMENT_3D('',#758,#601,#602);
#535=AXIS2_PLACEMENT_3D('',#762,#604,#605);
#536=AXIS2_PLACEMENT_3D('',#766,#607,#608);
#537=AXIS2_PLACEMENT_3D('',#769,#610,#611);
#538=AXIS2_PLACEMENT_3D('',#770,#612,#613);
#539=AXIS2_PLACEMENT_3D('',#774,#616,#617);
#540=AXIS2_PLACEMENT_3D('',#776,#618,#619);
#541=AXIS2_PLACEMENT_3D('',#778,#621,#622);
#542=AXIS2_PLACEMENT_3D('',#782,#624,#625);
#543=AXIS2_PLACEMENT_3D('',#784,#627,#628);
#544=AXIS2_PLACEMENT_3D('',#788,#631,#632);
#545=AXIS2_PLACEMENT_3D('',#791,#634,#635);
#546=AXIS2_PLACEMENT_3D('',#792,#636,#637);
#547=AXIS2_PLACEMENT_3D('',#795,#638,#639);
#548=AXIS2_PLACEMENT_3D('',#798,#642,#643);
#549=AXIS2_PLACEMENT_3D('',#802,#646,#647);
#550=AXIS2_PLACEMENT_3D('',#804,#648,#649);
#551=AXIS2_PLACEMENT_3D('',#806,#651,#652);
#552=AXIS2_PLACEMENT_3D('',#810,#655,#656);
#553=AXIS2_PLACEMENT_3D('',#812,#657,#658);
#554=AXIS2_PLACEMENT_3D('',#814,#660,#661);
#555=AXIS2_PLACEMENT_3D('',#818,#664,#665);
#556=AXIS2_PLACEMENT_3D('',#820,#666,#667);
#557=AXIS2_PLACEMENT_3D('',#822,#669,#670);
#558=AXIS2_PLACEMENT_3D('',#824,#672,#673);
#559=AXIS2_PLACEMENT_3D('',#827,#674,#675);
#560=AXIS2_PLACEMENT_3D('',#831,#677,#678);
#561=AXIS2_PLACEMENT_3D('',#833,#680,#681);
#562=AXIS2_PLACEMENT_3D('',#839,#685,#686);
#563=AXIS2_PLACEMENT_3D('',#843,#688,#689);
#564=AXIS2_PLACEMENT_3D('',#847,#691,#692);
#565=AXIS2_PLACEMENT_3D('',#850,#694,#695);
#566=AXIS2_PLACEMENT_3D('',#851,#696,#697);
#567=AXIS2_PLACEMENT_3D('',#853,#698,#699);
#568=AXIS2_PLACEMENT_3D('',#855,#701,#702);
#569=AXIS2_PLACEMENT_3D('',#859,#705,#706);
#570=AXIS2_PLACEMENT_3D('',#861,#707,#708);
#571=AXIS2_PLACEMENT_3D('',#863,#710,#711);
#572=AXIS2_PLACEMENT_3D('',#867,#714,#715);
#573=AXIS2_PLACEMENT_3D('',#869,#716,#717);
#574=AXIS2_PLACEMENT_3D('',#871,#719,#720);
#575=AXIS2_PLACEMENT_3D('',#873,#722,#723);
#576=AXIS2_PLACEMENT_3D('',#875,#725,#726);
#577=AXIS2_PLACEMENT_3D('',#877,#728,#729);
#578=DIRECTION('axis',(0.,0.,1.));
#579=DIRECTION('refdir',(1.,0.,0.));
#580=DIRECTION('center_axis',(0.,0.,-1.));
#581=DIRECTION('ref_axis',(-0.70710678118644,-0.707106781186655,0.));
#582=DIRECTION('center_axis',(0.,0.,1.));
#583=DIRECTION('ref_axis',(-0.70710678118644,-0.707106781186655,0.));
#584=DIRECTION('',(0.,0.,1.));
#585=DIRECTION('center_axis',(0.,0.,1.));
#586=DIRECTION('ref_axis',(-0.70710678118644,-0.707106781186655,0.));
#587=DIRECTION('',(0.,0.,-1.));
#588=DIRECTION('center_axis',(0.,0.,-1.));
#589=DIRECTION('ref_axis',(-1.,0.,0.));
#590=DIRECTION('',(-1.45439216225868E-13,1.,0.));
#591=DIRECTION('center_axis',(0.,0.,1.));
#592=DIRECTION('ref_axis',(-0.707106781186599,0.707106781186496,0.));
#593=DIRECTION('',(1.,-1.70803542250024E-16,0.));
#594=DIRECTION('center_axis',(0.,0.,1.));
#595=DIRECTION('ref_axis',(0.707106781186548,0.707106781186547,0.));
#596=DIRECTION('',(0.,-1.,0.));
#597=DIRECTION('center_axis',(0.,0.,1.));
#598=DIRECTION('ref_axis',(0.707106781186603,-0.707106781186493,0.));
#599=DIRECTION('',(-1.,-1.57117908427248E-13,0.));
#600=DIRECTION('',(-1.11022302462516E-15,1.,0.));
#601=DIRECTION('center_axis',(0.,0.,-1.));
#602=DIRECTION('ref_axis',(0.707106781186548,0.707106781186548,0.));
#603=DIRECTION('',(-1.,-2.31296463463574E-17,0.));
#604=DIRECTION('center_axis',(0.,0.,-1.));
#605=DIRECTION('ref_axis',(-0.707106781186547,0.707106781186548,0.));
#606=DIRECTION('',(-1.11022302462516E-15,-1.,0.));
#607=DIRECTION('center_axis',(0.,0.,-1.));
#608=DIRECTION('ref_axis',(-0.707106781186548,-0.707106781186547,0.));
#609=DIRECTION('',(1.,-2.31296463463574E-17,0.));
#610=DIRECTION('center_axis',(0.,0.,-1.));
#611=DIRECTION('ref_axis',(0.70710678118655,-0.707106781186545,0.));
#612=DIRECTION('center_axis',(-1.,-1.45439216225868E-13,0.));
#613=DIRECTION('ref_axis',(-1.45439216225868E-13,1.,0.));
#614=DIRECTION('',(1.45439216225868E-13,-1.,0.));
#615=DIRECTION('',(0.,0.,1.));
#616=DIRECTION('center_axis',(0.,0.,-1.));
#617=DIRECTION('ref_axis',(-0.707106781186599,0.707106781186496,0.));
#618=DIRECTION('center_axis',(0.,0.,1.));
#619=DIRECTION('ref_axis',(-0.707106781186599,0.707106781186496,0.));
#620=DIRECTION('',(0.,0.,-1.));
#621=DIRECTION('center_axis',(0.,0.,-1.));
#622=DIRECTION('ref_axis',(0.707106781186603,-0.707106781186493,0.));
#623=DIRECTION('',(0.,0.,1.));
#624=DIRECTION('center_axis',(0.,0.,1.));
#625=DIRECTION('ref_axis',(0.707106781186603,-0.707106781186493,0.));
#626=DIRECTION('',(0.,0.,-1.));
#627=DIRECTION('center_axis',(1.,0.,0.));
#628=DIRECTION('ref_axis',(0.,-1.,0.));
#629=DIRECTION('',(0.,0.,-1.));
#630=DIRECTION('',(0.,1.,0.));
#631=DIRECTION('center_axis',(0.,0.,-1.));
#632=DIRECTION('ref_axis',(0.707106781186548,0.707106781186547,0.));
#633=DIRECTION('',(0.,0.,1.));
#634=DIRECTION('center_axis',(0.,0.,1.));
#635=DIRECTION('ref_axis',(0.707106781186548,0.707106781186547,0.));
#636=DIRECTION('center_axis',(0.,0.,-1.));
#637=DIRECTION('ref_axis',(-0.707106781186548,-0.707106781186547,0.));
#638=DIRECTION('center_axis',(0.,0.,1.));
#639=DIRECTION('ref_axis',(-0.707106781186548,-0.707106781186547,0.));
#640=DIRECTION('',(0.,0.,-1.));
#641=DIRECTION('',(0.,0.,1.));
#642=DIRECTION('center_axis',(2.31296463463574E-17,1.,0.));
#643=DIRECTION('ref_axis',(1.,-2.31296463463574E-17,0.));
#644=DIRECTION('',(-1.,2.31296463463574E-17,0.));
#645=DIRECTION('',(0.,0.,1.));
#646=DIRECTION('center_axis',(0.,0.,-1.));
#647=DIRECTION('ref_axis',(0.70710678118655,-0.707106781186545,0.));
#648=DIRECTION('center_axis',(0.,0.,1.));
#649=DIRECTION('ref_axis',(0.70710678118655,-0.707106781186545,0.));
#650=DIRECTION('',(0.,0.,-1.));
#651=DIRECTION('center_axis',(-1.,-1.11022302462516E-15,0.));
#652=DIRECTION('ref_axis',(-1.11022302462516E-15,1.,0.));
#653=DIRECTION('',(1.11022302462516E-15,-1.,0.));
#654=DIRECTION('',(0.,0.,1.));
#655=DIRECTION('center_axis',(0.,0.,-1.));
#656=DIRECTION('ref_axis',(0.707106781186548,0.707106781186548,0.));
#657=DIRECTION('center_axis',(0.,0.,1.));
#658=DIRECTION('ref_axis',(0.707106781186548,0.707106781186548,0.));
#659=DIRECTION('',(0.,0.,-1.));
#660=DIRECTION('center_axis',(2.31296463463574E-17,-1.,0.));
#661=DIRECTION('ref_axis',(-1.,-2.31296463463574E-17,0.));
#662=DIRECTION('',(1.,2.31296463463574E-17,0.));
#663=DIRECTION('',(0.,0.,1.));
#664=DIRECTION('center_axis',(0.,0.,-1.));
#665=DIRECTION('ref_axis',(-0.707106781186547,0.707106781186548,0.));
#666=DIRECTION('center_axis',(0.,0.,1.));
#667=DIRECTION('ref_axis',(-0.707106781186547,0.707106781186548,0.));
#668=DIRECTION('',(0.,0.,-1.));
#669=DIRECTION('center_axis',(1.,-1.11022302462516E-15,0.));
#670=DIRECTION('ref_axis',(-1.11022302462516E-15,-1.,0.));
#671=DIRECTION('',(1.11022302462516E-15,1.,0.));
#672=DIRECTION('center_axis',(0.,0.,-1.));
#673=DIRECTION('ref_axis',(0.707106781186547,0.707106781186547,0.));
#674=DIRECTION('center_axis',(0.,0.,1.));
#675=DIRECTION('ref_axis',(0.707106781186547,0.707106781186547,0.));
#676=DIRECTION('',(0.,0.,1.));
#677=DIRECTION('center_axis',(0.,0.,-1.));
#678=DIRECTION('ref_axis',(0.707106781186547,0.707106781186547,0.));
#679=DIRECTION('',(0.,0.,-1.));
#680=DIRECTION('center_axis',(1.,0.,0.));
#681=DIRECTION('ref_axis',(0.,-1.,0.));
#682=DIRECTION('',(0.,1.,0.));
#683=DIRECTION('',(0.,0.,1.));
#684=DIRECTION('',(0.,-1.,0.));
#685=DIRECTION('center_axis',(0.,0.,1.));
#686=DIRECTION('ref_axis',(1.,0.,0.));
#687=DIRECTION('',(-1.,0.,0.));
#688=DIRECTION('center_axis',(0.,0.,-1.));
#689=DIRECTION('ref_axis',(-0.707106781186547,0.707106781186547,0.));
#690=DIRECTION('',(0.,-1.,0.));
#691=DIRECTION('center_axis',(0.,0.,-1.));
#692=DIRECTION('ref_axis',(-0.707106781186547,-0.707106781186547,0.));
#693=DIRECTION('',(1.,0.,0.));
#694=DIRECTION('center_axis',(0.,0.,-1.));
#695=DIRECTION('ref_axis',(0.707106781186547,-0.707106781186547,0.));
#696=DIRECTION('center_axis',(0.,0.,-1.));
#697=DIRECTION('ref_axis',(0.707106781186547,-0.707106781186547,0.));
#698=DIRECTION('center_axis',(0.,0.,1.));
#699=DIRECTION('ref_axis',(0.707106781186547,-0.707106781186547,0.));
#700=DIRECTION('',(0.,0.,-1.));
#701=DIRECTION('center_axis',(0.,-1.,0.));
#702=DIRECTION('ref_axis',(-1.,0.,0.));
#703=DIRECTION('',(0.,0.,1.));
#704=DIRECTION('',(-1.,0.,0.));
#705=DIRECTION('center_axis',(0.,0.,-1.));
#706=DIRECTION('ref_axis',(-0.707106781186547,-0.707106781186547,0.));
#707=DIRECTION('center_axis',(0.,0.,1.));
#708=DIRECTION('ref_axis',(-0.707106781186547,-0.707106781186547,0.));
#709=DIRECTION('',(0.,0.,-1.));
#710=DIRECTION('center_axis',(-1.,0.,0.));
#711=DIRECTION('ref_axis',(0.,1.,0.));
#712=DIRECTION('',(0.,0.,1.));
#713=DIRECTION('',(0.,1.,0.));
#714=DIRECTION('center_axis',(0.,0.,-1.));
#715=DIRECTION('ref_axis',(-0.707106781186547,0.707106781186547,0.));
#716=DIRECTION('center_axis',(0.,0.,1.));
#717=DIRECTION('ref_axis',(-0.707106781186547,0.707106781186547,0.));
#718=DIRECTION('',(0.,0.,-1.));
#719=DIRECTION('center_axis',(1.57117908427248E-13,-1.,0.));
#720=DIRECTION('ref_axis',(-1.,-1.57117908427248E-13,0.));
#721=DIRECTION('',(1.,1.57117908427248E-13,0.));
#722=DIRECTION('center_axis',(1.70803542250024E-16,1.,0.));
#723=DIRECTION('ref_axis',(1.,-1.70803542250024E-16,0.));
#724=DIRECTION('',(-1.,1.70803542250024E-16,0.));
#725=DIRECTION('center_axis',(0.,1.,0.));
#726=DIRECTION('ref_axis',(1.,0.,0.));
#727=DIRECTION('',(1.,0.,0.));
#728=DIRECTION('center_axis',(0.,0.,-1.));
#729=DIRECTION('ref_axis',(-1.,0.,0.));
#730=CARTESIAN_POINT('',(0.,0.,0.));
#731=CARTESIAN_POINT('Origin',(-11.9999999999972,-3.00000000000122,0.));
#732=CARTESIAN_POINT('',(-12.9999999999972,-3.00000000000136,-3.));
#733=CARTESIAN_POINT('',(-11.999999999997,-4.00000000000122,-3.));
#734=CARTESIAN_POINT('Origin',(-11.9999999999972,-3.00000000000122,-3.));
#735=CARTESIAN_POINT('',(-11.999999999997,-4.00000000000122,-1.));
#736=CARTESIAN_POINT('',(-11.999999999997,-4.00000000000122,0.));
#737=CARTESIAN_POINT('',(-12.9999999999972,-3.00000000000136,-1.));
#738=CARTESIAN_POINT('Origin',(-11.9999999999972,-3.00000000000122,-1.));
#739=CARTESIAN_POINT('',(-12.9999999999972,-3.00000000000136,0.));
#740=CARTESIAN_POINT('Origin',(1.79412040779425E-12,-6.10067552031524E-13,
-3.));
#741=CARTESIAN_POINT('',(-12.9999999999981,3.00000000000001,-3.));
#742=CARTESIAN_POINT('',(-12.9999999999982,4.00000000000016,-3.));
#743=CARTESIAN_POINT('',(-11.9999999999981,4.00000000000016,-3.));
#744=CARTESIAN_POINT('Origin',(-11.9999999999981,3.00000000000015,-3.));
#745=CARTESIAN_POINT('',(12.0000000000018,4.00000000000015,-3.));
#746=CARTESIAN_POINT('',(13.0000000000018,4.00000000000015,-3.));
#747=CARTESIAN_POINT('',(13.0000000000018,3.00000000000015,-3.));
#748=CARTESIAN_POINT('Origin',(12.0000000000018,3.00000000000015,-3.));
#749=CARTESIAN_POINT('',(13.0000000000018,-2.99999999999745,-3.));
#750=CARTESIAN_POINT('',(13.0000000000018,-3.99999999999729,-3.));
#751=CARTESIAN_POINT('',(12.0000000000019,-3.99999999999745,-3.));
#752=CARTESIAN_POINT('Origin',(12.0000000000018,-2.99999999999745,-3.));
#753=CARTESIAN_POINT('',(-12.999999999997,-4.00000000000137,-3.));
#754=CARTESIAN_POINT('',(12.0000000000018,-1.9999999999997,-3.));
#755=CARTESIAN_POINT('',(12.0000000000018,2.0000000000003,-3.));
#756=CARTESIAN_POINT('',(12.0000000000018,-2.9999999999997,-3.));
#757=CARTESIAN_POINT('',(11.0000000000018,3.0000000000003,-3.));
#758=CARTESIAN_POINT('Origin',(11.0000000000018,2.0000000000003,-3.));
#759=CARTESIAN_POINT('',(-10.9999999999982,3.0000000000003,-3.));
#760=CARTESIAN_POINT('',(12.0000000000018,3.0000000000003,-3.));
#761=CARTESIAN_POINT('',(-11.9999999999982,2.0000000000003,-3.));
#762=CARTESIAN_POINT('Origin',(-10.9999999999982,2.0000000000003,-3.));
#763=CARTESIAN_POINT('',(-11.9999999999982,-1.9999999999997,-3.));
#764=CARTESIAN_POINT('',(-11.9999999999982,3.0000000000003,-3.));
#765=CARTESIAN_POINT('',(-10.9999999999982,-2.9999999999997,-3.));
#766=CARTESIAN_POINT('Origin',(-10.9999999999982,-1.9999999999997,-3.));
#767=CARTESIAN_POINT('',(11.0000000000018,-2.9999999999997,-3.));
#768=CARTESIAN_POINT('',(-11.9999999999982,-2.9999999999997,-3.));
#769=CARTESIAN_POINT('Origin',(11.0000000000018,-1.9999999999997,-3.));
#770=CARTESIAN_POINT('Origin',(-12.999999999997,-4.00000000000137,0.));
#771=CARTESIAN_POINT('',(-12.9999999999981,3.00000000000001,-1.));
#772=CARTESIAN_POINT('',(-12.9999999999982,4.00000000000016,-1.));
#773=CARTESIAN_POINT('',(-12.9999999999981,3.00000000000001,0.));
#774=CARTESIAN_POINT('Origin',(-11.9999999999981,3.00000000000015,0.));
#775=CARTESIAN_POINT('',(-11.9999999999981,4.00000000000016,-1.));
#776=CARTESIAN_POINT('Origin',(-11.9999999999981,3.00000000000015,-1.));
#777=CARTESIAN_POINT('',(-11.9999999999981,4.00000000000016,0.));
#778=CARTESIAN_POINT('Origin',(12.0000000000018,-2.99999999999745,0.));
#779=CARTESIAN_POINT('',(13.0000000000018,-2.99999999999745,-1.));
#780=CARTESIAN_POINT('',(13.0000000000018,-2.99999999999745,0.));
#781=CARTESIAN_POINT('',(12.0000000000019,-3.99999999999745,-1.));
#782=CARTESIAN_POINT('Origin',(12.0000000000018,-2.99999999999745,-1.));
#783=CARTESIAN_POINT('',(12.0000000000019,-3.99999999999745,0.));
#784=CARTESIAN_POINT('Origin',(13.0000000000018,4.00000000000015,0.));
#785=CARTESIAN_POINT('',(13.0000000000018,3.00000000000015,-1.));
#786=CARTESIAN_POINT('',(13.0000000000018,3.00000000000015,0.));
#787=CARTESIAN_POINT('',(13.0000000000018,-3.99999999999729,-1.));
#788=CARTESIAN_POINT('Origin',(12.0000000000018,3.00000000000015,0.));
#789=CARTESIAN_POINT('',(12.0000000000018,4.00000000000015,-1.));
#790=CARTESIAN_POINT('',(12.0000000000018,4.00000000000015,0.));
#791=CARTESIAN_POINT('Origin',(12.0000000000018,3.00000000000015,-1.));
#792=CARTESIAN_POINT('Origin',(-10.9999999999982,-1.9999999999997,0.));
#793=CARTESIAN_POINT('',(-11.9999999999982,-1.9999999999997,0.));
#794=CARTESIAN_POINT('',(-10.9999999999982,-2.9999999999997,0.));
#795=CARTESIAN_POINT('Origin',(-10.9999999999982,-1.9999999999997,0.));
#796=CARTESIAN_POINT('',(-10.9999999999982,-2.9999999999997,0.));
#797=CARTESIAN_POINT('',(-11.9999999999982,-1.9999999999997,0.));
#798=CARTESIAN_POINT('Origin',(-11.9999999999982,-2.9999999999997,0.));
#799=CARTESIAN_POINT('',(11.0000000000018,-2.9999999999997,0.));
#800=CARTESIAN_POINT('',(-11.9999999999982,-2.9999999999997,0.));
#801=CARTESIAN_POINT('',(11.0000000000018,-2.9999999999997,0.));
#802=CARTESIAN_POINT('Origin',(11.0000000000018,-1.9999999999997,0.));
#803=CARTESIAN_POINT('',(12.0000000000018,-1.9999999999997,0.));
#804=CARTESIAN_POINT('Origin',(11.0000000000018,-1.9999999999997,0.));
#805=CARTESIAN_POINT('',(12.0000000000018,-1.9999999999997,0.));
#806=CARTESIAN_POINT('Origin',(12.0000000000018,-2.9999999999997,0.));
#807=CARTESIAN_POINT('',(12.0000000000018,2.0000000000003,0.));
#808=CARTESIAN_POINT('',(12.0000000000018,-2.9999999999997,0.));
#809=CARTESIAN_POINT('',(12.0000000000018,2.0000000000003,0.));
#810=CARTESIAN_POINT('Origin',(11.0000000000018,2.0000000000003,0.));
#811=CARTESIAN_POINT('',(11.0000000000018,3.0000000000003,0.));
#812=CARTESIAN_POINT('Origin',(11.0000000000018,2.0000000000003,0.));
#813=CARTESIAN_POINT('',(11.0000000000018,3.0000000000003,0.));
#814=CARTESIAN_POINT('Origin',(12.0000000000018,3.0000000000003,0.));
#815=CARTESIAN_POINT('',(-10.9999999999982,3.0000000000003,0.));
#816=CARTESIAN_POINT('',(12.0000000000018,3.0000000000003,0.));
#817=CARTESIAN_POINT('',(-10.9999999999982,3.0000000000003,0.));
#818=CARTESIAN_POINT('Origin',(-10.9999999999982,2.0000000000003,0.));
#819=CARTESIAN_POINT('',(-11.9999999999982,2.0000000000003,0.));
#820=CARTESIAN_POINT('Origin',(-10.9999999999982,2.0000000000003,0.));
#821=CARTESIAN_POINT('',(-11.9999999999982,2.0000000000003,0.));
#822=CARTESIAN_POINT('Origin',(-11.9999999999982,3.0000000000003,0.));
#823=CARTESIAN_POINT('',(-11.9999999999982,3.0000000000003,0.));
#824=CARTESIAN_POINT('Origin',(14.25,5.25,0.));
#825=CARTESIAN_POINT('',(16.75,5.25,-1.));
#826=CARTESIAN_POINT('',(14.25,7.75,-1.));
#827=CARTESIAN_POINT('Origin',(14.25,5.25,-1.));
#828=CARTESIAN_POINT('',(14.25,7.75,0.));
#829=CARTESIAN_POINT('',(14.25,7.75,0.));
#830=CARTESIAN_POINT('',(16.75,5.25,0.));
#831=CARTESIAN_POINT('Origin',(14.25,5.25,0.));
#832=CARTESIAN_POINT('',(16.75,5.25,0.));
#833=CARTESIAN_POINT('Origin',(16.75,7.75,0.));
#834=CARTESIAN_POINT('',(16.75,-5.25,0.));
#835=CARTESIAN_POINT('',(16.75,-7.75,0.));
#836=CARTESIAN_POINT('',(16.75,-5.25,-1.));
#837=CARTESIAN_POINT('',(16.75,-5.25,0.));
#838=CARTESIAN_POINT('',(16.75,-7.75,-1.));
#839=CARTESIAN_POINT('Origin',(0.,0.,0.));
#840=CARTESIAN_POINT('',(-14.25,7.75,0.));
#841=CARTESIAN_POINT('',(16.75,7.75,0.));
#842=CARTESIAN_POINT('',(-16.75,5.25,0.));
#843=CARTESIAN_POINT('Origin',(-14.25,5.25,0.));
#844=CARTESIAN_POINT('',(-16.75,-5.25,0.));
#845=CARTESIAN_POINT('',(-16.75,7.75,0.));
#846=CARTESIAN_POINT('',(-14.25,-7.75,0.));
#847=CARTESIAN_POINT('Origin',(-14.25,-5.25,0.));
#848=CARTESIAN_POINT('',(14.25,-7.75,0.));
#849=CARTESIAN_POINT('',(-16.75,-7.75,0.));
#850=CARTESIAN_POINT('Origin',(14.25,-5.25,0.));
#851=CARTESIAN_POINT('Origin',(14.25,-5.25,0.));
#852=CARTESIAN_POINT('',(14.25,-7.75,-1.));
#853=CARTESIAN_POINT('Origin',(14.25,-5.25,-1.));
#854=CARTESIAN_POINT('',(14.25,-7.75,0.));
#855=CARTESIAN_POINT('Origin',(16.75,-7.75,0.));
#856=CARTESIAN_POINT('',(-14.25,-7.75,-1.));
#857=CARTESIAN_POINT('',(-14.25,-7.75,0.));
#858=CARTESIAN_POINT('',(-16.75,-7.75,-1.));
#859=CARTESIAN_POINT('Origin',(-14.25,-5.25,0.));
#860=CARTESIAN_POINT('',(-16.75,-5.25,-1.));
#861=CARTESIAN_POINT('Origin',(-14.25,-5.25,-1.));
#862=CARTESIAN_POINT('',(-16.75,-5.25,0.));
#863=CARTESIAN_POINT('Origin',(-16.75,-7.75,0.));
#864=CARTESIAN_POINT('',(-16.75,5.25,-1.));
#865=CARTESIAN_POINT('',(-16.75,5.25,0.));
#866=CARTESIAN_POINT('',(-16.75,7.75,-1.));
#867=CARTESIAN_POINT('Origin',(-14.25,5.25,0.));
#868=CARTESIAN_POINT('',(-14.25,7.75,-1.));
#869=CARTESIAN_POINT('Origin',(-14.25,5.25,-1.));
#870=CARTESIAN_POINT('',(-14.25,7.75,0.));
#871=CARTESIAN_POINT('Origin',(13.0000000000018,-3.99999999999729,0.));
#872=CARTESIAN_POINT('',(-12.999999999997,-4.00000000000137,-1.));
#873=CARTESIAN_POINT('Origin',(-12.9999999999982,4.00000000000016,0.));
#874=CARTESIAN_POINT('',(13.0000000000018,4.00000000000015,-1.));
#875=CARTESIAN_POINT('Origin',(-16.75,7.75,0.));
#876=CARTESIAN_POINT('',(16.75,7.75,-1.));
#877=CARTESIAN_POINT('Origin',(0.,0.,-1.));
#878=UNCERTAINTY_MEASURE_WITH_UNIT(LENGTH_MEASURE(0.01),#882,
'DISTANCE_ACCURACY_VALUE',
'Maximum model space distance between geometric entities at asserted c
onnectivities');
#879=UNCERTAINTY_MEASURE_WITH_UNIT(LENGTH_MEASURE(0.01),#882,
'DISTANCE_ACCURACY_VALUE',
'Maximum model space distance between geometric entities at asserted c
onnectivities');
#880=(
GEOMETRIC_REPRESENTATION_CONTEXT(3)
GLOBAL_UNCERTAINTY_ASSIGNED_CONTEXT((#878))
GLOBAL_UNIT_ASSIGNED_CONTEXT((#882,#884,#885))
REPRESENTATION_CONTEXT('','3D')
);
#881=(
GEOMETRIC_REPRESENTATION_CONTEXT(3)
GLOBAL_UNCERTAINTY_ASSIGNED_CONTEXT((#879))
GLOBAL_UNIT_ASSIGNED_CONTEXT((#882,#884,#885))
REPRESENTATION_CONTEXT('','3D')
);
#882=(
LENGTH_UNIT()
NAMED_UNIT(*)
SI_UNIT(.MILLI.,.METRE.)
);
#883=(
LENGTH_UNIT()
NAMED_UNIT(*)
SI_UNIT($,.METRE.)
);
#884=(
NAMED_UNIT(*)
PLANE_ANGLE_UNIT()
SI_UNIT($,.RADIAN.)
);
#885=(
NAMED_UNIT(*)
SI_UNIT($,.STERADIAN.)
SOLID_ANGLE_UNIT()
);
#886=SHAPE_DEFINITION_REPRESENTATION(#887,#888);
#887=PRODUCT_DEFINITION_SHAPE('',$,#890);
#888=SHAPE_REPRESENTATION('',(#526),#880);
#889=PRODUCT_DEFINITION_CONTEXT('part definition',#894,'design');
#890=PRODUCT_DEFINITION('2026-08-23-13-11-30-054','Mast Frame Small',#891,
#889);
#891=PRODUCT_DEFINITION_FORMATION('',$,#896);
#892=PRODUCT_RELATED_PRODUCT_CATEGORY('Mast Frame Small',
'Mast Frame Small',(#896));
#893=APPLICATION_PROTOCOL_DEFINITION('international standard',
'automotive_design',2009,#894);
#894=APPLICATION_CONTEXT(
'Core Data for Automotive Mechanical Design Process');
#895=PRODUCT_CONTEXT('part definition',#894,'mechanical');
#896=PRODUCT('2026-08-23-13-11-30-054','Mast Frame Small',$,(#895));
#897=PRESENTATION_STYLE_ASSIGNMENT((#898));
#898=SURFACE_STYLE_USAGE(.BOTH.,#899);
#899=SURFACE_SIDE_STYLE('',(#900));
#900=SURFACE_STYLE_FILL_AREA(#901);
#901=FILL_AREA_STYLE('Steel - Satin',(#902));
#902=FILL_AREA_STYLE_COLOUR('Steel - Satin',#903);
#903=COLOUR_RGB('Steel - Satin',0.627450980392157,0.627450980392157,0.627450980392157);
ENDSEC;
END-ISO-10303-21;
