ISO-10303-21;
HEADER;
/* Generated by software containing ST-Developer
 * from STEP Tools, Inc. (www.steptools.com) 
 */

FILE_DESCRIPTION(
/* description */ (''),
/* implementation_level */ '2;1');

FILE_NAME(
/* name */ 'Mast_Frame_Big_v004.step',
/* time_stamp */ '2026-08-23T21:11:51+04:00',
/* author */ (''),
/* organization */ (''),
/* preprocessor_version */ 'ST-DEVELOPER v20.1',
/* originating_system */ 'Autodesk Translation Framework v15.8.0.0',
/* authorisation */ '');

FILE_SCHEMA (('AUTOMOTIVE_DESIGN { 1 0 10303 214 3 1 1 }'));
ENDSEC;

DATA;
#10=MECHANICAL_DESIGN_GEOMETRIC_PRESENTATION_REPRESENTATION('',(#13),#599);
#11=SHAPE_REPRESENTATION_RELATIONSHIP('SRR','None',#606,#12);
#12=ADVANCED_BREP_SHAPE_REPRESENTATION('',(#14),#598);
#13=STYLED_ITEM('',(#615),#14);
#14=MANIFOLD_SOLID_BREP('Body1',#347);
#15=FACE_BOUND('',#56,.T.);
#16=FACE_BOUND('',#64,.T.);
#17=PLANE('',#364);
#18=PLANE('',#368);
#19=PLANE('',#372);
#20=PLANE('',#376);
#21=PLANE('',#380);
#22=PLANE('',#381);
#23=PLANE('',#387);
#24=PLANE('',#390);
#25=PLANE('',#393);
#26=PLANE('',#394);
#27=FACE_OUTER_BOUND('',#45,.T.);
#28=FACE_OUTER_BOUND('',#46,.T.);
#29=FACE_OUTER_BOUND('',#47,.T.);
#30=FACE_OUTER_BOUND('',#48,.T.);
#31=FACE_OUTER_BOUND('',#49,.T.);
#32=FACE_OUTER_BOUND('',#50,.T.);
#33=FACE_OUTER_BOUND('',#51,.T.);
#34=FACE_OUTER_BOUND('',#52,.T.);
#35=FACE_OUTER_BOUND('',#53,.T.);
#36=FACE_OUTER_BOUND('',#54,.T.);
#37=FACE_OUTER_BOUND('',#55,.T.);
#38=FACE_OUTER_BOUND('',#57,.T.);
#39=FACE_OUTER_BOUND('',#58,.T.);
#40=FACE_OUTER_BOUND('',#59,.T.);
#41=FACE_OUTER_BOUND('',#60,.T.);
#42=FACE_OUTER_BOUND('',#61,.T.);
#43=FACE_OUTER_BOUND('',#62,.T.);
#44=FACE_OUTER_BOUND('',#63,.T.);
#45=EDGE_LOOP('',(#225,#226,#227,#228));
#46=EDGE_LOOP('',(#229,#230,#231,#232));
#47=EDGE_LOOP('',(#233,#234,#235,#236));
#48=EDGE_LOOP('',(#237,#238,#239,#240));
#49=EDGE_LOOP('',(#241,#242,#243,#244));
#50=EDGE_LOOP('',(#245,#246,#247,#248));
#51=EDGE_LOOP('',(#249,#250,#251,#252));
#52=EDGE_LOOP('',(#253,#254,#255,#256));
#53=EDGE_LOOP('',(#257,#258,#259,#260));
#54=EDGE_LOOP('',(#261,#262,#263,#264));
#55=EDGE_LOOP('',(#265,#266,#267,#268,#269,#270,#271,#272));
#56=EDGE_LOOP('',(#273,#274,#275,#276,#277,#278,#279,#280));
#57=EDGE_LOOP('',(#281,#282,#283,#284));
#58=EDGE_LOOP('',(#285,#286,#287,#288));
#59=EDGE_LOOP('',(#289,#290,#291,#292));
#60=EDGE_LOOP('',(#293,#294,#295,#296));
#61=EDGE_LOOP('',(#297,#298,#299,#300));
#62=EDGE_LOOP('',(#301,#302,#303,#304));
#63=EDGE_LOOP('',(#305,#306,#307,#308,#309,#310,#311,#312));
#64=EDGE_LOOP('',(#313,#314,#315,#316,#317,#318,#319,#320));
#65=LINE('',#503,#97);
#66=LINE('',#506,#98);
#67=LINE('',#509,#99);
#68=LINE('',#511,#100);
#69=LINE('',#512,#101);
#70=LINE('',#518,#102);
#71=LINE('',#521,#103);
#72=LINE('',#524,#104);
#73=LINE('',#526,#105);
#74=LINE('',#527,#106);
#75=LINE('',#532,#107);
#76=LINE('',#535,#108);
#77=LINE('',#536,#109);
#78=LINE('',#541,#110);
#79=LINE('',#544,#111);
#80=LINE('',#545,#112);
#81=LINE('',#551,#113);
#82=LINE('',#554,#114);
#83=LINE('',#557,#115);
#84=LINE('',#559,#116);
#85=LINE('',#560,#117);
#86=LINE('',#563,#118);
#87=LINE('',#567,#119);
#88=LINE('',#571,#120);
#89=LINE('',#576,#121);
#90=LINE('',#579,#122);
#91=LINE('',#580,#123);
#92=LINE('',#584,#124);
#93=LINE('',#587,#125);
#94=LINE('',#588,#126);
#95=LINE('',#592,#127);
#96=LINE('',#594,#128);
#97=VECTOR('',#401,10.);
#98=VECTOR('',#404,10.);
#99=VECTOR('',#407,10.);
#100=VECTOR('',#408,10.);
#101=VECTOR('',#409,10.);
#102=VECTOR('',#414,10.);
#103=VECTOR('',#417,10.);
#104=VECTOR('',#420,10.);
#105=VECTOR('',#421,10.);
#106=VECTOR('',#422,10.);
#107=VECTOR('',#427,10.);
#108=VECTOR('',#432,10.);
#109=VECTOR('',#433,10.);
#110=VECTOR('',#438,10.);
#111=VECTOR('',#443,10.);
#112=VECTOR('',#444,10.);
#113=VECTOR('',#449,10.);
#114=VECTOR('',#452,10.);
#115=VECTOR('',#455,10.);
#116=VECTOR('',#456,10.);
#117=VECTOR('',#457,10.);
#118=VECTOR('',#460,10.);
#119=VECTOR('',#463,10.);
#120=VECTOR('',#466,10.);
#121=VECTOR('',#473,10.);
#122=VECTOR('',#476,10.);
#123=VECTOR('',#477,10.);
#124=VECTOR('',#482,10.);
#125=VECTOR('',#485,10.);
#126=VECTOR('',#486,10.);
#127=VECTOR('',#491,10.);
#128=VECTOR('',#494,10.);
#129=CIRCLE('',#362,1.);
#130=CIRCLE('',#363,1.);
#131=CIRCLE('',#366,1.);
#132=CIRCLE('',#367,1.);
#133=CIRCLE('',#370,1.);
#134=CIRCLE('',#371,1.);
#135=CIRCLE('',#374,1.);
#136=CIRCLE('',#375,1.);
#137=CIRCLE('',#378,2.5);
#138=CIRCLE('',#379,2.5);
#139=CIRCLE('',#382,2.5);
#140=CIRCLE('',#383,2.5);
#141=CIRCLE('',#384,2.5);
#142=CIRCLE('',#386,2.5);
#143=CIRCLE('',#389,2.5);
#144=CIRCLE('',#392,2.5);
#145=VERTEX_POINT('',#499);
#146=VERTEX_POINT('',#500);
#147=VERTEX_POINT('',#502);
#148=VERTEX_POINT('',#504);
#149=VERTEX_POINT('',#508);
#150=VERTEX_POINT('',#510);
#151=VERTEX_POINT('',#514);
#152=VERTEX_POINT('',#515);
#153=VERTEX_POINT('',#517);
#154=VERTEX_POINT('',#519);
#155=VERTEX_POINT('',#523);
#156=VERTEX_POINT('',#525);
#157=VERTEX_POINT('',#529);
#158=VERTEX_POINT('',#531);
#159=VERTEX_POINT('',#538);
#160=VERTEX_POINT('',#540);
#161=VERTEX_POINT('',#547);
#162=VERTEX_POINT('',#548);
#163=VERTEX_POINT('',#550);
#164=VERTEX_POINT('',#552);
#165=VERTEX_POINT('',#556);
#166=VERTEX_POINT('',#558);
#167=VERTEX_POINT('',#562);
#168=VERTEX_POINT('',#564);
#169=VERTEX_POINT('',#566);
#170=VERTEX_POINT('',#568);
#171=VERTEX_POINT('',#570);
#172=VERTEX_POINT('',#574);
#173=VERTEX_POINT('',#578);
#174=VERTEX_POINT('',#582);
#175=VERTEX_POINT('',#586);
#176=VERTEX_POINT('',#590);
#177=EDGE_CURVE('',#145,#146,#129,.T.);
#178=EDGE_CURVE('',#146,#147,#65,.T.);
#179=EDGE_CURVE('',#147,#148,#130,.T.);
#180=EDGE_CURVE('',#148,#145,#66,.T.);
#181=EDGE_CURVE('',#149,#146,#67,.T.);
#182=EDGE_CURVE('',#150,#149,#68,.T.);
#183=EDGE_CURVE('',#147,#150,#69,.T.);
#184=EDGE_CURVE('',#151,#152,#131,.T.);
#185=EDGE_CURVE('',#152,#153,#70,.T.);
#186=EDGE_CURVE('',#153,#154,#132,.T.);
#187=EDGE_CURVE('',#154,#151,#71,.T.);
#188=EDGE_CURVE('',#155,#152,#72,.T.);
#189=EDGE_CURVE('',#156,#155,#73,.T.);
#190=EDGE_CURVE('',#153,#156,#74,.T.);
#191=EDGE_CURVE('',#149,#157,#133,.T.);
#192=EDGE_CURVE('',#157,#158,#75,.T.);
#193=EDGE_CURVE('',#158,#150,#134,.T.);
#194=EDGE_CURVE('',#158,#154,#76,.T.);
#195=EDGE_CURVE('',#151,#157,#77,.T.);
#196=EDGE_CURVE('',#155,#159,#135,.T.);
#197=EDGE_CURVE('',#159,#160,#78,.T.);
#198=EDGE_CURVE('',#160,#156,#136,.T.);
#199=EDGE_CURVE('',#160,#148,#79,.T.);
#200=EDGE_CURVE('',#145,#159,#80,.T.);
#201=EDGE_CURVE('',#161,#162,#137,.T.);
#202=EDGE_CURVE('',#162,#163,#81,.T.);
#203=EDGE_CURVE('',#163,#164,#138,.T.);
#204=EDGE_CURVE('',#164,#161,#82,.T.);
#205=EDGE_CURVE('',#165,#164,#83,.T.);
#206=EDGE_CURVE('',#166,#165,#84,.T.);
#207=EDGE_CURVE('',#161,#166,#85,.T.);
#208=EDGE_CURVE('',#163,#167,#86,.T.);
#209=EDGE_CURVE('',#168,#167,#139,.T.);
#210=EDGE_CURVE('',#168,#169,#87,.T.);
#211=EDGE_CURVE('',#170,#169,#140,.T.);
#212=EDGE_CURVE('',#170,#171,#88,.T.);
#213=EDGE_CURVE('',#165,#171,#141,.T.);
#214=EDGE_CURVE('',#172,#166,#142,.T.);
#215=EDGE_CURVE('',#171,#172,#89,.T.);
#216=EDGE_CURVE('',#173,#170,#90,.T.);
#217=EDGE_CURVE('',#172,#173,#91,.T.);
#218=EDGE_CURVE('',#174,#173,#143,.T.);
#219=EDGE_CURVE('',#169,#174,#92,.T.);
#220=EDGE_CURVE('',#175,#168,#93,.T.);
#221=EDGE_CURVE('',#174,#175,#94,.T.);
#222=EDGE_CURVE('',#176,#175,#144,.T.);
#223=EDGE_CURVE('',#167,#176,#95,.T.);
#224=EDGE_CURVE('',#176,#162,#96,.T.);
#225=ORIENTED_EDGE('',*,*,#177,.T.);
#226=ORIENTED_EDGE('',*,*,#178,.T.);
#227=ORIENTED_EDGE('',*,*,#179,.T.);
#228=ORIENTED_EDGE('',*,*,#180,.T.);
#229=ORIENTED_EDGE('',*,*,#178,.F.);
#230=ORIENTED_EDGE('',*,*,#181,.F.);
#231=ORIENTED_EDGE('',*,*,#182,.F.);
#232=ORIENTED_EDGE('',*,*,#183,.F.);
#233=ORIENTED_EDGE('',*,*,#184,.T.);
#234=ORIENTED_EDGE('',*,*,#185,.T.);
#235=ORIENTED_EDGE('',*,*,#186,.T.);
#236=ORIENTED_EDGE('',*,*,#187,.T.);
#237=ORIENTED_EDGE('',*,*,#185,.F.);
#238=ORIENTED_EDGE('',*,*,#188,.F.);
#239=ORIENTED_EDGE('',*,*,#189,.F.);
#240=ORIENTED_EDGE('',*,*,#190,.F.);
#241=ORIENTED_EDGE('',*,*,#191,.T.);
#242=ORIENTED_EDGE('',*,*,#192,.T.);
#243=ORIENTED_EDGE('',*,*,#193,.T.);
#244=ORIENTED_EDGE('',*,*,#182,.T.);
#245=ORIENTED_EDGE('',*,*,#187,.F.);
#246=ORIENTED_EDGE('',*,*,#194,.F.);
#247=ORIENTED_EDGE('',*,*,#192,.F.);
#248=ORIENTED_EDGE('',*,*,#195,.F.);
#249=ORIENTED_EDGE('',*,*,#196,.T.);
#250=ORIENTED_EDGE('',*,*,#197,.T.);
#251=ORIENTED_EDGE('',*,*,#198,.T.);
#252=ORIENTED_EDGE('',*,*,#189,.T.);
#253=ORIENTED_EDGE('',*,*,#180,.F.);
#254=ORIENTED_EDGE('',*,*,#199,.F.);
#255=ORIENTED_EDGE('',*,*,#197,.F.);
#256=ORIENTED_EDGE('',*,*,#200,.F.);
#257=ORIENTED_EDGE('',*,*,#201,.T.);
#258=ORIENTED_EDGE('',*,*,#202,.T.);
#259=ORIENTED_EDGE('',*,*,#203,.T.);
#260=ORIENTED_EDGE('',*,*,#204,.T.);
#261=ORIENTED_EDGE('',*,*,#204,.F.);
#262=ORIENTED_EDGE('',*,*,#205,.F.);
#263=ORIENTED_EDGE('',*,*,#206,.F.);
#264=ORIENTED_EDGE('',*,*,#207,.F.);
#265=ORIENTED_EDGE('',*,*,#203,.F.);
#266=ORIENTED_EDGE('',*,*,#208,.T.);
#267=ORIENTED_EDGE('',*,*,#209,.F.);
#268=ORIENTED_EDGE('',*,*,#210,.T.);
#269=ORIENTED_EDGE('',*,*,#211,.F.);
#270=ORIENTED_EDGE('',*,*,#212,.T.);
#271=ORIENTED_EDGE('',*,*,#213,.F.);
#272=ORIENTED_EDGE('',*,*,#205,.T.);
#273=ORIENTED_EDGE('',*,*,#181,.T.);
#274=ORIENTED_EDGE('',*,*,#177,.F.);
#275=ORIENTED_EDGE('',*,*,#200,.T.);
#276=ORIENTED_EDGE('',*,*,#196,.F.);
#277=ORIENTED_EDGE('',*,*,#188,.T.);
#278=ORIENTED_EDGE('',*,*,#184,.F.);
#279=ORIENTED_EDGE('',*,*,#195,.T.);
#280=ORIENTED_EDGE('',*,*,#191,.F.);
#281=ORIENTED_EDGE('',*,*,#214,.T.);
#282=ORIENTED_EDGE('',*,*,#206,.T.);
#283=ORIENTED_EDGE('',*,*,#213,.T.);
#284=ORIENTED_EDGE('',*,*,#215,.T.);
#285=ORIENTED_EDGE('',*,*,#215,.F.);
#286=ORIENTED_EDGE('',*,*,#212,.F.);
#287=ORIENTED_EDGE('',*,*,#216,.F.);
#288=ORIENTED_EDGE('',*,*,#217,.F.);
#289=ORIENTED_EDGE('',*,*,#218,.T.);
#290=ORIENTED_EDGE('',*,*,#216,.T.);
#291=ORIENTED_EDGE('',*,*,#211,.T.);
#292=ORIENTED_EDGE('',*,*,#219,.T.);
#293=ORIENTED_EDGE('',*,*,#219,.F.);
#294=ORIENTED_EDGE('',*,*,#210,.F.);
#295=ORIENTED_EDGE('',*,*,#220,.F.);
#296=ORIENTED_EDGE('',*,*,#221,.F.);
#297=ORIENTED_EDGE('',*,*,#222,.T.);
#298=ORIENTED_EDGE('',*,*,#220,.T.);
#299=ORIENTED_EDGE('',*,*,#209,.T.);
#300=ORIENTED_EDGE('',*,*,#223,.T.);
#301=ORIENTED_EDGE('',*,*,#202,.F.);
#302=ORIENTED_EDGE('',*,*,#224,.F.);
#303=ORIENTED_EDGE('',*,*,#223,.F.);
#304=ORIENTED_EDGE('',*,*,#208,.F.);
#305=ORIENTED_EDGE('',*,*,#201,.F.);
#306=ORIENTED_EDGE('',*,*,#207,.T.);
#307=ORIENTED_EDGE('',*,*,#214,.F.);
#308=ORIENTED_EDGE('',*,*,#217,.T.);
#309=ORIENTED_EDGE('',*,*,#218,.F.);
#310=ORIENTED_EDGE('',*,*,#221,.T.);
#311=ORIENTED_EDGE('',*,*,#222,.F.);
#312=ORIENTED_EDGE('',*,*,#224,.T.);
#313=ORIENTED_EDGE('',*,*,#183,.T.);
#314=ORIENTED_EDGE('',*,*,#193,.F.);
#315=ORIENTED_EDGE('',*,*,#194,.T.);
#316=ORIENTED_EDGE('',*,*,#186,.F.);
#317=ORIENTED_EDGE('',*,*,#190,.T.);
#318=ORIENTED_EDGE('',*,*,#198,.F.);
#319=ORIENTED_EDGE('',*,*,#199,.T.);
#320=ORIENTED_EDGE('',*,*,#179,.F.);
#321=CYLINDRICAL_SURFACE('',#361,1.);
#322=CYLINDRICAL_SURFACE('',#365,1.);
#323=CYLINDRICAL_SURFACE('',#369,1.);
#324=CYLINDRICAL_SURFACE('',#373,1.);
#325=CYLINDRICAL_SURFACE('',#377,2.5);
#326=CYLINDRICAL_SURFACE('',#385,2.5);
#327=CYLINDRICAL_SURFACE('',#388,2.5);
#328=CYLINDRICAL_SURFACE('',#391,2.5);
#329=ADVANCED_FACE('',(#27),#321,.F.);
#330=ADVANCED_FACE('',(#28),#17,.T.);
#331=ADVANCED_FACE('',(#29),#322,.F.);
#332=ADVANCED_FACE('',(#30),#18,.T.);
#333=ADVANCED_FACE('',(#31),#323,.F.);
#334=ADVANCED_FACE('',(#32),#19,.T.);
#335=ADVANCED_FACE('',(#33),#324,.F.);
#336=ADVANCED_FACE('',(#34),#20,.T.);
#337=ADVANCED_FACE('',(#35),#325,.T.);
#338=ADVANCED_FACE('',(#36),#21,.T.);
#339=ADVANCED_FACE('',(#37,#15),#22,.T.);
#340=ADVANCED_FACE('',(#38),#326,.T.);
#341=ADVANCED_FACE('',(#39),#23,.T.);
#342=ADVANCED_FACE('',(#40),#327,.T.);
#343=ADVANCED_FACE('',(#41),#24,.T.);
#344=ADVANCED_FACE('',(#42),#328,.T.);
#345=ADVANCED_FACE('',(#43),#25,.T.);
#346=ADVANCED_FACE('',(#44,#16),#26,.T.);
#347=CLOSED_SHELL('',(#329,#330,#331,#332,#333,#334,#335,#336,#337,#338,
#339,#340,#341,#342,#343,#344,#345,#346));
#348=DERIVED_UNIT_ELEMENT(#350,1.);
#349=DERIVED_UNIT_ELEMENT(#601,-3.);
#350=(
MASS_UNIT()
NAMED_UNIT(*)
SI_UNIT(.KILO.,.GRAM.)
);
#351=DERIVED_UNIT((#348,#349));
#352=MEASURE_REPRESENTATION_ITEM('density measure',
POSITIVE_RATIO_MEASURE(7850.),#351);
#353=PROPERTY_DEFINITION_REPRESENTATION(#358,#355);
#354=PROPERTY_DEFINITION_REPRESENTATION(#359,#356);
#355=REPRESENTATION('material name',(#357),#598);
#356=REPRESENTATION('density',(#352),#598);
#357=DESCRIPTIVE_REPRESENTATION_ITEM('Steel','Steel');
#358=PROPERTY_DEFINITION('material property','material name',#608);
#359=PROPERTY_DEFINITION('material property','density of part',#608);
#360=AXIS2_PLACEMENT_3D('',#497,#395,#396);
#361=AXIS2_PLACEMENT_3D('',#498,#397,#398);
#362=AXIS2_PLACEMENT_3D('',#501,#399,#400);
#363=AXIS2_PLACEMENT_3D('',#505,#402,#403);
#364=AXIS2_PLACEMENT_3D('',#507,#405,#406);
#365=AXIS2_PLACEMENT_3D('',#513,#410,#411);
#366=AXIS2_PLACEMENT_3D('',#516,#412,#413);
#367=AXIS2_PLACEMENT_3D('',#520,#415,#416);
#368=AXIS2_PLACEMENT_3D('',#522,#418,#419);
#369=AXIS2_PLACEMENT_3D('',#528,#423,#424);
#370=AXIS2_PLACEMENT_3D('',#530,#425,#426);
#371=AXIS2_PLACEMENT_3D('',#533,#428,#429);
#372=AXIS2_PLACEMENT_3D('',#534,#430,#431);
#373=AXIS2_PLACEMENT_3D('',#537,#434,#435);
#374=AXIS2_PLACEMENT_3D('',#539,#436,#437);
#375=AXIS2_PLACEMENT_3D('',#542,#439,#440);
#376=AXIS2_PLACEMENT_3D('',#543,#441,#442);
#377=AXIS2_PLACEMENT_3D('',#546,#445,#446);
#378=AXIS2_PLACEMENT_3D('',#549,#447,#448);
#379=AXIS2_PLACEMENT_3D('',#553,#450,#451);
#380=AXIS2_PLACEMENT_3D('',#555,#453,#454);
#381=AXIS2_PLACEMENT_3D('',#561,#458,#459);
#382=AXIS2_PLACEMENT_3D('',#565,#461,#462);
#383=AXIS2_PLACEMENT_3D('',#569,#464,#465);
#384=AXIS2_PLACEMENT_3D('',#572,#467,#468);
#385=AXIS2_PLACEMENT_3D('',#573,#469,#470);
#386=AXIS2_PLACEMENT_3D('',#575,#471,#472);
#387=AXIS2_PLACEMENT_3D('',#577,#474,#475);
#388=AXIS2_PLACEMENT_3D('',#581,#478,#479);
#389=AXIS2_PLACEMENT_3D('',#583,#480,#481);
#390=AXIS2_PLACEMENT_3D('',#585,#483,#484);
#391=AXIS2_PLACEMENT_3D('',#589,#487,#488);
#392=AXIS2_PLACEMENT_3D('',#591,#489,#490);
#393=AXIS2_PLACEMENT_3D('',#593,#492,#493);
#394=AXIS2_PLACEMENT_3D('',#595,#495,#496);
#395=DIRECTION('axis',(0.,0.,1.));
#396=DIRECTION('refdir',(1.,0.,0.));
#397=DIRECTION('center_axis',(0.,0.,-1.));
#398=DIRECTION('ref_axis',(0.707106781186548,-0.707106781186548,0.));
#399=DIRECTION('center_axis',(0.,0.,1.));
#400=DIRECTION('ref_axis',(0.707106781186548,-0.707106781186548,0.));
#401=DIRECTION('',(0.,0.,-1.));
#402=DIRECTION('center_axis',(0.,0.,-1.));
#403=DIRECTION('ref_axis',(0.707106781186548,-0.707106781186548,0.));
#404=DIRECTION('',(0.,0.,1.));
#405=DIRECTION('center_axis',(-1.,7.93016446160826E-17,0.));
#406=DIRECTION('ref_axis',(7.93016446160826E-17,1.,0.));
#407=DIRECTION('',(-7.93016446160826E-17,-1.,0.));
#408=DIRECTION('',(0.,0.,1.));
#409=DIRECTION('',(7.93016446160826E-17,1.,0.));
#410=DIRECTION('center_axis',(0.,0.,-1.));
#411=DIRECTION('ref_axis',(-0.707106781186548,0.707106781186548,0.));
#412=DIRECTION('center_axis',(0.,0.,1.));
#413=DIRECTION('ref_axis',(-0.707106781186548,0.707106781186548,0.));
#414=DIRECTION('',(0.,0.,-1.));
#415=DIRECTION('center_axis',(0.,0.,-1.));
#416=DIRECTION('ref_axis',(-0.707106781186548,0.707106781186548,0.));
#417=DIRECTION('',(0.,0.,1.));
#418=DIRECTION('center_axis',(1.,-2.37904933848248E-16,0.));
#419=DIRECTION('ref_axis',(-2.37904933848248E-16,-1.,0.));
#420=DIRECTION('',(2.37904933848248E-16,1.,0.));
#421=DIRECTION('',(0.,0.,1.));
#422=DIRECTION('',(-2.37904933848248E-16,-1.,0.));
#423=DIRECTION('center_axis',(0.,0.,-1.));
#424=DIRECTION('ref_axis',(0.707106781186548,0.707106781186548,0.));
#425=DIRECTION('center_axis',(0.,0.,1.));
#426=DIRECTION('ref_axis',(0.707106781186548,0.707106781186548,0.));
#427=DIRECTION('',(0.,0.,-1.));
#428=DIRECTION('center_axis',(0.,0.,-1.));
#429=DIRECTION('ref_axis',(0.707106781186548,0.707106781186548,0.));
#430=DIRECTION('center_axis',(9.25185853854297E-17,-1.,0.));
#431=DIRECTION('ref_axis',(-1.,-9.25185853854297E-17,0.));
#432=DIRECTION('',(-1.,-9.25185853854297E-17,0.));
#433=DIRECTION('',(1.,9.25185853854297E-17,0.));
#434=DIRECTION('center_axis',(0.,0.,-1.));
#435=DIRECTION('ref_axis',(-0.707106781186548,-0.707106781186548,0.));
#436=DIRECTION('center_axis',(0.,0.,1.));
#437=DIRECTION('ref_axis',(-0.707106781186548,-0.707106781186548,0.));
#438=DIRECTION('',(0.,0.,-1.));
#439=DIRECTION('center_axis',(0.,0.,-1.));
#440=DIRECTION('ref_axis',(-0.707106781186548,-0.707106781186548,0.));
#441=DIRECTION('center_axis',(0.,1.,0.));
#442=DIRECTION('ref_axis',(1.,0.,0.));
#443=DIRECTION('',(1.,0.,0.));
#444=DIRECTION('',(-1.,0.,0.));
#445=DIRECTION('center_axis',(0.,0.,-1.));
#446=DIRECTION('ref_axis',(0.707106781186547,0.707106781186547,0.));
#447=DIRECTION('center_axis',(0.,0.,1.));
#448=DIRECTION('ref_axis',(0.707106781186547,0.707106781186547,0.));
#449=DIRECTION('',(0.,0.,1.));
#450=DIRECTION('center_axis',(0.,0.,-1.));
#451=DIRECTION('ref_axis',(0.707106781186547,0.707106781186547,0.));
#452=DIRECTION('',(0.,0.,-1.));
#453=DIRECTION('center_axis',(1.,0.,0.));
#454=DIRECTION('ref_axis',(0.,-1.,0.));
#455=DIRECTION('',(0.,1.,0.));
#456=DIRECTION('',(0.,0.,1.));
#457=DIRECTION('',(0.,-1.,0.));
#458=DIRECTION('center_axis',(0.,0.,1.));
#459=DIRECTION('ref_axis',(1.,0.,0.));
#460=DIRECTION('',(-1.,0.,0.));
#461=DIRECTION('center_axis',(0.,0.,-1.));
#462=DIRECTION('ref_axis',(-0.707106781186547,0.707106781186547,0.));
#463=DIRECTION('',(0.,-1.,0.));
#464=DIRECTION('center_axis',(0.,0.,-1.));
#465=DIRECTION('ref_axis',(-0.707106781186547,-0.707106781186547,0.));
#466=DIRECTION('',(1.,0.,0.));
#467=DIRECTION('center_axis',(0.,0.,-1.));
#468=DIRECTION('ref_axis',(0.707106781186547,-0.707106781186547,0.));
#469=DIRECTION('center_axis',(0.,0.,-1.));
#470=DIRECTION('ref_axis',(0.707106781186547,-0.707106781186547,0.));
#471=DIRECTION('center_axis',(0.,0.,1.));
#472=DIRECTION('ref_axis',(0.707106781186547,-0.707106781186547,0.));
#473=DIRECTION('',(0.,0.,-1.));
#474=DIRECTION('center_axis',(0.,-1.,0.));
#475=DIRECTION('ref_axis',(-1.,0.,0.));
#476=DIRECTION('',(0.,0.,1.));
#477=DIRECTION('',(-1.,0.,0.));
#478=DIRECTION('center_axis',(0.,0.,-1.));
#479=DIRECTION('ref_axis',(-0.707106781186547,-0.707106781186547,0.));
#480=DIRECTION('center_axis',(0.,0.,1.));
#481=DIRECTION('ref_axis',(-0.707106781186547,-0.707106781186547,0.));
#482=DIRECTION('',(0.,0.,-1.));
#483=DIRECTION('center_axis',(-1.,0.,0.));
#484=DIRECTION('ref_axis',(0.,1.,0.));
#485=DIRECTION('',(0.,0.,1.));
#486=DIRECTION('',(0.,1.,0.));
#487=DIRECTION('center_axis',(0.,0.,-1.));
#488=DIRECTION('ref_axis',(-0.707106781186547,0.707106781186547,0.));
#489=DIRECTION('center_axis',(0.,0.,1.));
#490=DIRECTION('ref_axis',(-0.707106781186547,0.707106781186547,0.));
#491=DIRECTION('',(0.,0.,-1.));
#492=DIRECTION('center_axis',(0.,1.,0.));
#493=DIRECTION('ref_axis',(1.,0.,0.));
#494=DIRECTION('',(1.,0.,0.));
#495=DIRECTION('center_axis',(0.,0.,-1.));
#496=DIRECTION('ref_axis',(-1.,0.,0.));
#497=CARTESIAN_POINT('',(0.,0.,0.));
#498=CARTESIAN_POINT('Origin',(11.0000000000004,-12.9999999999991,0.));
#499=CARTESIAN_POINT('',(11.0000000000004,-13.9999999999991,0.));
#500=CARTESIAN_POINT('',(12.0000000000004,-12.9999999999991,0.));
#501=CARTESIAN_POINT('Origin',(11.0000000000004,-12.9999999999991,0.));
#502=CARTESIAN_POINT('',(12.0000000000004,-12.9999999999991,-1.));
#503=CARTESIAN_POINT('',(12.0000000000004,-12.9999999999991,0.));
#504=CARTESIAN_POINT('',(11.0000000000004,-13.9999999999991,-1.));
#505=CARTESIAN_POINT('Origin',(11.0000000000004,-12.9999999999991,-1.));
#506=CARTESIAN_POINT('',(11.0000000000004,-13.9999999999991,0.));
#507=CARTESIAN_POINT('Origin',(12.0000000000004,-13.9999999999991,0.));
#508=CARTESIAN_POINT('',(12.0000000000004,13.0000000000009,0.));
#509=CARTESIAN_POINT('',(12.0000000000004,-13.9999999999991,0.));
#510=CARTESIAN_POINT('',(12.0000000000004,13.0000000000009,-1.));
#511=CARTESIAN_POINT('',(12.0000000000004,13.0000000000009,0.));
#512=CARTESIAN_POINT('',(12.0000000000004,-13.9999999999991,-1.));
#513=CARTESIAN_POINT('Origin',(-10.9999999999996,13.0000000000009,0.));
#514=CARTESIAN_POINT('',(-10.9999999999996,14.0000000000009,0.));
#515=CARTESIAN_POINT('',(-11.9999999999996,13.0000000000009,0.));
#516=CARTESIAN_POINT('Origin',(-10.9999999999996,13.0000000000009,0.));
#517=CARTESIAN_POINT('',(-11.9999999999996,13.0000000000009,-1.));
#518=CARTESIAN_POINT('',(-11.9999999999996,13.0000000000009,0.));
#519=CARTESIAN_POINT('',(-10.9999999999996,14.0000000000009,-1.));
#520=CARTESIAN_POINT('Origin',(-10.9999999999996,13.0000000000009,-1.));
#521=CARTESIAN_POINT('',(-10.9999999999996,14.0000000000009,0.));
#522=CARTESIAN_POINT('Origin',(-11.9999999999996,14.0000000000009,0.));
#523=CARTESIAN_POINT('',(-11.9999999999996,-12.9999999999991,0.));
#524=CARTESIAN_POINT('',(-11.9999999999996,14.0000000000009,0.));
#525=CARTESIAN_POINT('',(-11.9999999999996,-12.9999999999991,-1.));
#526=CARTESIAN_POINT('',(-11.9999999999996,-12.9999999999991,0.));
#527=CARTESIAN_POINT('',(-11.9999999999996,14.0000000000009,-1.));
#528=CARTESIAN_POINT('Origin',(11.0000000000004,13.0000000000009,0.));
#529=CARTESIAN_POINT('',(11.0000000000004,14.0000000000009,0.));
#530=CARTESIAN_POINT('Origin',(11.0000000000004,13.0000000000009,0.));
#531=CARTESIAN_POINT('',(11.0000000000004,14.0000000000009,-1.));
#532=CARTESIAN_POINT('',(11.0000000000004,14.0000000000009,0.));
#533=CARTESIAN_POINT('Origin',(11.0000000000004,13.0000000000009,-1.));
#534=CARTESIAN_POINT('Origin',(12.0000000000004,14.0000000000009,0.));
#535=CARTESIAN_POINT('',(12.0000000000004,14.0000000000009,-1.));
#536=CARTESIAN_POINT('',(12.0000000000004,14.0000000000009,0.));
#537=CARTESIAN_POINT('Origin',(-10.9999999999996,-12.9999999999991,0.));
#538=CARTESIAN_POINT('',(-10.9999999999996,-13.9999999999991,0.));
#539=CARTESIAN_POINT('Origin',(-10.9999999999996,-12.9999999999991,0.));
#540=CARTESIAN_POINT('',(-10.9999999999996,-13.9999999999991,-1.));
#541=CARTESIAN_POINT('',(-10.9999999999996,-13.9999999999991,0.));
#542=CARTESIAN_POINT('Origin',(-10.9999999999996,-12.9999999999991,-1.));
#543=CARTESIAN_POINT('Origin',(-11.9999999999996,-13.9999999999991,0.));
#544=CARTESIAN_POINT('',(-11.9999999999996,-13.9999999999991,-1.));
#545=CARTESIAN_POINT('',(-11.9999999999996,-13.9999999999991,0.));
#546=CARTESIAN_POINT('Origin',(14.25,16.25,0.));
#547=CARTESIAN_POINT('',(16.75,16.25,-1.));
#548=CARTESIAN_POINT('',(14.25,18.75,-1.));
#549=CARTESIAN_POINT('Origin',(14.25,16.25,-1.));
#550=CARTESIAN_POINT('',(14.25,18.75,0.));
#551=CARTESIAN_POINT('',(14.25,18.75,0.));
#552=CARTESIAN_POINT('',(16.75,16.25,0.));
#553=CARTESIAN_POINT('Origin',(14.25,16.25,0.));
#554=CARTESIAN_POINT('',(16.75,16.25,0.));
#555=CARTESIAN_POINT('Origin',(16.75,18.75,0.));
#556=CARTESIAN_POINT('',(16.75,-16.25,0.));
#557=CARTESIAN_POINT('',(16.75,-18.75,0.));
#558=CARTESIAN_POINT('',(16.75,-16.25,-1.));
#559=CARTESIAN_POINT('',(16.75,-16.25,0.));
#560=CARTESIAN_POINT('',(16.75,-18.75,-1.));
#561=CARTESIAN_POINT('Origin',(0.,0.,0.));
#562=CARTESIAN_POINT('',(-14.25,18.75,0.));
#563=CARTESIAN_POINT('',(16.75,18.75,0.));
#564=CARTESIAN_POINT('',(-16.75,16.25,0.));
#565=CARTESIAN_POINT('Origin',(-14.25,16.25,0.));
#566=CARTESIAN_POINT('',(-16.75,-16.25,0.));
#567=CARTESIAN_POINT('',(-16.75,18.75,0.));
#568=CARTESIAN_POINT('',(-14.25,-18.75,0.));
#569=CARTESIAN_POINT('Origin',(-14.25,-16.25,0.));
#570=CARTESIAN_POINT('',(14.25,-18.75,0.));
#571=CARTESIAN_POINT('',(-16.75,-18.75,0.));
#572=CARTESIAN_POINT('Origin',(14.25,-16.25,0.));
#573=CARTESIAN_POINT('Origin',(14.25,-16.25,0.));
#574=CARTESIAN_POINT('',(14.25,-18.75,-1.));
#575=CARTESIAN_POINT('Origin',(14.25,-16.25,-1.));
#576=CARTESIAN_POINT('',(14.25,-18.75,0.));
#577=CARTESIAN_POINT('Origin',(16.75,-18.75,0.));
#578=CARTESIAN_POINT('',(-14.25,-18.75,-1.));
#579=CARTESIAN_POINT('',(-14.25,-18.75,0.));
#580=CARTESIAN_POINT('',(-16.75,-18.75,-1.));
#581=CARTESIAN_POINT('Origin',(-14.25,-16.25,0.));
#582=CARTESIAN_POINT('',(-16.75,-16.25,-1.));
#583=CARTESIAN_POINT('Origin',(-14.25,-16.25,-1.));
#584=CARTESIAN_POINT('',(-16.75,-16.25,0.));
#585=CARTESIAN_POINT('Origin',(-16.75,-18.75,0.));
#586=CARTESIAN_POINT('',(-16.75,16.25,-1.));
#587=CARTESIAN_POINT('',(-16.75,16.25,0.));
#588=CARTESIAN_POINT('',(-16.75,18.75,-1.));
#589=CARTESIAN_POINT('Origin',(-14.25,16.25,0.));
#590=CARTESIAN_POINT('',(-14.25,18.75,-1.));
#591=CARTESIAN_POINT('Origin',(-14.25,16.25,-1.));
#592=CARTESIAN_POINT('',(-14.25,18.75,0.));
#593=CARTESIAN_POINT('Origin',(-16.75,18.75,0.));
#594=CARTESIAN_POINT('',(16.75,18.75,-1.));
#595=CARTESIAN_POINT('Origin',(0.,0.,-1.));
#596=UNCERTAINTY_MEASURE_WITH_UNIT(LENGTH_MEASURE(0.01),#600,
'DISTANCE_ACCURACY_VALUE',
'Maximum model space distance between geometric entities at asserted c
onnectivities');
#597=UNCERTAINTY_MEASURE_WITH_UNIT(LENGTH_MEASURE(0.01),#600,
'DISTANCE_ACCURACY_VALUE',
'Maximum model space distance between geometric entities at asserted c
onnectivities');
#598=(
GEOMETRIC_REPRESENTATION_CONTEXT(3)
GLOBAL_UNCERTAINTY_ASSIGNED_CONTEXT((#596))
GLOBAL_UNIT_ASSIGNED_CONTEXT((#600,#602,#603))
REPRESENTATION_CONTEXT('','3D')
);
#599=(
GEOMETRIC_REPRESENTATION_CONTEXT(3)
GLOBAL_UNCERTAINTY_ASSIGNED_CONTEXT((#597))
GLOBAL_UNIT_ASSIGNED_CONTEXT((#600,#602,#603))
REPRESENTATION_CONTEXT('','3D')
);
#600=(
LENGTH_UNIT()
NAMED_UNIT(*)
SI_UNIT(.MILLI.,.METRE.)
);
#601=(
LENGTH_UNIT()
NAMED_UNIT(*)
SI_UNIT($,.METRE.)
);
#602=(
NAMED_UNIT(*)
PLANE_ANGLE_UNIT()
SI_UNIT($,.RADIAN.)
);
#603=(
NAMED_UNIT(*)
SI_UNIT($,.STERADIAN.)
SOLID_ANGLE_UNIT()
);
#604=SHAPE_DEFINITION_REPRESENTATION(#605,#606);
#605=PRODUCT_DEFINITION_SHAPE('',$,#608);
#606=SHAPE_REPRESENTATION('',(#360),#598);
#607=PRODUCT_DEFINITION_CONTEXT('part definition',#612,'design');
#608=PRODUCT_DEFINITION('2026-08-23-13-27-33-575','Mast Frame Big',#609,
#607);
#609=PRODUCT_DEFINITION_FORMATION('',$,#614);
#610=PRODUCT_RELATED_PRODUCT_CATEGORY('Mast Frame Big','Mast Frame Big',
(#614));
#611=APPLICATION_PROTOCOL_DEFINITION('international standard',
'automotive_design',2009,#612);
#612=APPLICATION_CONTEXT(
'Core Data for Automotive Mechanical Design Process');
#613=PRODUCT_CONTEXT('part definition',#612,'mechanical');
#614=PRODUCT('2026-08-23-13-27-33-575','Mast Frame Big',$,(#613));
#615=PRESENTATION_STYLE_ASSIGNMENT((#616));
#616=SURFACE_STYLE_USAGE(.BOTH.,#617);
#617=SURFACE_SIDE_STYLE('',(#618));
#618=SURFACE_STYLE_FILL_AREA(#619);
#619=FILL_AREA_STYLE('Steel - Satin',(#620));
#620=FILL_AREA_STYLE_COLOUR('Steel - Satin',#621);
#621=COLOUR_RGB('Steel - Satin',0.627450980392157,0.627450980392157,0.627450980392157);
ENDSEC;
END-ISO-10303-21;
