ISO-10303-21;
HEADER;
/* Generated by software containing ST-Developer
 * from STEP Tools, Inc. (www.steptools.com) 
 */

FILE_DESCRIPTION(
/* description */ (''),
/* implementation_level */ '2;1');

FILE_NAME(
/* name */ 'Battery Case.step',
/* time_stamp */ '2026-08-22T17:38:59+04:00',
/* author */ (''),
/* organization */ (''),
/* preprocessor_version */ 'ST-DEVELOPER v20.1',
/* originating_system */ 'Autodesk Translation Framework v15.8.0.0',
/* authorisation */ '');

FILE_SCHEMA (('AUTOMOTIVE_DESIGN { 1 0 10303 214 3 1 1 }'));
ENDSEC;

DATA;
#10=MECHANICAL_DESIGN_GEOMETRIC_PRESENTATION_REPRESENTATION('',(#13),#1509);
#11=SHAPE_REPRESENTATION_RELATIONSHIP('SRR','None',#1516,#12);
#12=ADVANCED_BREP_SHAPE_REPRESENTATION('',(#14),#1508);
#13=STYLED_ITEM('',(#1525),#14);
#14=MANIFOLD_SOLID_BREP('Body1',#909);
#15=ELLIPSE('',#961,2.82842712474619,2.);
#16=ELLIPSE('',#964,2.82842712474619,2.);
#17=ELLIPSE('',#971,2.8284271247462,2.);
#18=ELLIPSE('',#973,2.8284271247462,2.);
#19=ELLIPSE('',#981,2.82842712474619,2.);
#20=ELLIPSE('',#982,2.82842712474618,2.);
#21=ELLIPSE('',#984,2.82842712474619,2.);
#22=ELLIPSE('',#986,2.82842712474618,2.);
#23=CYLINDRICAL_SURFACE('',#934,1.45);
#24=CYLINDRICAL_SURFACE('',#938,1.45);
#25=CYLINDRICAL_SURFACE('',#942,1.45);
#26=CYLINDRICAL_SURFACE('',#946,1.45);
#27=CYLINDRICAL_SURFACE('',#948,10.);
#28=CYLINDRICAL_SURFACE('',#951,10.);
#29=CYLINDRICAL_SURFACE('',#954,10.);
#30=CYLINDRICAL_SURFACE('',#957,10.);
#31=CYLINDRICAL_SURFACE('',#980,2.);
#32=CYLINDRICAL_SURFACE('',#983,2.);
#33=CYLINDRICAL_SURFACE('',#985,2.);
#34=CYLINDRICAL_SURFACE('',#987,2.);
#35=FACE_BOUND('',#127,.T.);
#36=FACE_BOUND('',#128,.T.);
#37=FACE_BOUND('',#129,.T.);
#38=FACE_BOUND('',#130,.T.);
#39=FACE_BOUND('',#131,.T.);
#40=FACE_BOUND('',#178,.T.);
#41=FACE_BOUND('',#179,.T.);
#42=FACE_BOUND('',#180,.T.);
#43=FACE_BOUND('',#181,.T.);
#44=FACE_BOUND('',#182,.T.);
#45=PLANE('',#926);
#46=PLANE('',#950);
#47=PLANE('',#953);
#48=PLANE('',#956);
#49=PLANE('',#959);
#50=PLANE('',#960);
#51=PLANE('',#962);
#52=PLANE('',#963);
#53=PLANE('',#965);
#54=PLANE('',#966);
#55=PLANE('',#967);
#56=PLANE('',#968);
#57=PLANE('',#969);
#58=PLANE('',#970);
#59=PLANE('',#972);
#60=PLANE('',#974);
#61=PLANE('',#975);
#62=PLANE('',#976);
#63=PLANE('',#977);
#64=PLANE('',#978);
#65=PLANE('',#979);
#66=PLANE('',#988);
#67=PLANE('',#989);
#68=PLANE('',#990);
#69=PLANE('',#991);
#70=PLANE('',#992);
#71=PLANE('',#993);
#72=PLANE('',#994);
#73=PLANE('',#995);
#74=PLANE('',#996);
#75=PLANE('',#997);
#76=PLANE('',#998);
#77=FACE_OUTER_BOUND('',#125,.T.);
#78=FACE_OUTER_BOUND('',#126,.T.);
#79=FACE_OUTER_BOUND('',#132,.T.);
#80=FACE_OUTER_BOUND('',#133,.T.);
#81=FACE_OUTER_BOUND('',#134,.T.);
#82=FACE_OUTER_BOUND('',#135,.T.);
#83=FACE_OUTER_BOUND('',#136,.T.);
#84=FACE_OUTER_BOUND('',#137,.T.);
#85=FACE_OUTER_BOUND('',#138,.T.);
#86=FACE_OUTER_BOUND('',#139,.T.);
#87=FACE_OUTER_BOUND('',#140,.T.);
#88=FACE_OUTER_BOUND('',#141,.T.);
#89=FACE_OUTER_BOUND('',#142,.T.);
#90=FACE_OUTER_BOUND('',#143,.T.);
#91=FACE_OUTER_BOUND('',#144,.T.);
#92=FACE_OUTER_BOUND('',#145,.T.);
#93=FACE_OUTER_BOUND('',#146,.T.);
#94=FACE_OUTER_BOUND('',#147,.T.);
#95=FACE_OUTER_BOUND('',#148,.T.);
#96=FACE_OUTER_BOUND('',#149,.T.);
#97=FACE_OUTER_BOUND('',#150,.T.);
#98=FACE_OUTER_BOUND('',#151,.T.);
#99=FACE_OUTER_BOUND('',#152,.T.);
#100=FACE_OUTER_BOUND('',#153,.T.);
#101=FACE_OUTER_BOUND('',#154,.T.);
#102=FACE_OUTER_BOUND('',#155,.T.);
#103=FACE_OUTER_BOUND('',#156,.T.);
#104=FACE_OUTER_BOUND('',#157,.T.);
#105=FACE_OUTER_BOUND('',#158,.T.);
#106=FACE_OUTER_BOUND('',#159,.T.);
#107=FACE_OUTER_BOUND('',#160,.T.);
#108=FACE_OUTER_BOUND('',#161,.T.);
#109=FACE_OUTER_BOUND('',#162,.T.);
#110=FACE_OUTER_BOUND('',#163,.T.);
#111=FACE_OUTER_BOUND('',#164,.T.);
#112=FACE_OUTER_BOUND('',#165,.T.);
#113=FACE_OUTER_BOUND('',#166,.T.);
#114=FACE_OUTER_BOUND('',#167,.T.);
#115=FACE_OUTER_BOUND('',#168,.T.);
#116=FACE_OUTER_BOUND('',#169,.T.);
#117=FACE_OUTER_BOUND('',#170,.T.);
#118=FACE_OUTER_BOUND('',#171,.T.);
#119=FACE_OUTER_BOUND('',#172,.T.);
#120=FACE_OUTER_BOUND('',#173,.T.);
#121=FACE_OUTER_BOUND('',#174,.T.);
#122=FACE_OUTER_BOUND('',#175,.T.);
#123=FACE_OUTER_BOUND('',#176,.T.);
#124=FACE_OUTER_BOUND('',#177,.T.);
#125=EDGE_LOOP('',(#605,#606,#607,#608));
#126=EDGE_LOOP('',(#609,#610,#611,#612,#613,#614,#615,#616));
#127=EDGE_LOOP('',(#617));
#128=EDGE_LOOP('',(#618));
#129=EDGE_LOOP('',(#619,#620,#621,#622));
#130=EDGE_LOOP('',(#623));
#131=EDGE_LOOP('',(#624));
#132=EDGE_LOOP('',(#625,#626,#627,#628));
#133=EDGE_LOOP('',(#629,#630,#631,#632));
#134=EDGE_LOOP('',(#633,#634,#635,#636));
#135=EDGE_LOOP('',(#637,#638,#639,#640));
#136=EDGE_LOOP('',(#641,#642,#643,#644));
#137=EDGE_LOOP('',(#645,#646,#647,#648));
#138=EDGE_LOOP('',(#649,#650,#651,#652));
#139=EDGE_LOOP('',(#653,#654,#655,#656));
#140=EDGE_LOOP('',(#657,#658,#659,#660));
#141=EDGE_LOOP('',(#661,#662,#663,#664));
#142=EDGE_LOOP('',(#665,#666,#667,#668));
#143=EDGE_LOOP('',(#669,#670,#671,#672));
#144=EDGE_LOOP('',(#673,#674,#675,#676));
#145=EDGE_LOOP('',(#677,#678,#679,#680));
#146=EDGE_LOOP('',(#681,#682,#683,#684));
#147=EDGE_LOOP('',(#685,#686,#687,#688));
#148=EDGE_LOOP('',(#689,#690,#691,#692));
#149=EDGE_LOOP('',(#693,#694,#695,#696));
#150=EDGE_LOOP('',(#697,#698,#699,#700));
#151=EDGE_LOOP('',(#701,#702,#703,#704));
#152=EDGE_LOOP('',(#705,#706,#707,#708));
#153=EDGE_LOOP('',(#709,#710,#711,#712,#713,#714));
#154=EDGE_LOOP('',(#715,#716,#717,#718));
#155=EDGE_LOOP('',(#719,#720,#721,#722));
#156=EDGE_LOOP('',(#723,#724,#725,#726));
#157=EDGE_LOOP('',(#727,#728,#729,#730));
#158=EDGE_LOOP('',(#731,#732,#733,#734));
#159=EDGE_LOOP('',(#735,#736,#737,#738));
#160=EDGE_LOOP('',(#739,#740,#741,#742,#743,#744,#745,#746));
#161=EDGE_LOOP('',(#747,#748,#749,#750));
#162=EDGE_LOOP('',(#751,#752,#753,#754,#755,#756));
#163=EDGE_LOOP('',(#757,#758,#759,#760));
#164=EDGE_LOOP('',(#761,#762,#763,#764,#765,#766,#767,#768,#769,#770,#771,
#772));
#165=EDGE_LOOP('',(#773,#774,#775,#776));
#166=EDGE_LOOP('',(#777,#778,#779,#780));
#167=EDGE_LOOP('',(#781,#782,#783,#784));
#168=EDGE_LOOP('',(#785,#786,#787,#788));
#169=EDGE_LOOP('',(#789,#790,#791,#792));
#170=EDGE_LOOP('',(#793,#794,#795,#796));
#171=EDGE_LOOP('',(#797,#798,#799,#800,#801,#802));
#172=EDGE_LOOP('',(#803,#804,#805,#806));
#173=EDGE_LOOP('',(#807,#808,#809,#810));
#174=EDGE_LOOP('',(#811,#812,#813,#814));
#175=EDGE_LOOP('',(#815,#816,#817,#818,#819,#820,#821,#822,#823,#824,#825,
#826,#827,#828,#829,#830,#831,#832));
#176=EDGE_LOOP('',(#833,#834,#835,#836,#837,#838,#839,#840));
#177=EDGE_LOOP('',(#841,#842,#843,#844,#845,#846,#847,#848));
#178=EDGE_LOOP('',(#849));
#179=EDGE_LOOP('',(#850));
#180=EDGE_LOOP('',(#851));
#181=EDGE_LOOP('',(#852));
#182=EDGE_LOOP('',(#853,#854,#855,#856));
#183=LINE('',#1256,#281);
#184=LINE('',#1263,#282);
#185=LINE('',#1267,#283);
#186=LINE('',#1271,#284);
#187=LINE('',#1274,#285);
#188=LINE('',#1281,#286);
#189=LINE('',#1283,#287);
#190=LINE('',#1285,#288);
#191=LINE('',#1286,#289);
#192=LINE('',#1292,#290);
#193=LINE('',#1295,#291);
#194=LINE('',#1300,#292);
#195=LINE('',#1303,#293);
#196=LINE('',#1307,#294);
#197=LINE('',#1311,#295);
#198=LINE('',#1316,#296);
#199=LINE('',#1319,#297);
#200=LINE('',#1322,#298);
#201=LINE('',#1325,#299);
#202=LINE('',#1326,#300);
#203=LINE('',#1329,#301);
#204=LINE('',#1333,#302);
#205=LINE('',#1334,#303);
#206=LINE('',#1337,#304);
#207=LINE('',#1341,#305);
#208=LINE('',#1342,#306);
#209=LINE('',#1345,#307);
#210=LINE('',#1348,#308);
#211=LINE('',#1354,#309);
#212=LINE('',#1356,#310);
#213=LINE('',#1357,#311);
#214=LINE('',#1360,#312);
#215=LINE('',#1362,#313);
#216=LINE('',#1363,#314);
#217=LINE('',#1367,#315);
#218=LINE('',#1369,#316);
#219=LINE('',#1372,#317);
#220=LINE('',#1375,#318);
#221=LINE('',#1377,#319);
#222=LINE('',#1378,#320);
#223=LINE('',#1381,#321);
#224=LINE('',#1383,#322);
#225=LINE('',#1384,#323);
#226=LINE('',#1387,#324);
#227=LINE('',#1389,#325);
#228=LINE('',#1390,#326);
#229=LINE('',#1393,#327);
#230=LINE('',#1395,#328);
#231=LINE('',#1396,#329);
#232=LINE('',#1399,#330);
#233=LINE('',#1400,#331);
#234=LINE('',#1404,#332);
#235=LINE('',#1405,#333);
#236=LINE('',#1411,#334);
#237=LINE('',#1413,#335);
#238=LINE('',#1414,#336);
#239=LINE('',#1416,#337);
#240=LINE('',#1417,#338);
#241=LINE('',#1421,#339);
#242=LINE('',#1423,#340);
#243=LINE('',#1425,#341);
#244=LINE('',#1426,#342);
#245=LINE('',#1428,#343);
#246=LINE('',#1429,#344);
#247=LINE('',#1432,#345);
#248=LINE('',#1434,#346);
#249=LINE('',#1436,#347);
#250=LINE('',#1438,#348);
#251=LINE('',#1440,#349);
#252=LINE('',#1441,#350);
#253=LINE('',#1445,#351);
#254=LINE('',#1446,#352);
#255=LINE('',#1447,#353);
#256=LINE('',#1450,#354);
#257=LINE('',#1452,#355);
#258=LINE('',#1454,#356);
#259=LINE('',#1455,#357);
#260=LINE('',#1459,#358);
#261=LINE('',#1464,#359);
#262=LINE('',#1467,#360);
#263=LINE('',#1470,#361);
#264=LINE('',#1473,#362);
#265=LINE('',#1475,#363);
#266=LINE('',#1476,#364);
#267=LINE('',#1479,#365);
#268=LINE('',#1480,#366);
#269=LINE('',#1483,#367);
#270=LINE('',#1484,#368);
#271=LINE('',#1486,#369);
#272=LINE('',#1489,#370);
#273=LINE('',#1491,#371);
#274=LINE('',#1493,#372);
#275=LINE('',#1494,#373);
#276=LINE('',#1496,#374);
#277=LINE('',#1498,#375);
#278=LINE('',#1500,#376);
#279=LINE('',#1501,#377);
#280=LINE('',#1503,#378);
#281=VECTOR('',#1005,1.59999999999999);
#282=VECTOR('',#1012,10.);
#283=VECTOR('',#1015,10.);
#284=VECTOR('',#1018,10.);
#285=VECTOR('',#1021,10.);
#286=VECTOR('',#1026,10.);
#287=VECTOR('',#1027,10.);
#288=VECTOR('',#1028,10.);
#289=VECTOR('',#1029,10.);
#290=VECTOR('',#1036,1.45);
#291=VECTOR('',#1039,1.59999999999999);
#292=VECTOR('',#1046,1.45);
#293=VECTOR('',#1049,1.59999999999999);
#294=VECTOR('',#1054,1.45);
#295=VECTOR('',#1059,1.59999999999999);
#296=VECTOR('',#1066,1.45);
#297=VECTOR('',#1069,10.);
#298=VECTOR('',#1072,10.);
#299=VECTOR('',#1075,10.);
#300=VECTOR('',#1076,10.);
#301=VECTOR('',#1079,10.);
#302=VECTOR('',#1084,10.);
#303=VECTOR('',#1085,10.);
#304=VECTOR('',#1088,10.);
#305=VECTOR('',#1093,10.);
#306=VECTOR('',#1094,10.);
#307=VECTOR('',#1097,10.);
#308=VECTOR('',#1102,10.);
#309=VECTOR('',#1107,10.);
#310=VECTOR('',#1108,10.);
#311=VECTOR('',#1109,10.);
#312=VECTOR('',#1112,10.);
#313=VECTOR('',#1113,10.);
#314=VECTOR('',#1114,10.);
#315=VECTOR('',#1117,10.);
#316=VECTOR('',#1118,10.);
#317=VECTOR('',#1121,10.);
#318=VECTOR('',#1124,10.);
#319=VECTOR('',#1125,10.);
#320=VECTOR('',#1126,10.);
#321=VECTOR('',#1129,10.);
#322=VECTOR('',#1130,10.);
#323=VECTOR('',#1131,10.);
#324=VECTOR('',#1134,10.);
#325=VECTOR('',#1135,10.);
#326=VECTOR('',#1136,10.);
#327=VECTOR('',#1139,10.);
#328=VECTOR('',#1140,10.);
#329=VECTOR('',#1141,10.);
#330=VECTOR('',#1144,10.);
#331=VECTOR('',#1145,10.);
#332=VECTOR('',#1150,10.);
#333=VECTOR('',#1151,10.);
#334=VECTOR('',#1156,10.);
#335=VECTOR('',#1157,10.);
#336=VECTOR('',#1158,10.);
#337=VECTOR('',#1161,10.);
#338=VECTOR('',#1162,10.);
#339=VECTOR('',#1165,10.);
#340=VECTOR('',#1166,10.);
#341=VECTOR('',#1167,10.);
#342=VECTOR('',#1168,10.);
#343=VECTOR('',#1171,10.);
#344=VECTOR('',#1172,10.);
#345=VECTOR('',#1175,10.);
#346=VECTOR('',#1176,10.);
#347=VECTOR('',#1177,10.);
#348=VECTOR('',#1178,10.);
#349=VECTOR('',#1179,10.);
#350=VECTOR('',#1180,10.);
#351=VECTOR('',#1183,10.);
#352=VECTOR('',#1184,10.);
#353=VECTOR('',#1185,10.);
#354=VECTOR('',#1188,10.);
#355=VECTOR('',#1189,10.);
#356=VECTOR('',#1190,10.);
#357=VECTOR('',#1191,10.);
#358=VECTOR('',#1196,10.);
#359=VECTOR('',#1203,10.);
#360=VECTOR('',#1206,10.);
#361=VECTOR('',#1211,10.);
#362=VECTOR('',#1214,10.);
#363=VECTOR('',#1215,10.);
#364=VECTOR('',#1216,10.);
#365=VECTOR('',#1219,10.);
#366=VECTOR('',#1220,10.);
#367=VECTOR('',#1223,10.);
#368=VECTOR('',#1224,10.);
#369=VECTOR('',#1227,10.);
#370=VECTOR('',#1230,10.);
#371=VECTOR('',#1231,10.);
#372=VECTOR('',#1232,10.);
#373=VECTOR('',#1233,10.);
#374=VECTOR('',#1236,10.);
#375=VECTOR('',#1239,10.);
#376=VECTOR('',#1242,10.);
#377=VECTOR('',#1243,10.);
#378=VECTOR('',#1246,10.);
#379=CIRCLE('',#924,1.75);
#380=CIRCLE('',#925,1.45);
#381=CIRCLE('',#927,10.);
#382=CIRCLE('',#928,10.);
#383=CIRCLE('',#929,10.);
#384=CIRCLE('',#930,10.);
#385=CIRCLE('',#931,1.75);
#386=CIRCLE('',#932,1.75);
#387=CIRCLE('',#933,1.75);
#388=CIRCLE('',#935,1.45);
#389=CIRCLE('',#937,1.45);
#390=CIRCLE('',#939,1.45);
#391=CIRCLE('',#941,1.45);
#392=CIRCLE('',#943,1.45);
#393=CIRCLE('',#945,1.45);
#394=CIRCLE('',#947,1.45);
#395=CIRCLE('',#949,10.);
#396=CIRCLE('',#952,10.);
#397=CIRCLE('',#955,10.);
#398=CIRCLE('',#958,10.);
#399=VERTEX_POINT('',#1253);
#400=VERTEX_POINT('',#1255);
#401=VERTEX_POINT('',#1259);
#402=VERTEX_POINT('',#1260);
#403=VERTEX_POINT('',#1262);
#404=VERTEX_POINT('',#1264);
#405=VERTEX_POINT('',#1266);
#406=VERTEX_POINT('',#1268);
#407=VERTEX_POINT('',#1270);
#408=VERTEX_POINT('',#1272);
#409=VERTEX_POINT('',#1275);
#410=VERTEX_POINT('',#1277);
#411=VERTEX_POINT('',#1279);
#412=VERTEX_POINT('',#1280);
#413=VERTEX_POINT('',#1282);
#414=VERTEX_POINT('',#1284);
#415=VERTEX_POINT('',#1287);
#416=VERTEX_POINT('',#1290);
#417=VERTEX_POINT('',#1294);
#418=VERTEX_POINT('',#1298);
#419=VERTEX_POINT('',#1302);
#420=VERTEX_POINT('',#1306);
#421=VERTEX_POINT('',#1310);
#422=VERTEX_POINT('',#1314);
#423=VERTEX_POINT('',#1318);
#424=VERTEX_POINT('',#1320);
#425=VERTEX_POINT('',#1324);
#426=VERTEX_POINT('',#1328);
#427=VERTEX_POINT('',#1332);
#428=VERTEX_POINT('',#1336);
#429=VERTEX_POINT('',#1340);
#430=VERTEX_POINT('',#1344);
#431=VERTEX_POINT('',#1350);
#432=VERTEX_POINT('',#1351);
#433=VERTEX_POINT('',#1353);
#434=VERTEX_POINT('',#1355);
#435=VERTEX_POINT('',#1359);
#436=VERTEX_POINT('',#1361);
#437=VERTEX_POINT('',#1365);
#438=VERTEX_POINT('',#1366);
#439=VERTEX_POINT('',#1368);
#440=VERTEX_POINT('',#1370);
#441=VERTEX_POINT('',#1374);
#442=VERTEX_POINT('',#1376);
#443=VERTEX_POINT('',#1380);
#444=VERTEX_POINT('',#1382);
#445=VERTEX_POINT('',#1386);
#446=VERTEX_POINT('',#1388);
#447=VERTEX_POINT('',#1392);
#448=VERTEX_POINT('',#1394);
#449=VERTEX_POINT('',#1398);
#450=VERTEX_POINT('',#1403);
#451=VERTEX_POINT('',#1407);
#452=VERTEX_POINT('',#1408);
#453=VERTEX_POINT('',#1410);
#454=VERTEX_POINT('',#1412);
#455=VERTEX_POINT('',#1419);
#456=VERTEX_POINT('',#1420);
#457=VERTEX_POINT('',#1422);
#458=VERTEX_POINT('',#1424);
#459=VERTEX_POINT('',#1431);
#460=VERTEX_POINT('',#1433);
#461=VERTEX_POINT('',#1435);
#462=VERTEX_POINT('',#1437);
#463=VERTEX_POINT('',#1439);
#464=VERTEX_POINT('',#1443);
#465=VERTEX_POINT('',#1444);
#466=VERTEX_POINT('',#1449);
#467=VERTEX_POINT('',#1451);
#468=VERTEX_POINT('',#1453);
#469=VERTEX_POINT('',#1458);
#470=VERTEX_POINT('',#1462);
#471=VERTEX_POINT('',#1466);
#472=VERTEX_POINT('',#1472);
#473=VERTEX_POINT('',#1474);
#474=VERTEX_POINT('',#1478);
#475=VERTEX_POINT('',#1482);
#476=VERTEX_POINT('',#1488);
#477=VERTEX_POINT('',#1490);
#478=VERTEX_POINT('',#1492);
#479=EDGE_CURVE('',#399,#399,#379,.T.);
#480=EDGE_CURVE('',#399,#400,#183,.T.);
#481=EDGE_CURVE('',#400,#400,#380,.T.);
#482=EDGE_CURVE('',#401,#402,#381,.T.);
#483=EDGE_CURVE('',#403,#401,#184,.T.);
#484=EDGE_CURVE('',#404,#403,#382,.T.);
#485=EDGE_CURVE('',#404,#405,#185,.T.);
#486=EDGE_CURVE('',#406,#405,#383,.T.);
#487=EDGE_CURVE('',#406,#407,#186,.T.);
#488=EDGE_CURVE('',#408,#407,#384,.T.);
#489=EDGE_CURVE('',#408,#402,#187,.T.);
#490=EDGE_CURVE('',#409,#409,#385,.T.);
#491=EDGE_CURVE('',#410,#410,#386,.T.);
#492=EDGE_CURVE('',#411,#412,#188,.T.);
#493=EDGE_CURVE('',#413,#411,#189,.T.);
#494=EDGE_CURVE('',#414,#413,#190,.T.);
#495=EDGE_CURVE('',#412,#414,#191,.T.);
#496=EDGE_CURVE('',#415,#415,#387,.T.);
#497=EDGE_CURVE('',#416,#416,#388,.T.);
#498=EDGE_CURVE('',#416,#400,#192,.T.);
#499=EDGE_CURVE('',#409,#417,#193,.T.);
#500=EDGE_CURVE('',#417,#417,#389,.T.);
#501=EDGE_CURVE('',#418,#418,#390,.T.);
#502=EDGE_CURVE('',#418,#417,#194,.T.);
#503=EDGE_CURVE('',#415,#419,#195,.T.);
#504=EDGE_CURVE('',#419,#419,#391,.T.);
#505=EDGE_CURVE('',#419,#420,#196,.T.);
#506=EDGE_CURVE('',#420,#420,#392,.T.);
#507=EDGE_CURVE('',#410,#421,#197,.T.);
#508=EDGE_CURVE('',#421,#421,#393,.T.);
#509=EDGE_CURVE('',#422,#422,#394,.T.);
#510=EDGE_CURVE('',#422,#421,#198,.T.);
#511=EDGE_CURVE('',#402,#423,#199,.T.);
#512=EDGE_CURVE('',#423,#424,#395,.T.);
#513=EDGE_CURVE('',#424,#401,#200,.T.);
#514=EDGE_CURVE('',#425,#408,#201,.T.);
#515=EDGE_CURVE('',#423,#425,#202,.T.);
#516=EDGE_CURVE('',#407,#426,#203,.T.);
#517=EDGE_CURVE('',#426,#425,#396,.T.);
#518=EDGE_CURVE('',#427,#406,#204,.T.);
#519=EDGE_CURVE('',#427,#426,#205,.T.);
#520=EDGE_CURVE('',#405,#428,#206,.T.);
#521=EDGE_CURVE('',#428,#427,#397,.T.);
#522=EDGE_CURVE('',#429,#404,#207,.T.);
#523=EDGE_CURVE('',#429,#428,#208,.T.);
#524=EDGE_CURVE('',#403,#430,#209,.T.);
#525=EDGE_CURVE('',#430,#429,#398,.T.);
#526=EDGE_CURVE('',#430,#424,#210,.T.);
#527=EDGE_CURVE('',#431,#432,#15,.T.);
#528=EDGE_CURVE('',#432,#433,#211,.T.);
#529=EDGE_CURVE('',#433,#434,#212,.T.);
#530=EDGE_CURVE('',#434,#431,#213,.T.);
#531=EDGE_CURVE('',#432,#435,#214,.T.);
#532=EDGE_CURVE('',#436,#435,#215,.T.);
#533=EDGE_CURVE('',#433,#436,#216,.T.);
#534=EDGE_CURVE('',#437,#438,#217,.T.);
#535=EDGE_CURVE('',#438,#439,#218,.T.);
#536=EDGE_CURVE('',#439,#440,#16,.T.);
#537=EDGE_CURVE('',#440,#437,#219,.T.);
#538=EDGE_CURVE('',#441,#438,#220,.T.);
#539=EDGE_CURVE('',#442,#441,#221,.T.);
#540=EDGE_CURVE('',#439,#442,#222,.T.);
#541=EDGE_CURVE('',#443,#436,#223,.T.);
#542=EDGE_CURVE('',#435,#444,#224,.T.);
#543=EDGE_CURVE('',#444,#443,#225,.T.);
#544=EDGE_CURVE('',#444,#445,#226,.T.);
#545=EDGE_CURVE('',#446,#445,#227,.T.);
#546=EDGE_CURVE('',#443,#446,#228,.T.);
#547=EDGE_CURVE('',#447,#432,#229,.T.);
#548=EDGE_CURVE('',#448,#447,#230,.T.);
#549=EDGE_CURVE('',#445,#448,#231,.T.);
#550=EDGE_CURVE('',#449,#446,#232,.T.);
#551=EDGE_CURVE('',#448,#449,#233,.T.);
#552=EDGE_CURVE('',#447,#442,#17,.T.);
#553=EDGE_CURVE('',#441,#450,#234,.T.);
#554=EDGE_CURVE('',#450,#447,#235,.T.);
#555=EDGE_CURVE('',#451,#452,#18,.T.);
#556=EDGE_CURVE('',#452,#453,#236,.T.);
#557=EDGE_CURVE('',#453,#454,#237,.T.);
#558=EDGE_CURVE('',#454,#451,#238,.T.);
#559=EDGE_CURVE('',#453,#434,#239,.T.);
#560=EDGE_CURVE('',#431,#452,#240,.T.);
#561=EDGE_CURVE('',#455,#456,#241,.T.);
#562=EDGE_CURVE('',#456,#457,#242,.T.);
#563=EDGE_CURVE('',#457,#458,#243,.T.);
#564=EDGE_CURVE('',#458,#455,#244,.T.);
#565=EDGE_CURVE('',#455,#454,#245,.T.);
#566=EDGE_CURVE('',#458,#451,#246,.T.);
#567=EDGE_CURVE('',#459,#457,#247,.T.);
#568=EDGE_CURVE('',#460,#459,#248,.T.);
#569=EDGE_CURVE('',#460,#461,#249,.T.);
#570=EDGE_CURVE('',#461,#462,#250,.T.);
#571=EDGE_CURVE('',#462,#463,#251,.T.);
#572=EDGE_CURVE('',#451,#463,#252,.T.);
#573=EDGE_CURVE('',#464,#465,#253,.T.);
#574=EDGE_CURVE('',#465,#460,#254,.T.);
#575=EDGE_CURVE('',#459,#464,#255,.T.);
#576=EDGE_CURVE('',#466,#465,#256,.T.);
#577=EDGE_CURVE('',#467,#466,#257,.T.);
#578=EDGE_CURVE('',#467,#468,#258,.T.);
#579=EDGE_CURVE('',#461,#468,#259,.T.);
#580=EDGE_CURVE('',#412,#463,#19,.T.);
#581=EDGE_CURVE('',#463,#469,#260,.T.);
#582=EDGE_CURVE('',#469,#411,#20,.T.);
#583=EDGE_CURVE('',#414,#470,#21,.T.);
#584=EDGE_CURVE('',#470,#440,#261,.T.);
#585=EDGE_CURVE('',#471,#470,#262,.T.);
#586=EDGE_CURVE('',#413,#471,#22,.T.);
#587=EDGE_CURVE('',#469,#471,#263,.T.);
#588=EDGE_CURVE('',#472,#471,#264,.T.);
#589=EDGE_CURVE('',#473,#472,#265,.T.);
#590=EDGE_CURVE('',#470,#473,#266,.T.);
#591=EDGE_CURVE('',#469,#474,#267,.T.);
#592=EDGE_CURVE('',#474,#472,#268,.T.);
#593=EDGE_CURVE('',#473,#475,#269,.T.);
#594=EDGE_CURVE('',#475,#440,#270,.T.);
#595=EDGE_CURVE('',#462,#474,#271,.T.);
#596=EDGE_CURVE('',#475,#476,#272,.T.);
#597=EDGE_CURVE('',#476,#477,#273,.T.);
#598=EDGE_CURVE('',#478,#477,#274,.T.);
#599=EDGE_CURVE('',#478,#437,#275,.T.);
#600=EDGE_CURVE('',#449,#450,#276,.T.);
#601=EDGE_CURVE('',#464,#456,#277,.T.);
#602=EDGE_CURVE('',#477,#467,#278,.T.);
#603=EDGE_CURVE('',#476,#468,#279,.T.);
#604=EDGE_CURVE('',#466,#478,#280,.T.);
#605=ORIENTED_EDGE('',*,*,#479,.T.);
#606=ORIENTED_EDGE('',*,*,#480,.T.);
#607=ORIENTED_EDGE('',*,*,#481,.T.);
#608=ORIENTED_EDGE('',*,*,#480,.F.);
#609=ORIENTED_EDGE('',*,*,#482,.F.);
#610=ORIENTED_EDGE('',*,*,#483,.F.);
#611=ORIENTED_EDGE('',*,*,#484,.F.);
#612=ORIENTED_EDGE('',*,*,#485,.T.);
#613=ORIENTED_EDGE('',*,*,#486,.F.);
#614=ORIENTED_EDGE('',*,*,#487,.T.);
#615=ORIENTED_EDGE('',*,*,#488,.F.);
#616=ORIENTED_EDGE('',*,*,#489,.T.);
#617=ORIENTED_EDGE('',*,*,#490,.F.);
#618=ORIENTED_EDGE('',*,*,#491,.F.);
#619=ORIENTED_EDGE('',*,*,#492,.F.);
#620=ORIENTED_EDGE('',*,*,#493,.F.);
#621=ORIENTED_EDGE('',*,*,#494,.F.);
#622=ORIENTED_EDGE('',*,*,#495,.F.);
#623=ORIENTED_EDGE('',*,*,#496,.F.);
#624=ORIENTED_EDGE('',*,*,#479,.F.);
#625=ORIENTED_EDGE('',*,*,#497,.F.);
#626=ORIENTED_EDGE('',*,*,#498,.T.);
#627=ORIENTED_EDGE('',*,*,#481,.F.);
#628=ORIENTED_EDGE('',*,*,#498,.F.);
#629=ORIENTED_EDGE('',*,*,#490,.T.);
#630=ORIENTED_EDGE('',*,*,#499,.T.);
#631=ORIENTED_EDGE('',*,*,#500,.T.);
#632=ORIENTED_EDGE('',*,*,#499,.F.);
#633=ORIENTED_EDGE('',*,*,#501,.F.);
#634=ORIENTED_EDGE('',*,*,#502,.T.);
#635=ORIENTED_EDGE('',*,*,#500,.F.);
#636=ORIENTED_EDGE('',*,*,#502,.F.);
#637=ORIENTED_EDGE('',*,*,#496,.T.);
#638=ORIENTED_EDGE('',*,*,#503,.T.);
#639=ORIENTED_EDGE('',*,*,#504,.T.);
#640=ORIENTED_EDGE('',*,*,#503,.F.);
#641=ORIENTED_EDGE('',*,*,#504,.F.);
#642=ORIENTED_EDGE('',*,*,#505,.T.);
#643=ORIENTED_EDGE('',*,*,#506,.T.);
#644=ORIENTED_EDGE('',*,*,#505,.F.);
#645=ORIENTED_EDGE('',*,*,#491,.T.);
#646=ORIENTED_EDGE('',*,*,#507,.T.);
#647=ORIENTED_EDGE('',*,*,#508,.T.);
#648=ORIENTED_EDGE('',*,*,#507,.F.);
#649=ORIENTED_EDGE('',*,*,#509,.F.);
#650=ORIENTED_EDGE('',*,*,#510,.T.);
#651=ORIENTED_EDGE('',*,*,#508,.F.);
#652=ORIENTED_EDGE('',*,*,#510,.F.);
#653=ORIENTED_EDGE('',*,*,#482,.T.);
#654=ORIENTED_EDGE('',*,*,#511,.T.);
#655=ORIENTED_EDGE('',*,*,#512,.T.);
#656=ORIENTED_EDGE('',*,*,#513,.T.);
#657=ORIENTED_EDGE('',*,*,#511,.F.);
#658=ORIENTED_EDGE('',*,*,#489,.F.);
#659=ORIENTED_EDGE('',*,*,#514,.F.);
#660=ORIENTED_EDGE('',*,*,#515,.F.);
#661=ORIENTED_EDGE('',*,*,#488,.T.);
#662=ORIENTED_EDGE('',*,*,#516,.T.);
#663=ORIENTED_EDGE('',*,*,#517,.T.);
#664=ORIENTED_EDGE('',*,*,#514,.T.);
#665=ORIENTED_EDGE('',*,*,#516,.F.);
#666=ORIENTED_EDGE('',*,*,#487,.F.);
#667=ORIENTED_EDGE('',*,*,#518,.F.);
#668=ORIENTED_EDGE('',*,*,#519,.T.);
#669=ORIENTED_EDGE('',*,*,#486,.T.);
#670=ORIENTED_EDGE('',*,*,#520,.T.);
#671=ORIENTED_EDGE('',*,*,#521,.T.);
#672=ORIENTED_EDGE('',*,*,#518,.T.);
#673=ORIENTED_EDGE('',*,*,#520,.F.);
#674=ORIENTED_EDGE('',*,*,#485,.F.);
#675=ORIENTED_EDGE('',*,*,#522,.F.);
#676=ORIENTED_EDGE('',*,*,#523,.T.);
#677=ORIENTED_EDGE('',*,*,#484,.T.);
#678=ORIENTED_EDGE('',*,*,#524,.T.);
#679=ORIENTED_EDGE('',*,*,#525,.T.);
#680=ORIENTED_EDGE('',*,*,#522,.T.);
#681=ORIENTED_EDGE('',*,*,#513,.F.);
#682=ORIENTED_EDGE('',*,*,#526,.F.);
#683=ORIENTED_EDGE('',*,*,#524,.F.);
#684=ORIENTED_EDGE('',*,*,#483,.T.);
#685=ORIENTED_EDGE('',*,*,#527,.T.);
#686=ORIENTED_EDGE('',*,*,#528,.T.);
#687=ORIENTED_EDGE('',*,*,#529,.T.);
#688=ORIENTED_EDGE('',*,*,#530,.T.);
#689=ORIENTED_EDGE('',*,*,#528,.F.);
#690=ORIENTED_EDGE('',*,*,#531,.T.);
#691=ORIENTED_EDGE('',*,*,#532,.F.);
#692=ORIENTED_EDGE('',*,*,#533,.F.);
#693=ORIENTED_EDGE('',*,*,#534,.T.);
#694=ORIENTED_EDGE('',*,*,#535,.T.);
#695=ORIENTED_EDGE('',*,*,#536,.T.);
#696=ORIENTED_EDGE('',*,*,#537,.T.);
#697=ORIENTED_EDGE('',*,*,#535,.F.);
#698=ORIENTED_EDGE('',*,*,#538,.F.);
#699=ORIENTED_EDGE('',*,*,#539,.F.);
#700=ORIENTED_EDGE('',*,*,#540,.F.);
#701=ORIENTED_EDGE('',*,*,#541,.T.);
#702=ORIENTED_EDGE('',*,*,#532,.T.);
#703=ORIENTED_EDGE('',*,*,#542,.T.);
#704=ORIENTED_EDGE('',*,*,#543,.T.);
#705=ORIENTED_EDGE('',*,*,#543,.F.);
#706=ORIENTED_EDGE('',*,*,#544,.T.);
#707=ORIENTED_EDGE('',*,*,#545,.F.);
#708=ORIENTED_EDGE('',*,*,#546,.F.);
#709=ORIENTED_EDGE('',*,*,#542,.F.);
#710=ORIENTED_EDGE('',*,*,#531,.F.);
#711=ORIENTED_EDGE('',*,*,#547,.F.);
#712=ORIENTED_EDGE('',*,*,#548,.F.);
#713=ORIENTED_EDGE('',*,*,#549,.F.);
#714=ORIENTED_EDGE('',*,*,#544,.F.);
#715=ORIENTED_EDGE('',*,*,#550,.T.);
#716=ORIENTED_EDGE('',*,*,#545,.T.);
#717=ORIENTED_EDGE('',*,*,#549,.T.);
#718=ORIENTED_EDGE('',*,*,#551,.T.);
#719=ORIENTED_EDGE('',*,*,#552,.T.);
#720=ORIENTED_EDGE('',*,*,#539,.T.);
#721=ORIENTED_EDGE('',*,*,#553,.T.);
#722=ORIENTED_EDGE('',*,*,#554,.T.);
#723=ORIENTED_EDGE('',*,*,#555,.T.);
#724=ORIENTED_EDGE('',*,*,#556,.T.);
#725=ORIENTED_EDGE('',*,*,#557,.T.);
#726=ORIENTED_EDGE('',*,*,#558,.T.);
#727=ORIENTED_EDGE('',*,*,#530,.F.);
#728=ORIENTED_EDGE('',*,*,#559,.F.);
#729=ORIENTED_EDGE('',*,*,#556,.F.);
#730=ORIENTED_EDGE('',*,*,#560,.F.);
#731=ORIENTED_EDGE('',*,*,#561,.T.);
#732=ORIENTED_EDGE('',*,*,#562,.T.);
#733=ORIENTED_EDGE('',*,*,#563,.T.);
#734=ORIENTED_EDGE('',*,*,#564,.T.);
#735=ORIENTED_EDGE('',*,*,#558,.F.);
#736=ORIENTED_EDGE('',*,*,#565,.F.);
#737=ORIENTED_EDGE('',*,*,#564,.F.);
#738=ORIENTED_EDGE('',*,*,#566,.T.);
#739=ORIENTED_EDGE('',*,*,#563,.F.);
#740=ORIENTED_EDGE('',*,*,#567,.F.);
#741=ORIENTED_EDGE('',*,*,#568,.F.);
#742=ORIENTED_EDGE('',*,*,#569,.T.);
#743=ORIENTED_EDGE('',*,*,#570,.T.);
#744=ORIENTED_EDGE('',*,*,#571,.T.);
#745=ORIENTED_EDGE('',*,*,#572,.F.);
#746=ORIENTED_EDGE('',*,*,#566,.F.);
#747=ORIENTED_EDGE('',*,*,#573,.T.);
#748=ORIENTED_EDGE('',*,*,#574,.T.);
#749=ORIENTED_EDGE('',*,*,#568,.T.);
#750=ORIENTED_EDGE('',*,*,#575,.T.);
#751=ORIENTED_EDGE('',*,*,#574,.F.);
#752=ORIENTED_EDGE('',*,*,#576,.F.);
#753=ORIENTED_EDGE('',*,*,#577,.F.);
#754=ORIENTED_EDGE('',*,*,#578,.T.);
#755=ORIENTED_EDGE('',*,*,#579,.F.);
#756=ORIENTED_EDGE('',*,*,#569,.F.);
#757=ORIENTED_EDGE('',*,*,#492,.T.);
#758=ORIENTED_EDGE('',*,*,#580,.T.);
#759=ORIENTED_EDGE('',*,*,#581,.T.);
#760=ORIENTED_EDGE('',*,*,#582,.T.);
#761=ORIENTED_EDGE('',*,*,#527,.F.);
#762=ORIENTED_EDGE('',*,*,#560,.T.);
#763=ORIENTED_EDGE('',*,*,#555,.F.);
#764=ORIENTED_EDGE('',*,*,#572,.T.);
#765=ORIENTED_EDGE('',*,*,#580,.F.);
#766=ORIENTED_EDGE('',*,*,#495,.T.);
#767=ORIENTED_EDGE('',*,*,#583,.T.);
#768=ORIENTED_EDGE('',*,*,#584,.T.);
#769=ORIENTED_EDGE('',*,*,#536,.F.);
#770=ORIENTED_EDGE('',*,*,#540,.T.);
#771=ORIENTED_EDGE('',*,*,#552,.F.);
#772=ORIENTED_EDGE('',*,*,#547,.T.);
#773=ORIENTED_EDGE('',*,*,#585,.T.);
#774=ORIENTED_EDGE('',*,*,#583,.F.);
#775=ORIENTED_EDGE('',*,*,#494,.T.);
#776=ORIENTED_EDGE('',*,*,#586,.T.);
#777=ORIENTED_EDGE('',*,*,#587,.T.);
#778=ORIENTED_EDGE('',*,*,#586,.F.);
#779=ORIENTED_EDGE('',*,*,#493,.T.);
#780=ORIENTED_EDGE('',*,*,#582,.F.);
#781=ORIENTED_EDGE('',*,*,#585,.F.);
#782=ORIENTED_EDGE('',*,*,#588,.F.);
#783=ORIENTED_EDGE('',*,*,#589,.F.);
#784=ORIENTED_EDGE('',*,*,#590,.F.);
#785=ORIENTED_EDGE('',*,*,#587,.F.);
#786=ORIENTED_EDGE('',*,*,#591,.T.);
#787=ORIENTED_EDGE('',*,*,#592,.T.);
#788=ORIENTED_EDGE('',*,*,#588,.T.);
#789=ORIENTED_EDGE('',*,*,#584,.F.);
#790=ORIENTED_EDGE('',*,*,#590,.T.);
#791=ORIENTED_EDGE('',*,*,#593,.T.);
#792=ORIENTED_EDGE('',*,*,#594,.T.);
#793=ORIENTED_EDGE('',*,*,#581,.F.);
#794=ORIENTED_EDGE('',*,*,#571,.F.);
#795=ORIENTED_EDGE('',*,*,#595,.T.);
#796=ORIENTED_EDGE('',*,*,#591,.F.);
#797=ORIENTED_EDGE('',*,*,#537,.F.);
#798=ORIENTED_EDGE('',*,*,#594,.F.);
#799=ORIENTED_EDGE('',*,*,#596,.T.);
#800=ORIENTED_EDGE('',*,*,#597,.T.);
#801=ORIENTED_EDGE('',*,*,#598,.F.);
#802=ORIENTED_EDGE('',*,*,#599,.T.);
#803=ORIENTED_EDGE('',*,*,#551,.F.);
#804=ORIENTED_EDGE('',*,*,#548,.T.);
#805=ORIENTED_EDGE('',*,*,#554,.F.);
#806=ORIENTED_EDGE('',*,*,#600,.F.);
#807=ORIENTED_EDGE('',*,*,#562,.F.);
#808=ORIENTED_EDGE('',*,*,#601,.F.);
#809=ORIENTED_EDGE('',*,*,#575,.F.);
#810=ORIENTED_EDGE('',*,*,#567,.T.);
#811=ORIENTED_EDGE('',*,*,#602,.F.);
#812=ORIENTED_EDGE('',*,*,#597,.F.);
#813=ORIENTED_EDGE('',*,*,#603,.T.);
#814=ORIENTED_EDGE('',*,*,#578,.F.);
#815=ORIENTED_EDGE('',*,*,#541,.F.);
#816=ORIENTED_EDGE('',*,*,#546,.T.);
#817=ORIENTED_EDGE('',*,*,#550,.F.);
#818=ORIENTED_EDGE('',*,*,#600,.T.);
#819=ORIENTED_EDGE('',*,*,#553,.F.);
#820=ORIENTED_EDGE('',*,*,#538,.T.);
#821=ORIENTED_EDGE('',*,*,#534,.F.);
#822=ORIENTED_EDGE('',*,*,#599,.F.);
#823=ORIENTED_EDGE('',*,*,#604,.F.);
#824=ORIENTED_EDGE('',*,*,#576,.T.);
#825=ORIENTED_EDGE('',*,*,#573,.F.);
#826=ORIENTED_EDGE('',*,*,#601,.T.);
#827=ORIENTED_EDGE('',*,*,#561,.F.);
#828=ORIENTED_EDGE('',*,*,#565,.T.);
#829=ORIENTED_EDGE('',*,*,#557,.F.);
#830=ORIENTED_EDGE('',*,*,#559,.T.);
#831=ORIENTED_EDGE('',*,*,#529,.F.);
#832=ORIENTED_EDGE('',*,*,#533,.T.);
#833=ORIENTED_EDGE('',*,*,#570,.F.);
#834=ORIENTED_EDGE('',*,*,#579,.T.);
#835=ORIENTED_EDGE('',*,*,#603,.F.);
#836=ORIENTED_EDGE('',*,*,#596,.F.);
#837=ORIENTED_EDGE('',*,*,#593,.F.);
#838=ORIENTED_EDGE('',*,*,#589,.T.);
#839=ORIENTED_EDGE('',*,*,#592,.F.);
#840=ORIENTED_EDGE('',*,*,#595,.F.);
#841=ORIENTED_EDGE('',*,*,#512,.F.);
#842=ORIENTED_EDGE('',*,*,#515,.T.);
#843=ORIENTED_EDGE('',*,*,#517,.F.);
#844=ORIENTED_EDGE('',*,*,#519,.F.);
#845=ORIENTED_EDGE('',*,*,#521,.F.);
#846=ORIENTED_EDGE('',*,*,#523,.F.);
#847=ORIENTED_EDGE('',*,*,#525,.F.);
#848=ORIENTED_EDGE('',*,*,#526,.T.);
#849=ORIENTED_EDGE('',*,*,#501,.T.);
#850=ORIENTED_EDGE('',*,*,#497,.T.);
#851=ORIENTED_EDGE('',*,*,#509,.T.);
#852=ORIENTED_EDGE('',*,*,#506,.F.);
#853=ORIENTED_EDGE('',*,*,#577,.T.);
#854=ORIENTED_EDGE('',*,*,#604,.T.);
#855=ORIENTED_EDGE('',*,*,#598,.T.);
#856=ORIENTED_EDGE('',*,*,#602,.T.);
#857=CONICAL_SURFACE('',#923,1.6,0.785398163397324);
#858=CONICAL_SURFACE('',#936,1.6,0.785398163397173);
#859=CONICAL_SURFACE('',#940,1.6,0.785398163397302);
#860=CONICAL_SURFACE('',#944,1.6,0.785398163397466);
#861=ADVANCED_FACE('',(#77),#857,.F.);
#862=ADVANCED_FACE('',(#78,#35,#36,#37,#38,#39),#45,.T.);
#863=ADVANCED_FACE('',(#79),#23,.F.);
#864=ADVANCED_FACE('',(#80),#858,.F.);
#865=ADVANCED_FACE('',(#81),#24,.F.);
#866=ADVANCED_FACE('',(#82),#859,.F.);
#867=ADVANCED_FACE('',(#83),#25,.F.);
#868=ADVANCED_FACE('',(#84),#860,.F.);
#869=ADVANCED_FACE('',(#85),#26,.F.);
#870=ADVANCED_FACE('',(#86),#27,.T.);
#871=ADVANCED_FACE('',(#87),#46,.T.);
#872=ADVANCED_FACE('',(#88),#28,.T.);
#873=ADVANCED_FACE('',(#89),#47,.T.);
#874=ADVANCED_FACE('',(#90),#29,.T.);
#875=ADVANCED_FACE('',(#91),#48,.T.);
#876=ADVANCED_FACE('',(#92),#30,.T.);
#877=ADVANCED_FACE('',(#93),#49,.T.);
#878=ADVANCED_FACE('',(#94),#50,.T.);
#879=ADVANCED_FACE('',(#95),#51,.T.);
#880=ADVANCED_FACE('',(#96),#52,.T.);
#881=ADVANCED_FACE('',(#97),#53,.T.);
#882=ADVANCED_FACE('',(#98),#54,.T.);
#883=ADVANCED_FACE('',(#99),#55,.T.);
#884=ADVANCED_FACE('',(#100),#56,.F.);
#885=ADVANCED_FACE('',(#101),#57,.T.);
#886=ADVANCED_FACE('',(#102),#58,.T.);
#887=ADVANCED_FACE('',(#103),#59,.T.);
#888=ADVANCED_FACE('',(#104),#60,.T.);
#889=ADVANCED_FACE('',(#105),#61,.T.);
#890=ADVANCED_FACE('',(#106),#62,.T.);
#891=ADVANCED_FACE('',(#107),#63,.F.);
#892=ADVANCED_FACE('',(#108),#64,.T.);
#893=ADVANCED_FACE('',(#109),#65,.T.);
#894=ADVANCED_FACE('',(#110),#31,.F.);
#895=ADVANCED_FACE('',(#111),#32,.F.);
#896=ADVANCED_FACE('',(#112),#33,.F.);
#897=ADVANCED_FACE('',(#113),#34,.F.);
#898=ADVANCED_FACE('',(#114),#66,.T.);
#899=ADVANCED_FACE('',(#115),#67,.T.);
#900=ADVANCED_FACE('',(#116),#68,.F.);
#901=ADVANCED_FACE('',(#117),#69,.T.);
#902=ADVANCED_FACE('',(#118),#70,.T.);
#903=ADVANCED_FACE('',(#119),#71,.T.);
#904=ADVANCED_FACE('',(#120),#72,.T.);
#905=ADVANCED_FACE('',(#121),#73,.F.);
#906=ADVANCED_FACE('',(#122),#74,.F.);
#907=ADVANCED_FACE('',(#123),#75,.T.);
#908=ADVANCED_FACE('',(#124,#40,#41,#42,#43,#44),#76,.T.);
#909=CLOSED_SHELL('',(#861,#862,#863,#864,#865,#866,#867,#868,#869,#870,
#871,#872,#873,#874,#875,#876,#877,#878,#879,#880,#881,#882,#883,#884,#885,
#886,#887,#888,#889,#890,#891,#892,#893,#894,#895,#896,#897,#898,#899,#900,
#901,#902,#903,#904,#905,#906,#907,#908));
#910=DERIVED_UNIT_ELEMENT(#912,1.);
#911=DERIVED_UNIT_ELEMENT(#1511,-3.);
#912=(
MASS_UNIT()
NAMED_UNIT(*)
SI_UNIT(.KILO.,.GRAM.)
);
#913=DERIVED_UNIT((#910,#911));
#914=MEASURE_REPRESENTATION_ITEM('density measure',
POSITIVE_RATIO_MEASURE(7850.),#913);
#915=PROPERTY_DEFINITION_REPRESENTATION(#920,#917);
#916=PROPERTY_DEFINITION_REPRESENTATION(#921,#918);
#917=REPRESENTATION('material name',(#919),#1508);
#918=REPRESENTATION('density',(#914),#1508);
#919=DESCRIPTIVE_REPRESENTATION_ITEM('Steel','Steel');
#920=PROPERTY_DEFINITION('material property','material name',#1518);
#921=PROPERTY_DEFINITION('material property','density of part',#1518);
#922=AXIS2_PLACEMENT_3D('',#1251,#999,#1000);
#923=AXIS2_PLACEMENT_3D('',#1252,#1001,#1002);
#924=AXIS2_PLACEMENT_3D('',#1254,#1003,#1004);
#925=AXIS2_PLACEMENT_3D('',#1257,#1006,#1007);
#926=AXIS2_PLACEMENT_3D('',#1258,#1008,#1009);
#927=AXIS2_PLACEMENT_3D('',#1261,#1010,#1011);
#928=AXIS2_PLACEMENT_3D('',#1265,#1013,#1014);
#929=AXIS2_PLACEMENT_3D('',#1269,#1016,#1017);
#930=AXIS2_PLACEMENT_3D('',#1273,#1019,#1020);
#931=AXIS2_PLACEMENT_3D('',#1276,#1022,#1023);
#932=AXIS2_PLACEMENT_3D('',#1278,#1024,#1025);
#933=AXIS2_PLACEMENT_3D('',#1288,#1030,#1031);
#934=AXIS2_PLACEMENT_3D('',#1289,#1032,#1033);
#935=AXIS2_PLACEMENT_3D('',#1291,#1034,#1035);
#936=AXIS2_PLACEMENT_3D('',#1293,#1037,#1038);
#937=AXIS2_PLACEMENT_3D('',#1296,#1040,#1041);
#938=AXIS2_PLACEMENT_3D('',#1297,#1042,#1043);
#939=AXIS2_PLACEMENT_3D('',#1299,#1044,#1045);
#940=AXIS2_PLACEMENT_3D('',#1301,#1047,#1048);
#941=AXIS2_PLACEMENT_3D('',#1304,#1050,#1051);
#942=AXIS2_PLACEMENT_3D('',#1305,#1052,#1053);
#943=AXIS2_PLACEMENT_3D('',#1308,#1055,#1056);
#944=AXIS2_PLACEMENT_3D('',#1309,#1057,#1058);
#945=AXIS2_PLACEMENT_3D('',#1312,#1060,#1061);
#946=AXIS2_PLACEMENT_3D('',#1313,#1062,#1063);
#947=AXIS2_PLACEMENT_3D('',#1315,#1064,#1065);
#948=AXIS2_PLACEMENT_3D('',#1317,#1067,#1068);
#949=AXIS2_PLACEMENT_3D('',#1321,#1070,#1071);
#950=AXIS2_PLACEMENT_3D('',#1323,#1073,#1074);
#951=AXIS2_PLACEMENT_3D('',#1327,#1077,#1078);
#952=AXIS2_PLACEMENT_3D('',#1330,#1080,#1081);
#953=AXIS2_PLACEMENT_3D('',#1331,#1082,#1083);
#954=AXIS2_PLACEMENT_3D('',#1335,#1086,#1087);
#955=AXIS2_PLACEMENT_3D('',#1338,#1089,#1090);
#956=AXIS2_PLACEMENT_3D('',#1339,#1091,#1092);
#957=AXIS2_PLACEMENT_3D('',#1343,#1095,#1096);
#958=AXIS2_PLACEMENT_3D('',#1346,#1098,#1099);
#959=AXIS2_PLACEMENT_3D('',#1347,#1100,#1101);
#960=AXIS2_PLACEMENT_3D('',#1349,#1103,#1104);
#961=AXIS2_PLACEMENT_3D('',#1352,#1105,#1106);
#962=AXIS2_PLACEMENT_3D('',#1358,#1110,#1111);
#963=AXIS2_PLACEMENT_3D('',#1364,#1115,#1116);
#964=AXIS2_PLACEMENT_3D('',#1371,#1119,#1120);
#965=AXIS2_PLACEMENT_3D('',#1373,#1122,#1123);
#966=AXIS2_PLACEMENT_3D('',#1379,#1127,#1128);
#967=AXIS2_PLACEMENT_3D('',#1385,#1132,#1133);
#968=AXIS2_PLACEMENT_3D('',#1391,#1137,#1138);
#969=AXIS2_PLACEMENT_3D('',#1397,#1142,#1143);
#970=AXIS2_PLACEMENT_3D('',#1401,#1146,#1147);
#971=AXIS2_PLACEMENT_3D('',#1402,#1148,#1149);
#972=AXIS2_PLACEMENT_3D('',#1406,#1152,#1153);
#973=AXIS2_PLACEMENT_3D('',#1409,#1154,#1155);
#974=AXIS2_PLACEMENT_3D('',#1415,#1159,#1160);
#975=AXIS2_PLACEMENT_3D('',#1418,#1163,#1164);
#976=AXIS2_PLACEMENT_3D('',#1427,#1169,#1170);
#977=AXIS2_PLACEMENT_3D('',#1430,#1173,#1174);
#978=AXIS2_PLACEMENT_3D('',#1442,#1181,#1182);
#979=AXIS2_PLACEMENT_3D('',#1448,#1186,#1187);
#980=AXIS2_PLACEMENT_3D('',#1456,#1192,#1193);
#981=AXIS2_PLACEMENT_3D('',#1457,#1194,#1195);
#982=AXIS2_PLACEMENT_3D('',#1460,#1197,#1198);
#983=AXIS2_PLACEMENT_3D('',#1461,#1199,#1200);
#984=AXIS2_PLACEMENT_3D('',#1463,#1201,#1202);
#985=AXIS2_PLACEMENT_3D('',#1465,#1204,#1205);
#986=AXIS2_PLACEMENT_3D('',#1468,#1207,#1208);
#987=AXIS2_PLACEMENT_3D('',#1469,#1209,#1210);
#988=AXIS2_PLACEMENT_3D('',#1471,#1212,#1213);
#989=AXIS2_PLACEMENT_3D('',#1477,#1217,#1218);
#990=AXIS2_PLACEMENT_3D('',#1481,#1221,#1222);
#991=AXIS2_PLACEMENT_3D('',#1485,#1225,#1226);
#992=AXIS2_PLACEMENT_3D('',#1487,#1228,#1229);
#993=AXIS2_PLACEMENT_3D('',#1495,#1234,#1235);
#994=AXIS2_PLACEMENT_3D('',#1497,#1237,#1238);
#995=AXIS2_PLACEMENT_3D('',#1499,#1240,#1241);
#996=AXIS2_PLACEMENT_3D('',#1502,#1244,#1245);
#997=AXIS2_PLACEMENT_3D('',#1504,#1247,#1248);
#998=AXIS2_PLACEMENT_3D('',#1505,#1249,#1250);
#999=DIRECTION('axis',(0.,0.,1.));
#1000=DIRECTION('refdir',(1.,0.,0.));
#1001=DIRECTION('center_axis',(1.33226762955019E-15,0.,1.));
#1002=DIRECTION('ref_axis',(1.,0.,-7.28583859910259E-16));
#1003=DIRECTION('center_axis',(1.33226762955019E-15,0.,1.));
#1004=DIRECTION('ref_axis',(1.,0.,-1.33226762955019E-15));
#1005=DIRECTION('',(0.707106781186461,8.65956056235389E-17,-0.707106781186634));
#1006=DIRECTION('center_axis',(-1.33226762955019E-15,0.,-1.));
#1007=DIRECTION('ref_axis',(1.,0.,0.));
#1008=DIRECTION('center_axis',(1.33226762955019E-15,0.,1.));
#1009=DIRECTION('ref_axis',(1.,0.,-1.33226762955019E-15));
#1010=DIRECTION('center_axis',(-1.33226762955019E-15,0.,-1.));
#1011=DIRECTION('ref_axis',(-0.707106781186547,0.707106781186547,0.));
#1012=DIRECTION('',(0.,1.,0.));
#1013=DIRECTION('center_axis',(-1.33226762955019E-15,0.,-1.));
#1014=DIRECTION('ref_axis',(-0.707106781186548,-0.707106781186547,0.));
#1015=DIRECTION('',(1.,2.92163953848725E-16,0.));
#1016=DIRECTION('center_axis',(-1.33226762955019E-15,0.,-1.));
#1017=DIRECTION('ref_axis',(0.707106781186547,-0.707106781186547,0.));
#1018=DIRECTION('',(0.,1.,0.));
#1019=DIRECTION('center_axis',(-1.33226762955019E-15,0.,-1.));
#1020=DIRECTION('ref_axis',(0.707106781186547,0.707106781186547,0.));
#1021=DIRECTION('',(-1.,0.,0.));
#1022=DIRECTION('center_axis',(1.33226762955019E-15,0.,1.));
#1023=DIRECTION('ref_axis',(1.,0.,-1.33226762955019E-15));
#1024=DIRECTION('center_axis',(1.33226762955019E-15,0.,1.));
#1025=DIRECTION('ref_axis',(1.,0.,-1.33226762955019E-15));
#1026=DIRECTION('',(0.,-1.,0.));
#1027=DIRECTION('',(-1.,0.,1.33226762955019E-15));
#1028=DIRECTION('',(0.,1.,0.));
#1029=DIRECTION('',(1.,0.,-1.33226762955019E-15));
#1030=DIRECTION('center_axis',(1.33226762955019E-15,0.,1.));
#1031=DIRECTION('ref_axis',(1.,0.,-1.33226762955019E-15));
#1032=DIRECTION('center_axis',(0.,0.,1.));
#1033=DIRECTION('ref_axis',(1.,0.,0.));
#1034=DIRECTION('center_axis',(0.,0.,1.));
#1035=DIRECTION('ref_axis',(1.,0.,0.));
#1036=DIRECTION('',(0.,0.,1.));
#1037=DIRECTION('center_axis',(0.,0.,1.));
#1038=DIRECTION('ref_axis',(1.,0.,-7.28583859910258E-16));
#1039=DIRECTION('',(0.707106781186356,8.65956056235258E-17,-0.70710678118674));
#1040=DIRECTION('center_axis',(-1.33226762955019E-15,0.,-1.));
#1041=DIRECTION('ref_axis',(1.,0.,0.));
#1042=DIRECTION('center_axis',(0.,0.,1.));
#1043=DIRECTION('ref_axis',(1.,0.,0.));
#1044=DIRECTION('center_axis',(0.,0.,1.));
#1045=DIRECTION('ref_axis',(1.,0.,0.));
#1046=DIRECTION('',(0.,0.,1.));
#1047=DIRECTION('center_axis',(1.33226762955019E-15,0.,1.));
#1048=DIRECTION('ref_axis',(1.,0.,-7.28583859910259E-16));
#1049=DIRECTION('',(0.707106781186445,8.65956056235369E-17,-0.70710678118665));
#1050=DIRECTION('center_axis',(-1.33226762955019E-15,0.,-1.));
#1051=DIRECTION('ref_axis',(1.,0.,0.));
#1052=DIRECTION('center_axis',(0.,0.,1.));
#1053=DIRECTION('ref_axis',(1.,0.,0.));
#1054=DIRECTION('',(0.,0.,-1.));
#1055=DIRECTION('center_axis',(0.,0.,-1.));
#1056=DIRECTION('ref_axis',(1.,0.,0.));
#1057=DIRECTION('center_axis',(0.,0.,1.));
#1058=DIRECTION('ref_axis',(1.,0.,-7.28583859910258E-16));
#1059=DIRECTION('',(0.707106781186563,8.65956056235512E-17,-0.707106781186532));
#1060=DIRECTION('center_axis',(-1.33226762955019E-15,0.,-1.));
#1061=DIRECTION('ref_axis',(1.,0.,0.));
#1062=DIRECTION('center_axis',(0.,0.,1.));
#1063=DIRECTION('ref_axis',(1.,0.,0.));
#1064=DIRECTION('center_axis',(0.,0.,1.));
#1065=DIRECTION('ref_axis',(1.,0.,0.));
#1066=DIRECTION('',(0.,0.,1.));
#1067=DIRECTION('center_axis',(0.,0.,1.));
#1068=DIRECTION('ref_axis',(-0.707106781186547,0.707106781186547,0.));
#1069=DIRECTION('',(0.,0.,-1.));
#1070=DIRECTION('center_axis',(0.,0.,1.));
#1071=DIRECTION('ref_axis',(-0.707106781186547,0.707106781186547,0.));
#1072=DIRECTION('',(0.,0.,1.));
#1073=DIRECTION('center_axis',(0.,1.,0.));
#1074=DIRECTION('ref_axis',(-1.,0.,0.));
#1075=DIRECTION('',(0.,0.,1.));
#1076=DIRECTION('',(1.,0.,0.));
#1077=DIRECTION('center_axis',(0.,0.,1.));
#1078=DIRECTION('ref_axis',(0.707106781186547,0.707106781186547,0.));
#1079=DIRECTION('',(0.,0.,-1.));
#1080=DIRECTION('center_axis',(0.,0.,1.));
#1081=DIRECTION('ref_axis',(0.707106781186547,0.707106781186547,0.));
#1082=DIRECTION('center_axis',(1.,0.,0.));
#1083=DIRECTION('ref_axis',(0.,0.,-1.));
#1084=DIRECTION('',(0.,0.,1.));
#1085=DIRECTION('',(0.,1.,0.));
#1086=DIRECTION('center_axis',(0.,0.,1.));
#1087=DIRECTION('ref_axis',(0.707106781186547,-0.707106781186547,0.));
#1088=DIRECTION('',(0.,0.,-1.));
#1089=DIRECTION('center_axis',(0.,0.,1.));
#1090=DIRECTION('ref_axis',(0.707106781186547,-0.707106781186547,0.));
#1091=DIRECTION('center_axis',(2.92163953848725E-16,-1.,0.));
#1092=DIRECTION('ref_axis',(1.,2.92163953848725E-16,0.));
#1093=DIRECTION('',(0.,0.,1.));
#1094=DIRECTION('',(1.,2.92163953848725E-16,0.));
#1095=DIRECTION('center_axis',(0.,0.,1.));
#1096=DIRECTION('ref_axis',(-0.707106781186548,-0.707106781186547,0.));
#1097=DIRECTION('',(0.,0.,-1.));
#1098=DIRECTION('center_axis',(0.,0.,1.));
#1099=DIRECTION('ref_axis',(-0.707106781186548,-0.707106781186547,0.));
#1100=DIRECTION('center_axis',(-1.,0.,0.));
#1101=DIRECTION('ref_axis',(0.,0.,1.));
#1102=DIRECTION('',(0.,1.,0.));
#1103=DIRECTION('center_axis',(-0.707106781186548,0.,0.707106781186548));
#1104=DIRECTION('ref_axis',(0.707106781186548,0.,0.707106781186548));
#1105=DIRECTION('center_axis',(0.707106781186548,0.,-0.707106781186548));
#1106=DIRECTION('ref_axis',(-0.707106781186548,0.,-0.707106781186548));
#1107=DIRECTION('',(0.,1.,0.));
#1108=DIRECTION('',(-0.707106781186548,0.,-0.707106781186548));
#1109=DIRECTION('',(0.,-1.,0.));
#1110=DIRECTION('center_axis',(-1.,0.,3.70074341541719E-16));
#1111=DIRECTION('ref_axis',(3.70074341541719E-16,0.,1.));
#1112=DIRECTION('',(3.70074341541719E-16,0.,1.));
#1113=DIRECTION('',(0.,-1.,0.));
#1114=DIRECTION('',(3.70074341541719E-16,0.,1.));
#1115=DIRECTION('center_axis',(-0.707106781186547,0.,0.707106781186548));
#1116=DIRECTION('ref_axis',(0.707106781186548,0.,0.707106781186547));
#1117=DIRECTION('',(-0.707106781186548,0.,-0.707106781186547));
#1118=DIRECTION('',(0.,-1.,0.));
#1119=DIRECTION('center_axis',(0.707106781186547,0.,-0.707106781186548));
#1120=DIRECTION('ref_axis',(-0.707106781186548,4.9065389333868E-17,-0.707106781186547));
#1121=DIRECTION('',(0.,1.,0.));
#1122=DIRECTION('center_axis',(0.,0.,1.));
#1123=DIRECTION('ref_axis',(1.,0.,0.));
#1124=DIRECTION('',(1.,0.,0.));
#1125=DIRECTION('',(0.,1.,0.));
#1126=DIRECTION('',(-1.,0.,1.33226762955019E-15));
#1127=DIRECTION('center_axis',(-0.707106781186548,0.,0.707106781186547));
#1128=DIRECTION('ref_axis',(0.707106781186547,0.,0.707106781186548));
#1129=DIRECTION('',(-0.707106781186547,0.,-0.707106781186548));
#1130=DIRECTION('',(0.707106781186547,0.,0.707106781186548));
#1131=DIRECTION('',(0.,1.,0.));
#1132=DIRECTION('center_axis',(0.,0.,1.));
#1133=DIRECTION('ref_axis',(1.,0.,0.));
#1134=DIRECTION('',(1.,0.,0.));
#1135=DIRECTION('',(0.,-1.,0.));
#1136=DIRECTION('',(1.,0.,0.));
#1137=DIRECTION('center_axis',(0.,1.,0.));
#1138=DIRECTION('ref_axis',(1.,0.,0.));
#1139=DIRECTION('',(-1.,0.,1.33226762955019E-15));
#1140=DIRECTION('',(-7.40148683083438E-16,0.,-1.));
#1141=DIRECTION('',(0.707106781186548,0.,-0.707106781186547));
#1142=DIRECTION('center_axis',(0.707106781186547,0.,0.707106781186548));
#1143=DIRECTION('ref_axis',(0.707106781186548,0.,-0.707106781186547));
#1144=DIRECTION('',(-0.707106781186548,0.,0.707106781186547));
#1145=DIRECTION('',(0.,1.,0.));
#1146=DIRECTION('center_axis',(0.707106781186547,0.,0.707106781186548));
#1147=DIRECTION('ref_axis',(0.707106781186548,0.,-0.707106781186547));
#1148=DIRECTION('center_axis',(-0.707106781186547,0.,-0.707106781186548));
#1149=DIRECTION('ref_axis',(0.707106781186548,0.,-0.707106781186547));
#1150=DIRECTION('',(-0.707106781186548,0.,0.707106781186547));
#1151=DIRECTION('',(0.,-1.,0.));
#1152=DIRECTION('center_axis',(0.707106781186547,0.,0.707106781186548));
#1153=DIRECTION('ref_axis',(0.707106781186548,0.,-0.707106781186547));
#1154=DIRECTION('center_axis',(-0.707106781186547,0.,-0.707106781186548));
#1155=DIRECTION('ref_axis',(0.707106781186548,0.,-0.707106781186547));
#1156=DIRECTION('',(0.,1.,0.));
#1157=DIRECTION('',(-0.707106781186548,0.,0.707106781186547));
#1158=DIRECTION('',(0.,-1.,0.));
#1159=DIRECTION('center_axis',(-4.2700885562506E-16,0.,1.));
#1160=DIRECTION('ref_axis',(1.,0.,4.2700885562506E-16));
#1161=DIRECTION('',(1.,0.,4.2700885562506E-16));
#1162=DIRECTION('',(-1.,0.,1.33226762955019E-15));
#1163=DIRECTION('center_axis',(0.707106781186549,0.,0.707106781186546));
#1164=DIRECTION('ref_axis',(0.707106781186546,0.,-0.707106781186549));
#1165=DIRECTION('',(-0.707106781186546,0.,0.707106781186549));
#1166=DIRECTION('',(0.,-1.,0.));
#1167=DIRECTION('',(0.707106781186546,0.,-0.707106781186549));
#1168=DIRECTION('',(0.,1.,0.));
#1169=DIRECTION('center_axis',(1.,0.,6.16790569236198E-16));
#1170=DIRECTION('ref_axis',(6.16790569236198E-16,0.,-1.));
#1171=DIRECTION('',(6.16790569236198E-16,0.,-1.));
#1172=DIRECTION('',(6.16790569236198E-16,0.,-1.));
#1173=DIRECTION('center_axis',(0.,1.,0.));
#1174=DIRECTION('ref_axis',(1.,0.,0.));
#1175=DIRECTION('',(1.,0.,1.38777878078145E-16));
#1176=DIRECTION('',(0.707106781186548,0.,-0.707106781186547));
#1177=DIRECTION('',(8.88178419700125E-16,0.,1.));
#1178=DIRECTION('',(-1.,0.,0.));
#1179=DIRECTION('',(-4.44089209850062E-16,0.,-1.));
#1180=DIRECTION('',(-1.,0.,1.33226762955019E-15));
#1181=DIRECTION('center_axis',(0.707106781186547,0.,0.707106781186548));
#1182=DIRECTION('ref_axis',(0.707106781186548,0.,-0.707106781186547));
#1183=DIRECTION('',(-0.707106781186548,0.,0.707106781186547));
#1184=DIRECTION('',(0.,-1.,0.));
#1185=DIRECTION('',(0.,1.,0.));
#1186=DIRECTION('center_axis',(1.,0.,-8.88178419700125E-16));
#1187=DIRECTION('ref_axis',(-8.88178419700125E-16,0.,-1.));
#1188=DIRECTION('',(0.,0.,1.));
#1189=DIRECTION('',(1.90323947078598E-16,-1.,0.));
#1190=DIRECTION('',(8.88178419700125E-16,0.,1.));
#1191=DIRECTION('',(0.,1.,0.));
#1192=DIRECTION('center_axis',(0.,1.,0.));
#1193=DIRECTION('ref_axis',(0.707106781186546,0.,-0.707106781186549));
#1194=DIRECTION('center_axis',(0.707106781186547,-0.707106781186548,-3.14018491736755E-15));
#1195=DIRECTION('ref_axis',(-0.707106781186548,-0.707106781186547,3.14018491736755E-15));
#1196=DIRECTION('',(0.,1.,0.));
#1197=DIRECTION('center_axis',(0.707106781186546,0.707106781186549,-3.14018491736754E-15));
#1198=DIRECTION('ref_axis',(0.707106781186549,-0.707106781186546,-3.14018491736756E-15));
#1199=DIRECTION('center_axis',(1.,0.,-1.33226762955019E-15));
#1200=DIRECTION('ref_axis',(-1.57009245868377E-15,0.707106781186547,-0.707106781186548));
#1201=DIRECTION('center_axis',(0.707106781186547,0.707106781186549,-1.57009245868377E-15));
#1202=DIRECTION('ref_axis',(-0.707106781186549,0.707106781186546,3.14018491736759E-16));
#1203=DIRECTION('',(-1.,0.,1.33226762955019E-15));
#1204=DIRECTION('center_axis',(0.,1.,0.));
#1205=DIRECTION('ref_axis',(-0.707106781186549,0.,-0.707106781186546));
#1206=DIRECTION('',(0.,-1.,0.));
#1207=DIRECTION('center_axis',(-0.707106781186545,0.70710678118655,1.57009245868377E-15));
#1208=DIRECTION('ref_axis',(-0.70710678118655,-0.707106781186545,1.57009245868378E-15));
#1209=DIRECTION('center_axis',(-1.,0.,1.33226762955019E-15));
#1210=DIRECTION('ref_axis',(-1.57009245868378E-15,-0.707106781186546,-0.707106781186549));
#1211=DIRECTION('',(1.,0.,-1.33226762955019E-15));
#1212=DIRECTION('center_axis',(1.,0.,-8.88178419700126E-16));
#1213=DIRECTION('ref_axis',(-8.88178419700126E-16,0.,-1.));
#1214=DIRECTION('',(-8.88178419700126E-16,0.,-1.));
#1215=DIRECTION('',(0.,1.,0.));
#1216=DIRECTION('',(8.88178419700126E-16,0.,1.));
#1217=DIRECTION('center_axis',(0.,1.,0.));
#1218=DIRECTION('ref_axis',(0.,0.,1.));
#1219=DIRECTION('',(4.44089209850062E-16,0.,1.));
#1220=DIRECTION('',(1.,0.,0.));
#1221=DIRECTION('center_axis',(0.,1.,0.));
#1222=DIRECTION('ref_axis',(1.,0.,0.));
#1223=DIRECTION('',(-1.,0.,2.22044604925031E-15));
#1224=DIRECTION('',(-8.88178419700125E-16,0.,-1.));
#1225=DIRECTION('center_axis',(-1.,0.,4.44089209850062E-16));
#1226=DIRECTION('ref_axis',(4.44089209850062E-16,0.,1.));
#1227=DIRECTION('',(0.,1.,0.));
#1228=DIRECTION('center_axis',(-1.,0.,8.88178419700125E-16));
#1229=DIRECTION('ref_axis',(8.88178419700125E-16,0.,1.));
#1230=DIRECTION('',(0.,1.,0.));
#1231=DIRECTION('',(-8.88178419700125E-16,0.,-1.));
#1232=DIRECTION('',(-6.34413156928661E-17,1.,0.));
#1233=DIRECTION('',(8.88178419700125E-16,0.,1.));
#1234=DIRECTION('center_axis',(1.,0.,-7.40148683083438E-16));
#1235=DIRECTION('ref_axis',(-7.40148683083438E-16,0.,-1.));
#1236=DIRECTION('',(-7.40148683083438E-16,0.,-1.));
#1237=DIRECTION('center_axis',(-1.38777878078145E-16,0.,1.));
#1238=DIRECTION('ref_axis',(1.,0.,1.38777878078145E-16));
#1239=DIRECTION('',(1.,0.,1.38777878078145E-16));
#1240=DIRECTION('center_axis',(0.,1.,0.));
#1241=DIRECTION('ref_axis',(-1.,0.,0.));
#1242=DIRECTION('',(-1.,0.,0.));
#1243=DIRECTION('',(-1.,0.,0.));
#1244=DIRECTION('center_axis',(0.,-1.,0.));
#1245=DIRECTION('ref_axis',(1.,0.,0.));
#1246=DIRECTION('',(1.,0.,0.));
#1247=DIRECTION('center_axis',(0.,0.,1.));
#1248=DIRECTION('ref_axis',(1.,0.,0.));
#1249=DIRECTION('center_axis',(0.,0.,-1.));
#1250=DIRECTION('ref_axis',(-1.,0.,0.));
#1251=CARTESIAN_POINT('',(0.,0.,0.));
#1252=CARTESIAN_POINT('Origin',(1.99840144432576E-16,149.,1.85000000000001));
#1253=CARTESIAN_POINT('',(-1.75,149.,2.00000000000005));
#1254=CARTESIAN_POINT('Origin',(3.99680288865153E-16,149.,2.00000000000005));
#1255=CARTESIAN_POINT('',(-1.45,149.,1.69999999999998));
#1256=CARTESIAN_POINT('',(-1.6,149.,1.85000000000002));
#1257=CARTESIAN_POINT('Origin',(0.,149.,1.69999999999998));
#1258=CARTESIAN_POINT('Origin',(28.,0.,2.00000000000001));
#1259=CARTESIAN_POINT('',(-38.,144.,2.));
#1260=CARTESIAN_POINT('',(-28.,154.,2.));
#1261=CARTESIAN_POINT('Origin',(-28.,144.,2.00000000000001));
#1262=CARTESIAN_POINT('',(-38.,2.92163953848726E-15,2.));
#1263=CARTESIAN_POINT('',(-38.,0.,2.));
#1264=CARTESIAN_POINT('',(-28.,-10.,2.));
#1265=CARTESIAN_POINT('Origin',(-28.,2.92163953848726E-15,2.00000000000001));
#1266=CARTESIAN_POINT('',(28.,-9.99999999999998,2.));
#1267=CARTESIAN_POINT('',(-38.,-10.,2.));
#1268=CARTESIAN_POINT('',(38.,1.92828209540159E-14,2.));
#1269=CARTESIAN_POINT('Origin',(28.,1.92828209540159E-14,2.00000000000001));
#1270=CARTESIAN_POINT('',(38.,144.,2.));
#1271=CARTESIAN_POINT('',(38.,0.,2.));
#1272=CARTESIAN_POINT('',(28.,154.,2.));
#1273=CARTESIAN_POINT('Origin',(28.,144.,2.00000000000001));
#1274=CARTESIAN_POINT('',(-38.,154.,2.));
#1275=CARTESIAN_POINT('',(-34.75,72.,2.0000000000001));
#1276=CARTESIAN_POINT('Origin',(-33.,72.,2.00000000000009));
#1277=CARTESIAN_POINT('',(31.25,72.,2.00000000000001));
#1278=CARTESIAN_POINT('Origin',(33.,72.,2.00000000000001));
#1279=CARTESIAN_POINT('',(-30.,146.,2.00000000000009));
#1280=CARTESIAN_POINT('',(-30.,-2.,2.00000000000009));
#1281=CARTESIAN_POINT('',(-30.,0.,2.00000000000009));
#1282=CARTESIAN_POINT('',(30.,146.,2.00000000000001));
#1283=CARTESIAN_POINT('',(14.,146.,2.00000000000003));
#1284=CARTESIAN_POINT('',(30.,-2.,2.00000000000001));
#1285=CARTESIAN_POINT('',(30.,0.,2.00000000000001));
#1286=CARTESIAN_POINT('',(14.,-2.,2.00000000000003));
#1287=CARTESIAN_POINT('',(-1.75,-4.99999999999999,2.00000000000005));
#1288=CARTESIAN_POINT('Origin',(3.99680288865171E-16,-4.99999999999999,
2.00000000000005));
#1289=CARTESIAN_POINT('Origin',(0.,149.,0.));
#1290=CARTESIAN_POINT('',(-1.45,149.,0.));
#1291=CARTESIAN_POINT('Origin',(0.,149.,0.));
#1292=CARTESIAN_POINT('',(-1.45,149.,0.));
#1293=CARTESIAN_POINT('Origin',(-33.,72.,1.85000000000001));
#1294=CARTESIAN_POINT('',(-34.45,72.,1.69999999999993));
#1295=CARTESIAN_POINT('',(-34.6,72.,1.85000000000002));
#1296=CARTESIAN_POINT('Origin',(-33.,72.,1.69999999999993));
#1297=CARTESIAN_POINT('Origin',(-33.,72.,0.));
#1298=CARTESIAN_POINT('',(-34.45,72.,0.));
#1299=CARTESIAN_POINT('Origin',(-33.,72.,0.));
#1300=CARTESIAN_POINT('',(-34.45,72.,0.));
#1301=CARTESIAN_POINT('Origin',(1.99840144432585E-16,-4.99999999999999,
1.85000000000001));
#1302=CARTESIAN_POINT('',(-1.45,-4.99999999999999,1.69999999999997));
#1303=CARTESIAN_POINT('',(-1.6,-4.99999999999999,1.85000000000001));
#1304=CARTESIAN_POINT('Origin',(1.84889274661175E-31,-4.99999999999999,
1.69999999999997));
#1305=CARTESIAN_POINT('Origin',(1.84889274661175E-31,-4.99999999999999,
0.));
#1306=CARTESIAN_POINT('',(-1.45,-4.99999999999999,0.));
#1307=CARTESIAN_POINT('',(-1.45,-4.99999999999999,0.));
#1308=CARTESIAN_POINT('Origin',(1.84889274661175E-31,-4.99999999999999,
0.));
#1309=CARTESIAN_POINT('Origin',(33.,72.,1.85000000000001));
#1310=CARTESIAN_POINT('',(31.55,72.,1.70000000000002));
#1311=CARTESIAN_POINT('',(31.4,72.,1.85000000000002));
#1312=CARTESIAN_POINT('Origin',(33.,72.,1.70000000000002));
#1313=CARTESIAN_POINT('Origin',(33.,72.,0.));
#1314=CARTESIAN_POINT('',(31.55,72.,0.));
#1315=CARTESIAN_POINT('Origin',(33.,72.,0.));
#1316=CARTESIAN_POINT('',(31.55,72.,0.));
#1317=CARTESIAN_POINT('Origin',(-28.,144.,0.));
#1318=CARTESIAN_POINT('',(-28.,154.,0.));
#1319=CARTESIAN_POINT('',(-28.,154.,0.));
#1320=CARTESIAN_POINT('',(-38.,144.,0.));
#1321=CARTESIAN_POINT('Origin',(-28.,144.,0.));
#1322=CARTESIAN_POINT('',(-38.,144.,0.));
#1323=CARTESIAN_POINT('Origin',(38.,154.,0.));
#1324=CARTESIAN_POINT('',(28.,154.,0.));
#1325=CARTESIAN_POINT('',(28.,154.,1.));
#1326=CARTESIAN_POINT('',(-38.,154.,0.));
#1327=CARTESIAN_POINT('Origin',(28.,144.,1.));
#1328=CARTESIAN_POINT('',(38.,144.,0.));
#1329=CARTESIAN_POINT('',(38.,144.,1.));
#1330=CARTESIAN_POINT('Origin',(28.,144.,0.));
#1331=CARTESIAN_POINT('Origin',(38.,0.,2.));
#1332=CARTESIAN_POINT('',(38.,1.92828209540159E-14,0.));
#1333=CARTESIAN_POINT('',(38.,1.92828209540159E-14,1.));
#1334=CARTESIAN_POINT('',(38.,0.,0.));
#1335=CARTESIAN_POINT('Origin',(28.,1.92828209540159E-14,1.));
#1336=CARTESIAN_POINT('',(28.,-9.99999999999998,0.));
#1337=CARTESIAN_POINT('',(28.,-9.99999999999998,1.));
#1338=CARTESIAN_POINT('Origin',(28.,1.92828209540159E-14,0.));
#1339=CARTESIAN_POINT('Origin',(-38.,-10.,0.));
#1340=CARTESIAN_POINT('',(-28.,-10.,0.));
#1341=CARTESIAN_POINT('',(-28.,-10.,0.));
#1342=CARTESIAN_POINT('',(-38.,-10.,0.));
#1343=CARTESIAN_POINT('Origin',(-28.,2.92163953848726E-15,0.));
#1344=CARTESIAN_POINT('',(-38.,2.92163953848726E-15,0.));
#1345=CARTESIAN_POINT('',(-38.,2.92163953848726E-15,0.));
#1346=CARTESIAN_POINT('Origin',(-28.,2.92163953848726E-15,0.));
#1347=CARTESIAN_POINT('Origin',(-38.,0.,0.));
#1348=CARTESIAN_POINT('',(-38.,0.,0.));
#1349=CARTESIAN_POINT('Origin',(2.50000000000002,0.,3.50000000000002));
#1350=CARTESIAN_POINT('',(2.00000000000002,-0.267949192431129,3.00000000000004));
#1351=CARTESIAN_POINT('',(3.00000000000002,0.,4.00000000000005));
#1352=CARTESIAN_POINT('Origin',(3.00000000000005,-2.,4.00000000000005));
#1353=CARTESIAN_POINT('',(3.00000000000002,2.,4.00000000000002));
#1354=CARTESIAN_POINT('',(3.00000000000002,0.,4.00000000000002));
#1355=CARTESIAN_POINT('',(2.00000000000002,2.,3.00000000000002));
#1356=CARTESIAN_POINT('',(-5.49999999999999,2.,-4.49999999999999));
#1357=CARTESIAN_POINT('',(2.00000000000002,0.,3.00000000000002));
#1358=CARTESIAN_POINT('Origin',(3.00000000000002,0.,3.00000000000002));
#1359=CARTESIAN_POINT('',(3.00000000000002,0.,11.));
#1360=CARTESIAN_POINT('',(3.00000000000002,0.,3.00000000000002));
#1361=CARTESIAN_POINT('',(3.00000000000002,2.,11.));
#1362=CARTESIAN_POINT('',(3.00000000000002,0.,11.));
#1363=CARTESIAN_POINT('',(3.00000000000002,2.,3.00000000000002));
#1364=CARTESIAN_POINT('Origin',(25.5,0.,3.50000000000001));
#1365=CARTESIAN_POINT('',(26.,2.,4.00000000000001));
#1366=CARTESIAN_POINT('',(25.,2.,3.00000000000001));
#1367=CARTESIAN_POINT('',(11.75,2.,-10.25));
#1368=CARTESIAN_POINT('',(25.,-0.267949192431136,2.99999999999999));
#1369=CARTESIAN_POINT('',(25.,0.,3.00000000000001));
#1370=CARTESIAN_POINT('',(26.,0.,4.00000000000002));
#1371=CARTESIAN_POINT('Origin',(26.,-2.,4.00000000000002));
#1372=CARTESIAN_POINT('',(26.,0.,4.00000000000001));
#1373=CARTESIAN_POINT('Origin',(17.,0.,3.00000000000001));
#1374=CARTESIAN_POINT('',(18.,2.,3.00000000000001));
#1375=CARTESIAN_POINT('',(17.,2.,3.00000000000001));
#1376=CARTESIAN_POINT('',(18.,-0.267949192431136,3.));
#1377=CARTESIAN_POINT('',(18.,0.,3.00000000000001));
#1378=CARTESIAN_POINT('',(14.,-0.267949192431136,3.00000000000001));
#1379=CARTESIAN_POINT('Origin',(3.50000000000002,0.,11.5));
#1380=CARTESIAN_POINT('',(4.00000000000002,2.,12.));
#1381=CARTESIAN_POINT('',(-6.74999999999998,2.,1.25));
#1382=CARTESIAN_POINT('',(4.00000000000002,0.,12.));
#1383=CARTESIAN_POINT('',(2.50000000000002,0.,10.5));
#1384=CARTESIAN_POINT('',(4.00000000000002,0.,12.));
#1385=CARTESIAN_POINT('Origin',(3.00000000000002,0.,12.));
#1386=CARTESIAN_POINT('',(16.,0.,12.));
#1387=CARTESIAN_POINT('',(3.00000000000002,0.,12.));
#1388=CARTESIAN_POINT('',(16.,2.,12.));
#1389=CARTESIAN_POINT('',(16.,0.,12.));
#1390=CARTESIAN_POINT('',(3.00000000000002,2.,12.));
#1391=CARTESIAN_POINT('Origin',(0.,0.,11.));
#1392=CARTESIAN_POINT('',(17.,0.,4.00000000000003));
#1393=CARTESIAN_POINT('',(14.,0.,4.00000000000003));
#1394=CARTESIAN_POINT('',(17.,0.,11.));
#1395=CARTESIAN_POINT('',(17.,0.,12.));
#1396=CARTESIAN_POINT('',(12.5,0.,15.5));
#1397=CARTESIAN_POINT('Origin',(16.5,0.,11.5));
#1398=CARTESIAN_POINT('',(17.,2.,11.));
#1399=CARTESIAN_POINT('',(8.75,2.,19.25));
#1400=CARTESIAN_POINT('',(17.,0.,11.));
#1401=CARTESIAN_POINT('Origin',(17.5,0.,3.50000000000001));
#1402=CARTESIAN_POINT('Origin',(17.,-2.,4.00000000000003));
#1403=CARTESIAN_POINT('',(17.,2.,4.00000000000001));
#1404=CARTESIAN_POINT('',(7.50000000000001,2.,13.5));
#1405=CARTESIAN_POINT('',(17.,0.,4.00000000000001));
#1406=CARTESIAN_POINT('Origin',(-9.49999999999998,0.,3.50000000000001));
#1407=CARTESIAN_POINT('',(-9.99999999999998,0.,4.00000000000006));
#1408=CARTESIAN_POINT('',(-8.99999999999998,-0.267949192431129,3.00000000000005));
#1409=CARTESIAN_POINT('Origin',(-10.,-2.,4.00000000000006));
#1410=CARTESIAN_POINT('',(-8.99999999999998,2.,3.00000000000001));
#1411=CARTESIAN_POINT('',(-8.99999999999998,0.,3.00000000000001));
#1412=CARTESIAN_POINT('',(-9.99999999999998,2.,4.00000000000001));
#1413=CARTESIAN_POINT('',(-12.75,2.,6.75000000000001));
#1414=CARTESIAN_POINT('',(-9.99999999999998,0.,4.00000000000001));
#1415=CARTESIAN_POINT('Origin',(-9.99999999999998,0.,3.00000000000001));
#1416=CARTESIAN_POINT('',(-9.99999999999998,2.,3.00000000000001));
#1417=CARTESIAN_POINT('',(14.,-0.267949192431129,3.00000000000002));
#1418=CARTESIAN_POINT('Origin',(-10.5,0.,11.5));
#1419=CARTESIAN_POINT('',(-9.99999999999999,2.,11.));
#1420=CARTESIAN_POINT('',(-11.,2.,12.));
#1421=CARTESIAN_POINT('',(-11.5,2.,12.5));
#1422=CARTESIAN_POINT('',(-11.,0.,12.));
#1423=CARTESIAN_POINT('',(-11.,0.,12.));
#1424=CARTESIAN_POINT('',(-9.99999999999999,0.,11.));
#1425=CARTESIAN_POINT('',(-7.75,0.,8.75000000000001));
#1426=CARTESIAN_POINT('',(-9.99999999999999,0.,11.));
#1427=CARTESIAN_POINT('Origin',(-9.99999999999999,0.,12.));
#1428=CARTESIAN_POINT('',(-9.99999999999999,2.,12.));
#1429=CARTESIAN_POINT('',(-9.99999999999999,0.,12.));
#1430=CARTESIAN_POINT('Origin',(0.,0.,11.));
#1431=CARTESIAN_POINT('',(-25.,0.,12.));
#1432=CARTESIAN_POINT('',(-26.,0.,12.));
#1433=CARTESIAN_POINT('',(-26.,0.,13.));
#1434=CARTESIAN_POINT('',(-18.75,0.,5.75000000000001));
#1435=CARTESIAN_POINT('',(-26.,0.,22.));
#1436=CARTESIAN_POINT('',(-26.,0.,2.00000000000001));
#1437=CARTESIAN_POINT('',(-28.,0.,22.));
#1438=CARTESIAN_POINT('',(-26.,0.,22.));
#1439=CARTESIAN_POINT('',(-28.,0.,4.00000000000009));
#1440=CARTESIAN_POINT('',(-28.,0.,22.));
#1441=CARTESIAN_POINT('',(14.,0.,4.00000000000003));
#1442=CARTESIAN_POINT('Origin',(-25.5,0.,12.5));
#1443=CARTESIAN_POINT('',(-25.,2.,12.));
#1444=CARTESIAN_POINT('',(-26.,2.,13.));
#1445=CARTESIAN_POINT('',(-22.5,2.,9.50000000000001));
#1446=CARTESIAN_POINT('',(-26.,0.,13.));
#1447=CARTESIAN_POINT('',(-25.,0.,12.));
#1448=CARTESIAN_POINT('Origin',(-26.,0.,22.));
#1449=CARTESIAN_POINT('',(-26.,2.,0.));
#1450=CARTESIAN_POINT('',(-26.,2.,0.));
#1451=CARTESIAN_POINT('',(-26.,142.,0.));
#1452=CARTESIAN_POINT('',(-26.,71.,0.));
#1453=CARTESIAN_POINT('',(-26.,142.,22.));
#1454=CARTESIAN_POINT('',(-26.,142.,17.));
#1455=CARTESIAN_POINT('',(-26.,0.,22.));
#1456=CARTESIAN_POINT('Origin',(-30.,0.,4.00000000000009));
#1457=CARTESIAN_POINT('Origin',(-30.,-2.,4.00000000000009));
#1458=CARTESIAN_POINT('',(-28.,144.,4.00000000000009));
#1459=CARTESIAN_POINT('',(-28.,0.,4.00000000000009));
#1460=CARTESIAN_POINT('Origin',(-30.,146.,4.00000000000009));
#1461=CARTESIAN_POINT('Origin',(14.,-2.,4.00000000000003));
#1462=CARTESIAN_POINT('',(28.,0.,4.00000000000001));
#1463=CARTESIAN_POINT('Origin',(30.,-2.,4.00000000000001));
#1464=CARTESIAN_POINT('',(14.,0.,4.00000000000003));
#1465=CARTESIAN_POINT('Origin',(30.,0.,4.00000000000001));
#1466=CARTESIAN_POINT('',(28.,144.,4.00000000000001));
#1467=CARTESIAN_POINT('',(28.,0.,4.00000000000001));
#1468=CARTESIAN_POINT('Origin',(30.,146.,4.00000000000001));
#1469=CARTESIAN_POINT('Origin',(14.,146.,4.00000000000003));
#1470=CARTESIAN_POINT('',(14.,144.,4.00000000000003));
#1471=CARTESIAN_POINT('Origin',(28.,0.,22.));
#1472=CARTESIAN_POINT('',(28.,144.,22.));
#1473=CARTESIAN_POINT('',(28.,144.,2.00000000000001));
#1474=CARTESIAN_POINT('',(28.,0.,22.));
#1475=CARTESIAN_POINT('',(28.,0.,22.));
#1476=CARTESIAN_POINT('',(28.,0.,2.00000000000001));
#1477=CARTESIAN_POINT('Origin',(0.,144.,11.));
#1478=CARTESIAN_POINT('',(-28.,144.,22.));
#1479=CARTESIAN_POINT('',(-28.,144.,22.));
#1480=CARTESIAN_POINT('',(-26.,144.,22.));
#1481=CARTESIAN_POINT('Origin',(0.,0.,11.));
#1482=CARTESIAN_POINT('',(26.,0.,22.));
#1483=CARTESIAN_POINT('',(28.,0.,22.));
#1484=CARTESIAN_POINT('',(26.,0.,22.));
#1485=CARTESIAN_POINT('Origin',(-28.,0.,2.));
#1486=CARTESIAN_POINT('',(-28.,0.,22.));
#1487=CARTESIAN_POINT('Origin',(26.,0.,2.00000000000001));
#1488=CARTESIAN_POINT('',(26.,142.,22.));
#1489=CARTESIAN_POINT('',(26.,0.,22.));
#1490=CARTESIAN_POINT('',(26.,142.,0.));
#1491=CARTESIAN_POINT('',(26.,142.,6.99999999999999));
#1492=CARTESIAN_POINT('',(26.,2.,0.));
#1493=CARTESIAN_POINT('',(26.,1.,0.));
#1494=CARTESIAN_POINT('',(26.,2.,4.5));
#1495=CARTESIAN_POINT('Origin',(17.,0.,12.));
#1496=CARTESIAN_POINT('',(17.,2.,12.));
#1497=CARTESIAN_POINT('Origin',(-26.,0.,12.));
#1498=CARTESIAN_POINT('',(-26.,2.,12.));
#1499=CARTESIAN_POINT('Origin',(26.,142.,0.));
#1500=CARTESIAN_POINT('',(32.,142.,0.));
#1501=CARTESIAN_POINT('',(-26.,142.,22.));
#1502=CARTESIAN_POINT('Origin',(-26.,2.,0.));
#1503=CARTESIAN_POINT('',(6.00000000000001,2.,0.));
#1504=CARTESIAN_POINT('Origin',(-28.,0.,22.));
#1505=CARTESIAN_POINT('Origin',(38.,0.,0.));
#1506=UNCERTAINTY_MEASURE_WITH_UNIT(LENGTH_MEASURE(0.01),#1510,
'DISTANCE_ACCURACY_VALUE',
'Maximum model space distance between geometric entities at asserted c
onnectivities');
#1507=UNCERTAINTY_MEASURE_WITH_UNIT(LENGTH_MEASURE(0.01),#1510,
'DISTANCE_ACCURACY_VALUE',
'Maximum model space distance between geometric entities at asserted c
onnectivities');
#1508=(
GEOMETRIC_REPRESENTATION_CONTEXT(3)
GLOBAL_UNCERTAINTY_ASSIGNED_CONTEXT((#1506))
GLOBAL_UNIT_ASSIGNED_CONTEXT((#1510,#1512,#1513))
REPRESENTATION_CONTEXT('','3D')
);
#1509=(
GEOMETRIC_REPRESENTATION_CONTEXT(3)
GLOBAL_UNCERTAINTY_ASSIGNED_CONTEXT((#1507))
GLOBAL_UNIT_ASSIGNED_CONTEXT((#1510,#1512,#1513))
REPRESENTATION_CONTEXT('','3D')
);
#1510=(
LENGTH_UNIT()
NAMED_UNIT(*)
SI_UNIT(.MILLI.,.METRE.)
);
#1511=(
LENGTH_UNIT()
NAMED_UNIT(*)
SI_UNIT($,.METRE.)
);
#1512=(
NAMED_UNIT(*)
PLANE_ANGLE_UNIT()
SI_UNIT($,.RADIAN.)
);
#1513=(
NAMED_UNIT(*)
SI_UNIT($,.STERADIAN.)
SOLID_ANGLE_UNIT()
);
#1514=SHAPE_DEFINITION_REPRESENTATION(#1515,#1516);
#1515=PRODUCT_DEFINITION_SHAPE('',$,#1518);
#1516=SHAPE_REPRESENTATION('',(#922),#1508);
#1517=PRODUCT_DEFINITION_CONTEXT('part definition',#1522,'design');
#1518=PRODUCT_DEFINITION('2026-08-22-12-04-51-912','Battery Case',#1519,
#1517);
#1519=PRODUCT_DEFINITION_FORMATION('',$,#1524);
#1520=PRODUCT_RELATED_PRODUCT_CATEGORY('Battery Case','Battery Case',(#1524));
#1521=APPLICATION_PROTOCOL_DEFINITION('international standard',
'automotive_design',2009,#1522);
#1522=APPLICATION_CONTEXT(
'Core Data for Automotive Mechanical Design Process');
#1523=PRODUCT_CONTEXT('part definition',#1522,'mechanical');
#1524=PRODUCT('2026-08-22-12-04-51-912','Battery Case',$,(#1523));
#1525=PRESENTATION_STYLE_ASSIGNMENT((#1526));
#1526=SURFACE_STYLE_USAGE(.BOTH.,#1527);
#1527=SURFACE_SIDE_STYLE('',(#1528));
#1528=SURFACE_STYLE_FILL_AREA(#1529);
#1529=FILL_AREA_STYLE('Steel - Satin',(#1530));
#1530=FILL_AREA_STYLE_COLOUR('Steel - Satin',#1531);
#1531=COLOUR_RGB('Steel - Satin',0.627450980392157,0.627450980392157,0.627450980392157);
ENDSEC;
END-ISO-10303-21;
