ISO-10303-21;
HEADER;
/* Generated by software containing ST-Developer
 * from STEP Tools, Inc. (www.steptools.com) 
 */

FILE_DESCRIPTION(
/* description */ (''),
/* implementation_level */ '2;1');

FILE_NAME(
/* name */ 'Frame_Motor_Wires_v001.step',
/* time_stamp */ '2026-10-05T22:17:43+04:00',
/* author */ (''),
/* organization */ (''),
/* preprocessor_version */ 'ST-DEVELOPER v20.2',
/* originating_system */ 'Autodesk Translation Framework v15.15.0.0',
/* authorisation */ '');

FILE_SCHEMA (('AUTOMOTIVE_DESIGN { 1 0 10303 214 3 1 1 }'));
ENDSEC;

DATA;
#10=MECHANICAL_DESIGN_GEOMETRIC_PRESENTATION_REPRESENTATION('',(#13),#881);
#11=SHAPE_REPRESENTATION_RELATIONSHIP('SRR','None',#888,#12);
#12=ADVANCED_BREP_SHAPE_REPRESENTATION('',(#14),#880);
#13=STYLED_ITEM('',(#898),#14);
#14=MANIFOLD_SOLID_BREP('Body12',#513);
#15=FACE_BOUND('',#62,.T.);
#16=FACE_BOUND('',#71,.T.);
#17=FACE_BOUND('',#79,.T.);
#18=PLANE('',#530);
#19=PLANE('',#538);
#20=PLANE('',#543);
#21=PLANE('',#549);
#22=PLANE('',#550);
#23=PLANE('',#556);
#24=PLANE('',#559);
#25=PLANE('',#562);
#26=PLANE('',#563);
#27=PLANE('',#568);
#28=PLANE('',#570);
#29=PLANE('',#572);
#30=PLANE('',#573);
#31=PLANE('',#575);
#32=PLANE('',#577);
#33=FACE_OUTER_BOUND('',#60,.T.);
#34=FACE_OUTER_BOUND('',#61,.T.);
#35=FACE_OUTER_BOUND('',#63,.T.);
#36=FACE_OUTER_BOUND('',#64,.T.);
#37=FACE_OUTER_BOUND('',#65,.T.);
#38=FACE_OUTER_BOUND('',#66,.T.);
#39=FACE_OUTER_BOUND('',#67,.T.);
#40=FACE_OUTER_BOUND('',#68,.T.);
#41=FACE_OUTER_BOUND('',#69,.T.);
#42=FACE_OUTER_BOUND('',#70,.T.);
#43=FACE_OUTER_BOUND('',#72,.T.);
#44=FACE_OUTER_BOUND('',#73,.T.);
#45=FACE_OUTER_BOUND('',#74,.T.);
#46=FACE_OUTER_BOUND('',#75,.T.);
#47=FACE_OUTER_BOUND('',#76,.T.);
#48=FACE_OUTER_BOUND('',#77,.T.);
#49=FACE_OUTER_BOUND('',#78,.T.);
#50=FACE_OUTER_BOUND('',#80,.T.);
#51=FACE_OUTER_BOUND('',#81,.T.);
#52=FACE_OUTER_BOUND('',#82,.T.);
#53=FACE_OUTER_BOUND('',#83,.T.);
#54=FACE_OUTER_BOUND('',#84,.T.);
#55=FACE_OUTER_BOUND('',#85,.T.);
#56=FACE_OUTER_BOUND('',#86,.T.);
#57=FACE_OUTER_BOUND('',#87,.T.);
#58=FACE_OUTER_BOUND('',#88,.T.);
#59=FACE_OUTER_BOUND('',#89,.T.);
#60=EDGE_LOOP('',(#330,#331,#332,#333));
#61=EDGE_LOOP('',(#334,#335,#336,#337,#338,#339,#340,#341));
#62=EDGE_LOOP('',(#342,#343,#344,#345,#346,#347,#348,#349));
#63=EDGE_LOOP('',(#350,#351,#352,#353));
#64=EDGE_LOOP('',(#354,#355,#356,#357));
#65=EDGE_LOOP('',(#358,#359,#360,#361));
#66=EDGE_LOOP('',(#362,#363,#364,#365));
#67=EDGE_LOOP('',(#366,#367,#368,#369));
#68=EDGE_LOOP('',(#370,#371,#372,#373));
#69=EDGE_LOOP('',(#374,#375,#376,#377));
#70=EDGE_LOOP('',(#378,#379,#380,#381,#382,#383,#384,#385));
#71=EDGE_LOOP('',(#386,#387,#388,#389,#390,#391,#392,#393));
#72=EDGE_LOOP('',(#394,#395,#396,#397));
#73=EDGE_LOOP('',(#398,#399,#400,#401));
#74=EDGE_LOOP('',(#402,#403,#404,#405));
#75=EDGE_LOOP('',(#406,#407,#408,#409));
#76=EDGE_LOOP('',(#410,#411,#412,#413));
#77=EDGE_LOOP('',(#414,#415,#416,#417));
#78=EDGE_LOOP('',(#418,#419,#420,#421,#422,#423,#424,#425));
#79=EDGE_LOOP('',(#426,#427,#428,#429,#430,#431,#432,#433));
#80=EDGE_LOOP('',(#434,#435,#436,#437));
#81=EDGE_LOOP('',(#438,#439,#440,#441));
#82=EDGE_LOOP('',(#442,#443,#444,#445));
#83=EDGE_LOOP('',(#446,#447,#448,#449));
#84=EDGE_LOOP('',(#450,#451,#452,#453));
#85=EDGE_LOOP('',(#454,#455,#456,#457));
#86=EDGE_LOOP('',(#458,#459,#460,#461));
#87=EDGE_LOOP('',(#462,#463,#464,#465));
#88=EDGE_LOOP('',(#466,#467,#468,#469));
#89=EDGE_LOOP('',(#470,#471,#472,#473));
#90=LINE('',#736,#138);
#91=LINE('',#739,#139);
#92=LINE('',#742,#140);
#93=LINE('',#746,#141);
#94=LINE('',#750,#142);
#95=LINE('',#753,#143);
#96=LINE('',#756,#144);
#97=LINE('',#760,#145);
#98=LINE('',#764,#146);
#99=LINE('',#768,#147);
#100=LINE('',#772,#148);
#101=LINE('',#773,#149);
#102=LINE('',#777,#150);
#103=LINE('',#780,#151);
#104=LINE('',#783,#152);
#105=LINE('',#786,#153);
#106=LINE('',#787,#154);
#107=LINE('',#790,#155);
#108=LINE('',#797,#156);
#109=LINE('',#800,#157);
#110=LINE('',#803,#158);
#111=LINE('',#805,#159);
#112=LINE('',#806,#160);
#113=LINE('',#809,#161);
#114=LINE('',#813,#162);
#115=LINE('',#817,#163);
#116=LINE('',#819,#164);
#117=LINE('',#820,#165);
#118=LINE('',#824,#166);
#119=LINE('',#827,#167);
#120=LINE('',#828,#168);
#121=LINE('',#832,#169);
#122=LINE('',#835,#170);
#123=LINE('',#836,#171);
#124=LINE('',#840,#172);
#125=LINE('',#842,#173);
#126=LINE('',#848,#174);
#127=LINE('',#852,#175);
#128=LINE('',#856,#176);
#129=LINE('',#859,#177);
#130=LINE('',#861,#178);
#131=LINE('',#862,#179);
#132=LINE('',#864,#180);
#133=LINE('',#866,#181);
#134=LINE('',#868,#182);
#135=LINE('',#871,#183);
#136=LINE('',#873,#184);
#137=LINE('',#875,#185);
#138=VECTOR('',#584,10.);
#139=VECTOR('',#587,10.);
#140=VECTOR('',#590,10.);
#141=VECTOR('',#593,10.);
#142=VECTOR('',#596,10.);
#143=VECTOR('',#599,10.);
#144=VECTOR('',#600,10.);
#145=VECTOR('',#603,10.);
#146=VECTOR('',#606,10.);
#147=VECTOR('',#609,10.);
#148=VECTOR('',#614,10.);
#149=VECTOR('',#615,10.);
#150=VECTOR('',#620,10.);
#151=VECTOR('',#623,10.);
#152=VECTOR('',#626,10.);
#153=VECTOR('',#629,10.);
#154=VECTOR('',#630,10.);
#155=VECTOR('',#633,10.);
#156=VECTOR('',#640,10.);
#157=VECTOR('',#643,10.);
#158=VECTOR('',#646,10.);
#159=VECTOR('',#647,10.);
#160=VECTOR('',#648,10.);
#161=VECTOR('',#651,10.);
#162=VECTOR('',#654,10.);
#163=VECTOR('',#657,10.);
#164=VECTOR('',#660,10.);
#165=VECTOR('',#661,10.);
#166=VECTOR('',#666,10.);
#167=VECTOR('',#669,10.);
#168=VECTOR('',#670,10.);
#169=VECTOR('',#675,10.);
#170=VECTOR('',#678,10.);
#171=VECTOR('',#679,10.);
#172=VECTOR('',#684,10.);
#173=VECTOR('',#687,10.);
#174=VECTOR('',#692,10.);
#175=VECTOR('',#695,10.);
#176=VECTOR('',#698,10.);
#177=VECTOR('',#701,10.);
#178=VECTOR('',#704,10.);
#179=VECTOR('',#705,10.);
#180=VECTOR('',#708,10.);
#181=VECTOR('',#711,10.);
#182=VECTOR('',#714,10.);
#183=VECTOR('',#719,10.);
#184=VECTOR('',#722,10.);
#185=VECTOR('',#725,10.);
#186=CIRCLE('',#528,1.);
#187=CIRCLE('',#529,1.);
#188=CIRCLE('',#531,1.);
#189=CIRCLE('',#532,1.);
#190=CIRCLE('',#533,1.);
#191=CIRCLE('',#534,1.);
#192=CIRCLE('',#535,0.999999999999996);
#193=CIRCLE('',#536,1.);
#194=CIRCLE('',#537,0.999999999999996);
#195=CIRCLE('',#540,1.);
#196=CIRCLE('',#542,1.);
#197=CIRCLE('',#545,1.);
#198=CIRCLE('',#547,1.);
#199=CIRCLE('',#548,1.);
#200=CIRCLE('',#551,1.);
#201=CIRCLE('',#552,1.);
#202=CIRCLE('',#553,1.);
#203=CIRCLE('',#555,1.);
#204=CIRCLE('',#558,1.);
#205=CIRCLE('',#561,1.);
#206=CIRCLE('',#564,1.);
#207=CIRCLE('',#565,0.999999999999996);
#208=CIRCLE('',#566,1.);
#209=CIRCLE('',#567,0.999999999999996);
#210=VERTEX_POINT('',#732);
#211=VERTEX_POINT('',#733);
#212=VERTEX_POINT('',#735);
#213=VERTEX_POINT('',#737);
#214=VERTEX_POINT('',#741);
#215=VERTEX_POINT('',#743);
#216=VERTEX_POINT('',#745);
#217=VERTEX_POINT('',#747);
#218=VERTEX_POINT('',#749);
#219=VERTEX_POINT('',#751);
#220=VERTEX_POINT('',#754);
#221=VERTEX_POINT('',#755);
#222=VERTEX_POINT('',#757);
#223=VERTEX_POINT('',#759);
#224=VERTEX_POINT('',#761);
#225=VERTEX_POINT('',#763);
#226=VERTEX_POINT('',#765);
#227=VERTEX_POINT('',#767);
#228=VERTEX_POINT('',#771);
#229=VERTEX_POINT('',#775);
#230=VERTEX_POINT('',#779);
#231=VERTEX_POINT('',#781);
#232=VERTEX_POINT('',#785);
#233=VERTEX_POINT('',#789);
#234=VERTEX_POINT('',#793);
#235=VERTEX_POINT('',#794);
#236=VERTEX_POINT('',#796);
#237=VERTEX_POINT('',#798);
#238=VERTEX_POINT('',#802);
#239=VERTEX_POINT('',#804);
#240=VERTEX_POINT('',#808);
#241=VERTEX_POINT('',#810);
#242=VERTEX_POINT('',#812);
#243=VERTEX_POINT('',#814);
#244=VERTEX_POINT('',#816);
#245=VERTEX_POINT('',#822);
#246=VERTEX_POINT('',#826);
#247=VERTEX_POINT('',#830);
#248=VERTEX_POINT('',#834);
#249=VERTEX_POINT('',#838);
#250=VERTEX_POINT('',#844);
#251=VERTEX_POINT('',#845);
#252=VERTEX_POINT('',#847);
#253=VERTEX_POINT('',#849);
#254=VERTEX_POINT('',#851);
#255=VERTEX_POINT('',#853);
#256=VERTEX_POINT('',#855);
#257=VERTEX_POINT('',#857);
#258=EDGE_CURVE('',#210,#211,#186,.T.);
#259=EDGE_CURVE('',#211,#212,#90,.T.);
#260=EDGE_CURVE('',#212,#213,#187,.F.);
#261=EDGE_CURVE('',#213,#210,#91,.T.);
#262=EDGE_CURVE('',#214,#210,#92,.T.);
#263=EDGE_CURVE('',#215,#214,#188,.T.);
#264=EDGE_CURVE('',#216,#215,#93,.T.);
#265=EDGE_CURVE('',#217,#216,#189,.T.);
#266=EDGE_CURVE('',#218,#217,#94,.T.);
#267=EDGE_CURVE('',#219,#218,#190,.T.);
#268=EDGE_CURVE('',#211,#219,#95,.T.);
#269=EDGE_CURVE('',#220,#221,#96,.T.);
#270=EDGE_CURVE('',#222,#220,#191,.T.);
#271=EDGE_CURVE('',#223,#222,#97,.T.);
#272=EDGE_CURVE('',#224,#223,#192,.T.);
#273=EDGE_CURVE('',#225,#224,#98,.T.);
#274=EDGE_CURVE('',#226,#225,#193,.T.);
#275=EDGE_CURVE('',#227,#226,#99,.T.);
#276=EDGE_CURVE('',#221,#227,#194,.T.);
#277=EDGE_CURVE('',#213,#228,#100,.T.);
#278=EDGE_CURVE('',#214,#228,#101,.T.);
#279=EDGE_CURVE('',#228,#229,#195,.F.);
#280=EDGE_CURVE('',#229,#215,#102,.T.);
#281=EDGE_CURVE('',#218,#230,#103,.T.);
#282=EDGE_CURVE('',#230,#231,#196,.F.);
#283=EDGE_CURVE('',#231,#219,#104,.T.);
#284=EDGE_CURVE('',#232,#217,#105,.T.);
#285=EDGE_CURVE('',#232,#230,#106,.T.);
#286=EDGE_CURVE('',#216,#233,#107,.T.);
#287=EDGE_CURVE('',#233,#232,#197,.F.);
#288=EDGE_CURVE('',#234,#235,#198,.T.);
#289=EDGE_CURVE('',#235,#236,#108,.T.);
#290=EDGE_CURVE('',#236,#237,#199,.T.);
#291=EDGE_CURVE('',#237,#234,#109,.T.);
#292=EDGE_CURVE('',#238,#237,#110,.T.);
#293=EDGE_CURVE('',#239,#238,#111,.T.);
#294=EDGE_CURVE('',#234,#239,#112,.T.);
#295=EDGE_CURVE('',#236,#240,#113,.T.);
#296=EDGE_CURVE('',#241,#240,#200,.T.);
#297=EDGE_CURVE('',#241,#242,#114,.T.);
#298=EDGE_CURVE('',#243,#242,#201,.T.);
#299=EDGE_CURVE('',#243,#244,#115,.T.);
#300=EDGE_CURVE('',#238,#244,#202,.T.);
#301=EDGE_CURVE('',#231,#212,#116,.T.);
#302=EDGE_CURVE('',#229,#233,#117,.T.);
#303=EDGE_CURVE('',#245,#239,#203,.T.);
#304=EDGE_CURVE('',#244,#245,#118,.T.);
#305=EDGE_CURVE('',#246,#243,#119,.T.);
#306=EDGE_CURVE('',#245,#246,#120,.T.);
#307=EDGE_CURVE('',#247,#246,#204,.T.);
#308=EDGE_CURVE('',#242,#247,#121,.T.);
#309=EDGE_CURVE('',#248,#241,#122,.T.);
#310=EDGE_CURVE('',#247,#248,#123,.T.);
#311=EDGE_CURVE('',#249,#248,#205,.T.);
#312=EDGE_CURVE('',#240,#249,#124,.T.);
#313=EDGE_CURVE('',#249,#235,#125,.T.);
#314=EDGE_CURVE('',#250,#251,#206,.T.);
#315=EDGE_CURVE('',#251,#252,#126,.T.);
#316=EDGE_CURVE('',#252,#253,#207,.T.);
#317=EDGE_CURVE('',#253,#254,#127,.T.);
#318=EDGE_CURVE('',#254,#255,#208,.T.);
#319=EDGE_CURVE('',#255,#256,#128,.T.);
#320=EDGE_CURVE('',#256,#257,#209,.T.);
#321=EDGE_CURVE('',#257,#250,#129,.T.);
#322=EDGE_CURVE('',#224,#256,#130,.T.);
#323=EDGE_CURVE('',#225,#255,#131,.T.);
#324=EDGE_CURVE('',#223,#257,#132,.T.);
#325=EDGE_CURVE('',#250,#222,#133,.T.);
#326=EDGE_CURVE('',#220,#251,#134,.T.);
#327=EDGE_CURVE('',#221,#252,#135,.T.);
#328=EDGE_CURVE('',#227,#253,#136,.T.);
#329=EDGE_CURVE('',#226,#254,#137,.T.);
#330=ORIENTED_EDGE('',*,*,#258,.T.);
#331=ORIENTED_EDGE('',*,*,#259,.T.);
#332=ORIENTED_EDGE('',*,*,#260,.T.);
#333=ORIENTED_EDGE('',*,*,#261,.T.);
#334=ORIENTED_EDGE('',*,*,#258,.F.);
#335=ORIENTED_EDGE('',*,*,#262,.F.);
#336=ORIENTED_EDGE('',*,*,#263,.F.);
#337=ORIENTED_EDGE('',*,*,#264,.F.);
#338=ORIENTED_EDGE('',*,*,#265,.F.);
#339=ORIENTED_EDGE('',*,*,#266,.F.);
#340=ORIENTED_EDGE('',*,*,#267,.F.);
#341=ORIENTED_EDGE('',*,*,#268,.F.);
#342=ORIENTED_EDGE('',*,*,#269,.F.);
#343=ORIENTED_EDGE('',*,*,#270,.F.);
#344=ORIENTED_EDGE('',*,*,#271,.F.);
#345=ORIENTED_EDGE('',*,*,#272,.F.);
#346=ORIENTED_EDGE('',*,*,#273,.F.);
#347=ORIENTED_EDGE('',*,*,#274,.F.);
#348=ORIENTED_EDGE('',*,*,#275,.F.);
#349=ORIENTED_EDGE('',*,*,#276,.F.);
#350=ORIENTED_EDGE('',*,*,#261,.F.);
#351=ORIENTED_EDGE('',*,*,#277,.T.);
#352=ORIENTED_EDGE('',*,*,#278,.F.);
#353=ORIENTED_EDGE('',*,*,#262,.T.);
#354=ORIENTED_EDGE('',*,*,#263,.T.);
#355=ORIENTED_EDGE('',*,*,#278,.T.);
#356=ORIENTED_EDGE('',*,*,#279,.T.);
#357=ORIENTED_EDGE('',*,*,#280,.T.);
#358=ORIENTED_EDGE('',*,*,#267,.T.);
#359=ORIENTED_EDGE('',*,*,#281,.T.);
#360=ORIENTED_EDGE('',*,*,#282,.T.);
#361=ORIENTED_EDGE('',*,*,#283,.T.);
#362=ORIENTED_EDGE('',*,*,#281,.F.);
#363=ORIENTED_EDGE('',*,*,#266,.T.);
#364=ORIENTED_EDGE('',*,*,#284,.F.);
#365=ORIENTED_EDGE('',*,*,#285,.T.);
#366=ORIENTED_EDGE('',*,*,#265,.T.);
#367=ORIENTED_EDGE('',*,*,#286,.T.);
#368=ORIENTED_EDGE('',*,*,#287,.T.);
#369=ORIENTED_EDGE('',*,*,#284,.T.);
#370=ORIENTED_EDGE('',*,*,#288,.T.);
#371=ORIENTED_EDGE('',*,*,#289,.T.);
#372=ORIENTED_EDGE('',*,*,#290,.T.);
#373=ORIENTED_EDGE('',*,*,#291,.T.);
#374=ORIENTED_EDGE('',*,*,#291,.F.);
#375=ORIENTED_EDGE('',*,*,#292,.F.);
#376=ORIENTED_EDGE('',*,*,#293,.F.);
#377=ORIENTED_EDGE('',*,*,#294,.F.);
#378=ORIENTED_EDGE('',*,*,#290,.F.);
#379=ORIENTED_EDGE('',*,*,#295,.T.);
#380=ORIENTED_EDGE('',*,*,#296,.F.);
#381=ORIENTED_EDGE('',*,*,#297,.T.);
#382=ORIENTED_EDGE('',*,*,#298,.F.);
#383=ORIENTED_EDGE('',*,*,#299,.T.);
#384=ORIENTED_EDGE('',*,*,#300,.F.);
#385=ORIENTED_EDGE('',*,*,#292,.T.);
#386=ORIENTED_EDGE('',*,*,#301,.F.);
#387=ORIENTED_EDGE('',*,*,#282,.F.);
#388=ORIENTED_EDGE('',*,*,#285,.F.);
#389=ORIENTED_EDGE('',*,*,#287,.F.);
#390=ORIENTED_EDGE('',*,*,#302,.F.);
#391=ORIENTED_EDGE('',*,*,#279,.F.);
#392=ORIENTED_EDGE('',*,*,#277,.F.);
#393=ORIENTED_EDGE('',*,*,#260,.F.);
#394=ORIENTED_EDGE('',*,*,#303,.T.);
#395=ORIENTED_EDGE('',*,*,#293,.T.);
#396=ORIENTED_EDGE('',*,*,#300,.T.);
#397=ORIENTED_EDGE('',*,*,#304,.T.);
#398=ORIENTED_EDGE('',*,*,#304,.F.);
#399=ORIENTED_EDGE('',*,*,#299,.F.);
#400=ORIENTED_EDGE('',*,*,#305,.F.);
#401=ORIENTED_EDGE('',*,*,#306,.F.);
#402=ORIENTED_EDGE('',*,*,#307,.T.);
#403=ORIENTED_EDGE('',*,*,#305,.T.);
#404=ORIENTED_EDGE('',*,*,#298,.T.);
#405=ORIENTED_EDGE('',*,*,#308,.T.);
#406=ORIENTED_EDGE('',*,*,#308,.F.);
#407=ORIENTED_EDGE('',*,*,#297,.F.);
#408=ORIENTED_EDGE('',*,*,#309,.F.);
#409=ORIENTED_EDGE('',*,*,#310,.F.);
#410=ORIENTED_EDGE('',*,*,#311,.T.);
#411=ORIENTED_EDGE('',*,*,#309,.T.);
#412=ORIENTED_EDGE('',*,*,#296,.T.);
#413=ORIENTED_EDGE('',*,*,#312,.T.);
#414=ORIENTED_EDGE('',*,*,#289,.F.);
#415=ORIENTED_EDGE('',*,*,#313,.F.);
#416=ORIENTED_EDGE('',*,*,#312,.F.);
#417=ORIENTED_EDGE('',*,*,#295,.F.);
#418=ORIENTED_EDGE('',*,*,#288,.F.);
#419=ORIENTED_EDGE('',*,*,#294,.T.);
#420=ORIENTED_EDGE('',*,*,#303,.F.);
#421=ORIENTED_EDGE('',*,*,#306,.T.);
#422=ORIENTED_EDGE('',*,*,#307,.F.);
#423=ORIENTED_EDGE('',*,*,#310,.T.);
#424=ORIENTED_EDGE('',*,*,#311,.F.);
#425=ORIENTED_EDGE('',*,*,#313,.T.);
#426=ORIENTED_EDGE('',*,*,#314,.T.);
#427=ORIENTED_EDGE('',*,*,#315,.T.);
#428=ORIENTED_EDGE('',*,*,#316,.T.);
#429=ORIENTED_EDGE('',*,*,#317,.T.);
#430=ORIENTED_EDGE('',*,*,#318,.T.);
#431=ORIENTED_EDGE('',*,*,#319,.T.);
#432=ORIENTED_EDGE('',*,*,#320,.T.);
#433=ORIENTED_EDGE('',*,*,#321,.T.);
#434=ORIENTED_EDGE('',*,*,#273,.T.);
#435=ORIENTED_EDGE('',*,*,#322,.T.);
#436=ORIENTED_EDGE('',*,*,#319,.F.);
#437=ORIENTED_EDGE('',*,*,#323,.F.);
#438=ORIENTED_EDGE('',*,*,#272,.T.);
#439=ORIENTED_EDGE('',*,*,#324,.T.);
#440=ORIENTED_EDGE('',*,*,#320,.F.);
#441=ORIENTED_EDGE('',*,*,#322,.F.);
#442=ORIENTED_EDGE('',*,*,#271,.T.);
#443=ORIENTED_EDGE('',*,*,#325,.F.);
#444=ORIENTED_EDGE('',*,*,#321,.F.);
#445=ORIENTED_EDGE('',*,*,#324,.F.);
#446=ORIENTED_EDGE('',*,*,#270,.T.);
#447=ORIENTED_EDGE('',*,*,#326,.T.);
#448=ORIENTED_EDGE('',*,*,#314,.F.);
#449=ORIENTED_EDGE('',*,*,#325,.T.);
#450=ORIENTED_EDGE('',*,*,#280,.F.);
#451=ORIENTED_EDGE('',*,*,#302,.T.);
#452=ORIENTED_EDGE('',*,*,#286,.F.);
#453=ORIENTED_EDGE('',*,*,#264,.T.);
#454=ORIENTED_EDGE('',*,*,#269,.T.);
#455=ORIENTED_EDGE('',*,*,#327,.T.);
#456=ORIENTED_EDGE('',*,*,#315,.F.);
#457=ORIENTED_EDGE('',*,*,#326,.F.);
#458=ORIENTED_EDGE('',*,*,#276,.T.);
#459=ORIENTED_EDGE('',*,*,#328,.T.);
#460=ORIENTED_EDGE('',*,*,#316,.F.);
#461=ORIENTED_EDGE('',*,*,#327,.F.);
#462=ORIENTED_EDGE('',*,*,#275,.T.);
#463=ORIENTED_EDGE('',*,*,#329,.T.);
#464=ORIENTED_EDGE('',*,*,#317,.F.);
#465=ORIENTED_EDGE('',*,*,#328,.F.);
#466=ORIENTED_EDGE('',*,*,#274,.T.);
#467=ORIENTED_EDGE('',*,*,#323,.T.);
#468=ORIENTED_EDGE('',*,*,#318,.F.);
#469=ORIENTED_EDGE('',*,*,#329,.F.);
#470=ORIENTED_EDGE('',*,*,#259,.F.);
#471=ORIENTED_EDGE('',*,*,#268,.T.);
#472=ORIENTED_EDGE('',*,*,#283,.F.);
#473=ORIENTED_EDGE('',*,*,#301,.T.);
#474=CYLINDRICAL_SURFACE('',#527,1.);
#475=CYLINDRICAL_SURFACE('',#539,1.);
#476=CYLINDRICAL_SURFACE('',#541,1.);
#477=CYLINDRICAL_SURFACE('',#544,1.);
#478=CYLINDRICAL_SURFACE('',#546,1.);
#479=CYLINDRICAL_SURFACE('',#554,1.);
#480=CYLINDRICAL_SURFACE('',#557,1.);
#481=CYLINDRICAL_SURFACE('',#560,1.);
#482=CYLINDRICAL_SURFACE('',#569,0.999999999999996);
#483=CYLINDRICAL_SURFACE('',#571,1.);
#484=CYLINDRICAL_SURFACE('',#574,0.999999999999996);
#485=CYLINDRICAL_SURFACE('',#576,1.);
#486=ADVANCED_FACE('',(#33),#474,.T.);
#487=ADVANCED_FACE('',(#34,#15),#18,.T.);
#488=ADVANCED_FACE('',(#35),#19,.T.);
#489=ADVANCED_FACE('',(#36),#475,.T.);
#490=ADVANCED_FACE('',(#37),#476,.T.);
#491=ADVANCED_FACE('',(#38),#20,.T.);
#492=ADVANCED_FACE('',(#39),#477,.T.);
#493=ADVANCED_FACE('',(#40),#478,.T.);
#494=ADVANCED_FACE('',(#41),#21,.T.);
#495=ADVANCED_FACE('',(#42,#16),#22,.F.);
#496=ADVANCED_FACE('',(#43),#479,.T.);
#497=ADVANCED_FACE('',(#44),#23,.T.);
#498=ADVANCED_FACE('',(#45),#480,.T.);
#499=ADVANCED_FACE('',(#46),#24,.T.);
#500=ADVANCED_FACE('',(#47),#481,.T.);
#501=ADVANCED_FACE('',(#48),#25,.T.);
#502=ADVANCED_FACE('',(#49,#17),#26,.T.);
#503=ADVANCED_FACE('',(#50),#27,.T.);
#504=ADVANCED_FACE('',(#51),#482,.F.);
#505=ADVANCED_FACE('',(#52),#28,.T.);
#506=ADVANCED_FACE('',(#53),#483,.F.);
#507=ADVANCED_FACE('',(#54),#29,.T.);
#508=ADVANCED_FACE('',(#55),#30,.T.);
#509=ADVANCED_FACE('',(#56),#484,.F.);
#510=ADVANCED_FACE('',(#57),#31,.T.);
#511=ADVANCED_FACE('',(#58),#485,.F.);
#512=ADVANCED_FACE('',(#59),#32,.T.);
#513=CLOSED_SHELL('',(#486,#487,#488,#489,#490,#491,#492,#493,#494,#495,
#496,#497,#498,#499,#500,#501,#502,#503,#504,#505,#506,#507,#508,#509,#510,
#511,#512));
#514=DERIVED_UNIT_ELEMENT(#516,1.);
#515=DERIVED_UNIT_ELEMENT(#883,-3.);
#516=(
MASS_UNIT()
NAMED_UNIT(*)
SI_UNIT(.KILO.,.GRAM.)
);
#517=DERIVED_UNIT((#514,#515));
#518=MEASURE_REPRESENTATION_ITEM('density measure',
POSITIVE_RATIO_MEASURE(7850.),#517);
#519=PROPERTY_DEFINITION_REPRESENTATION(#524,#521);
#520=PROPERTY_DEFINITION_REPRESENTATION(#525,#522);
#521=REPRESENTATION('material name',(#523),#880);
#522=REPRESENTATION('density',(#518),#880);
#523=DESCRIPTIVE_REPRESENTATION_ITEM('Steel','Steel');
#524=PROPERTY_DEFINITION('material property','material name',#890);
#525=PROPERTY_DEFINITION('material property','density of part',#890);
#526=AXIS2_PLACEMENT_3D('',#730,#578,#579);
#527=AXIS2_PLACEMENT_3D('',#731,#580,#581);
#528=AXIS2_PLACEMENT_3D('',#734,#582,#583);
#529=AXIS2_PLACEMENT_3D('',#738,#585,#586);
#530=AXIS2_PLACEMENT_3D('',#740,#588,#589);
#531=AXIS2_PLACEMENT_3D('',#744,#591,#592);
#532=AXIS2_PLACEMENT_3D('',#748,#594,#595);
#533=AXIS2_PLACEMENT_3D('',#752,#597,#598);
#534=AXIS2_PLACEMENT_3D('',#758,#601,#602);
#535=AXIS2_PLACEMENT_3D('',#762,#604,#605);
#536=AXIS2_PLACEMENT_3D('',#766,#607,#608);
#537=AXIS2_PLACEMENT_3D('',#769,#610,#611);
#538=AXIS2_PLACEMENT_3D('',#770,#612,#613);
#539=AXIS2_PLACEMENT_3D('',#774,#616,#617);
#540=AXIS2_PLACEMENT_3D('',#776,#618,#619);
#541=AXIS2_PLACEMENT_3D('',#778,#621,#622);
#542=AXIS2_PLACEMENT_3D('',#782,#624,#625);
#543=AXIS2_PLACEMENT_3D('',#784,#627,#628);
#544=AXIS2_PLACEMENT_3D('',#788,#631,#632);
#545=AXIS2_PLACEMENT_3D('',#791,#634,#635);
#546=AXIS2_PLACEMENT_3D('',#792,#636,#637);
#547=AXIS2_PLACEMENT_3D('',#795,#638,#639);
#548=AXIS2_PLACEMENT_3D('',#799,#641,#642);
#549=AXIS2_PLACEMENT_3D('',#801,#644,#645);
#550=AXIS2_PLACEMENT_3D('',#807,#649,#650);
#551=AXIS2_PLACEMENT_3D('',#811,#652,#653);
#552=AXIS2_PLACEMENT_3D('',#815,#655,#656);
#553=AXIS2_PLACEMENT_3D('',#818,#658,#659);
#554=AXIS2_PLACEMENT_3D('',#821,#662,#663);
#555=AXIS2_PLACEMENT_3D('',#823,#664,#665);
#556=AXIS2_PLACEMENT_3D('',#825,#667,#668);
#557=AXIS2_PLACEMENT_3D('',#829,#671,#672);
#558=AXIS2_PLACEMENT_3D('',#831,#673,#674);
#559=AXIS2_PLACEMENT_3D('',#833,#676,#677);
#560=AXIS2_PLACEMENT_3D('',#837,#680,#681);
#561=AXIS2_PLACEMENT_3D('',#839,#682,#683);
#562=AXIS2_PLACEMENT_3D('',#841,#685,#686);
#563=AXIS2_PLACEMENT_3D('',#843,#688,#689);
#564=AXIS2_PLACEMENT_3D('',#846,#690,#691);
#565=AXIS2_PLACEMENT_3D('',#850,#693,#694);
#566=AXIS2_PLACEMENT_3D('',#854,#696,#697);
#567=AXIS2_PLACEMENT_3D('',#858,#699,#700);
#568=AXIS2_PLACEMENT_3D('',#860,#702,#703);
#569=AXIS2_PLACEMENT_3D('',#863,#706,#707);
#570=AXIS2_PLACEMENT_3D('',#865,#709,#710);
#571=AXIS2_PLACEMENT_3D('',#867,#712,#713);
#572=AXIS2_PLACEMENT_3D('',#869,#715,#716);
#573=AXIS2_PLACEMENT_3D('',#870,#717,#718);
#574=AXIS2_PLACEMENT_3D('',#872,#720,#721);
#575=AXIS2_PLACEMENT_3D('',#874,#723,#724);
#576=AXIS2_PLACEMENT_3D('',#876,#726,#727);
#577=AXIS2_PLACEMENT_3D('',#877,#728,#729);
#578=DIRECTION('axis',(0.,0.,1.));
#579=DIRECTION('refdir',(1.,0.,0.));
#580=DIRECTION('center_axis',(0.,0.,-1.));
#581=DIRECTION('ref_axis',(-0.707106781186548,-0.707106781186548,0.));
#582=DIRECTION('center_axis',(0.,0.,1.));
#583=DIRECTION('ref_axis',(-0.707106781186548,-0.707106781186548,0.));
#584=DIRECTION('',(0.,0.,1.));
#585=DIRECTION('center_axis',(0.,0.,1.));
#586=DIRECTION('ref_axis',(-0.707106781186548,-0.707106781186548,0.));
#587=DIRECTION('',(0.,0.,-1.));
#588=DIRECTION('center_axis',(0.,0.,-1.));
#589=DIRECTION('ref_axis',(-1.,0.,0.));
#590=DIRECTION('',(0.,-1.,0.));
#591=DIRECTION('center_axis',(0.,0.,1.));
#592=DIRECTION('ref_axis',(-0.707106781186544,0.707106781186551,0.));
#593=DIRECTION('',(-1.,0.,0.));
#594=DIRECTION('center_axis',(0.,0.,1.));
#595=DIRECTION('ref_axis',(0.707106781186548,0.707106781186548,0.));
#596=DIRECTION('',(0.,1.,0.));
#597=DIRECTION('center_axis',(0.,0.,1.));
#598=DIRECTION('ref_axis',(0.707106781186544,-0.707106781186551,0.));
#599=DIRECTION('',(1.,0.,0.));
#600=DIRECTION('',(1.,0.,0.));
#601=DIRECTION('center_axis',(0.,0.,-1.));
#602=DIRECTION('ref_axis',(0.,1.,0.));
#603=DIRECTION('',(0.,1.,0.));
#604=DIRECTION('center_axis',(0.,0.,-1.));
#605=DIRECTION('ref_axis',(-1.,4.44089209850064E-15,0.));
#606=DIRECTION('',(-1.,0.,0.));
#607=DIRECTION('center_axis',(0.,0.,-1.));
#608=DIRECTION('ref_axis',(0.,-1.,0.));
#609=DIRECTION('',(0.,-1.,0.));
#610=DIRECTION('center_axis',(0.,0.,-1.));
#611=DIRECTION('ref_axis',(1.,0.,0.));
#612=DIRECTION('center_axis',(-1.,0.,0.));
#613=DIRECTION('ref_axis',(0.,1.,0.));
#614=DIRECTION('',(0.,1.,0.));
#615=DIRECTION('',(0.,0.,1.));
#616=DIRECTION('center_axis',(0.,0.,-1.));
#617=DIRECTION('ref_axis',(-0.707106781186544,0.707106781186551,0.));
#618=DIRECTION('center_axis',(0.,0.,1.));
#619=DIRECTION('ref_axis',(-0.707106781186544,0.707106781186551,0.));
#620=DIRECTION('',(0.,0.,-1.));
#621=DIRECTION('center_axis',(0.,0.,-1.));
#622=DIRECTION('ref_axis',(0.707106781186544,-0.707106781186551,0.));
#623=DIRECTION('',(0.,0.,1.));
#624=DIRECTION('center_axis',(0.,0.,1.));
#625=DIRECTION('ref_axis',(0.707106781186544,-0.707106781186551,0.));
#626=DIRECTION('',(0.,0.,-1.));
#627=DIRECTION('center_axis',(1.,0.,0.));
#628=DIRECTION('ref_axis',(0.,-1.,0.));
#629=DIRECTION('',(0.,0.,-1.));
#630=DIRECTION('',(0.,-1.,0.));
#631=DIRECTION('center_axis',(0.,0.,-1.));
#632=DIRECTION('ref_axis',(0.707106781186548,0.707106781186548,0.));
#633=DIRECTION('',(0.,0.,1.));
#634=DIRECTION('center_axis',(0.,0.,1.));
#635=DIRECTION('ref_axis',(0.707106781186548,0.707106781186548,0.));
#636=DIRECTION('center_axis',(0.,0.,1.));
#637=DIRECTION('ref_axis',(-0.707106781186548,0.707106781186548,0.));
#638=DIRECTION('center_axis',(0.,0.,-1.));
#639=DIRECTION('ref_axis',(-0.707106781186548,0.707106781186548,0.));
#640=DIRECTION('',(0.,0.,-1.));
#641=DIRECTION('center_axis',(0.,0.,1.));
#642=DIRECTION('ref_axis',(-0.707106781186548,0.707106781186548,0.));
#643=DIRECTION('',(0.,0.,1.));
#644=DIRECTION('center_axis',(-1.,0.,0.));
#645=DIRECTION('ref_axis',(0.,-1.,0.));
#646=DIRECTION('',(0.,1.,0.));
#647=DIRECTION('',(0.,0.,-1.));
#648=DIRECTION('',(0.,-1.,0.));
#649=DIRECTION('center_axis',(0.,0.,1.));
#650=DIRECTION('ref_axis',(1.,0.,0.));
#651=DIRECTION('',(1.,0.,0.));
#652=DIRECTION('center_axis',(0.,0.,1.));
#653=DIRECTION('ref_axis',(0.707106781186544,0.707106781186551,0.));
#654=DIRECTION('',(0.,-1.,0.));
#655=DIRECTION('center_axis',(0.,0.,1.));
#656=DIRECTION('ref_axis',(0.707106781186546,-0.707106781186549,0.));
#657=DIRECTION('',(-1.,0.,0.));
#658=DIRECTION('center_axis',(0.,0.,1.));
#659=DIRECTION('ref_axis',(-0.707106781186546,-0.707106781186549,0.));
#660=DIRECTION('',(-1.,0.,0.));
#661=DIRECTION('',(1.,0.,0.));
#662=DIRECTION('center_axis',(0.,0.,1.));
#663=DIRECTION('ref_axis',(-0.707106781186546,-0.707106781186549,0.));
#664=DIRECTION('center_axis',(0.,0.,-1.));
#665=DIRECTION('ref_axis',(-0.707106781186546,-0.707106781186549,0.));
#666=DIRECTION('',(0.,0.,1.));
#667=DIRECTION('center_axis',(0.,-1.,0.));
#668=DIRECTION('ref_axis',(1.,0.,0.));
#669=DIRECTION('',(0.,0.,-1.));
#670=DIRECTION('',(1.,0.,0.));
#671=DIRECTION('center_axis',(0.,0.,1.));
#672=DIRECTION('ref_axis',(0.707106781186546,-0.707106781186549,0.));
#673=DIRECTION('center_axis',(0.,0.,-1.));
#674=DIRECTION('ref_axis',(0.707106781186546,-0.707106781186549,0.));
#675=DIRECTION('',(0.,0.,1.));
#676=DIRECTION('center_axis',(1.,0.,0.));
#677=DIRECTION('ref_axis',(0.,1.,0.));
#678=DIRECTION('',(0.,0.,-1.));
#679=DIRECTION('',(0.,1.,0.));
#680=DIRECTION('center_axis',(0.,0.,1.));
#681=DIRECTION('ref_axis',(0.707106781186544,0.707106781186551,0.));
#682=DIRECTION('center_axis',(0.,0.,-1.));
#683=DIRECTION('ref_axis',(0.707106781186544,0.707106781186551,0.));
#684=DIRECTION('',(0.,0.,1.));
#685=DIRECTION('center_axis',(0.,1.,0.));
#686=DIRECTION('ref_axis',(-1.,0.,0.));
#687=DIRECTION('',(-1.,0.,0.));
#688=DIRECTION('center_axis',(0.,0.,1.));
#689=DIRECTION('ref_axis',(1.,0.,0.));
#690=DIRECTION('center_axis',(0.,0.,-1.));
#691=DIRECTION('ref_axis',(0.,1.,0.));
#692=DIRECTION('',(1.,0.,0.));
#693=DIRECTION('center_axis',(0.,0.,-1.));
#694=DIRECTION('ref_axis',(1.,0.,0.));
#695=DIRECTION('',(0.,-1.,0.));
#696=DIRECTION('center_axis',(0.,0.,-1.));
#697=DIRECTION('ref_axis',(0.,-1.,0.));
#698=DIRECTION('',(-1.,0.,0.));
#699=DIRECTION('center_axis',(0.,0.,-1.));
#700=DIRECTION('ref_axis',(-1.,4.44089209850064E-15,0.));
#701=DIRECTION('',(0.,1.,0.));
#702=DIRECTION('center_axis',(0.,1.,0.));
#703=DIRECTION('ref_axis',(1.,0.,0.));
#704=DIRECTION('',(0.,0.,1.));
#705=DIRECTION('',(0.,0.,1.));
#706=DIRECTION('center_axis',(0.,0.,-1.));
#707=DIRECTION('ref_axis',(-1.,4.44089209850064E-15,0.));
#708=DIRECTION('',(0.,0.,1.));
#709=DIRECTION('center_axis',(1.,0.,0.));
#710=DIRECTION('ref_axis',(0.,-1.,0.));
#711=DIRECTION('',(0.,0.,-1.));
#712=DIRECTION('center_axis',(0.,0.,-1.));
#713=DIRECTION('ref_axis',(0.,1.,0.));
#714=DIRECTION('',(0.,0.,1.));
#715=DIRECTION('center_axis',(0.,1.,0.));
#716=DIRECTION('ref_axis',(1.,0.,0.));
#717=DIRECTION('center_axis',(0.,-1.,0.));
#718=DIRECTION('ref_axis',(-1.,0.,0.));
#719=DIRECTION('',(0.,0.,1.));
#720=DIRECTION('center_axis',(0.,0.,-1.));
#721=DIRECTION('ref_axis',(1.,0.,0.));
#722=DIRECTION('',(0.,0.,1.));
#723=DIRECTION('center_axis',(-1.,0.,0.));
#724=DIRECTION('ref_axis',(0.,1.,0.));
#725=DIRECTION('',(0.,0.,1.));
#726=DIRECTION('center_axis',(0.,0.,-1.));
#727=DIRECTION('ref_axis',(0.,-1.,0.));
#728=DIRECTION('center_axis',(0.,-1.,0.));
#729=DIRECTION('ref_axis',(-1.,0.,0.));
#730=CARTESIAN_POINT('',(0.,0.,0.));
#731=CARTESIAN_POINT('Origin',(49.,21.,3.));
#732=CARTESIAN_POINT('',(48.,21.,0.));
#733=CARTESIAN_POINT('',(49.,20.,0.));
#734=CARTESIAN_POINT('Origin',(49.,21.,0.));
#735=CARTESIAN_POINT('',(49.,20.,3.));
#736=CARTESIAN_POINT('',(49.,20.,3.));
#737=CARTESIAN_POINT('',(48.,21.,3.));
#738=CARTESIAN_POINT('Origin',(49.,21.,3.));
#739=CARTESIAN_POINT('',(48.,21.,3.));
#740=CARTESIAN_POINT('Origin',(-8.88178419700125E-15,60.,0.));
#741=CARTESIAN_POINT('',(48.,29.,0.));
#742=CARTESIAN_POINT('',(48.,40.,0.));
#743=CARTESIAN_POINT('',(49.,30.,0.));
#744=CARTESIAN_POINT('Origin',(49.,29.,0.));
#745=CARTESIAN_POINT('',(57.,30.,0.));
#746=CARTESIAN_POINT('',(24.,30.,0.));
#747=CARTESIAN_POINT('',(58.,29.,0.));
#748=CARTESIAN_POINT('Origin',(57.,29.,0.));
#749=CARTESIAN_POINT('',(58.,21.,0.));
#750=CARTESIAN_POINT('',(58.,45.,0.));
#751=CARTESIAN_POINT('',(57.,20.,0.));
#752=CARTESIAN_POINT('Origin',(57.,21.,0.));
#753=CARTESIAN_POINT('',(29.,20.,0.));
#754=CARTESIAN_POINT('',(50.,29.,0.));
#755=CARTESIAN_POINT('',(56.,29.,0.));
#756=CARTESIAN_POINT('',(28.,29.,0.));
#757=CARTESIAN_POINT('',(49.,28.,0.));
#758=CARTESIAN_POINT('Origin',(50.,28.,0.));
#759=CARTESIAN_POINT('',(49.,22.,0.));
#760=CARTESIAN_POINT('',(49.,44.,0.));
#761=CARTESIAN_POINT('',(50.,21.,0.));
#762=CARTESIAN_POINT('Origin',(50.,22.,0.));
#763=CARTESIAN_POINT('',(56.,21.,0.));
#764=CARTESIAN_POINT('',(25.,21.,0.));
#765=CARTESIAN_POINT('',(57.,22.,0.));
#766=CARTESIAN_POINT('Origin',(56.,22.,0.));
#767=CARTESIAN_POINT('',(57.,28.,0.));
#768=CARTESIAN_POINT('',(57.,41.,0.));
#769=CARTESIAN_POINT('Origin',(56.,28.,0.));
#770=CARTESIAN_POINT('Origin',(48.,20.,3.));
#771=CARTESIAN_POINT('',(48.,29.,3.));
#772=CARTESIAN_POINT('',(48.,20.,3.));
#773=CARTESIAN_POINT('',(48.,29.,3.));
#774=CARTESIAN_POINT('Origin',(49.,29.,3.));
#775=CARTESIAN_POINT('',(49.,30.,3.));
#776=CARTESIAN_POINT('Origin',(49.,29.,3.));
#777=CARTESIAN_POINT('',(49.,30.,3.));
#778=CARTESIAN_POINT('Origin',(57.,21.,3.));
#779=CARTESIAN_POINT('',(58.,21.,3.));
#780=CARTESIAN_POINT('',(58.,21.,3.));
#781=CARTESIAN_POINT('',(57.,20.,3.));
#782=CARTESIAN_POINT('Origin',(57.,21.,3.));
#783=CARTESIAN_POINT('',(57.,20.,3.));
#784=CARTESIAN_POINT('Origin',(58.,30.,3.));
#785=CARTESIAN_POINT('',(58.,29.,3.));
#786=CARTESIAN_POINT('',(58.,29.,3.));
#787=CARTESIAN_POINT('',(58.,30.,3.));
#788=CARTESIAN_POINT('Origin',(57.,29.,3.));
#789=CARTESIAN_POINT('',(57.,30.,3.));
#790=CARTESIAN_POINT('',(57.,30.,3.));
#791=CARTESIAN_POINT('Origin',(57.,29.,3.));
#792=CARTESIAN_POINT('Origin',(46.,32.,3.));
#793=CARTESIAN_POINT('',(45.,32.,4.));
#794=CARTESIAN_POINT('',(46.,33.,4.));
#795=CARTESIAN_POINT('Origin',(46.,32.,4.));
#796=CARTESIAN_POINT('',(46.,33.,3.));
#797=CARTESIAN_POINT('',(46.,33.,3.));
#798=CARTESIAN_POINT('',(45.,32.,3.));
#799=CARTESIAN_POINT('Origin',(46.,32.,3.));
#800=CARTESIAN_POINT('',(45.,32.,3.));
#801=CARTESIAN_POINT('Origin',(45.,33.,3.));
#802=CARTESIAN_POINT('',(45.,18.,3.));
#803=CARTESIAN_POINT('',(45.,17.,3.));
#804=CARTESIAN_POINT('',(45.,18.,4.));
#805=CARTESIAN_POINT('',(45.,18.,3.));
#806=CARTESIAN_POINT('',(45.,17.,4.));
#807=CARTESIAN_POINT('Origin',(53.,25.,3.));
#808=CARTESIAN_POINT('',(60.,33.,3.));
#809=CARTESIAN_POINT('',(45.,33.,3.));
#810=CARTESIAN_POINT('',(61.,32.,3.));
#811=CARTESIAN_POINT('Origin',(60.,32.,3.));
#812=CARTESIAN_POINT('',(61.,18.,3.));
#813=CARTESIAN_POINT('',(61.,33.,3.));
#814=CARTESIAN_POINT('',(60.,17.,3.));
#815=CARTESIAN_POINT('Origin',(60.,18.,3.));
#816=CARTESIAN_POINT('',(46.,17.,3.));
#817=CARTESIAN_POINT('',(61.,17.,3.));
#818=CARTESIAN_POINT('Origin',(46.,18.,3.));
#819=CARTESIAN_POINT('',(58.,20.,3.));
#820=CARTESIAN_POINT('',(48.,30.,3.));
#821=CARTESIAN_POINT('Origin',(46.,18.,3.));
#822=CARTESIAN_POINT('',(46.,17.,4.));
#823=CARTESIAN_POINT('Origin',(46.,18.,4.));
#824=CARTESIAN_POINT('',(46.,17.,3.));
#825=CARTESIAN_POINT('Origin',(45.,17.,3.));
#826=CARTESIAN_POINT('',(60.,17.,4.));
#827=CARTESIAN_POINT('',(60.,17.,3.));
#828=CARTESIAN_POINT('',(61.,17.,4.));
#829=CARTESIAN_POINT('Origin',(60.,18.,3.));
#830=CARTESIAN_POINT('',(61.,18.,4.));
#831=CARTESIAN_POINT('Origin',(60.,18.,4.));
#832=CARTESIAN_POINT('',(61.,18.,3.));
#833=CARTESIAN_POINT('Origin',(61.,17.,3.));
#834=CARTESIAN_POINT('',(61.,32.,4.));
#835=CARTESIAN_POINT('',(61.,32.,3.));
#836=CARTESIAN_POINT('',(61.,33.,4.));
#837=CARTESIAN_POINT('Origin',(60.,32.,3.));
#838=CARTESIAN_POINT('',(60.,33.,4.));
#839=CARTESIAN_POINT('Origin',(60.,32.,4.));
#840=CARTESIAN_POINT('',(60.,33.,3.));
#841=CARTESIAN_POINT('Origin',(61.,33.,3.));
#842=CARTESIAN_POINT('',(45.,33.,4.));
#843=CARTESIAN_POINT('Origin',(53.,25.,4.));
#844=CARTESIAN_POINT('',(49.,28.,4.));
#845=CARTESIAN_POINT('',(50.,29.,4.));
#846=CARTESIAN_POINT('Origin',(50.,28.,4.));
#847=CARTESIAN_POINT('',(56.,29.,4.));
#848=CARTESIAN_POINT('',(50.,29.,4.));
#849=CARTESIAN_POINT('',(57.,28.,4.));
#850=CARTESIAN_POINT('Origin',(56.,28.,4.));
#851=CARTESIAN_POINT('',(57.,22.,4.));
#852=CARTESIAN_POINT('',(57.,28.,4.));
#853=CARTESIAN_POINT('',(56.,21.,4.));
#854=CARTESIAN_POINT('Origin',(56.,22.,4.));
#855=CARTESIAN_POINT('',(50.,21.,4.));
#856=CARTESIAN_POINT('',(56.,21.,4.));
#857=CARTESIAN_POINT('',(49.,22.,4.));
#858=CARTESIAN_POINT('Origin',(50.,22.,4.));
#859=CARTESIAN_POINT('',(49.,22.,4.));
#860=CARTESIAN_POINT('Origin',(50.,21.,3.));
#861=CARTESIAN_POINT('',(50.,21.,3.));
#862=CARTESIAN_POINT('',(56.,21.,3.));
#863=CARTESIAN_POINT('Origin',(50.,22.,3.));
#864=CARTESIAN_POINT('',(49.,22.,3.));
#865=CARTESIAN_POINT('Origin',(49.,28.,3.));
#866=CARTESIAN_POINT('',(49.,28.,3.));
#867=CARTESIAN_POINT('Origin',(50.,28.,3.));
#868=CARTESIAN_POINT('',(50.,29.,3.));
#869=CARTESIAN_POINT('Origin',(48.,30.,3.));
#870=CARTESIAN_POINT('Origin',(56.,29.,3.));
#871=CARTESIAN_POINT('',(56.,29.,3.));
#872=CARTESIAN_POINT('Origin',(56.,28.,3.));
#873=CARTESIAN_POINT('',(57.,28.,3.));
#874=CARTESIAN_POINT('Origin',(57.,22.,3.));
#875=CARTESIAN_POINT('',(57.,22.,3.));
#876=CARTESIAN_POINT('Origin',(56.,22.,3.));
#877=CARTESIAN_POINT('Origin',(58.,20.,3.));
#878=UNCERTAINTY_MEASURE_WITH_UNIT(LENGTH_MEASURE(0.01),#882,
'DISTANCE_ACCURACY_VALUE',
'Maximum model space distance between geometric entities at asserted c
onnectivities');
#879=UNCERTAINTY_MEASURE_WITH_UNIT(LENGTH_MEASURE(0.01),#882,
'DISTANCE_ACCURACY_VALUE',
'Maximum model space distance between geometric entities at asserted c
onnectivities');
#880=(
GEOMETRIC_REPRESENTATION_CONTEXT(3)
GLOBAL_UNCERTAINTY_ASSIGNED_CONTEXT((#878))
GLOBAL_UNIT_ASSIGNED_CONTEXT((#882,#884,#885))
REPRESENTATION_CONTEXT('','3D')
);
#881=(
GEOMETRIC_REPRESENTATION_CONTEXT(3)
GLOBAL_UNCERTAINTY_ASSIGNED_CONTEXT((#879))
GLOBAL_UNIT_ASSIGNED_CONTEXT((#882,#884,#885))
REPRESENTATION_CONTEXT('','3D')
);
#882=(
LENGTH_UNIT()
NAMED_UNIT(*)
SI_UNIT(.MILLI.,.METRE.)
);
#883=(
LENGTH_UNIT()
NAMED_UNIT(*)
SI_UNIT($,.METRE.)
);
#884=(
NAMED_UNIT(*)
PLANE_ANGLE_UNIT()
SI_UNIT($,.RADIAN.)
);
#885=(
NAMED_UNIT(*)
SI_UNIT($,.STERADIAN.)
SOLID_ANGLE_UNIT()
);
#886=SHAPE_DEFINITION_REPRESENTATION(#887,#888);
#887=PRODUCT_DEFINITION_SHAPE('',$,#890);
#888=SHAPE_REPRESENTATION('',(#526),#880);
#889=PRODUCT_DEFINITION_CONTEXT('part definition',#894,'design');
#890=PRODUCT_DEFINITION('2026-10-05-19-37-04-401',
'Frame_Motor_Wires_v001',#891,#889);
#891=PRODUCT_DEFINITION_FORMATION('',$,#896);
#892=PRODUCT_RELATED_PRODUCT_CATEGORY('Frame_Motor_Wires_v001',
'Frame_Motor_Wires_v001',(#896));
#893=APPLICATION_PROTOCOL_DEFINITION('international standard',
'automotive_design',2009,#894);
#894=APPLICATION_CONTEXT(
'Core Data for Automotive Mechanical Design Process');
#895=PRODUCT_CONTEXT('part definition',#894,'mechanical');
#896=PRODUCT('2026-10-05-19-37-04-401','Frame_Motor_Wires_v001',$,(#895));
#897=PRESENTATION_STYLE_ASSIGNMENT((#899));
#898=PRESENTATION_STYLE_ASSIGNMENT((#900));
#899=SURFACE_STYLE_USAGE(.BOTH.,#901);
#900=SURFACE_STYLE_USAGE(.BOTH.,#902);
#901=SURFACE_SIDE_STYLE('',(#903));
#902=SURFACE_SIDE_STYLE('',(#904));
#903=SURFACE_STYLE_FILL_AREA(#905);
#904=SURFACE_STYLE_FILL_AREA(#906);
#905=FILL_AREA_STYLE('Steel - Satin',(#907));
#906=FILL_AREA_STYLE('Plastic - Matte (Black)',(#908));
#907=FILL_AREA_STYLE_COLOUR('Steel - Satin',#909);
#908=FILL_AREA_STYLE_COLOUR('Plastic - Matte (Black)',#910);
#909=COLOUR_RGB('Steel - Satin',0.627450980392157,0.627450980392157,0.627450980392157);
#910=COLOUR_RGB('Plastic - Matte (Black)',0.0980392156862745,0.0980392156862745,
0.0980392156862745);
ENDSEC;
END-ISO-10303-21;
