ISO-10303-21;
HEADER;
/* Generated by software containing ST-Developer
 * from STEP Tools, Inc. (www.steptools.com) 
 */

FILE_DESCRIPTION(
/* description */ (''),
/* implementation_level */ '2;1');

FILE_NAME(
/* name */ 'Pillar_v001.step',
/* time_stamp */ '2026-10-05T22:17:28+04:00',
/* author */ (''),
/* organization */ (''),
/* preprocessor_version */ 'ST-DEVELOPER v20.2',
/* originating_system */ 'Autodesk Translation Framework v15.15.0.0',
/* authorisation */ '');

FILE_SCHEMA (('AUTOMOTIVE_DESIGN { 1 0 10303 214 3 1 1 }'));
ENDSEC;

DATA;
#10=MECHANICAL_DESIGN_GEOMETRIC_PRESENTATION_REPRESENTATION('',(#13),#683);
#11=SHAPE_REPRESENTATION_RELATIONSHIP('SRR','None',#690,#12);
#12=ADVANCED_BREP_SHAPE_REPRESENTATION('',(#14),#682);
#13=STYLED_ITEM('',(#700),#14);
#14=MANIFOLD_SOLID_BREP('Body1 (1)',#416);
#15=CYLINDRICAL_SURFACE('',#448,1.45);
#16=CONICAL_SURFACE('',#446,1.6,0.785398163397444);
#17=FACE_BOUND('',#63,.T.);
#18=FACE_BOUND('',#70,.T.);
#19=CIRCLE('',#445,1.75);
#20=CIRCLE('',#447,1.45);
#21=CIRCLE('',#449,1.45);
#22=FACE_OUTER_BOUND('',#48,.T.);
#23=FACE_OUTER_BOUND('',#49,.T.);
#24=FACE_OUTER_BOUND('',#50,.T.);
#25=FACE_OUTER_BOUND('',#51,.T.);
#26=FACE_OUTER_BOUND('',#52,.T.);
#27=FACE_OUTER_BOUND('',#53,.T.);
#28=FACE_OUTER_BOUND('',#54,.T.);
#29=FACE_OUTER_BOUND('',#55,.T.);
#30=FACE_OUTER_BOUND('',#56,.T.);
#31=FACE_OUTER_BOUND('',#57,.T.);
#32=FACE_OUTER_BOUND('',#58,.T.);
#33=FACE_OUTER_BOUND('',#59,.T.);
#34=FACE_OUTER_BOUND('',#60,.T.);
#35=FACE_OUTER_BOUND('',#61,.T.);
#36=FACE_OUTER_BOUND('',#62,.T.);
#37=FACE_OUTER_BOUND('',#64,.T.);
#38=FACE_OUTER_BOUND('',#65,.T.);
#39=FACE_OUTER_BOUND('',#66,.T.);
#40=FACE_OUTER_BOUND('',#67,.T.);
#41=FACE_OUTER_BOUND('',#68,.T.);
#42=FACE_OUTER_BOUND('',#69,.T.);
#43=FACE_OUTER_BOUND('',#71,.T.);
#44=FACE_OUTER_BOUND('',#72,.T.);
#45=FACE_OUTER_BOUND('',#73,.T.);
#46=FACE_OUTER_BOUND('',#74,.T.);
#47=FACE_OUTER_BOUND('',#75,.T.);
#48=EDGE_LOOP('',(#260,#261,#262));
#49=EDGE_LOOP('',(#263,#264,#265,#266));
#50=EDGE_LOOP('',(#267,#268,#269));
#51=EDGE_LOOP('',(#270,#271,#272,#273));
#52=EDGE_LOOP('',(#274,#275,#276));
#53=EDGE_LOOP('',(#277,#278,#279,#280));
#54=EDGE_LOOP('',(#281,#282,#283,#284));
#55=EDGE_LOOP('',(#285,#286,#287));
#56=EDGE_LOOP('',(#288,#289,#290,#291));
#57=EDGE_LOOP('',(#292,#293,#294,#295));
#58=EDGE_LOOP('',(#296,#297,#298,#299));
#59=EDGE_LOOP('',(#300,#301,#302,#303));
#60=EDGE_LOOP('',(#304,#305,#306,#307));
#61=EDGE_LOOP('',(#308,#309,#310,#311));
#62=EDGE_LOOP('',(#312,#313,#314,#315));
#63=EDGE_LOOP('',(#316));
#64=EDGE_LOOP('',(#317,#318,#319,#320));
#65=EDGE_LOOP('',(#321,#322,#323,#324));
#66=EDGE_LOOP('',(#325,#326,#327,#328,#329,#330,#331,#332));
#67=EDGE_LOOP('',(#333,#334,#335,#336));
#68=EDGE_LOOP('',(#337,#338,#339,#340));
#69=EDGE_LOOP('',(#341,#342,#343,#344));
#70=EDGE_LOOP('',(#345));
#71=EDGE_LOOP('',(#346,#347,#348,#349));
#72=EDGE_LOOP('',(#350,#351,#352,#353));
#73=EDGE_LOOP('',(#354,#355,#356,#357));
#74=EDGE_LOOP('',(#358,#359,#360,#361));
#75=EDGE_LOOP('',(#362,#363,#364,#365));
#76=LINE('',#573,#126);
#77=LINE('',#575,#127);
#78=LINE('',#576,#128);
#79=LINE('',#580,#129);
#80=LINE('',#581,#130);
#81=LINE('',#582,#131);
#82=LINE('',#586,#132);
#83=LINE('',#588,#133);
#84=LINE('',#589,#134);
#85=LINE('',#593,#135);
#86=LINE('',#594,#136);
#87=LINE('',#595,#137);
#88=LINE('',#599,#138);
#89=LINE('',#601,#139);
#90=LINE('',#602,#140);
#91=LINE('',#606,#141);
#92=LINE('',#607,#142);
#93=LINE('',#608,#143);
#94=LINE('',#610,#144);
#95=LINE('',#611,#145);
#96=LINE('',#615,#146);
#97=LINE('',#617,#147);
#98=LINE('',#618,#148);
#99=LINE('',#622,#149);
#100=LINE('',#623,#150);
#101=LINE('',#624,#151);
#102=LINE('',#626,#152);
#103=LINE('',#627,#153);
#104=LINE('',#629,#154);
#105=LINE('',#630,#155);
#106=LINE('',#632,#156);
#107=LINE('',#633,#157);
#108=LINE('',#635,#158);
#109=LINE('',#637,#159);
#110=LINE('',#643,#160);
#111=LINE('',#647,#161);
#112=LINE('',#650,#162);
#113=LINE('',#651,#163);
#114=LINE('',#657,#164);
#115=LINE('',#659,#165);
#116=LINE('',#661,#166);
#117=LINE('',#662,#167);
#118=LINE('',#666,#168);
#119=LINE('',#667,#169);
#120=LINE('',#668,#170);
#121=LINE('',#671,#171);
#122=LINE('',#672,#172);
#123=LINE('',#675,#173);
#124=LINE('',#676,#174);
#125=LINE('',#678,#175);
#126=VECTOR('',#463,10.);
#127=VECTOR('',#464,10.);
#128=VECTOR('',#465,10.);
#129=VECTOR('',#468,10.);
#130=VECTOR('',#469,10.);
#131=VECTOR('',#470,10.);
#132=VECTOR('',#473,10.);
#133=VECTOR('',#474,10.);
#134=VECTOR('',#475,10.);
#135=VECTOR('',#478,10.);
#136=VECTOR('',#479,10.);
#137=VECTOR('',#480,10.);
#138=VECTOR('',#483,10.);
#139=VECTOR('',#484,10.);
#140=VECTOR('',#485,10.);
#141=VECTOR('',#488,10.);
#142=VECTOR('',#489,10.);
#143=VECTOR('',#490,10.);
#144=VECTOR('',#493,10.);
#145=VECTOR('',#494,10.);
#146=VECTOR('',#497,10.);
#147=VECTOR('',#498,10.);
#148=VECTOR('',#499,10.);
#149=VECTOR('',#502,10.);
#150=VECTOR('',#503,10.);
#151=VECTOR('',#504,10.);
#152=VECTOR('',#507,10.);
#153=VECTOR('',#508,10.);
#154=VECTOR('',#511,10.);
#155=VECTOR('',#512,10.);
#156=VECTOR('',#515,10.);
#157=VECTOR('',#516,10.);
#158=VECTOR('',#519,10.);
#159=VECTOR('',#522,10.);
#160=VECTOR('',#529,1.6);
#161=VECTOR('',#534,1.45);
#162=VECTOR('',#539,10.);
#163=VECTOR('',#540,10.);
#164=VECTOR('',#547,10.);
#165=VECTOR('',#548,10.);
#166=VECTOR('',#549,10.);
#167=VECTOR('',#550,10.);
#168=VECTOR('',#553,10.);
#169=VECTOR('',#554,10.);
#170=VECTOR('',#555,10.);
#171=VECTOR('',#558,10.);
#172=VECTOR('',#559,10.);
#173=VECTOR('',#562,10.);
#174=VECTOR('',#563,10.);
#175=VECTOR('',#566,10.);
#176=VERTEX_POINT('',#571);
#177=VERTEX_POINT('',#572);
#178=VERTEX_POINT('',#574);
#179=VERTEX_POINT('',#578);
#180=VERTEX_POINT('',#579);
#181=VERTEX_POINT('',#584);
#182=VERTEX_POINT('',#585);
#183=VERTEX_POINT('',#587);
#184=VERTEX_POINT('',#591);
#185=VERTEX_POINT('',#592);
#186=VERTEX_POINT('',#597);
#187=VERTEX_POINT('',#598);
#188=VERTEX_POINT('',#600);
#189=VERTEX_POINT('',#604);
#190=VERTEX_POINT('',#605);
#191=VERTEX_POINT('',#613);
#192=VERTEX_POINT('',#614);
#193=VERTEX_POINT('',#616);
#194=VERTEX_POINT('',#620);
#195=VERTEX_POINT('',#621);
#196=VERTEX_POINT('',#639);
#197=VERTEX_POINT('',#642);
#198=VERTEX_POINT('',#646);
#199=VERTEX_POINT('',#655);
#200=VERTEX_POINT('',#656);
#201=VERTEX_POINT('',#658);
#202=VERTEX_POINT('',#660);
#203=VERTEX_POINT('',#664);
#204=VERTEX_POINT('',#665);
#205=VERTEX_POINT('',#670);
#206=VERTEX_POINT('',#674);
#207=EDGE_CURVE('',#176,#177,#76,.T.);
#208=EDGE_CURVE('',#178,#176,#77,.T.);
#209=EDGE_CURVE('',#177,#178,#78,.T.);
#210=EDGE_CURVE('',#179,#180,#79,.T.);
#211=EDGE_CURVE('',#180,#178,#80,.T.);
#212=EDGE_CURVE('',#176,#179,#81,.T.);
#213=EDGE_CURVE('',#181,#182,#82,.T.);
#214=EDGE_CURVE('',#183,#181,#83,.T.);
#215=EDGE_CURVE('',#182,#183,#84,.T.);
#216=EDGE_CURVE('',#184,#185,#85,.T.);
#217=EDGE_CURVE('',#185,#183,#86,.T.);
#218=EDGE_CURVE('',#181,#184,#87,.T.);
#219=EDGE_CURVE('',#186,#187,#88,.T.);
#220=EDGE_CURVE('',#188,#186,#89,.T.);
#221=EDGE_CURVE('',#187,#188,#90,.T.);
#222=EDGE_CURVE('',#189,#190,#91,.T.);
#223=EDGE_CURVE('',#190,#188,#92,.T.);
#224=EDGE_CURVE('',#186,#189,#93,.T.);
#225=EDGE_CURVE('',#177,#187,#94,.T.);
#226=EDGE_CURVE('',#188,#176,#95,.T.);
#227=EDGE_CURVE('',#191,#192,#96,.T.);
#228=EDGE_CURVE('',#193,#191,#97,.T.);
#229=EDGE_CURVE('',#192,#193,#98,.T.);
#230=EDGE_CURVE('',#194,#195,#99,.T.);
#231=EDGE_CURVE('',#195,#193,#100,.T.);
#232=EDGE_CURVE('',#191,#194,#101,.T.);
#233=EDGE_CURVE('',#187,#192,#102,.T.);
#234=EDGE_CURVE('',#193,#186,#103,.T.);
#235=EDGE_CURVE('',#192,#182,#104,.T.);
#236=EDGE_CURVE('',#183,#191,#105,.T.);
#237=EDGE_CURVE('',#182,#177,#106,.T.);
#238=EDGE_CURVE('',#178,#181,#107,.T.);
#239=EDGE_CURVE('',#190,#179,#108,.T.);
#240=EDGE_CURVE('',#195,#189,#109,.T.);
#241=EDGE_CURVE('',#196,#196,#19,.T.);
#242=EDGE_CURVE('',#196,#197,#110,.T.);
#243=EDGE_CURVE('',#197,#197,#20,.T.);
#244=EDGE_CURVE('',#197,#198,#111,.T.);
#245=EDGE_CURVE('',#198,#198,#21,.T.);
#246=EDGE_CURVE('',#185,#194,#112,.T.);
#247=EDGE_CURVE('',#180,#184,#113,.T.);
#248=EDGE_CURVE('',#199,#200,#114,.T.);
#249=EDGE_CURVE('',#200,#201,#115,.T.);
#250=EDGE_CURVE('',#201,#202,#116,.T.);
#251=EDGE_CURVE('',#202,#199,#117,.T.);
#252=EDGE_CURVE('',#203,#204,#118,.T.);
#253=EDGE_CURVE('',#203,#200,#119,.F.);
#254=EDGE_CURVE('',#204,#199,#120,.T.);
#255=EDGE_CURVE('',#205,#203,#121,.T.);
#256=EDGE_CURVE('',#205,#201,#122,.F.);
#257=EDGE_CURVE('',#206,#205,#123,.T.);
#258=EDGE_CURVE('',#206,#202,#124,.F.);
#259=EDGE_CURVE('',#204,#206,#125,.T.);
#260=ORIENTED_EDGE('',*,*,#207,.F.);
#261=ORIENTED_EDGE('',*,*,#208,.F.);
#262=ORIENTED_EDGE('',*,*,#209,.F.);
#263=ORIENTED_EDGE('',*,*,#210,.T.);
#264=ORIENTED_EDGE('',*,*,#211,.T.);
#265=ORIENTED_EDGE('',*,*,#208,.T.);
#266=ORIENTED_EDGE('',*,*,#212,.T.);
#267=ORIENTED_EDGE('',*,*,#213,.F.);
#268=ORIENTED_EDGE('',*,*,#214,.F.);
#269=ORIENTED_EDGE('',*,*,#215,.F.);
#270=ORIENTED_EDGE('',*,*,#216,.T.);
#271=ORIENTED_EDGE('',*,*,#217,.T.);
#272=ORIENTED_EDGE('',*,*,#214,.T.);
#273=ORIENTED_EDGE('',*,*,#218,.T.);
#274=ORIENTED_EDGE('',*,*,#219,.F.);
#275=ORIENTED_EDGE('',*,*,#220,.F.);
#276=ORIENTED_EDGE('',*,*,#221,.F.);
#277=ORIENTED_EDGE('',*,*,#222,.T.);
#278=ORIENTED_EDGE('',*,*,#223,.T.);
#279=ORIENTED_EDGE('',*,*,#220,.T.);
#280=ORIENTED_EDGE('',*,*,#224,.T.);
#281=ORIENTED_EDGE('',*,*,#207,.T.);
#282=ORIENTED_EDGE('',*,*,#225,.T.);
#283=ORIENTED_EDGE('',*,*,#221,.T.);
#284=ORIENTED_EDGE('',*,*,#226,.T.);
#285=ORIENTED_EDGE('',*,*,#227,.F.);
#286=ORIENTED_EDGE('',*,*,#228,.F.);
#287=ORIENTED_EDGE('',*,*,#229,.F.);
#288=ORIENTED_EDGE('',*,*,#230,.T.);
#289=ORIENTED_EDGE('',*,*,#231,.T.);
#290=ORIENTED_EDGE('',*,*,#228,.T.);
#291=ORIENTED_EDGE('',*,*,#232,.T.);
#292=ORIENTED_EDGE('',*,*,#219,.T.);
#293=ORIENTED_EDGE('',*,*,#233,.T.);
#294=ORIENTED_EDGE('',*,*,#229,.T.);
#295=ORIENTED_EDGE('',*,*,#234,.T.);
#296=ORIENTED_EDGE('',*,*,#227,.T.);
#297=ORIENTED_EDGE('',*,*,#235,.T.);
#298=ORIENTED_EDGE('',*,*,#215,.T.);
#299=ORIENTED_EDGE('',*,*,#236,.T.);
#300=ORIENTED_EDGE('',*,*,#213,.T.);
#301=ORIENTED_EDGE('',*,*,#237,.T.);
#302=ORIENTED_EDGE('',*,*,#209,.T.);
#303=ORIENTED_EDGE('',*,*,#238,.T.);
#304=ORIENTED_EDGE('',*,*,#212,.F.);
#305=ORIENTED_EDGE('',*,*,#226,.F.);
#306=ORIENTED_EDGE('',*,*,#223,.F.);
#307=ORIENTED_EDGE('',*,*,#239,.T.);
#308=ORIENTED_EDGE('',*,*,#224,.F.);
#309=ORIENTED_EDGE('',*,*,#234,.F.);
#310=ORIENTED_EDGE('',*,*,#231,.F.);
#311=ORIENTED_EDGE('',*,*,#240,.T.);
#312=ORIENTED_EDGE('',*,*,#225,.F.);
#313=ORIENTED_EDGE('',*,*,#237,.F.);
#314=ORIENTED_EDGE('',*,*,#235,.F.);
#315=ORIENTED_EDGE('',*,*,#233,.F.);
#316=ORIENTED_EDGE('',*,*,#241,.F.);
#317=ORIENTED_EDGE('',*,*,#241,.T.);
#318=ORIENTED_EDGE('',*,*,#242,.T.);
#319=ORIENTED_EDGE('',*,*,#243,.T.);
#320=ORIENTED_EDGE('',*,*,#242,.F.);
#321=ORIENTED_EDGE('',*,*,#243,.F.);
#322=ORIENTED_EDGE('',*,*,#244,.T.);
#323=ORIENTED_EDGE('',*,*,#245,.F.);
#324=ORIENTED_EDGE('',*,*,#244,.F.);
#325=ORIENTED_EDGE('',*,*,#210,.F.);
#326=ORIENTED_EDGE('',*,*,#239,.F.);
#327=ORIENTED_EDGE('',*,*,#222,.F.);
#328=ORIENTED_EDGE('',*,*,#240,.F.);
#329=ORIENTED_EDGE('',*,*,#230,.F.);
#330=ORIENTED_EDGE('',*,*,#246,.F.);
#331=ORIENTED_EDGE('',*,*,#216,.F.);
#332=ORIENTED_EDGE('',*,*,#247,.F.);
#333=ORIENTED_EDGE('',*,*,#211,.F.);
#334=ORIENTED_EDGE('',*,*,#247,.T.);
#335=ORIENTED_EDGE('',*,*,#218,.F.);
#336=ORIENTED_EDGE('',*,*,#238,.F.);
#337=ORIENTED_EDGE('',*,*,#217,.F.);
#338=ORIENTED_EDGE('',*,*,#246,.T.);
#339=ORIENTED_EDGE('',*,*,#232,.F.);
#340=ORIENTED_EDGE('',*,*,#236,.F.);
#341=ORIENTED_EDGE('',*,*,#248,.T.);
#342=ORIENTED_EDGE('',*,*,#249,.T.);
#343=ORIENTED_EDGE('',*,*,#250,.T.);
#344=ORIENTED_EDGE('',*,*,#251,.T.);
#345=ORIENTED_EDGE('',*,*,#245,.T.);
#346=ORIENTED_EDGE('',*,*,#252,.F.);
#347=ORIENTED_EDGE('',*,*,#253,.T.);
#348=ORIENTED_EDGE('',*,*,#248,.F.);
#349=ORIENTED_EDGE('',*,*,#254,.F.);
#350=ORIENTED_EDGE('',*,*,#255,.F.);
#351=ORIENTED_EDGE('',*,*,#256,.T.);
#352=ORIENTED_EDGE('',*,*,#249,.F.);
#353=ORIENTED_EDGE('',*,*,#253,.F.);
#354=ORIENTED_EDGE('',*,*,#257,.F.);
#355=ORIENTED_EDGE('',*,*,#258,.T.);
#356=ORIENTED_EDGE('',*,*,#250,.F.);
#357=ORIENTED_EDGE('',*,*,#256,.F.);
#358=ORIENTED_EDGE('',*,*,#259,.F.);
#359=ORIENTED_EDGE('',*,*,#254,.T.);
#360=ORIENTED_EDGE('',*,*,#251,.F.);
#361=ORIENTED_EDGE('',*,*,#258,.F.);
#362=ORIENTED_EDGE('',*,*,#252,.T.);
#363=ORIENTED_EDGE('',*,*,#259,.T.);
#364=ORIENTED_EDGE('',*,*,#257,.T.);
#365=ORIENTED_EDGE('',*,*,#255,.T.);
#366=PLANE('',#430);
#367=PLANE('',#431);
#368=PLANE('',#432);
#369=PLANE('',#433);
#370=PLANE('',#434);
#371=PLANE('',#435);
#372=PLANE('',#436);
#373=PLANE('',#437);
#374=PLANE('',#438);
#375=PLANE('',#439);
#376=PLANE('',#440);
#377=PLANE('',#441);
#378=PLANE('',#442);
#379=PLANE('',#443);
#380=PLANE('',#444);
#381=PLANE('',#450);
#382=PLANE('',#451);
#383=PLANE('',#452);
#384=PLANE('',#453);
#385=PLANE('',#454);
#386=PLANE('',#455);
#387=PLANE('',#456);
#388=PLANE('',#457);
#389=PLANE('',#458);
#390=ADVANCED_FACE('',(#22),#366,.T.);
#391=ADVANCED_FACE('',(#23),#367,.T.);
#392=ADVANCED_FACE('',(#24),#368,.T.);
#393=ADVANCED_FACE('',(#25),#369,.T.);
#394=ADVANCED_FACE('',(#26),#370,.T.);
#395=ADVANCED_FACE('',(#27),#371,.T.);
#396=ADVANCED_FACE('',(#28),#372,.T.);
#397=ADVANCED_FACE('',(#29),#373,.T.);
#398=ADVANCED_FACE('',(#30),#374,.T.);
#399=ADVANCED_FACE('',(#31),#375,.T.);
#400=ADVANCED_FACE('',(#32),#376,.T.);
#401=ADVANCED_FACE('',(#33),#377,.T.);
#402=ADVANCED_FACE('',(#34),#378,.T.);
#403=ADVANCED_FACE('',(#35),#379,.T.);
#404=ADVANCED_FACE('',(#36,#17),#380,.T.);
#405=ADVANCED_FACE('',(#37),#16,.F.);
#406=ADVANCED_FACE('',(#38),#15,.F.);
#407=ADVANCED_FACE('',(#39),#381,.F.);
#408=ADVANCED_FACE('',(#40),#382,.T.);
#409=ADVANCED_FACE('',(#41),#383,.T.);
#410=ADVANCED_FACE('',(#42,#18),#384,.F.);
#411=ADVANCED_FACE('',(#43),#385,.F.);
#412=ADVANCED_FACE('',(#44),#386,.F.);
#413=ADVANCED_FACE('',(#45),#387,.F.);
#414=ADVANCED_FACE('',(#46),#388,.F.);
#415=ADVANCED_FACE('',(#47),#389,.T.);
#416=CLOSED_SHELL('',(#390,#391,#392,#393,#394,#395,#396,#397,#398,#399,
#400,#401,#402,#403,#404,#405,#406,#407,#408,#409,#410,#411,#412,#413,#414,
#415));
#417=DERIVED_UNIT_ELEMENT(#419,1.);
#418=DERIVED_UNIT_ELEMENT(#685,-3.);
#419=(
MASS_UNIT()
NAMED_UNIT(*)
SI_UNIT(.KILO.,.GRAM.)
);
#420=DERIVED_UNIT((#417,#418));
#421=MEASURE_REPRESENTATION_ITEM('density measure',
POSITIVE_RATIO_MEASURE(7850.),#420);
#422=PROPERTY_DEFINITION_REPRESENTATION(#427,#424);
#423=PROPERTY_DEFINITION_REPRESENTATION(#428,#425);
#424=REPRESENTATION('material name',(#426),#682);
#425=REPRESENTATION('density',(#421),#682);
#426=DESCRIPTIVE_REPRESENTATION_ITEM('Steel','Steel');
#427=PROPERTY_DEFINITION('material property','material name',#692);
#428=PROPERTY_DEFINITION('material property','density of part',#692);
#429=AXIS2_PLACEMENT_3D('',#569,#459,#460);
#430=AXIS2_PLACEMENT_3D('',#570,#461,#462);
#431=AXIS2_PLACEMENT_3D('',#577,#466,#467);
#432=AXIS2_PLACEMENT_3D('',#583,#471,#472);
#433=AXIS2_PLACEMENT_3D('',#590,#476,#477);
#434=AXIS2_PLACEMENT_3D('',#596,#481,#482);
#435=AXIS2_PLACEMENT_3D('',#603,#486,#487);
#436=AXIS2_PLACEMENT_3D('',#609,#491,#492);
#437=AXIS2_PLACEMENT_3D('',#612,#495,#496);
#438=AXIS2_PLACEMENT_3D('',#619,#500,#501);
#439=AXIS2_PLACEMENT_3D('',#625,#505,#506);
#440=AXIS2_PLACEMENT_3D('',#628,#509,#510);
#441=AXIS2_PLACEMENT_3D('',#631,#513,#514);
#442=AXIS2_PLACEMENT_3D('',#634,#517,#518);
#443=AXIS2_PLACEMENT_3D('',#636,#520,#521);
#444=AXIS2_PLACEMENT_3D('',#638,#523,#524);
#445=AXIS2_PLACEMENT_3D('',#640,#525,#526);
#446=AXIS2_PLACEMENT_3D('',#641,#527,#528);
#447=AXIS2_PLACEMENT_3D('',#644,#530,#531);
#448=AXIS2_PLACEMENT_3D('',#645,#532,#533);
#449=AXIS2_PLACEMENT_3D('',#648,#535,#536);
#450=AXIS2_PLACEMENT_3D('',#649,#537,#538);
#451=AXIS2_PLACEMENT_3D('',#652,#541,#542);
#452=AXIS2_PLACEMENT_3D('',#653,#543,#544);
#453=AXIS2_PLACEMENT_3D('',#654,#545,#546);
#454=AXIS2_PLACEMENT_3D('',#663,#551,#552);
#455=AXIS2_PLACEMENT_3D('',#669,#556,#557);
#456=AXIS2_PLACEMENT_3D('',#673,#560,#561);
#457=AXIS2_PLACEMENT_3D('',#677,#564,#565);
#458=AXIS2_PLACEMENT_3D('',#679,#567,#568);
#459=DIRECTION('axis',(0.,0.,1.));
#460=DIRECTION('refdir',(1.,0.,0.));
#461=DIRECTION('center_axis',(0.577350269189627,0.577350269189627,0.577350269189623));
#462=DIRECTION('ref_axis',(0.707106781186545,0.,-0.70710678118655));
#463=DIRECTION('',(-0.707106781186545,0.,0.70710678118655));
#464=DIRECTION('',(0.707106781186548,-0.707106781186548,0.));
#465=DIRECTION('',(0.,0.707106781186545,-0.70710678118655));
#466=DIRECTION('center_axis',(0.707106781186548,0.707106781186548,0.));
#467=DIRECTION('ref_axis',(0.,0.,-1.));
#468=DIRECTION('',(-0.707106781186548,0.707106781186548,0.));
#469=DIRECTION('',(0.,0.,1.));
#470=DIRECTION('',(0.,0.,-1.));
#471=DIRECTION('center_axis',(-0.577350269189627,0.577350269189627,0.577350269189623));
#472=DIRECTION('ref_axis',(0.707106781186545,0.,0.70710678118655));
#473=DIRECTION('',(0.,-0.707106781186545,0.70710678118655));
#474=DIRECTION('',(0.707106781186548,0.707106781186548,0.));
#475=DIRECTION('',(-0.707106781186545,0.,-0.70710678118655));
#476=DIRECTION('center_axis',(-0.707106781186548,0.707106781186548,0.));
#477=DIRECTION('ref_axis',(0.,0.,1.));
#478=DIRECTION('',(-0.707106781186548,-0.707106781186548,0.));
#479=DIRECTION('',(0.,0.,1.));
#480=DIRECTION('',(0.,0.,-1.));
#481=DIRECTION('center_axis',(0.577350269189627,-0.577350269189627,0.577350269189623));
#482=DIRECTION('ref_axis',(0.707106781186545,0.,-0.70710678118655));
#483=DIRECTION('',(0.,0.707106781186545,0.70710678118655));
#484=DIRECTION('',(-0.707106781186548,-0.707106781186548,0.));
#485=DIRECTION('',(0.707106781186545,0.,-0.70710678118655));
#486=DIRECTION('center_axis',(0.707106781186548,-0.707106781186548,0.));
#487=DIRECTION('ref_axis',(0.,0.,-1.));
#488=DIRECTION('',(0.707106781186548,0.707106781186548,0.));
#489=DIRECTION('',(0.,0.,1.));
#490=DIRECTION('',(0.,0.,-1.));
#491=DIRECTION('center_axis',(0.70710678118655,0.,0.707106781186545));
#492=DIRECTION('ref_axis',(0.707106781186545,0.,-0.70710678118655));
#493=DIRECTION('',(0.,-1.,0.));
#494=DIRECTION('',(0.,1.,0.));
#495=DIRECTION('center_axis',(-0.577350269189627,-0.577350269189627,0.577350269189623));
#496=DIRECTION('ref_axis',(0.707106781186545,0.,0.70710678118655));
#497=DIRECTION('',(0.707106781186545,0.,0.70710678118655));
#498=DIRECTION('',(-0.707106781186548,0.707106781186548,0.));
#499=DIRECTION('',(0.,-0.707106781186545,-0.70710678118655));
#500=DIRECTION('center_axis',(-0.707106781186548,-0.707106781186548,0.));
#501=DIRECTION('ref_axis',(0.,0.,1.));
#502=DIRECTION('',(0.707106781186548,-0.707106781186548,0.));
#503=DIRECTION('',(0.,0.,1.));
#504=DIRECTION('',(0.,0.,-1.));
#505=DIRECTION('center_axis',(0.,-0.70710678118655,0.707106781186545));
#506=DIRECTION('ref_axis',(1.,0.,0.));
#507=DIRECTION('',(-1.,0.,0.));
#508=DIRECTION('',(1.,0.,0.));
#509=DIRECTION('center_axis',(-0.70710678118655,0.,0.707106781186545));
#510=DIRECTION('ref_axis',(0.707106781186545,0.,0.70710678118655));
#511=DIRECTION('',(0.,1.,0.));
#512=DIRECTION('',(0.,-1.,0.));
#513=DIRECTION('center_axis',(0.,0.70710678118655,0.707106781186545));
#514=DIRECTION('ref_axis',(1.,0.,0.));
#515=DIRECTION('',(1.,0.,0.));
#516=DIRECTION('',(-1.,0.,0.));
#517=DIRECTION('center_axis',(1.,0.,0.));
#518=DIRECTION('ref_axis',(0.,1.,0.));
#519=DIRECTION('',(0.,1.,0.));
#520=DIRECTION('center_axis',(0.,-1.,0.));
#521=DIRECTION('ref_axis',(1.,0.,0.));
#522=DIRECTION('',(1.,0.,0.));
#523=DIRECTION('center_axis',(0.,0.,1.));
#524=DIRECTION('ref_axis',(1.,0.,0.));
#525=DIRECTION('center_axis',(0.,0.,1.));
#526=DIRECTION('ref_axis',(-1.,0.,0.));
#527=DIRECTION('center_axis',(0.,0.,1.));
#528=DIRECTION('ref_axis',(-1.,0.,0.));
#529=DIRECTION('',(-0.707106781186545,-8.6595605623549E-17,-0.70710678118655));
#530=DIRECTION('center_axis',(0.,0.,-1.));
#531=DIRECTION('ref_axis',(-1.,0.,0.));
#532=DIRECTION('center_axis',(0.,0.,-1.));
#533=DIRECTION('ref_axis',(-1.,0.,0.));
#534=DIRECTION('',(0.,0.,-1.));
#535=DIRECTION('center_axis',(0.,0.,1.));
#536=DIRECTION('ref_axis',(-1.,0.,0.));
#537=DIRECTION('center_axis',(0.,0.,1.));
#538=DIRECTION('ref_axis',(1.,0.,0.));
#539=DIRECTION('',(0.,-1.,0.));
#540=DIRECTION('',(-1.,0.,0.));
#541=DIRECTION('center_axis',(0.,1.,0.));
#542=DIRECTION('ref_axis',(-1.,0.,0.));
#543=DIRECTION('center_axis',(-1.,0.,0.));
#544=DIRECTION('ref_axis',(0.,-1.,0.));
#545=DIRECTION('center_axis',(0.,0.,1.));
#546=DIRECTION('ref_axis',(-1.,0.,0.));
#547=DIRECTION('',(0.,-1.,0.));
#548=DIRECTION('',(-1.,0.,0.));
#549=DIRECTION('',(0.,1.,0.));
#550=DIRECTION('',(1.,0.,0.));
#551=DIRECTION('center_axis',(1.,0.,0.));
#552=DIRECTION('ref_axis',(0.,1.,0.));
#553=DIRECTION('',(0.,1.,0.));
#554=DIRECTION('',(0.,0.,-1.));
#555=DIRECTION('',(0.,0.,1.));
#556=DIRECTION('center_axis',(0.,-1.,0.));
#557=DIRECTION('ref_axis',(1.,0.,0.));
#558=DIRECTION('',(1.,0.,0.));
#559=DIRECTION('',(0.,0.,-1.));
#560=DIRECTION('center_axis',(-1.,0.,0.));
#561=DIRECTION('ref_axis',(0.,-1.,0.));
#562=DIRECTION('',(0.,-1.,0.));
#563=DIRECTION('',(0.,0.,-1.));
#564=DIRECTION('center_axis',(0.,1.,0.));
#565=DIRECTION('ref_axis',(-1.,0.,0.));
#566=DIRECTION('',(-1.,0.,0.));
#567=DIRECTION('center_axis',(0.,0.,1.));
#568=DIRECTION('ref_axis',(1.,0.,0.));
#569=CARTESIAN_POINT('',(0.,0.,0.));
#570=CARTESIAN_POINT('Origin',(100.7,-123.,62.7));
#571=CARTESIAN_POINT('',(101.,-123.3,62.7));
#572=CARTESIAN_POINT('',(100.7,-123.3,63.));
#573=CARTESIAN_POINT('',(101.,-123.3,62.7));
#574=CARTESIAN_POINT('',(100.7,-123.,62.7));
#575=CARTESIAN_POINT('',(100.7,-123.,62.7));
#576=CARTESIAN_POINT('',(100.7,-123.3,63.));
#577=CARTESIAN_POINT('Origin',(100.85,-123.15,3.));
#578=CARTESIAN_POINT('',(101.,-123.3,3.));
#579=CARTESIAN_POINT('',(100.7,-123.,3.));
#580=CARTESIAN_POINT('',(100.85,-123.15,3.));
#581=CARTESIAN_POINT('',(100.7,-123.,3.));
#582=CARTESIAN_POINT('',(101.,-123.3,3.));
#583=CARTESIAN_POINT('Origin',(89.,-123.3,62.7));
#584=CARTESIAN_POINT('',(89.3,-123.,62.7));
#585=CARTESIAN_POINT('',(89.3,-123.3,63.));
#586=CARTESIAN_POINT('',(89.3,-123.,62.7));
#587=CARTESIAN_POINT('',(89.,-123.3,62.7));
#588=CARTESIAN_POINT('',(89.,-123.3,62.7));
#589=CARTESIAN_POINT('',(89.3,-123.3,63.));
#590=CARTESIAN_POINT('Origin',(89.15,-123.15,3.));
#591=CARTESIAN_POINT('',(89.3,-123.,3.));
#592=CARTESIAN_POINT('',(89.,-123.3,3.));
#593=CARTESIAN_POINT('',(89.15,-123.15,3.));
#594=CARTESIAN_POINT('',(89.,-123.3,3.));
#595=CARTESIAN_POINT('',(89.3,-123.,3.));
#596=CARTESIAN_POINT('Origin',(101.,-134.7,62.7));
#597=CARTESIAN_POINT('',(100.7,-135.,62.7));
#598=CARTESIAN_POINT('',(100.7,-134.7,63.));
#599=CARTESIAN_POINT('',(100.7,-135.,62.7));
#600=CARTESIAN_POINT('',(101.,-134.7,62.7));
#601=CARTESIAN_POINT('',(101.,-134.7,62.7));
#602=CARTESIAN_POINT('',(100.7,-134.7,63.));
#603=CARTESIAN_POINT('Origin',(100.85,-134.85,3.));
#604=CARTESIAN_POINT('',(100.7,-135.,3.));
#605=CARTESIAN_POINT('',(101.,-134.7,3.));
#606=CARTESIAN_POINT('',(100.85,-134.85,3.));
#607=CARTESIAN_POINT('',(101.,-134.7,3.));
#608=CARTESIAN_POINT('',(100.7,-135.,3.));
#609=CARTESIAN_POINT('Origin',(100.85,-132.,62.85));
#610=CARTESIAN_POINT('',(100.7,-132.,63.));
#611=CARTESIAN_POINT('',(101.,-132.,62.7));
#612=CARTESIAN_POINT('Origin',(89.3,-135.,62.7));
#613=CARTESIAN_POINT('',(89.,-134.7,62.7));
#614=CARTESIAN_POINT('',(89.3,-134.7,63.));
#615=CARTESIAN_POINT('',(89.,-134.7,62.7));
#616=CARTESIAN_POINT('',(89.3,-135.,62.7));
#617=CARTESIAN_POINT('',(89.3,-135.,62.7));
#618=CARTESIAN_POINT('',(89.3,-134.7,63.));
#619=CARTESIAN_POINT('Origin',(89.15,-134.85,3.));
#620=CARTESIAN_POINT('',(89.,-134.7,3.));
#621=CARTESIAN_POINT('',(89.3,-135.,3.));
#622=CARTESIAN_POINT('',(89.15,-134.85,3.));
#623=CARTESIAN_POINT('',(89.3,-135.,3.));
#624=CARTESIAN_POINT('',(89.,-134.7,3.));
#625=CARTESIAN_POINT('Origin',(92.,-134.85,62.85));
#626=CARTESIAN_POINT('',(92.,-134.7,63.));
#627=CARTESIAN_POINT('',(92.,-135.,62.7));
#628=CARTESIAN_POINT('Origin',(89.15,-126.,62.85));
#629=CARTESIAN_POINT('',(89.3,-126.,63.));
#630=CARTESIAN_POINT('',(89.,-126.,62.7));
#631=CARTESIAN_POINT('Origin',(98.,-123.15,62.85));
#632=CARTESIAN_POINT('',(98.,-123.3,63.));
#633=CARTESIAN_POINT('',(98.,-123.,62.7));
#634=CARTESIAN_POINT('Origin',(101.,-135.,3.));
#635=CARTESIAN_POINT('',(101.,-135.,3.));
#636=CARTESIAN_POINT('Origin',(89.,-135.,3.));
#637=CARTESIAN_POINT('',(89.,-135.,3.));
#638=CARTESIAN_POINT('Origin',(95.,-129.,63.));
#639=CARTESIAN_POINT('',(96.75,-129.,63.));
#640=CARTESIAN_POINT('Origin',(95.,-129.,63.));
#641=CARTESIAN_POINT('Origin',(95.,-129.,62.85));
#642=CARTESIAN_POINT('',(96.45,-129.,62.7));
#643=CARTESIAN_POINT('',(96.6,-129.,62.85));
#644=CARTESIAN_POINT('Origin',(95.,-129.,62.7));
#645=CARTESIAN_POINT('Origin',(95.,-129.,63.));
#646=CARTESIAN_POINT('',(96.45,-129.,48.));
#647=CARTESIAN_POINT('',(96.45,-129.,63.));
#648=CARTESIAN_POINT('Origin',(95.,-129.,48.));
#649=CARTESIAN_POINT('Origin',(95.,-129.,3.));
#650=CARTESIAN_POINT('',(89.,-123.,3.));
#651=CARTESIAN_POINT('',(101.,-123.,3.));
#652=CARTESIAN_POINT('Origin',(101.,-123.,3.));
#653=CARTESIAN_POINT('Origin',(89.,-123.,3.));
#654=CARTESIAN_POINT('Origin',(95.,-129.,48.));
#655=CARTESIAN_POINT('',(99.,-125.,48.));
#656=CARTESIAN_POINT('',(99.,-133.,48.));
#657=CARTESIAN_POINT('',(99.,-132.,48.));
#658=CARTESIAN_POINT('',(91.,-133.,48.));
#659=CARTESIAN_POINT('',(92.,-133.,48.));
#660=CARTESIAN_POINT('',(91.,-125.,48.));
#661=CARTESIAN_POINT('',(91.,-126.,48.));
#662=CARTESIAN_POINT('',(98.,-125.,48.));
#663=CARTESIAN_POINT('Origin',(99.,-135.,6.));
#664=CARTESIAN_POINT('',(99.,-133.,6.));
#665=CARTESIAN_POINT('',(99.,-125.,6.));
#666=CARTESIAN_POINT('',(99.,-132.,6.));
#667=CARTESIAN_POINT('',(99.,-133.,6.));
#668=CARTESIAN_POINT('',(99.,-125.,6.));
#669=CARTESIAN_POINT('Origin',(89.,-133.,6.));
#670=CARTESIAN_POINT('',(91.,-133.,6.));
#671=CARTESIAN_POINT('',(92.,-133.,6.));
#672=CARTESIAN_POINT('',(91.,-133.,6.));
#673=CARTESIAN_POINT('Origin',(91.,-123.,6.));
#674=CARTESIAN_POINT('',(91.,-125.,6.));
#675=CARTESIAN_POINT('',(91.,-126.,6.));
#676=CARTESIAN_POINT('',(91.,-125.,6.));
#677=CARTESIAN_POINT('Origin',(101.,-125.,6.));
#678=CARTESIAN_POINT('',(98.,-125.,6.));
#679=CARTESIAN_POINT('Origin',(95.,-129.,6.));
#680=UNCERTAINTY_MEASURE_WITH_UNIT(LENGTH_MEASURE(0.01),#684,
'DISTANCE_ACCURACY_VALUE',
'Maximum model space distance between geometric entities at asserted c
onnectivities');
#681=UNCERTAINTY_MEASURE_WITH_UNIT(LENGTH_MEASURE(0.01),#684,
'DISTANCE_ACCURACY_VALUE',
'Maximum model space distance between geometric entities at asserted c
onnectivities');
#682=(
GEOMETRIC_REPRESENTATION_CONTEXT(3)
GLOBAL_UNCERTAINTY_ASSIGNED_CONTEXT((#680))
GLOBAL_UNIT_ASSIGNED_CONTEXT((#684,#686,#687))
REPRESENTATION_CONTEXT('','3D')
);
#683=(
GEOMETRIC_REPRESENTATION_CONTEXT(3)
GLOBAL_UNCERTAINTY_ASSIGNED_CONTEXT((#681))
GLOBAL_UNIT_ASSIGNED_CONTEXT((#684,#686,#687))
REPRESENTATION_CONTEXT('','3D')
);
#684=(
LENGTH_UNIT()
NAMED_UNIT(*)
SI_UNIT(.MILLI.,.METRE.)
);
#685=(
LENGTH_UNIT()
NAMED_UNIT(*)
SI_UNIT($,.METRE.)
);
#686=(
NAMED_UNIT(*)
PLANE_ANGLE_UNIT()
SI_UNIT($,.RADIAN.)
);
#687=(
NAMED_UNIT(*)
SI_UNIT($,.STERADIAN.)
SOLID_ANGLE_UNIT()
);
#688=SHAPE_DEFINITION_REPRESENTATION(#689,#690);
#689=PRODUCT_DEFINITION_SHAPE('',$,#692);
#690=SHAPE_REPRESENTATION('',(#429),#682);
#691=PRODUCT_DEFINITION_CONTEXT('part definition',#696,'design');
#692=PRODUCT_DEFINITION('2026-10-05-19-30-40-593','Pillar_v001',#693,#691);
#693=PRODUCT_DEFINITION_FORMATION('',$,#698);
#694=PRODUCT_RELATED_PRODUCT_CATEGORY('Pillar_v001','Pillar_v001',(#698));
#695=APPLICATION_PROTOCOL_DEFINITION('international standard',
'automotive_design',2009,#696);
#696=APPLICATION_CONTEXT(
'Core Data for Automotive Mechanical Design Process');
#697=PRODUCT_CONTEXT('part definition',#696,'mechanical');
#698=PRODUCT('2026-10-05-19-30-40-593','Pillar_v001',$,(#697));
#699=PRESENTATION_STYLE_ASSIGNMENT((#701));
#700=PRESENTATION_STYLE_ASSIGNMENT((#702));
#701=SURFACE_STYLE_USAGE(.BOTH.,#703);
#702=SURFACE_STYLE_USAGE(.BOTH.,#704);
#703=SURFACE_SIDE_STYLE('',(#705));
#704=SURFACE_SIDE_STYLE('',(#706));
#705=SURFACE_STYLE_FILL_AREA(#707);
#706=SURFACE_STYLE_FILL_AREA(#708);
#707=FILL_AREA_STYLE('Steel - Satin',(#709));
#708=FILL_AREA_STYLE('Plastic - Matte (Black)',(#710));
#709=FILL_AREA_STYLE_COLOUR('Steel - Satin',#711);
#710=FILL_AREA_STYLE_COLOUR('Plastic - Matte (Black)',#712);
#711=COLOUR_RGB('Steel - Satin',0.627450980392157,0.627450980392157,0.627450980392157);
#712=COLOUR_RGB('Plastic - Matte (Black)',0.0980392156862745,0.0980392156862745,
0.0980392156862745);
ENDSEC;
END-ISO-10303-21;
